<svg xmlns="http://www.w3.org/2000/svg" xmlns:xlink="http://www.w3.org/1999/xlink" viewBox="0 0 842.8 590.7"><defs><style>.cls-1,.cls-11{fill:none;}.cls-2{fill:#a9cfc0;opacity:0.55;}.cls-3{clip-path:url(#clip-path);}.cls-4{fill:#6bd5a4;}.cls-10,.cls-11,.cls-12,.cls-14,.cls-15,.cls-16,.cls-17,.cls-18,.cls-19,.cls-20,.cls-21,.cls-22,.cls-23,.cls-24,.cls-25,.cls-26,.cls-27,.cls-28,.cls-29,.cls-4,.cls-5,.cls-6,.cls-7,.cls-8,.cls-9{stroke:#212741;stroke-miterlimit:10;}.cls-13,.cls-5{fill:#212741;}.cls-6{fill:#9ce3c2;}.cls-7{fill:#80dbb1;}.cls-8{fill:#e7f2eb;}.cls-9{fill:#2b7446;}.cls-10{fill:#a7e6c9;}.cls-12{fill:#fff;}.cls-14{fill:#18bd70;}.cls-15{fill:#70d6a7;}.cls-16{fill:#d2e7da;}.cls-17{fill:#c5e1cf;}.cls-18{fill:#81bd97;}.cls-19{fill:#383838;}.cls-20{fill:#d3e8db;}.cls-21{fill:#c6e1d0;}.cls-22{fill:#b8dac5;}.cls-23{fill:#8dc4a2;}.cls-24{fill:#9bcbad;}.cls-25{fill:#aed5bd;}.cls-26{fill:#d9ebe0;}.cls-27{fill:#cbe4d4;}.cls-28{fill:#1fbf75;}.cls-29{fill:#39c684;}.cls-30{fill:#5bd09a;}</style><clipPath id="clip-path"><path class="cls-1" d="M108.73,520.41c40.16,6.43,120.63,19.2,161.22,21.79,72.21,4.61,217.1,2.25,289.43.37,42.17-1.09,128-6.82,167.27-22.16,50-19.51,156.06-109.67,100.44-189.77-7.54-10.85-16.11-19.35-25.3-24.36-55.9-30.43,32.86-135.71-53.24-169.87C692.33,114.1,616.14,139,578.92,91,535.19,34.56,462.55-34.13,327.26,19.25,222.92,60.41,279.6,139.77,108.85,163.67,21.06,176,38,281.08,46.21,302.8c7.13,18.92,54.3,48.93-11.26,90.25-55.57,35-34.77,71.75-6.88,96.72C50.22,509.6,87.43,517,108.73,520.41Z"/></clipPath></defs><g id="Layer_2" data-name="Layer 2"><g id="Layer_1-2" data-name="Layer 1"><path class="cls-2" d="M108.73,520.41c40.16,6.43,120.63,19.2,161.22,21.79,72.21,4.61,217.1,2.25,289.43.37,42.17-1.09,128-6.82,167.27-22.16,50-19.51,156.06-109.67,100.44-189.77-7.54-10.85-16.11-19.35-25.3-24.36-55.9-30.43,32.86-135.71-53.24-169.87C692.33,114.1,616.14,139,578.92,91,535.19,34.56,462.55-34.13,327.26,19.25,222.92,60.41,279.6,139.77,108.85,163.67,21.06,176,38,281.08,46.21,302.8c7.13,18.92,54.3,48.93-11.26,90.25-55.57,35-34.77,71.75-6.88,96.72C50.22,509.6,87.43,517,108.73,520.41Z"/><g class="cls-3"><path class="cls-4" d="M454.27,250.14a17.46,17.46,0,0,0-9.53-10.37L399.59,220l-25.49,6.6L348.61,220l-45.14,19.73a17.44,17.44,0,0,0-9.54,10.37l-30.61,90.19,35.33,8.05V450.33H449.56V348.38l35.32-8.05Z"/><path class="cls-5" d="M303.64,329.73a95.37,95.37,0,0,0,5.38-19,115.78,115.78,0,0,0-.82-44.72,94.41,94.41,0,0,0-6.06-18.74c1.28,11.58,2.88,26.33,3.11,41.16S304.5,318.12,303.64,329.73Z"/><path class="cls-5" d="M444.56,329.73a96.07,96.07,0,0,1-5.37-19,116,116,0,0,1,.81-44.72,95.06,95.06,0,0,1,6.06-18.74c-1.28,11.58-2.88,26.33-3.11,41.16S443.71,318.12,444.56,329.73Z"/><polygon class="cls-5" points="374.1 226.64 374.1 288.53 367.28 248.1 374.1 226.64"/><circle class="cls-6" cx="381.82" cy="256.49" r="3.24"/><circle class="cls-6" cx="381.82" cy="277.56" r="3.24"/><path class="cls-7" d="M354.82,214.9,348.61,220c4.7,16.44,18.67,28.06,18.67,28.06l6.82-21.46Z"/><path class="cls-7" d="M392,213.9l7.55,6.14c-4.7,16.44-18.67,28.06-18.67,28.06l-6.82-21.46Z"/><path class="cls-5" d="M430.18,332.18a207.36,207.36,0,0,1-26.94-.38,182.5,182.5,0,0,1-58.8-14.74,209.92,209.92,0,0,1-23.93-12.38,124,124,0,0,0,22.73,14.93,136.58,136.58,0,0,0,59.86,15A123.12,123.12,0,0,0,430.18,332.18Z"/><path class="cls-5" d="M427.62,306.51a132.78,132.78,0,0,1-14.15,6.64,102.21,102.21,0,0,1-34,7.17,131.12,131.12,0,0,1-15.63-.36,52.89,52.89,0,0,0,15.55,3.72,62.43,62.43,0,0,0,35.5-7.49A53.49,53.49,0,0,0,427.62,306.51Z"/><polygon class="cls-8" points="354.82 198.13 354.82 214.9 374.1 226.64 392.04 213.9 392.04 198.13 354.82 198.13"/><path class="cls-5" d="M385.09,210a55,55,0,0,0,7-3.7v-8.16H354.82v9a28.56,28.56,0,0,0,30.27,2.9Z"/><circle class="cls-8" cx="326.14" cy="174.51" r="13.21" transform="translate(101.05 468.04) rotate(-80.67)"/><path class="cls-8" d="M334.63,174.51a8.49,8.49,0,1,1-8.49-8.48A8.49,8.49,0,0,1,334.63,174.51Z"/><circle class="cls-8" cx="416.41" cy="174.51" r="13.21" transform="translate(16.66 384.4) rotate(-50.44)"/><path class="cls-8" d="M407.92,174.51a8.49,8.49,0,1,0,8.49-8.48A8.49,8.49,0,0,0,407.92,174.51Z"/><path class="cls-9" d="M333.18,174.53A22.05,22.05,0,0,1,319,150.89a17.89,17.89,0,0,1-9.12-14.29,17.48,17.48,0,0,1,7.33-15.06c-6.63-6.08-8-17.54-3.67-25.44a21,21,0,0,1,23-10,30.62,30.62,0,0,1,55.46-4.49c7.58-2.1,16.36-.22,21.49,5.75a21.35,21.35,0,0,1,3.21,22.14c7.27,1.91,13.86,8.3,15.35,15.67a20.7,20.7,0,0,1-7.51,20c-.38,8.77-1.91,18.45-8.24,24.53-3.71,3.56-8.7,5.43-13.63,6.86C380.45,183,354.82,182.5,333.18,174.53Z"/><path class="cls-8" d="M382.59,113.91a26.66,26.66,0,0,1-16.28,10.22c-6.45,1.22-13-.61-18.59-4.09a24.41,24.41,0,0,1-4.15,15,25,25,0,0,1-12.65,9.45v20.12A40.36,40.36,0,0,0,371.27,205h0a40.36,40.36,0,0,0,40.36-40.36V144.53a41,41,0,0,0-.76-7.81,7,7,0,0,1-.9-.14A39.52,39.52,0,0,1,382.59,113.91Z"/><path class="cls-9" d="M351.8,139a12.9,12.9,0,0,0-9.16,6.93l20.21-3.81A12.9,12.9,0,0,0,351.8,139Z"/><path class="cls-9" d="M355.73,153.11a3,3,0,1,1-3-3A3,3,0,0,1,355.73,153.11Z"/><path class="cls-9" d="M390.75,139a12.92,12.92,0,0,1,9.16,6.93l-20.21-3.81A12.88,12.88,0,0,1,390.75,139Z"/><path class="cls-9" d="M386.81,153.11a3,3,0,1,0,3-3A3,3,0,0,0,386.81,153.11Z"/><path class="cls-5" d="M349.27,126.09c5.4,3.18,12,4.55,18,2.84a23.59,23.59,0,0,0,14.23-11.53c2.14,7.84,8.22,15.85,15.38,19.7a30.31,30.31,0,0,0,14.54,3.56c-.13-1.33-.32-2.65-.57-3.94a7,7,0,0,1-.9-.14,39.52,39.52,0,0,1-27.38-22.67,26.66,26.66,0,0,1-16.28,10.22c-6.45,1.22-13-.61-18.59-4.09a24.41,24.41,0,0,1-4.15,15,25,25,0,0,1-12.65,9.45v4.91A36.61,36.61,0,0,0,349.27,126.09Z"/><path class="cls-10" d="M338.2,195.54c8.83,7.19,20.63,11.2,32.91,11.2h0a52.62,52.62,0,0,0,32.06-10.52,20.94,20.94,0,0,0,8.54-15.89l.44-16.27a136.81,136.81,0,0,1-81.93,2l-.5,14.95a21,21,0,0,0,8,14.09Z"/><polygon class="cls-11" points="330.14 168.47 330.22 166.08 330.14 168.47 330.14 168.47"/><path class="cls-12" d="M330.22,160.46v5.62a136.81,136.81,0,0,0,81.93-2l.15-5.68A136.75,136.75,0,0,1,330.22,160.46Z"/><path class="cls-5" d="M403.06,176.65c-4.51,1-9.63,2.07-15.11,2.84a134,134,0,0,1-17.13,1.33,135.33,135.33,0,0,1-17.16-.94c-5.5-.65-10.64-1.6-15.18-2.51a59.59,59.59,0,0,0,14.57,5.75,69.91,69.91,0,0,0,35.57-.4A59.07,59.07,0,0,0,403.06,176.65Z"/><path class="cls-5" d="M396.15,187.42c-3.55.79-7.57,1.63-11.88,2.23a106.66,106.66,0,0,1-13.46,1,104.26,104.26,0,0,1-13.49-.75c-4.31-.5-8.36-1.25-11.92-2a45.88,45.88,0,0,0,11.45,4.52,55,55,0,0,0,27.95-.31A46.64,46.64,0,0,0,396.15,187.42Z"/><path class="cls-13" d="M342.12,92.8a12.47,12.47,0,0,0-4.58,5.32,13.52,13.52,0,0,0,2.66,15.4,12.53,12.53,0,0,0,6.1,3.48,17.39,17.39,0,0,1-5-4.44,14.86,14.86,0,0,1-2.41-13.9A17.31,17.31,0,0,1,342.12,92.8Z"/><path class="cls-13" d="M413.48,124.81a36.55,36.55,0,0,1-22.76-17.23,20.21,20.21,0,0,0,2.83,6.53,24,24,0,0,0,12.87,9.75A20.33,20.33,0,0,0,413.48,124.81Z"/><path class="cls-13" d="M410.15,117.31a27.26,27.26,0,0,1-7.54-6.2,11.37,11.37,0,0,0,7.54,6.2Z"/><path class="cls-13" d="M325.59,140.68a25.69,25.69,0,0,0,16.08-21,48.09,48.09,0,0,1-16.08,21Z"/><path class="cls-13" d="M324.44,129a10.78,10.78,0,0,0,3.84-2.2,10.9,10.9,0,0,0,2.7-3.51,40.56,40.56,0,0,1-3.08,3.07A39.55,39.55,0,0,1,324.44,129Z"/><path class="cls-13" d="M380,108.4a15.58,15.58,0,0,0,3.5-7.53,16.85,16.85,0,0,0-7.25-17.06,15.4,15.4,0,0,0-7.85-2.7,22.09,22.09,0,0,1,6.8,4.08,18.89,18.89,0,0,1,6.58,15.49A22.37,22.37,0,0,1,380,108.4Z"/><path class="cls-13" d="M397.48,92.22a12.88,12.88,0,0,0-1.24-5.3,13.83,13.83,0,0,0-9.52-7.66,13,13,0,0,0-5.44-.07,16.59,16.59,0,0,1,16.2,13Z"/><path class="cls-9" d="M334.5,545.72a132.58,132.58,0,0,1-.23-15.58c-26.58.91-55.39.81-81.54-4,.05,4.8-.06,9.59-.3,14.38A102.7,102.7,0,0,0,334.5,545.72Z"/><path class="cls-14" d="M252.43,540.49a243.94,243.94,0,0,1-3.83,32.9c28.14,14.22,62.74,16.55,91.84,4.42a147.27,147.27,0,0,1-5.94-32.09A102.7,102.7,0,0,1,252.43,540.49Z"/><path class="cls-15" d="M342,396.5l-47-14.9h-3l-47.05,14.9,6.32,67.57-1.11,68.75h0a126.82,126.82,0,0,0,86.72,0h0l-1.12-68.75Z"/><path class="cls-5" d="M245.75,405.85l2.7,5a65.92,65.92,0,0,1,7.94,31.37v29.14a12.51,12.51,0,0,0,3.94,9.11l6,5.63v12.09l57.13,24.59v9.62H321a62.13,62.13,0,0,1-18.7-2.88l-51.85-16.35.79-49.08Z"/><path class="cls-5" d="M312.77,393.17a31.7,31.7,0,0,1-8.59,5.82,27.06,27.06,0,0,1-22.19.42,32.1,32.1,0,0,1-8.8-5.48,21.63,21.63,0,0,0,7.8,7.51,23.42,23.42,0,0,0,24.27-.46A21.44,21.44,0,0,0,312.77,393.17Z"/><path class="cls-5" d="M323.11,448.37A154.61,154.61,0,0,1,306,443.8a119.67,119.67,0,0,1-34.91-18.32A157.51,157.51,0,0,1,257.57,414a60.94,60.94,0,0,0,11,14.4A72.15,72.15,0,0,0,305,447.49,61,61,0,0,0,323.11,448.37Z"/><path class="cls-5" d="M329.06,436.07a133.19,133.19,0,0,1-45.34-5.94,54.15,54.15,0,0,0,45.34,5.94Z"/><path class="cls-5" d="M327,479.16A125.08,125.08,0,0,1,271.28,469a52.61,52.61,0,0,0,11.63,7.31,62,62,0,0,0,30.68,5.58A51.9,51.9,0,0,0,327,479.16Z"/><path class="cls-5" d="M329.11,526.83c-9.73.44-22.13,1.13-34.55.9s-24.79-1.27-34.49-2c9,3.76,21.62,6.48,34.42,6.66S320,530.3,329.11,526.83Z"/><path class="cls-16" d="M278.19,374.37V388a6.69,6.69,0,0,0,3.11,5.66l1.1.7a21.14,21.14,0,0,0,23.44-.5h0a6.74,6.74,0,0,0,2.87-5.51V373Z"/><path class="cls-9" d="M288.44,388.8a28.58,28.58,0,0,0,15.33-5.48,33.09,33.09,0,0,0,4.94-4.52V373l-30.52,1.35v13.09A28.5,28.5,0,0,0,288.44,388.8Z"/><circle class="cls-16" cx="333.27" cy="341.94" r="10.65" transform="translate(-116.48 502.31) rotate(-65.36)"/><path class="cls-17" d="M326.69,343.06a6.67,6.67,0,1,0,5.45-7.69A6.67,6.67,0,0,0,326.69,343.06Z"/><circle class="cls-16" cx="240.04" cy="357.89" r="10.65" transform="translate(-15.46 10.87) rotate(-2.51)"/><path class="cls-17" d="M246.62,356.77a6.67,6.67,0,1,1-7.7-5.45A6.67,6.67,0,0,1,246.62,356.77Z"/><path class="cls-18" d="M249,361.09c-9-5.18-15-14.59-17.48-24.58-3.61-14.26-.36-30.36,9.54-41.41s26.48-16.18,40.6-11.52c8.42-7.57,23.77-7.86,33.06-1.44,8.46,5.86,12.41,16.13,15.32,25.94,1.78,6,3.35,12.07,3.58,18.3s-1,12.66-4.38,17.93c-3.13,4.83-7.95,8.42-13.14,11a97,97,0,0,1-16.38,5.76c-11.24,3.23-22.87,6.48-34.46,5C260.24,365.43,253.29,363.59,249,361.09Z"/><path class="cls-5" d="M285,300a122,122,0,0,1-9.13,9.58,94.8,94.8,0,0,1-11.54,9.22A96.59,96.59,0,0,1,251.47,326a121.4,121.4,0,0,1-12.3,4.87,46,46,0,0,0,13.33-2.23,54.49,54.49,0,0,0,25.44-17.16A46.26,46.26,0,0,0,285,300Z"/><path class="cls-5" d="M253.48,304a37.11,37.11,0,0,0,28.44-6.19,123.17,123.17,0,0,1-14,4.09A124.7,124.7,0,0,1,253.48,304Z"/><path class="cls-19" d="M317.25,308a40.28,40.28,0,0,1-26.17-7.35A23.89,23.89,0,0,0,317.25,308Z"/><path class="cls-5" d="M312.55,297.35a61,61,0,0,1-10.38.66,61.7,61.7,0,0,1-10.32-1.32,23.62,23.62,0,0,0,20.7.66Z"/><path class="cls-8" d="M287.68,309.77a80.75,80.75,0,0,1-45,29.59c.1,1.25.24,2.5.46,3.77l.75,4.36a41.74,41.74,0,0,0,48.19,34.11h0a41.75,41.75,0,0,0,34.1-48.19l-.74-4.37a41.93,41.93,0,0,0-2.63-9A51.2,51.2,0,0,1,287.68,309.77Z"/><path class="cls-12" d="M287.56,349.76c-13.57,2.32-29.61,3-35.28,1.4l-.2,4.95c6.44,1.38,22.53.51,36.25-1.84s29.19-6.88,34.81-10.32l-1.84-4.61C316.5,342.78,301.14,347.44,287.56,349.76Z"/><path class="cls-10" d="M252.08,356.11l-.07,1.76a20.74,20.74,0,0,0,8.07,17.27,40.55,40.55,0,0,0,31.6,7.86l1.53-.27,1.52-.26a40.53,40.53,0,0,0,27.19-17.91,20.75,20.75,0,0,0,1.87-19l-.65-1.63c-5.62,3.44-21.08,8-34.81,10.32S258.52,357.49,252.08,356.11Z"/><path class="cls-5" d="M313.92,354.12a190.19,190.19,0,0,1-25.44,6.45,190,190,0,0,1-26.14,2.36,63.87,63.87,0,0,0,51.58-8.81Z"/><path class="cls-5" d="M311.16,364.2a121.08,121.08,0,0,1-42.87,7.32,55.78,55.78,0,0,0,42.87-7.32Z"/><path class="cls-5" d="M287.79,312.13A30.51,30.51,0,0,0,307,323.08a29.47,29.47,0,0,0,16.16-2.19c-.12-.29-.22-.59-.34-.87a51.2,51.2,0,0,1-35.13-10.25,80.75,80.75,0,0,1-45,29.59c.1,1.25.24,2.5.46,3.77l.21,1.19a72.35,72.35,0,0,0,25-10.12A53.85,53.85,0,0,0,287.79,312.13Z"/><path class="cls-18" d="M266.1,332.89a12.87,12.87,0,0,0-7.86,8.37l19.28-7.16A12.86,12.86,0,0,0,266.1,332.89Z"/><path class="cls-9" d="M272.12,344.73a3,3,0,1,1-3.46-2.45A3,3,0,0,1,272.12,344.73Z"/><path class="cls-18" d="M300.38,327a12.91,12.91,0,0,1,10.2,5.29L290,332A12.92,12.92,0,0,1,300.38,327Z"/><circle class="cls-9" cx="301.59" cy="339.68" r="2.99" transform="matrix(0.96, -0.28, 0.28, 0.96, -83.11, 98.13)"/><path class="cls-8" d="M250.69,458.61l.3,18.54,52.57,30.63,12.43-5.3a12,12,0,0,1,11.28,1l7.27,4.76a10.16,10.16,0,0,1,4.48,10h0a10.17,10.17,0,0,1-8.54,8.51l-5.92.89a29.31,29.31,0,0,1-11.9-.65L300,523.66l-61.52-23.52a17.44,17.44,0,0,1-11.21-16.83l1-31Z"/><path class="cls-5" d="M250.87,469.73l-.18-11.12-22.47-6.27-.29,9.47A39.35,39.35,0,0,0,250.87,469.73Z"/><path class="cls-5" d="M251,477.15l-16.06,7.38,2.65-3.1A13.39,13.39,0,0,1,251,477.15Z"/><path class="cls-15" d="M244.88,396.5h0A16,16,0,0,0,233.47,408l-12.18,47,7.43,3.51a58.41,58.41,0,0,0,22.48,5.54h0l.7-41.34a46.55,46.55,0,0,0-4.28-20.29Z"/><path class="cls-14" d="M531.94,517.93c-24.63,4.29-51.36.5-71.94-13.37-3.58,19.26-6.68,38.89-5.27,58.13,49.09,4.58,99.54-2.29,146.55-17.14a120.63,120.63,0,0,0-2.73-56.65C578.26,502.62,556,513.75,531.94,517.93Z"/><path class="cls-5" d="M531.94,517.93c24-4.18,46.32-15.31,66.61-29q-1.72-5.92-4-11.68L463.21,487.51c-1,5.64-2.15,11.33-3.21,17.05C480.58,518.43,507.31,522.22,531.94,517.93Z"/><path class="cls-18" d="M578.73,310.7a186.87,186.87,0,0,1-11.31-86c1.12-10.65,3.16-21.25,3.14-32s-2.29-21.84-8.9-30.27-19.17-15.32-29.37-12c-8.87-7.32-21.4-9.52-32.59-6.83s-21,9.91-27.95,19.07A61.65,61.65,0,0,0,459.4,203c.79,14.25,6.5,27.68,10.27,41.44a155.8,155.8,0,0,1,2,74.09C504.72,330.4,547.29,326.46,578.73,310.7Z"/><path class="cls-5" d="M520.49,168.91A106.85,106.85,0,0,1,498,181.51a107.34,107.34,0,0,1-25,6.39,44.83,44.83,0,0,0,12.44.32,53.06,53.06,0,0,0,26.24-10.5A44.76,44.76,0,0,0,520.49,168.91Z"/><path class="cls-5" d="M485.57,165.65A40.82,40.82,0,0,0,524,162.16a84.93,84.93,0,0,1-38.46,3.49Z"/><path class="cls-5" d="M556.72,189.86a71,71,0,0,1-26.55-21.31,35.2,35.2,0,0,0,26.55,21.31Z"/><path class="cls-5" d="M556.44,174.22A59.67,59.67,0,0,1,532.85,164a27.84,27.84,0,0,0,23.59,10.19Z"/><path class="cls-8" d="M467.61,470l-43-44.68a32,32,0,0,1-7.12-32.87L450,300.57a18.65,18.65,0,0,1,11-11.22h0l14.14,39.91L446.21,402.7l30.51,33Z"/><path class="cls-20" d="M448.38,365a44.59,44.59,0,0,0,3.44,23.43l23.28-59.17-7.09-20c-2.51,8.31-6.19,16.28-9.71,24.25C453.83,343.61,449.56,354,448.38,365Z"/><path class="cls-8" d="M532,271.62V252.46H504.14v19.62l-10.9,4.36a30.45,30.45,0,0,0,51.18-.75Z"/><path class="cls-5" d="M532,261.61v-9.15H504.14v11.17a26.3,26.3,0,0,0,27.83-2Z"/><path class="cls-8" d="M584.12,424.43A113.07,113.07,0,0,1,581.56,371l8.18-42.26L582.14,288l-37.72-12.32a30.45,30.45,0,0,1-51.18.75L461,289.35l2.18,24.82a21.49,21.49,0,0,1-.44,6.64l-8.47,37.63a21.66,21.66,0,0,0,6.06,20.29A21.62,21.62,0,0,1,466.82,396l-7.65,97.74h0a191.12,191.12,0,0,0,136.07-11.35l5.23-2.51Z"/><path class="cls-5" d="M576,312.83l-1.45,7.34a63.92,63.92,0,0,0,1.1,29.33L581.56,371l8.18-42.26Z"/><path class="cls-8" d="M582.14,288h0a23.91,23.91,0,0,1,15.94,14.89l31.75,88.46a29.5,29.5,0,0,1-8.52,32.33l-70.7,60.84L535.75,457.7,600.47,398,578.41,337.2a43.49,43.49,0,0,1-2.59-15.69l.31-15.52a31.75,31.75,0,0,1,6-18Z"/><path class="cls-5" d="M538.15,292.33a42.17,42.17,0,0,1-11.3,4.29,35.58,35.58,0,0,1-25.8-3.88,42.33,42.33,0,0,1-9.54-7.43,27.13,27.13,0,0,0,8.1,9.63,29.69,29.69,0,0,0,28,4.21A27,27,0,0,0,538.15,292.33Z"/><path class="cls-5" d="M569.81,370.05a22.67,22.67,0,0,1-9.11,5.58,35.31,35.31,0,0,1-11.62,1.7c-8.18-.1-16.7-2.73-25.61-4.28a70.62,70.62,0,0,0-26.6.44,66.15,66.15,0,0,0-21.52,8.64,87.39,87.39,0,0,1,21.95-6.28,81.5,81.5,0,0,1,25.63.36c8.63,1.49,17.49,4,26.2,3.53a33.63,33.63,0,0,0,12.09-2.8A21.21,21.21,0,0,0,569.81,370.05Z"/><path class="cls-5" d="M557.23,312.9a93.87,93.87,0,0,0-45.05,21.58c6.38-2.9,14.39-7,22.5-10.84S551,316.05,557.23,312.9Z"/><path class="cls-20" d="M537.8,313.1a107.43,107.43,0,0,1-15.49,3.25,96.21,96.21,0,0,1-35.51-1.87,108.23,108.23,0,0,1-15.07-4.87,67.63,67.63,0,0,0,14.63,6.47A74.27,74.27,0,0,0,522.58,318,67.54,67.54,0,0,0,537.8,313.1Z"/><path class="cls-5" d="M555.67,290a58.35,58.35,0,0,1-10.28,8.17,56.62,56.62,0,0,1-28,8.57,58.15,58.15,0,0,1-13.08-1,42,42,0,0,0,13.09,2.41,47.35,47.35,0,0,0,28.79-8.8A42.22,42.22,0,0,0,555.67,290Z"/><path class="cls-5" d="M619.81,407.45c-.43-3.14-3-6.93-6.87-8.88s-8.38-2-11.21-.54a38.77,38.77,0,0,1,18.08,9.42Z"/><path class="cls-20" d="M556,417a179,179,0,0,1-18.91.23,148.43,148.43,0,0,1-41.87-7.88,176.59,176.59,0,0,1-17.52-7.08,96.13,96.13,0,0,0,16.83,8.93,106.23,106.23,0,0,0,42.54,8A95.79,95.79,0,0,0,556,417Z"/><path class="cls-5" d="M571.17,403.41a132.53,132.53,0,0,1-59.63,6.68,85.7,85.7,0,0,0,59.63-6.68Z"/><path class="cls-5" d="M535.75,457.7l46.07-42.49-.77-4.13h0a54,54,0,0,0-26.94,20.27Z"/><path class="cls-5" d="M591.48,449.36l3.06,10.37L593,461a127.62,127.62,0,0,1-35.12,20.68l-7.26,2.83Z"/><circle class="cls-8" cx="475.1" cy="227.88" r="11.67" transform="translate(144.54 638.22) rotate(-76.77)"/><path class="cls-8" d="M482.6,227.88a7.5,7.5,0,1,1-7.5-7.49A7.49,7.49,0,0,1,482.6,227.88Z"/><circle class="cls-8" cx="554.81" cy="227.88" r="11.67" transform="translate(130.98 652.28) rotate(-67.37)"/><circle class="cls-8" cx="554.81" cy="227.88" r="7.49"/><path class="cls-8" d="M526.7,177.37A71.25,71.25,0,0,1,480,196.22a36.13,36.13,0,0,0-.68,6.94v20.57a35.66,35.66,0,1,0,71.32,0V203.16c0-.88,0-1.75-.1-2.61A48.46,48.46,0,0,1,526.7,177.37Z"/><path class="cls-12" d="M515,223.4c-15.09,0-30.29-.67-35.66-5.37v4.48c5.37,4.7,20.57,5.37,35.66,5.37s30.3-.67,35.66-5.37V218C545.25,222.73,530.05,223.4,515,223.4Z"/><path class="cls-10" d="M479.29,222.51v5.28a31.6,31.6,0,0,0,31.61,31.6H519a31.6,31.6,0,0,0,31.6-31.6v-5.28c-5.36,4.7-20.56,5.37-35.66,5.37S484.66,227.21,479.29,222.51Z"/><path class="cls-5" d="M538.46,232.72a116.63,116.63,0,0,1-50.49-.67,47.44,47.44,0,0,0,11.31,4.61A56.35,56.35,0,0,0,527,237,47.74,47.74,0,0,0,538.46,232.72Z"/><path class="cls-5" d="M533.94,241.33a86.37,86.37,0,0,1-41.46-.55,46.86,46.86,0,0,0,41.46.55Z"/><path class="cls-18" d="M497.62,199.77a11.66,11.66,0,0,0-9,5.24l18.57-1.26A11.68,11.68,0,0,0,497.62,199.77Z"/><path class="cls-9" d="M501.09,212.34a3.16,3.16,0,1,1-3.16-3.16A3.15,3.15,0,0,1,501.09,212.34Z"/><path class="cls-18" d="M532.29,199.77a11.66,11.66,0,0,1,9,5.24l-18.57-1.26A11.68,11.68,0,0,1,532.29,199.77Z"/><path class="cls-9" d="M528.82,212.34a3.16,3.16,0,1,0,3.15-3.16A3.15,3.15,0,0,0,528.82,212.34Z"/><path class="cls-5" d="M489.58,199.77a37.27,37.27,0,0,0,12-3.1,70.23,70.23,0,0,0,24.25-16.87c2.62,3.63,4.46,7.89,7,11.55s5.75,7.07,9.82,8.93a17.05,17.05,0,0,0,7.91,1.49c0-.41,0-.82,0-1.22a48.46,48.46,0,0,1-23.81-23.18A71.25,71.25,0,0,1,480,196.22c-.11.58-.21,1.17-.3,1.76A20.29,20.29,0,0,0,489.58,199.77Z"/><path class="cls-14" d="M502.1,565.59c-13.33,1.53-27.29.52-39.73-4.2A76.52,76.52,0,0,1,459,580.85a168.15,168.15,0,0,0,85,6.73,163.27,163.27,0,0,0,1.19-33.29C531.14,559.35,516.89,563.89,502.1,565.59Z"/><path class="cls-9" d="M502.1,565.59c14.79-1.7,29-6.24,43.08-11.3-.31-4.73-.8-9.46-1.53-14.15a293.29,293.29,0,0,1-81.1,6.76c.08,4.78.09,9.65-.18,14.49C474.81,566.11,488.77,567.12,502.1,565.59Z"/><path class="cls-9" d="M447,419.45c-5-4-4.57-11.69-2.65-17.76s5-12.24,3.8-18.5c-1.54-8.19-10-14.55-9.2-22.83.74-7.52,8.76-12.13,11.67-19.11s.33-14.63.5-22.05a30,30,0,0,1,50.45-21.27c7.35-3.67,18.1-3.29,25.34.58a26.3,26.3,0,0,1,13.45,19.54c1,8.27-1.71,17.59,3.07,24.42,3.73,5.32,11.59,8.27,12,14.75.45,6.71-7.61,10.94-9.29,17.45-1.8,6.95,4,13.26,6.9,19.85,4.5,10.39,1.23,23.07-6.23,31.59s-18.44,13.31-29.56,15.44C493.82,446.05,465.64,434.47,447,419.45Z"/><path class="cls-5" d="M498.86,317.41A52.66,52.66,0,0,1,463,325a27.93,27.93,0,0,0,8.74,2.43,32.83,32.83,0,0,0,20.15-4.24A27.78,27.78,0,0,0,498.86,317.41Z"/><path class="cls-5" d="M534.07,328.1A47,47,0,0,1,506,313.63a24.34,24.34,0,0,0,4.57,6.32,28.84,28.84,0,0,0,15.75,8.1A24.33,24.33,0,0,0,534.07,328.1Z"/><path class="cls-5" d="M530.94,309.44a16.59,16.59,0,0,0-4.07-5.43,18.27,18.27,0,0,0-14.65-4.46,16.51,16.51,0,0,0-6.41,2.24,24.66,24.66,0,0,1,25.13,7.65Z"/><path class="cls-5" d="M525.19,317.75A37.5,37.5,0,0,1,506.69,307a20.42,20.42,0,0,0,18.5,10.76Z"/><path class="cls-5" d="M467.45,309.79a27.46,27.46,0,0,0,29.71-2.92,48.55,48.55,0,0,1-29.71,2.92Z"/><path class="cls-5" d="M463,304.45a38,38,0,0,1,7.65-4.1A31.09,31.09,0,0,1,489.51,299a37.45,37.45,0,0,1,8.15,3,21.73,21.73,0,0,0-7.59-4.79,24.16,24.16,0,0,0-20.23,1.41A21.67,21.67,0,0,0,463,304.45Z"/><path class="cls-21" d="M459,400.47l39.78-4.92,49.13,8.27-3.44,89.88,3.44,55.45-15.42,3.07a171.48,171.48,0,0,1-67.67-.1L459,550.93Z"/><path class="cls-21" d="M547.86,403.82h0a11.86,11.86,0,0,1,8.93,6.48l14.34,29-25.3,17.45Z"/><polygon class="cls-22" points="545.83 456.71 546.87 426.11 555.51 450.04 545.83 456.71"/><path class="cls-5" d="M518.05,403a33.6,33.6,0,0,1-7.91,4.21,28,28,0,0,1-19.41.15,32.93,32.93,0,0,1-8-4.08,20.75,20.75,0,0,0,7.21,5.88,22.93,22.93,0,0,0,21-.17A20.8,20.8,0,0,0,518.05,403Z"/><path class="cls-5" d="M470.24,458a56.55,56.55,0,0,0,17.87-2.92,66.89,66.89,0,0,0,33.16-24.23,56.51,56.51,0,0,0,8.21-16.14,128.54,128.54,0,0,1-11.14,13.72,104.9,104.9,0,0,1-31.64,23.12A129.22,129.22,0,0,1,470.24,458Z"/><path class="cls-5" d="M512.84,430.22a105.69,105.69,0,0,1-37.65.22,43.91,43.91,0,0,0,37.65-.22Z"/><path class="cls-23" d="M516,522.78c-1.11,3.39-1.92,7-1.13,10.52s3.53,6.73,7.09,7.09c4,.39,7.53-2.91,8.81-6.68s.83-7.88.36-11.83c-.33-2.72-.19-18.63-5.55-16.53-2.35.93-4.39,5.85-5.53,8A62.62,62.62,0,0,0,516,522.78Z"/><path class="cls-23" d="M568.4,503.35a11.63,11.63,0,0,1,2.56,6.41,5.88,5.88,0,0,1-3.37,5.66c-2.74,1.06-5.72-.67-8-2.47a66,66,0,0,1-7.65-7c-2-2.1-5.57-5.3-6.23-8.18-1.62-7.08,11.85-2.64,14.49-1.3A23,23,0,0,1,568.4,503.35Z"/><path class="cls-23" d="M537.3,541.62A44.56,44.56,0,0,0,532.16,564c.14,3.83.88,7.87,3.42,10.74s7.36,4,10.27,1.48a8.23,8.23,0,0,0,2.46-6.36,38.15,38.15,0,0,0-1.11-6.94,44.6,44.6,0,0,1,.44-19.17C544.73,543.11,540.2,542.26,537.3,541.62Z"/><path class="cls-23" d="M560.45,536.83a12.07,12.07,0,0,1,7.72,9.35c.43,2.86-.2,5.78-.16,8.67s1,6.11,3.56,7.47,5.74.38,7.74-1.61,3-4.78,3.62-7.53a25.16,25.16,0,0,0,.55-9.46,14.63,14.63,0,0,0-4.16-8.39c-3.87-3.67-9.63-4.34-15-4.81C563.2,532.2,561.63,535.15,560.45,536.83Z"/><path class="cls-24" d="M565.74,518.1C569.13,530,563,542.23,552,545.34s-22.58-4-26-16,0-33.67,11-36.78S562.35,506.17,565.74,518.1Z"/><path class="cls-25" d="M546.82,539.36c-6.45,0-12.33-4.86-14.31-11.83-3-10.38.75-26.89,6.38-28.49a3.58,3.58,0,0,1,1-.12c6.17,0,16.71,11.39,19.45,21,2.37,8.36-1.71,16.86-9.09,19A12.48,12.48,0,0,1,546.82,539.36Z"/><circle class="cls-23" cx="501.29" cy="477.22" r="9.45" transform="translate(-190.62 494.24) rotate(-45)"/><path class="cls-25" d="M507.57,477.22a6.28,6.28,0,1,1-6.28-6.28A6.28,6.28,0,0,1,507.57,477.22Z"/><circle class="cls-23" cx="536.29" cy="459.16" r="9.45" transform="translate(-33.49 876.03) rotate(-76.76)"/><path class="cls-25" d="M542.57,459.16a6.28,6.28,0,1,1-6.28-6.28A6.28,6.28,0,0,1,542.57,459.16Z"/><circle class="cls-24" cx="525.5" cy="481.59" r="20.23"/><path class="cls-25" d="M537.8,480.65c2.28,3.38.37,8.66-4.27,11.8S523.28,495.39,521,492s-.38-8.66,4.26-11.79S535.52,477.28,537.8,480.65Z"/><path class="cls-9" d="M530.64,480.55c.88,1.31,0,3.44-1.93,4.76s-4.25,1.33-5.14,0,0-3.44,1.93-4.76S529.75,479.24,530.64,480.55Z"/><path class="cls-9" d="M518.64,480a2.8,2.8,0,1,1-2.79-2.79A2.79,2.79,0,0,1,518.64,480Z"/><path class="cls-9" d="M532.69,472.18a2.8,2.8,0,1,1-2.79-2.8A2.79,2.79,0,0,1,532.69,472.18Z"/><path class="cls-8" d="M547.86,455.31l8.68,22-42.42,32.41-14.7-3.41a9.72,9.72,0,0,0-7.57,1.37l-9,6a7.71,7.71,0,0,0-3.24,8.17h0a7.71,7.71,0,0,0,9.45,5.71l8.45-2.2,13.39,2.81A9.53,9.53,0,0,0,521,523.77h0l51.87-31a16,16,0,0,0,6.77-19.43l-12-31.67Z"/><polygon class="cls-5" points="547.86 455.31 567.64 441.66 568.83 444.78 550.94 463.12 547.86 455.31"/><path class="cls-8" d="M487.22,381.7v15.86a5.78,5.78,0,0,0,2.68,4.88l.94.6A18.2,18.2,0,0,0,511,402.6h0a5.77,5.77,0,0,0,2.47-4.74V380.54Z"/><path class="cls-5" d="M496,394.13a24.62,24.62,0,0,0,13.21-4.72,28,28,0,0,0,4.25-3.89v-5l-26.28,1.16V393A24.43,24.43,0,0,0,496,394.13Z"/><circle class="cls-8" cx="538.65" cy="356.51" r="9.2" transform="translate(-94.33 485.31) rotate(-45)"/><path class="cls-8" d="M532.89,356.66a5.77,5.77,0,1,0,5.62-5.91A5.77,5.77,0,0,0,532.89,356.66Z"/><path class="cls-8" d="M466.14,358.35a9.2,9.2,0,1,1-9.43-9A9.2,9.2,0,0,1,466.14,358.35Z"/><circle class="cls-8" cx="456.94" cy="358.58" r="5.76" transform="translate(-116.99 447.94) rotate(-46.97)"/><path class="cls-8" d="M503.66,323.33a69.68,69.68,0,0,1-42.16,19.72c-.07,1.09-.1,2.18-.08,3.29l.1,3.82a36.08,36.08,0,0,0,37,35.16h0a36.07,36.07,0,0,0,35.15-37l-.09-3.83a36.09,36.09,0,0,0-1.12-8.05A44.18,44.18,0,0,1,503.66,323.33Z"/><path class="cls-12" d="M498.59,357.53c-11.9.3-25.7-1.08-30.35-3.19l-.78,4.21c5.33,2,19.2,3.24,31.23,2.93s25.82-2.26,31.05-4.51l-1-4.16C524.21,355.15,510.49,357.23,498.59,357.53Z"/><path class="cls-10" d="M467.46,358.55l-.28,1.5a17.91,17.91,0,0,0,4.75,15.77A35.07,35.07,0,0,0,498,386.46l1.33,0,1.34,0a35,35,0,0,0,25.48-11.95,17.94,17.94,0,0,0,4-16l-.36-1.48c-5.23,2.25-19,4.21-31.05,4.51S472.79,360.53,467.46,358.55Z"/><path class="cls-5" d="M520.59,364.53a143.22,143.22,0,0,1-45.2,1.13,55.15,55.15,0,0,0,45.2-1.13Z"/><path class="cls-5" d="M517,372.81A116.54,116.54,0,0,1,498.24,375a115.13,115.13,0,0,1-18.83-1.24,48.29,48.29,0,0,0,37.57-.93Z"/><path class="cls-17" d="M503.46,325.37a26.37,26.37,0,0,0,15.06,11.75,25.47,25.47,0,0,0,14.09.13c-.06-.26-.11-.53-.17-.79a44.18,44.18,0,0,1-28.78-13.13,69.68,69.68,0,0,1-42.16,19.72c-.07,1.09-.1,2.18-.08,3.29l0,1.05a62.48,62.48,0,0,0,22.68-5.55A46.5,46.5,0,0,0,503.46,325.37Z"/><path class="cls-18" d="M483.11,340a11.11,11.11,0,0,0-8.55,5l17.73-1.27A11.14,11.14,0,0,0,483.11,340Z"/><path class="cls-9" d="M486,351.3a2.59,2.59,0,1,1-2.65-2.51A2.58,2.58,0,0,1,486,351.3Z"/><path class="cls-18" d="M512,339.31a11.14,11.14,0,0,1,8.92,4.34l-17.77.15A11.14,11.14,0,0,1,512,339.31Z"/><path class="cls-9" d="M509.26,350.72a2.58,2.58,0,1,0,2.51-2.65A2.57,2.57,0,0,0,509.26,350.72Z"/></g><path class="cls-26" d="M475.06,397.23a142.89,142.89,0,0,1-76-38.61l-3.78-3.7v27.91a162.28,162.28,0,0,0,54,29.31c1.71.54,3.42,1.06,5.15,1.55v97.19a27.06,27.06,0,0,1-11.52,22,25.83,25.83,0,0,1-3.74,2.2l-43.92,21.1v22.84l52.84-25.38a47.5,47.5,0,0,0,26.92-42.8V397.23Z"/><path class="cls-27" d="M443,532.92a27.06,27.06,0,0,0,11.52-22V413.69c-1.73-.49-3.44-1-5.15-1.55V513.68A31.68,31.68,0,0,1,443,532.92Z"/><path class="cls-28" d="M439.22,535.12a25.83,25.83,0,0,0,3.74-2.2,31.68,31.68,0,0,0,6.37-19.24V412.14a162.28,162.28,0,0,1-54-29.31V556.22Z"/><path class="cls-8" d="M351.38,535.12a25.83,25.83,0,0,1-3.74-2.2,27.06,27.06,0,0,1-11.52-22V413.69c1.73-.49,3.44-1,5.15-1.55a162.08,162.08,0,0,0,54-29.31V354.92l-3.78,3.7a142.86,142.86,0,0,1-76,38.61h0V510.88a47.5,47.5,0,0,0,26.92,42.8l52.84,25.38V556.22Z"/><path class="cls-26" d="M341.27,412.14c-1.71.54-3.42,1.06-5.15,1.55v97.19a27.06,27.06,0,0,0,11.52,22,31.68,31.68,0,0,1-6.37-19.24Z"/><path class="cls-29" d="M341.27,513.68a31.68,31.68,0,0,0,6.37,19.24,25.83,25.83,0,0,0,3.74,2.2l43.92,21.1V382.83a162.08,162.08,0,0,1-54,29.31Z"/><path class="cls-30" d="M358,434.11h0a8.72,8.72,0,0,1-8.72-8.72h0a8.73,8.73,0,0,1,8.72-8.72h0a8.72,8.72,0,0,1,8.72,8.72h0A8.71,8.71,0,0,1,358,434.11Z"/><path class="cls-30" d="M358,492.15h0a8.73,8.73,0,0,1-8.72-8.72V450.55a8.73,8.73,0,0,1,8.72-8.72h0a8.72,8.72,0,0,1,8.72,8.72v32.88A8.72,8.72,0,0,1,358,492.15Z"/></g></g></svg>