<svg xmlns="http://www.w3.org/2000/svg" viewBox="0 0 188.28 231.58"><defs><style>.cls-1{fill:#333;}.cls-2{fill:#27bf85;stroke:#4c7e62;stroke-miterlimit:10;}</style></defs><g id="Layer_2" data-name="Layer 2"><g id="Layer_1-2" data-name="Layer 1"><path class="cls-1" d="M125.75,222q-20.53,0-34-7.59a49.64,49.64,0,0,1-20.43-21.21q-6.91-13.62-7.59-31.7-.22-9.15-.22-19.64t.22-20.09q.68-18.09,7.59-31.7A49.64,49.64,0,0,1,91.71,68.87q13.5-7.59,34-7.59,15.41,0,27,4.24a56.52,56.52,0,0,1,19.31,11.39,50,50,0,0,1,11.72,16,49.17,49.17,0,0,1,4.46,18.19,3.76,3.76,0,0,1-1.22,3.35,4.94,4.94,0,0,1-3.46,1.34H171.29a5.46,5.46,0,0,1-3.46-1.12,6.77,6.77,0,0,1-2.12-4q-3.79-17.4-14.18-23.88t-25.78-6.48q-18.07,0-28.57,10.16T86,122.89q-.66,18.31,0,37.5.67,22.34,11.17,32.48T125.75,203q15.41,0,25.78-6.47t14.18-23.89a6.84,6.84,0,0,1,2.12-4,5.51,5.51,0,0,1,3.46-1.11h12.28a5.22,5.22,0,0,1,3.46,1.22,3.5,3.5,0,0,1,1.22,3.24,49.83,49.83,0,0,1-16.18,34.38,56.35,56.35,0,0,1-19.31,11.38Q141.15,222,125.75,222Z"/><path class="cls-2" d="M177.37,56.77c-1.39,1.35-3.27,3.26-5,5.26a8.68,8.68,0,0,1-3.78,2.56,68.33,68.33,0,0,0-15.69-8q-13-4.73-30.17-4.74-22.92,0-38,8.48A55.48,55.48,0,0,0,61.92,84c-5.16,10.15-9.72,22.52-10.22,36-.17,7.15-.34,14.38-.34,22.19s.17,15.37.34,22.19c.5,13.46,5.06,24.68,10.22,34.81a55.2,55.2,0,0,0,20,22,23.68,23.68,0,0,0,0,6.62,2.81,2.81,0,0,1-3.74,3,49,49,0,0,1-27.8-27c-2.27-2.66-3.51-2.78-6.41-1.07-6.43,3.81-4.32,2.15-7.67,9.22-3.82,8.06-11.67,11.39-19.91,9.61A20,20,0,0,1,1.09,204.49c-1-7.91,3.69-16.26,11.19-19.73A17.12,17.12,0,0,1,21,183.57c7.79.59,10.65.35,16.8-3.71,1.85-1.23,1.73-10.53,1.17-12-1.56-15.86-1.65-39.37,0-54.54.34-3-1.45-2.92-3.21-3.25-7.08-1.35-14.17-1.1-21.28-.77a13.42,13.42,0,0,1-13.27-9,14.26,14.26,0,0,1,4-15.26c4.48-4,10.27-4.41,16.16-.75a107,107,0,0,0,18.42,9.35c2.59,1,3.64.52,4.66-2.18,5-13.18,10.26-24,20.73-33.06,2.44-2.12,2.44-3.71.9-6.41-3.84-6.68-8.58-11.94-15.55-15.52-8.48-4.37-11.87-14.84-8.71-23.81A18.24,18.24,0,0,1,62.5.83,19,19,0,0,1,78,20.18c-.37,8.44,3.07,15.18,7.19,22,1.35,2.22,2.85,1.89,4.66,1.13,13.2-5.61,40-4.54,54.25-2.76,2.77.35,3.46.65,3.78-1.76a101.75,101.75,0,0,0,.54-20.87c-.5-7.32,2.68-12.91,8.43-15.09a13.87,13.87,0,0,1,15,4.17c4.23,5,4.62,11.23.82,17.53a86.8,86.8,0,0,0-8.33,18.38c-.84,2.61-.34,3.92,2.3,5a93.46,93.46,0,0,1,10.25,5.42A2.23,2.23,0,0,1,177.37,56.77Z"/></g></g></svg>