<svg xmlns="http://www.w3.org/2000/svg" viewBox="0 0 683.03 506.45"><defs><style>.cls-1{opacity:0.55;}.cls-2{fill:#a9cfc0;opacity:0.47;}.cls-3,.cls-6{opacity:0.66;}.cls-18,.cls-19,.cls-25,.cls-4,.cls-6{fill:#fff;}.cls-10,.cls-11,.cls-12,.cls-13,.cls-14,.cls-15,.cls-16,.cls-18,.cls-19,.cls-20,.cls-21,.cls-22,.cls-23,.cls-24,.cls-25,.cls-4,.cls-6,.cls-7,.cls-8,.cls-9{stroke:#212741;stroke-miterlimit:10;}.cls-5{opacity:0.81;}.cls-12,.cls-15,.cls-20,.cls-23,.cls-7{fill:#3e9b73;}.cls-7{opacity:0.14;}.cls-8,.cls-9{fill:#a9b5f6;}.cls-14,.cls-15,.cls-9{opacity:0.39;}.cls-10{fill:#59f2a8;}.cls-11{fill:#e9fdf4;opacity:0.07;}.cls-13,.cls-14{fill:#79d8a9;}.cls-13{opacity:0.74;}.cls-16{fill:#6cd4a0;}.cls-17{opacity:0.28;}.cls-18{opacity:0.21;}.cls-19{opacity:0.76;}.cls-20{opacity:0.58;}.cls-21{fill:none;}.cls-22{fill:#80ceb0;}.cls-23{opacity:0.43;}.cls-24{fill:#8394f2;}.cls-25{opacity:0.12;}</style></defs><g id="Layer_2" data-name="Layer 2"><g id="Layer_1-2" data-name="Layer 1"><g class="cls-1"><path class="cls-2" d="M13,110.37A145.32,145.32,0,0,0,2.93,199.58c7.17,35,29,61.87,21.4,99.19-4.61,22.74-5.76,43.8-8.09,66.29-4.8,46.2,25.19,86.9,62.4,108.88C108.86,491.79,144.29,498.48,179,498c31.27-.43,62.48-6.21,92.78-14,29.21-7.48,57.76-17.34,88.36-14.23,25.46,2.59,48.39,13.59,72.09,21.8,56.6,19.59,125.16,22.35,176.92-7.47A147.43,147.43,0,0,0,676,400.49c8.24-26.71,9.28-51.69,3.1-79-6.34-28-17-56.21-13.72-85.39,2.32-20.32,11.62-39.94,9.91-60.33-1.13-13.55-7.09-26.26-14.39-37.73C634.23,96.19,589.64,68.15,542.47,52.7c-44.39-14.55-90.18-25.08-136.39-21.58-95.56,7.24-115-7.94-212.69-28.83-63-13.48-133.57,34.59-170.46,90.27A132,132,0,0,0,13,110.37Z"/></g><g class="cls-1"><path class="cls-2" d="M13,110.37A145.32,145.32,0,0,0,2.93,199.58c7.17,35,29,61.87,21.4,99.19-4.61,22.74-5.76,43.8-8.09,66.29-4.8,46.2,25.19,86.9,62.4,108.88C108.86,491.79,144.29,498.48,179,498c31.27-.43,62.48-6.21,92.78-14,29.21-7.48,57.76-17.34,88.36-14.23,25.46,2.59,48.39,13.59,72.09,21.8,56.6,19.59,125.16,22.35,176.92-7.47A147.43,147.43,0,0,0,676,400.49c8.24-26.71,9.28-51.69,3.1-79-6.34-28-17-56.21-13.72-85.39,2.32-20.32,11.62-39.94,9.91-60.33-1.13-13.55-7.09-26.26-14.39-37.73C634.23,96.19,589.64,68.15,542.47,52.7c-44.39-14.55-90.18-25.08-136.39-21.58-95.56,7.24-115-7.94-212.69-28.83-63-13.48-133.57,34.59-170.46,90.27A132,132,0,0,0,13,110.37Z"/></g><g class="cls-1"><path class="cls-2" d="M13,110.37A145.32,145.32,0,0,0,2.93,199.58c7.17,35,29,61.87,21.4,99.19-4.61,22.74-5.76,43.8-8.09,66.29-4.8,46.2,25.19,86.9,62.4,108.88C108.86,491.79,144.29,498.48,179,498c31.27-.43,62.48-6.21,92.78-14,29.21-7.48,57.76-17.34,88.36-14.23,25.46,2.59,48.39,13.59,72.09,21.8,56.6,19.59,125.16,22.35,176.92-7.47A147.43,147.43,0,0,0,676,400.49c8.24-26.71,9.28-51.69,3.1-79-6.34-28-17-56.21-13.72-85.39,2.32-20.32,11.62-39.94,9.91-60.33-1.13-13.55-7.09-26.26-14.39-37.73C634.23,96.19,589.64,68.15,542.47,52.7c-44.39-14.55-90.18-25.08-136.39-21.58-95.56,7.24-115-7.94-212.69-28.83-63-13.48-133.57,34.59-170.46,90.27A132,132,0,0,0,13,110.37Z"/></g><g class="cls-3"><path class="cls-4" d="M239.39,164.79l-10-.76a51.59,51.59,0,0,0-6.85-20.91l7.61-6.53a9.2,9.2,0,0,0-12-14l-7.61,6.53a51.41,51.41,0,0,0-19.63-10l.76-10a9.2,9.2,0,0,0-8.47-9.87h0a9.2,9.2,0,0,0-9.87,8.47l-.76,10a51.54,51.54,0,0,0-20.91,6.85l-6.54-7.61a9.2,9.2,0,0,0-14,12l6.53,7.61a51.53,51.53,0,0,0-9.94,19.63l-10-.76A9.18,9.18,0,0,0,107.9,164h0a9.2,9.2,0,0,0,8.47,9.87l10,.76a51.54,51.54,0,0,0,6.85,20.91l-7.61,6.54a9.2,9.2,0,0,0,12,14l7.61-6.53a51.53,51.53,0,0,0,19.63,9.94l-.77,10a9.2,9.2,0,0,0,8.48,9.87h0a9.2,9.2,0,0,0,9.87-8.47l.76-10A51.59,51.59,0,0,0,204.08,214l6.53,7.61a9.2,9.2,0,0,0,14-12L218,202a51.41,51.41,0,0,0,10-19.63l10,.77a9.21,9.21,0,0,0,9.87-8.48h0A9.2,9.2,0,0,0,239.39,164.79ZM175,206.69a37.48,37.48,0,1,1,40.22-34.52A37.48,37.48,0,0,1,175,206.69Z"/><path class="cls-4" d="M453.07,446.82a7.7,7.7,0,0,1-3.52-.87,7.62,7.62,0,0,1-3.78-4.49L444,435.79a36.87,36.87,0,0,1-13.75-1.19l-2.74,5.28a7.67,7.67,0,0,1-13.61-7.06l2.74-5.28A37,37,0,0,1,407.74,417l-5.67,1.8a7.67,7.67,0,0,1-4.63-14.62l5.67-1.79a36.87,36.87,0,0,1,1.19-13.75L399,385.88a7.67,7.67,0,0,1,7.06-13.61l5.28,2.74a37,37,0,0,1,10.56-8.88l-1.8-5.67a7.67,7.67,0,0,1,14.62-4.63l1.79,5.67a36.87,36.87,0,0,1,13.75,1.19l2.74-5.28a7.67,7.67,0,1,1,13.61,7.06l-2.74,5.28a37,37,0,0,1,8.88,10.56l5.67-1.8a7.67,7.67,0,1,1,4.63,14.62l-5.67,1.79a36.87,36.87,0,0,1-1.19,13.75l5.29,2.74a7.69,7.69,0,0,1,3.27,10.34A7.68,7.68,0,0,1,474.43,425l-5.28-2.74a37,37,0,0,1-10.56,8.88l1.8,5.67a7.67,7.67,0,0,1-5,9.62A7.4,7.4,0,0,1,453.07,446.82ZM445.74,433l2.43,7.66a5.15,5.15,0,0,0,9.48.82,5.08,5.08,0,0,0,.34-3.93l-2.42-7.66.93-.49a34.53,34.53,0,0,0,11.32-9.52l.64-.83,7.13,3.7a5.15,5.15,0,1,0,4.75-9.15l-7.14-3.7.31-1a34.54,34.54,0,0,0,1.28-14.74l-.14-1,7.66-2.43a5.15,5.15,0,0,0,.82-9.48,5.07,5.07,0,0,0-3.93-.34l-7.66,2.43-.49-.93a34.32,34.32,0,0,0-9.52-11.32l-.84-.65,3.71-7.13a5.15,5.15,0,1,0-9.15-4.75l-3.7,7.14-1-.31a34.38,34.38,0,0,0-14.74-1.27l-1,.13-2.43-7.66a5.15,5.15,0,0,0-6.46-3.36,5.16,5.16,0,0,0-3.36,6.47l2.43,7.66-.93.49a34.44,34.44,0,0,0-11.32,9.52l-.64.84-7.14-3.71a5.14,5.14,0,0,0-6.94,2.2,5.15,5.15,0,0,0,2.2,6.95l7.13,3.7-.31,1a34.38,34.38,0,0,0-1.27,14.74l.13,1-7.66,2.43a5.11,5.11,0,0,0-3,2.54,5.15,5.15,0,0,0,6.13,7.28L409,414l.49.94A34.51,34.51,0,0,0,419,426.2l.83.64-3.7,7.14a5.15,5.15,0,0,0,9.15,4.75l3.7-7.14,1,.31a34.32,34.32,0,0,0,14.73,1.27Zm-5.52-7a27.43,27.43,0,1,1,8.3-1.29A27.25,27.25,0,0,1,440.22,426Zm.06-52.24a25.06,25.06,0,0,0-7.53,1.17,24.69,24.69,0,1,0,7.53-1.17Z"/><path class="cls-4" d="M519.06,399.9a9.86,9.86,0,0,1-9.77-11.29l1.2-8.26a49.11,49.11,0,0,1-16.39-9.76l-6.69,5a9.87,9.87,0,0,1-11.81-15.82l6.7-5a49,49,0,0,1-4.69-18.48l-8.27-1.21a9.87,9.87,0,0,1,2.84-19.53l8.27,1.2a49.08,49.08,0,0,1,9.75-16.39l-5-6.69A9.87,9.87,0,0,1,501,281.86l5,6.7a49,49,0,0,1,18.49-4.69l1.2-8.27a9.87,9.87,0,0,1,11.18-8.34,9.87,9.87,0,0,1,8.35,11.18l-1.2,8.27a48.92,48.92,0,0,1,16.39,9.75l6.69-5a9.87,9.87,0,1,1,11.81,15.82l-6.69,5a49.21,49.21,0,0,1,4.69,18.49l8.26,1.2a9.87,9.87,0,1,1-2.84,19.53l-8.26-1.2a49,49,0,0,1-9.76,16.39l5,6.69A9.87,9.87,0,0,1,560,389.05a9.79,9.79,0,0,1-6.49-3.86l-5-6.69A49.16,49.16,0,0,1,530,383.19l-1.21,8.26A9.88,9.88,0,0,1,519.06,399.9Zm-24.78-32.57.76.72a46.86,46.86,0,0,0,17.24,10.26l1,.33L511.78,389a7.36,7.36,0,1,0,14.56,2.12l1.5-10.34,1,0a46.81,46.81,0,0,0,19.45-4.93l.94-.47,6.24,8.37a7.36,7.36,0,0,0,11.79-8.8l-6.24-8.37.72-.77a46.7,46.7,0,0,0,10.26-17.24l.33-1,10.33,1.5a7.36,7.36,0,0,0,2.12-14.56L574.49,333l0-1.05a46.76,46.76,0,0,0-4.93-19.44l-.47-.94,8.36-6.25a7.35,7.35,0,0,0,1.5-10.29,7.37,7.37,0,0,0-10.3-1.5h0l-8.37,6.25-.77-.72a46.59,46.59,0,0,0-17.24-10.27l-1-.33,1.5-10.33A7.36,7.36,0,0,0,528.19,276l-1.5,10.34-1.05,0a46.62,46.62,0,0,0-19.44,4.94l-.94.47L499,283.37a7.36,7.36,0,0,0-11.79,8.8l6.25,8.37-.72.76a46.75,46.75,0,0,0-10.27,17.24l-.33,1L471.82,318a7.36,7.36,0,0,0-2.12,14.56L480,334.1l0,1A46.67,46.67,0,0,0,485,354.6l.47.94-8.37,6.24a7.36,7.36,0,1,0,8.8,11.79Zm33,2.53A36.33,36.33,0,1,1,549,362.65h0A36.15,36.15,0,0,1,527.31,369.86Zm-.11-70.17a33.83,33.83,0,1,0,20.3,60.95h0a33.83,33.83,0,0,0-15.37-60.59A34.28,34.28,0,0,0,527.2,299.69Zm21,62h0Z"/></g><g class="cls-5"><path class="cls-4" d="M356.57,405H330.76a1.26,1.26,0,1,1,0-2.51h25.81a1.26,1.26,0,1,1,0,2.51Z"/><path class="cls-4" d="M356.57,431.8H330.76a1.26,1.26,0,1,1,0-2.52h25.81a1.26,1.26,0,0,1,0,2.52Z"/><path class="cls-4" d="M376.06,458.9H216.62a3.41,3.41,0,0,1-3.4-3.41V372.74a3.41,3.41,0,0,1,3.4-3.41H376.06a3.41,3.41,0,0,1,3.41,3.41v82.75A3.41,3.41,0,0,1,376.06,458.9ZM216.62,371.84a.9.9,0,0,0-.89.9v82.75a.89.89,0,0,0,.89.89H376.06a.89.89,0,0,0,.9-.89V372.74a.9.9,0,0,0-.9-.9Z"/><path class="cls-6" d="M376.06,458.9H216.62a3.41,3.41,0,0,1-3.4-3.41V372.74a3.41,3.41,0,0,1,3.4-3.41H376.06a3.41,3.41,0,0,1,3.41,3.41v82.75A3.41,3.41,0,0,1,376.06,458.9ZM216.62,371.84a.9.9,0,0,0-.89.9v82.75a.89.89,0,0,0,.89.89H376.06a.89.89,0,0,0,.9-.89V372.74a.9.9,0,0,0-.9-.9Z"/><path class="cls-4" d="M356.57,391.94h-123a1.26,1.26,0,1,1,0-2.51h123a1.26,1.26,0,1,1,0,2.51Z"/><path class="cls-4" d="M356.57,418h-123a1.26,1.26,0,1,1,0-2.52h123a1.26,1.26,0,0,1,0,2.52Z"/><path class="cls-4" d="M299.88,405H233.56a1.26,1.26,0,1,1,0-2.51h66.32a1.26,1.26,0,1,1,0,2.51Z"/><path class="cls-4" d="M299.88,431.8H233.56a1.26,1.26,0,0,1,0-2.52h66.32a1.26,1.26,0,0,1,0,2.52Z"/><path class="cls-4" d="M278.28,444.23H233.56a1.26,1.26,0,1,1,0-2.51h44.72a1.26,1.26,0,1,1,0,2.51Z"/></g><g class="cls-5"><path class="cls-4" d="M109.58,324.5h-29a1.26,1.26,0,1,1,0-2.51h29a1.26,1.26,0,0,1,0,2.51Z"/><path class="cls-4" d="M109.58,294.34h-29a1.26,1.26,0,1,1,0-2.51h29a1.26,1.26,0,0,1,0,2.51Z"/><path class="cls-4" d="M238.12,361.73H58.39A3.41,3.41,0,0,1,55,358.32V264.78a3.41,3.41,0,0,1,3.41-3.41H238.12a3.41,3.41,0,0,1,3.41,3.41v93.54A3.41,3.41,0,0,1,238.12,361.73ZM58.39,263.88a.89.89,0,0,0-.89.9v93.54a.89.89,0,0,0,.89.89H238.12a.89.89,0,0,0,.9-.89V264.78a.9.9,0,0,0-.9-.9Z"/><path class="cls-6" d="M238.12,361.73H58.39A3.41,3.41,0,0,1,55,358.32V264.78a3.41,3.41,0,0,1,3.41-3.41H238.12a3.41,3.41,0,0,1,3.41,3.41v93.54A3.41,3.41,0,0,1,238.12,361.73ZM58.39,263.88a.89.89,0,0,0-.89.9v93.54a.89.89,0,0,0,.89.89H238.12a.89.89,0,0,0,.9-.89V264.78a.9.9,0,0,0-.9-.9Z"/><path class="cls-4" d="M218.83,339.14H80.56a1.26,1.26,0,0,1,0-2.52H218.83a1.26,1.26,0,0,1,0,2.52Z"/><path class="cls-4" d="M218.83,309.86H80.56a1.26,1.26,0,1,1,0-2.51H218.83a1.26,1.26,0,0,1,0,2.51Z"/><path class="cls-4" d="M218.83,324.5H144.28a1.26,1.26,0,0,1,0-2.51h74.55a1.26,1.26,0,0,1,0,2.51Z"/><path class="cls-4" d="M218.83,294.34H144.28a1.26,1.26,0,0,1,0-2.51h74.55a1.26,1.26,0,0,1,0,2.51Z"/><path class="cls-4" d="M218.83,280.37H168.55a1.26,1.26,0,0,1,0-2.52h50.28a1.26,1.26,0,0,1,0,2.52Z"/></g><path class="cls-7" d="M447.47,412.51,310,331a2.33,2.33,0,0,1-.82-3.19l111-187.23a2.32,2.32,0,0,1,3.18-.81l137.51,81.53a2.32,2.32,0,0,1,.82,3.18l-111,187.23A2.32,2.32,0,0,1,447.47,412.51Z"/><path class="cls-8" d="M443.89,405l-137.5-81.53a2.33,2.33,0,0,1-.82-3.19l111-187.23a2.32,2.32,0,0,1,3.18-.81l137.51,81.52a2.33,2.33,0,0,1,.82,3.19l-111,187.23A2.33,2.33,0,0,1,443.89,405Z"/><path class="cls-7" d="M483.39,402.71l-157.21-29a2.32,2.32,0,0,1-1.86-2.71l39.45-214a2.33,2.33,0,0,1,2.71-1.87l157.21,29a2.33,2.33,0,0,1,1.87,2.71L486.1,400.85A2.32,2.32,0,0,1,483.39,402.71Z"/><rect class="cls-4" x="310.42" y="190.63" width="222.31" height="164.51" transform="translate(76.79 638.01) rotate(-79.56)"/><path class="cls-9" d="M480,396.69l-157.21-29A2.32,2.32,0,0,1,321,365l39.45-214a2.33,2.33,0,0,1,2.71-1.87l157.21,29a2.33,2.33,0,0,1,1.87,2.71L482.74,394.82A2.32,2.32,0,0,1,480,396.69Z"/><path class="cls-4" d="M498.14,204.24a.91.91,0,0,1-.23,0L458.55,197a1.26,1.26,0,0,1,.46-2.47l39.35,7.25a1.26,1.26,0,0,1-.22,2.5Z"/><path class="cls-4" d="M495.82,216.81l-.23,0-39.35-7.26a1.26,1.26,0,0,1,.45-2.47l39.36,7.25a1.26,1.26,0,0,1-.23,2.5Z"/><path class="cls-4" d="M493.3,230.47l-.23,0-39.35-7.25a1.26,1.26,0,1,1,.46-2.48L493.53,228a1.26,1.26,0,0,1-.23,2.49Z"/><rect class="cls-7" x="366.46" y="160.34" width="78.77" height="73.6" rx="2.52" transform="translate(138.4 560.52) rotate(-79.56)"/><rect class="cls-10" x="367.16" y="159.95" width="74.85" height="70.4" rx="2.52" transform="translate(139.32 557.66) rotate(-79.56)"/><path class="cls-11" d="M444.33,173.69,375.1,160.92l1.21-6.55a2.45,2.45,0,0,1,2.84-2l64.52,11.89a2.37,2.37,0,0,1,1.89,2.75Z"/><path class="cls-12" d="M394.47,195.07a8.32,8.32,0,0,1-1.48-.14l-1-.17a9.41,9.41,0,0,1-7.53-10.94l2.42-13.12a1.89,1.89,0,0,1,3.71.69l-2.42,13.12a5.62,5.62,0,0,0,4.51,6.54l1,.18a4.37,4.37,0,0,0,5.08-3.51l6.12-33.2a4.51,4.51,0,0,0-3.61-5.25l-1.64-.3a4.79,4.79,0,0,0-5.58,3.83l-.15.82a1.88,1.88,0,1,1-3.7-.68l.15-.82a8.55,8.55,0,0,1,10-6.86l1.64.3a8.28,8.28,0,0,1,6.64,9.64l-6.12,33.21A8.15,8.15,0,0,1,394.47,195.07Z"/><path class="cls-4" d="M401,167.19h-.11l-25.12-4.63a.64.64,0,0,1-.51-.74.63.63,0,0,1,.74-.5l25.12,4.63a.63.63,0,0,1,.5.73A.64.64,0,0,1,401,167.19Z"/><path class="cls-4" d="M477.83,297.05l-.23,0L357.35,274.86a1.26,1.26,0,1,1,.46-2.47l120.24,22.17a1.26,1.26,0,0,1-.22,2.49Z"/><path class="cls-4" d="M469.23,343.69a.9.9,0,0,1-.23,0L348.75,321.51a1.26,1.26,0,0,1,.46-2.48L469.46,341.2a1.26,1.26,0,0,1-.23,2.49Z"/><path class="cls-4" d="M410.12,308.68a.93.93,0,0,1-.23,0l-56.84-10.48a1.26,1.26,0,1,1,.46-2.47l56.84,10.48a1.25,1.25,0,0,1-.23,2.49Z"/><path class="cls-4" d="M418,266.19a.86.86,0,0,1-.23,0l-56.85-10.48a1.26,1.26,0,0,1,.46-2.47l56.84,10.48a1.26,1.26,0,0,1-.22,2.49Z"/><path class="cls-4" d="M473.56,320.19l-.23,0-54.16-10a1.27,1.27,0,0,1-1-1.47,1.26,1.26,0,0,1,1.47-1l54.16,10a1.26,1.26,0,0,1-.23,2.49Z"/><rect class="cls-10" x="389.81" y="42.45" width="75.21" height="30.73" rx="4.19"/><rect class="cls-8" x="413.5" y="65.05" width="101.86" height="41.62" rx="4.19"/><rect class="cls-4" x="432.71" y="97.88" width="114.89" height="43.09" rx="5.69"/><rect class="cls-13" x="432.71" y="97.88" width="114.89" height="43.09" rx="5.69"/><path class="cls-4" d="M511.13,124.46a5,5,0,1,1,5-5A5,5,0,0,1,511.13,124.46Zm0-8.72a3.74,3.74,0,1,0,3.74,3.73A3.73,3.73,0,0,0,511.13,115.74Z"/><path class="cls-4" d="M490.54,124.46a5,5,0,1,1,5-5A5,5,0,0,1,490.54,124.46Zm0-8.72a3.74,3.74,0,1,0,3.73,3.73A3.74,3.74,0,0,0,490.54,115.74Z"/><path class="cls-4" d="M471.34,124.46a5,5,0,1,1,5-5A5,5,0,0,1,471.34,124.46Zm0-8.72a3.74,3.74,0,1,0,3.74,3.73A3.73,3.73,0,0,0,471.34,115.74Z"/><path class="cls-4" d="M186.56,45.46H347a5.85,5.85,0,0,1,5.85,5.85V287.57a20.19,20.19,0,0,1-20.18,20.19H221.26a43,43,0,0,1-43-43v-211A8.3,8.3,0,0,1,186.56,45.46Z"/><path class="cls-14" d="M180.3,45.46H349.68a3.13,3.13,0,0,1,3.14,3.13V288.51a19.24,19.24,0,0,1-19.24,19.25H217.44a39.19,39.19,0,0,1-39.18-39.19V47.5A2,2,0,0,1,180.3,45.46Z"/><path class="cls-15" d="M195.15,45.46H350.34a2.48,2.48,0,0,1,2.48,2.48V289.17a18.59,18.59,0,0,1-18.59,18.59H232.29a38.53,38.53,0,0,1-38.53-38.53V46.84A1.38,1.38,0,0,1,195.15,45.46Z"/><path class="cls-16" d="M218.12,307.71v.05H358.33a29.22,29.22,0,0,0,29.22-29.22v-11.1H245.76v11.1A29.22,29.22,0,0,1,218.12,307.71Z"/><g class="cls-17"><path class="cls-12" d="M236.71,307.71v.05H361.54c14.36,0,26-13.09,26-29.22v-11.1H261.31v11.1C261.31,294.14,250.42,306.89,236.71,307.71Z"/></g><path class="cls-4" d="M326.32,237.2H225.51a1.26,1.26,0,0,1,0-2.51H326.32a1.26,1.26,0,1,1,0,2.51Z"/><path class="cls-4" d="M328.44,194.76H223.63a1.26,1.26,0,0,1,0-2.52H328.44a1.26,1.26,0,1,1,0,2.52Z"/><path class="cls-4" d="M275.92,216H222.36a1.26,1.26,0,0,1,0-2.51h53.56a1.26,1.26,0,1,1,0,2.51Z"/><path class="cls-4" d="M271.86,216H226.42a1.26,1.26,0,1,1,0-2.51h45.44a1.26,1.26,0,1,1,0,2.51Z"/><path class="cls-4" d="M293.35,149.37h-69a1.26,1.26,0,1,1,0-2.51h69a1.26,1.26,0,1,1,0,2.51Z"/><path class="cls-4" d="M325.34,149.37h-21a1.26,1.26,0,1,1,0-2.51h21a1.26,1.26,0,0,1,0,2.51Z"/><path class="cls-4" d="M328.44,170.58H253.73a1.26,1.26,0,1,1,0-2.52h74.71a1.26,1.26,0,1,1,0,2.52Z"/><path class="cls-4" d="M246.35,170.58H223.63a1.26,1.26,0,1,1,0-2.52h22.72a1.26,1.26,0,1,1,0,2.52Z"/><path class="cls-4" d="M326.32,131.42H225.51a1.26,1.26,0,0,1,0-2.52H326.32a1.26,1.26,0,0,1,0,2.52Z"/><path class="cls-4" d="M326.32,89H225.51a1.26,1.26,0,0,1,0-2.51H326.32a1.26,1.26,0,1,1,0,2.51Z"/><path class="cls-4" d="M262.51,110.18H224.36a1.26,1.26,0,0,1,0-2.52h38.15a1.26,1.26,0,0,1,0,2.52Z"/><path class="cls-4" d="M325.56,110.18H280.12a1.26,1.26,0,1,1,0-2.52h45.44a1.26,1.26,0,0,1,0,2.52Z"/><circle class="cls-18" cx="404.88" cy="200.79" r="79.54" transform="translate(-23.39 345.1) rotate(-45)"/><path class="cls-19" d="M342.55,206.5a5,5,0,0,1-5-5,72.85,72.85,0,0,1,72.77-72.77,5,5,0,1,1,0,10,62.79,62.79,0,0,0-62.72,62.72A5,5,0,0,1,342.55,206.5Z"/><path class="cls-20" d="M404.88,282.84a82.06,82.06,0,1,1,82.05-82A82.15,82.15,0,0,1,404.88,282.84Zm0-159.08a77,77,0,1,0,77,77A77.11,77.11,0,0,0,404.88,123.76Z"/><circle class="cls-21" cx="404.88" cy="200.79" r="79.54"/><path class="cls-12" d="M478,257.78a2.76,2.76,0,0,1,.37-.31,93,93,0,1,0-17,16.94l10.74-10.74Zm-73.11,22.55a79.54,79.54,0,1,1,79.54-79.54A79.54,79.54,0,0,1,404.88,280.33Z"/><path class="cls-12" d="M404.88,294.86A94.08,94.08,0,1,1,499,200.79a93.17,93.17,0,0,1-19.59,57.45l-.24.23a2.49,2.49,0,0,0-.24.19L462.12,275.4A93.17,93.17,0,0,1,404.88,294.86Zm0-185.64a91.57,91.57,0,1,0,0,183.13,90.65,90.65,0,0,0,55.64-18.89l16.58-16.57a3.68,3.68,0,0,1,.37-.32,90.69,90.69,0,0,0,19-55.78A91.67,91.67,0,0,0,404.88,109.22Zm0,172.36a80.8,80.8,0,1,1,80.79-80.79A80.88,80.88,0,0,1,404.88,281.58Zm0-159.08a78.29,78.29,0,1,0,78.28,78.29A78.38,78.38,0,0,0,404.88,122.5Z"/><path class="cls-22" d="M475.69,272.29l-3.6-3.6a3.54,3.54,0,0,1,0-5l-10.74,10.74-.17.17a3.54,3.54,0,0,0,0,5l4.37,4.37C467,281.56,471.2,276.83,475.69,272.29Z"/><path class="cls-22" d="M472.09,263.67a3.54,3.54,0,0,0,0,5l3.6,3.6A98.89,98.89,0,0,1,487.19,262L483,257.78a3.53,3.53,0,0,0-4.64-.31,2.76,2.76,0,0,0-.37.31Z"/><path class="cls-23" d="M472.09,263.67a3.54,3.54,0,0,0,0,5l3.6,3.6A98.89,98.89,0,0,1,487.19,262L483,257.78a3.53,3.53,0,0,0-4.64-.31,2.76,2.76,0,0,0-.37.31Z"/><path class="cls-10" d="M554.53,327.26l-65.36-66.08c-.24-.23-.95.08-2,.78a98.89,98.89,0,0,0-11.5,10.33c-4.49,4.54-8.7,9.27-10.14,11.68-.47.79-.65,1.33-.45,1.54l65.37,66.08a16.89,16.89,0,0,0,24.06,0A17.35,17.35,0,0,0,554.53,327.26Z"/><path class="cls-7" d="M554.53,327.26l-65.36-66.08c-.88-.89-8.33,5.79-14.73,12.38-5.44,5.61,73.44,84.74,80.09,78h0A17.35,17.35,0,0,0,554.53,327.26Z"/><rect class="cls-4" x="75.58" y="199.77" width="260.31" height="45.46" rx="22.73"/><path class="cls-10" d="M313.16,245.22H278.22l-.17-45.45h35.11a22.72,22.72,0,0,1,22.73,22.72h0A22.72,22.72,0,0,1,313.16,245.22Z"/><path class="cls-4" d="M304.32,230.46a9.94,9.94,0,1,1,7-2.91A10,10,0,0,1,304.32,230.46Zm0-17.37a7.43,7.43,0,1,0,5.25,12.68,7.35,7.35,0,0,0,2.18-5.25A7.43,7.43,0,0,0,304.32,213.09Z"/><path class="cls-4" d="M318.31,235.84a1.25,1.25,0,0,1-.89-.36l-7.89-7.89a1.26,1.26,0,1,1,1.78-1.78l7.88,7.89a1.25,1.25,0,0,1-.88,2.14Z"/><path class="cls-24" d="M316.23,292.18h-107a13.55,13.55,0,0,1-13.55-13.55v-8.89a13.6,13.6,0,0,0-13.6-13.6h-49.4a13.6,13.6,0,0,0-13.6,13.6V410.91a12.67,12.67,0,0,0,12.67,12.67H316.23a12.67,12.67,0,0,0,12.67-12.67V304.85A12.67,12.67,0,0,0,316.23,292.18Z"/><path class="cls-24" d="M304.44,292.18H197.5A13.54,13.54,0,0,1,184,278.63v-8.89a13.6,13.6,0,0,0-13.6-13.6H121a13.6,13.6,0,0,0-13.6,13.6V410.91A12.67,12.67,0,0,0,120,423.58H304.44a12.67,12.67,0,0,0,12.67-12.67V304.85A12.67,12.67,0,0,0,304.44,292.18Z"/><path class="cls-25" d="M304.44,292.18H197.5A13.54,13.54,0,0,1,184,278.63v-8.89a13.6,13.6,0,0,0-13.6-13.6H121a13.6,13.6,0,0,0-13.6,13.6V410.91A12.67,12.67,0,0,0,120,423.58H304.44a12.67,12.67,0,0,0,12.67-12.67V304.85A12.67,12.67,0,0,0,304.44,292.18Z"/><path class="cls-25" d="M277.32,292.18H185.09c-6.45,0-11.69-6.06-11.69-13.55v-8.89c0-7.51-5.25-13.6-11.72-13.6h-42.6c-6.48,0-11.73,6.09-11.73,13.6V410.91c0,7,4.89,12.67,10.92,12.67H277.32c6,0,10.92-5.67,10.92-12.67V304.85C288.24,297.86,283.35,292.18,277.32,292.18Z"/><path class="cls-4" d="M117.23,306.3A1.25,1.25,0,0,1,116,305V274.2a8.68,8.68,0,0,1,8.66-8.66H161a1.26,1.26,0,1,1,0,2.51h-36.4a6.15,6.15,0,0,0-6.14,6.15V305A1.26,1.26,0,0,1,117.23,306.3Z"/></g></g></svg>