<svg xmlns="http://www.w3.org/2000/svg" viewBox="0 0 892.62 594.94"><defs><style>.cls-1{isolation:isolate;}.cls-2{fill:#d7fbdd;}.cls-11,.cls-2,.cls-20,.cls-47{mix-blend-mode:multiply;}.cls-3,.cls-39{fill:#a9cfc0;}.cls-3{opacity:0.55;}.cls-15,.cls-16,.cls-17,.cls-4{fill:#fff;}.cls-10,.cls-11,.cls-12,.cls-13,.cls-14,.cls-15,.cls-16,.cls-17,.cls-18,.cls-20,.cls-21,.cls-22,.cls-23,.cls-24,.cls-25,.cls-26,.cls-27,.cls-28,.cls-29,.cls-30,.cls-31,.cls-32,.cls-33,.cls-34,.cls-35,.cls-36,.cls-37,.cls-38,.cls-39,.cls-4,.cls-40,.cls-41,.cls-42,.cls-43,.cls-44,.cls-45,.cls-46,.cls-47,.cls-48,.cls-49,.cls-5,.cls-6,.cls-8,.cls-9{stroke:#212741;stroke-miterlimit:10;}.cls-15,.cls-4,.cls-47,.cls-49{opacity:0.5;}.cls-5{fill:#69ab91;}.cls-6{fill:#85bba6;}.cls-19,.cls-7{fill:#212741;}.cls-8{fill:#a5cdbd;}.cls-9{fill:#a5f6b3;}.cls-10,.cls-11{fill:#f8fef9;}.cls-12{fill:#5ba387;}.cls-13{fill:#b7d7ca;}.cls-14,.cls-47,.cls-49{fill:#b5f8c0;}.cls-15,.cls-16{mix-blend-mode:overlay;}.cls-16{opacity:0.2;}.cls-18{fill:#469878;}.cls-19{opacity:0.9;}.cls-20,.cls-22{fill:#defce3;}.cls-20{opacity:0.3;}.cls-21{fill:#63a88d;}.cls-23{fill:#cffad6;}.cls-24{fill:#7fb7a1;}.cls-25{fill:#8cf49d;}.cls-26{fill:#9bf5aa;}.cls-27{fill:#4c9b7d;}.cls-28{fill:#c3f9cc;}.cls-29{fill:#b1d3c6;}.cls-30{fill:#89bda9;}.cls-31{fill:#cbe2d9;}.cls-32{fill:#c5dfd5;}.cls-33{fill:#449777;}.cls-34{fill:#56a184;}.cls-35{fill:#c4f9cd;}.cls-36{fill:#d6fbdc;}.cls-37{fill:#f7fbf9;}.cls-38{fill:#cbfad3;}.cls-40{fill:#edf5f2;opacity:0.6;}.cls-41{fill:#c1f9ca;}.cls-42{fill:#368f6d;}.cls-43{fill:#5b7f61;}.cls-44{fill:#65a98e;}.cls-45{fill:#7bb59e;}.cls-46{fill:#1b1811;}.cls-48{fill:#ccfad4;}</style></defs><g class="cls-1"><g id="Layer_2" data-name="Layer 2"><g id="Layer_1-2" data-name="Layer 1"><path class="cls-2" d="M533.59,593.93c12.28,0,101.34-19.75,113.58-18.69,29.77,2.57,59.52,11.36,89,6.81,26.8-4.13,51.22-19,78.2-21.7,8.88-.89,18-.44,26.6-2.71s19.74-11.27,26.16-15.89c.57-.41-6.85-2.8-6.85-2.8L62,541.75S68.46,560.89,85.47,565c80.05,19.35,134.56,2.85,216.58,10.24,22,2,54.35,16.52,76.34,18.68C401.81,596.22,521.55,593.92,533.59,593.93Z"/><path class="cls-3" d="M76.49,541.59H857.05c64.7-48.24,31.41-193.41-22.63-222.84C776.25,287.07,868.62,177.52,779,142c-58.51-23.22-137.8,2.72-176.53-47.27C557,36,481.37-35.52,340.58,20,232,62.87,291,145.46,113.28,170.33,21.91,183.12,39.57,292.51,48.09,315.12c7.42,19.69,56.51,50.92-11.72,93.93C-63.67,472.12,74.14,540.43,76.49,541.59Z"/><path class="cls-4" d="M457.64,78.09A15.55,15.55,0,0,0,442.52,66a15.75,15.75,0,0,0-3.91.5,22.81,22.81,0,0,0-27.48-12.21,28.07,28.07,0,0,0-50.55,4.95,19.12,19.12,0,0,0-9.39-2.45,19.37,19.37,0,0,0-19.31,19.43c0,.63,0,1.26.09,1.88Z"/><path class="cls-4" d="M639.8,176.3a7.84,7.84,0,0,1,7.62-6.1,7.55,7.55,0,0,1,2,.26,11.51,11.51,0,0,1,10.43-6.68,11.37,11.37,0,0,1,3.42.52,14.16,14.16,0,0,1,25.49,2.5,9.58,9.58,0,0,1,4.73-1.24,9.76,9.76,0,0,1,9.74,9.79c0,.32,0,.64-.05,1Z"/><path class="cls-4" d="M555.61,137.09a10.56,10.56,0,0,0-10.27-8.22,10.22,10.22,0,0,0-2.66.35,15.48,15.48,0,0,0-18.66-8.3,19.07,19.07,0,0,0-34.34,3.36,12.94,12.94,0,0,0-6.37-1.66,13.16,13.16,0,0,0-13.12,13.19c0,.44,0,.86.07,1.28Z"/><path class="cls-4" d="M259.51,166a7.08,7.08,0,0,1,8.7-5.3,10.42,10.42,0,0,1,9.45-6.06,10.59,10.59,0,0,1,3.11.47,12.84,12.84,0,0,1,23.12,2.27,8.65,8.65,0,0,1,4.29-1.12,8.85,8.85,0,0,1,8.83,8.88c0,.29,0,.58,0,.86Z"/><rect class="cls-5" x="845.06" y="489.19" width="2.68" height="47.02"/><polygon class="cls-6" points="847.1 405.36 833.88 500.27 860.32 500.27 847.1 405.36"/><polygon class="cls-7" points="834.72 494.25 858.44 486.77 858.08 484.2 835.11 491.44 834.72 494.25"/><polygon class="cls-7" points="838.89 464.27 854.62 459.31 854.26 456.74 839.28 461.45 838.89 464.27"/><rect class="cls-5" x="116.17" y="485.2" width="2.3" height="26.95"/><polygon class="cls-6" points="117.72 437.15 110.14 491.55 125.3 491.55 117.72 437.15"/><polygon class="cls-7" points="110.62 488.1 124.22 483.81 124.02 482.33 110.85 486.49 110.62 488.1"/><polygon class="cls-7" points="113.02 470.91 122.03 468.07 121.82 466.6 113.24 469.3 113.02 470.91"/><rect class="cls-5" x="90.58" y="485.93" width="3.46" height="38.37"/><polygon class="cls-6" points="92.31 411.49 81.01 502.81 103.61 502.81 92.31 411.49"/><polygon class="cls-7" points="85.11 469.69 101.22 483.5 100.6 478.5 85.61 465.64 85.11 469.69"/><polygon class="cls-7" points="87.59 449.67 97.45 453.05 96.99 449.3 88.01 446.23 87.59 449.67"/><rect class="cls-5" x="822.33" y="492.54" width="2.28" height="25.26"/><polygon class="cls-6" points="823.47 443.54 816.04 503.65 830.91 503.65 823.47 443.54"/><polygon class="cls-7" points="818.73 481.85 829.34 490.94 828.93 487.65 819.06 479.19 818.73 481.85"/><polygon class="cls-7" points="820.36 468.68 826.86 470.9 826.55 468.43 820.64 466.41 820.36 468.68"/><path class="cls-6" d="M785.46,526a19.82,19.82,0,0,0,.29-3.37c0-12.78-12-23.14-26.75-23.14s-26.75,10.36-26.75,23.14a20.9,20.9,0,0,0,.28,3.37Z"/><path class="cls-8" d="M815.74,520.36a41.53,41.53,0,0,0,.28-4.76c0-18-12-32.63-26.75-32.63s-26.75,14.61-26.75,32.63a39.38,39.38,0,0,0,.29,4.76Z"/><path class="cls-8" d="M805.94,540.35a20.9,20.9,0,0,1-.28-3.37c0-12.78,12-23.14,26.75-23.14S859.16,524.2,859.16,537a19.82,19.82,0,0,1-.29,3.37Z"/><path class="cls-7" d="M763.13,540.35a32.42,32.42,0,0,1-.35-4.76c0-18,15.18-32.63,33.9-32.63s33.91,14.61,33.91,32.63a31.1,31.1,0,0,1-.36,4.76Z"/><path class="cls-8" d="M789.17,503a29.19,29.19,0,0,0-23.24,11.91,38.38,38.38,0,0,0-8.89-1C740.42,513.84,727,524.2,727,537a18,18,0,0,0,.32,3.37h91.67a35.45,35.45,0,0,0,.32-4.76C819.26,517.57,805.79,503,789.17,503Z"/><path class="cls-7" d="M148.4,526a20.9,20.9,0,0,1-.28-3.37c0-12.78,12-23.14,26.75-23.14s26.75,10.36,26.75,23.14a19.82,19.82,0,0,1-.29,3.37Z"/><path class="cls-8" d="M118.13,520.36a41.53,41.53,0,0,1-.28-4.76c0-18,12-32.63,26.75-32.63s26.74,14.61,26.74,32.63a39.38,39.38,0,0,1-.28,4.76Z"/><path class="cls-8" d="M127.92,540.35a19.82,19.82,0,0,0,.29-3.37c0-12.78-12-23.14-26.75-23.14S74.71,524.2,74.71,537a20.9,20.9,0,0,0,.28,3.37Z"/><path class="cls-7" d="M170.73,540.35a31.1,31.1,0,0,0,.36-4.76c0-18-15.18-32.63-33.91-32.63s-33.91,14.61-33.91,32.63a32.42,32.42,0,0,0,.36,4.76Z"/><path class="cls-8" d="M144.7,503a29.19,29.19,0,0,1,23.24,11.91,38.32,38.32,0,0,1,8.89-1c16.61,0,30.09,10.36,30.09,23.14a18,18,0,0,1-.32,3.37H114.93a35.45,35.45,0,0,1-.32-4.76C114.61,517.57,128.08,503,144.7,503Z"/><rect class="cls-9" x="581.79" y="170.29" width="2.08" height="14.25"/><rect class="cls-9" x="565.25" y="170.29" width="2.09" height="14.25"/><rect class="cls-9" x="548.71" y="170.29" width="2.09" height="14.25"/><rect class="cls-9" x="532.16" y="170.29" width="2.09" height="14.25"/><rect class="cls-10" x="583.93" y="295.71" width="19.25" height="238.39"/><rect class="cls-9" x="515.62" y="170.29" width="2.08" height="14.25"/><rect class="cls-9" x="499.08" y="170.29" width="2.08" height="14.25"/><rect class="cls-9" x="482.54" y="170.29" width="2.09" height="14.25"/><rect class="cls-9" x="466" y="170.29" width="2.09" height="14.25"/><rect class="cls-10" x="368.07" y="168.29" width="83.19" height="14.27"/><rect class="cls-10" x="583.28" y="200.27" width="135.28" height="78.19" transform="translate(1301.83 478.72) rotate(180)"/><rect class="cls-11" x="583.28" y="200.27" width="15.94" height="78.19" transform="translate(1182.5 478.72) rotate(180)"/><rect class="cls-12" x="517.94" y="196.5" width="206.81" height="7.54" transform="translate(1242.68 400.53) rotate(180)"/><rect class="cls-13" x="677.44" y="220.01" width="41.28" height="30.88" transform="translate(933.53 -462.63) rotate(90)"/><rect class="cls-13" x="638.83" y="220.01" width="41.28" height="30.88" transform="translate(894.92 -424.02) rotate(90)"/><rect class="cls-13" x="601.01" y="220.01" width="41.28" height="30.88" transform="translate(857.1 -386.19) rotate(90)"/><rect class="cls-10" x="216.01" y="200.27" width="135.28" height="78.19"/><rect class="cls-11" x="335.34" y="200.27" width="15.94" height="78.19"/><rect class="cls-10" x="582.97" y="279.62" width="170.97" height="260.73" transform="translate(1336.92 819.96) rotate(180)"/><rect class="cls-12" x="517.63" y="275.85" width="242.88" height="7.54" transform="translate(1278.14 559.23) rotate(180)"/><rect class="cls-13" x="688.32" y="283.44" width="41.28" height="65.72" transform="translate(1025.26 -392.65) rotate(90)"/><rect class="cls-13" x="688.32" y="331.33" width="41.28" height="65.72" transform="translate(1073.15 -344.76) rotate(90)"/><rect class="cls-13" x="688.31" y="379.22" width="41.28" height="65.72" transform="translate(1121.04 -296.87) rotate(90)"/><rect class="cls-13" x="688.32" y="427.11" width="41.28" height="65.72" transform="translate(1168.93 -248.98) rotate(90)"/><rect class="cls-13" x="688.32" y="475" width="41.28" height="65.72" transform="translate(1216.81 -201.09) rotate(90)"/><rect class="cls-13" x="615.44" y="283.44" width="41.28" height="65.72" transform="translate(952.39 -319.78) rotate(90)"/><rect class="cls-13" x="615.44" y="331.33" width="41.28" height="65.72" transform="translate(1000.28 -271.89) rotate(90)"/><rect class="cls-13" x="615.44" y="379.22" width="41.28" height="65.72" transform="translate(1048.16 -224) rotate(90)"/><rect class="cls-13" x="615.44" y="427.11" width="41.28" height="65.72" transform="translate(1096.05 -176.11) rotate(90)"/><rect class="cls-13" x="615.44" y="475" width="41.28" height="65.72" transform="translate(1143.94 -128.22) rotate(90)"/><rect class="cls-10" x="180.31" y="279.62" width="170.97" height="260.73"/><rect class="cls-14" x="178.28" y="534.13" width="173" height="6.22"/><rect class="cls-14" x="582.44" y="534.13" width="173" height="6.22"/><rect class="cls-11" x="335.34" y="279.62" width="15.94" height="260.73"/><rect class="cls-12" x="173.74" y="275.85" width="242.88" height="7.54"/><rect class="cls-12" x="209.82" y="196.5" width="206.8" height="7.54"/><rect class="cls-10" x="351.28" y="185.99" width="232.59" height="54.15"/><rect class="cls-10" x="351.28" y="284.18" width="232.59" height="256.17"/><rect class="cls-13" x="403.18" y="267.72" width="128.65" height="204.84" transform="translate(837.65 -97.36) rotate(90)"/><rect class="cls-13" x="204.66" y="283.44" width="41.28" height="65.72" transform="translate(541.61 91.01) rotate(90)"/><rect class="cls-13" x="204.66" y="331.33" width="41.28" height="65.72" transform="translate(589.49 138.9) rotate(90)"/><rect class="cls-13" x="204.66" y="379.22" width="41.28" height="65.72" transform="translate(637.38 186.78) rotate(90)"/><rect class="cls-13" x="204.66" y="427.11" width="41.28" height="65.72" transform="translate(685.27 234.67) rotate(90)"/><rect class="cls-13" x="204.66" y="475" width="41.28" height="65.72" transform="translate(733.16 282.56) rotate(90)"/><rect class="cls-13" x="277.53" y="283.44" width="41.28" height="65.72" transform="translate(614.48 18.13) rotate(90)"/><rect class="cls-13" x="215.84" y="220.01" width="41.28" height="30.87" transform="translate(471.93 -1.03) rotate(90)"/><rect class="cls-13" x="254.45" y="220.01" width="41.28" height="30.87" transform="translate(510.54 -39.64) rotate(90)"/><rect class="cls-13" x="292.28" y="220.01" width="41.28" height="30.87" transform="translate(548.37 -77.46) rotate(90)"/><rect class="cls-13" x="277.53" y="331.33" width="41.28" height="65.72" transform="translate(662.37 66.02) rotate(90)"/><rect class="cls-13" x="277.53" y="379.22" width="41.28" height="65.72" transform="translate(710.26 113.91) rotate(90)"/><rect class="cls-13" x="277.53" y="427.11" width="41.28" height="65.72" transform="translate(758.14 161.8) rotate(90)"/><rect class="cls-13" x="277.53" y="475" width="41.28" height="65.72" transform="translate(806.03 209.69) rotate(90)"/><rect class="cls-9" x="435.82" y="476.1" width="66.74" height="64.85"/><rect class="cls-12" x="220.19" y="254.6" width="32.58" height="2.14"/><rect class="cls-12" x="258.8" y="254.6" width="32.58" height="2.14"/><rect class="cls-12" x="296.63" y="254.6" width="32.58" height="2.14"/><rect class="cls-12" x="604.96" y="254.6" width="32.58" height="2.14"/><rect class="cls-12" x="643.57" y="254.6" width="32.58" height="2.14"/><rect class="cls-12" x="681.4" y="254.6" width="32.58" height="2.14"/><polygon class="cls-15" points="223.93 526.36 186.18 526.36 229.87 295.67 267.62 295.67 223.93 526.36"/><rect class="cls-10" x="180.31" y="295.67" width="12.13" height="234.71"/><polygon class="cls-15" points="272.47 526.36 251.45 526.36 295.14 295.67 316.15 295.67 272.47 526.36"/><rect class="cls-12" x="264.5" y="334.8" width="67.35" height="2.14"/><rect class="cls-12" x="191.63" y="382.69" width="67.35" height="2.14"/><rect class="cls-12" x="264.5" y="382.69" width="67.35" height="2.14"/><rect class="cls-12" x="191.63" y="430.58" width="67.35" height="2.14"/><rect class="cls-12" x="264.5" y="430.58" width="67.35" height="2.14"/><rect class="cls-12" x="191.63" y="478.47" width="67.35" height="2.14"/><rect class="cls-12" x="264.5" y="478.47" width="67.35" height="2.14"/><rect class="cls-12" x="365.08" y="434.47" width="208.52" height="2.14"/><rect class="cls-12" x="191.63" y="526.36" width="67.35" height="2.14"/><rect class="cls-12" x="264.5" y="526.36" width="67.35" height="2.14"/><rect class="cls-12" x="191.63" y="334.8" width="67.35" height="2.14"/><rect class="cls-10" x="258.16" y="295.4" width="7.15" height="234.98"/><rect class="cls-10" x="190.01" y="480.61" width="141.83" height="6.61"/><rect class="cls-10" x="190.01" y="432.72" width="141.83" height="6.61"/><rect class="cls-10" x="190.01" y="384.83" width="141.83" height="6.61"/><rect class="cls-10" x="190.01" y="336.94" width="141.83" height="6.61"/><polygon class="cls-15" points="623.56 526.36 585.81 526.36 629.49 295.67 667.24 295.67 623.56 526.36"/><polygon class="cls-15" points="683.27 526.36 662.25 526.36 705.93 295.67 726.95 295.67 683.27 526.36"/><rect class="cls-10" x="668.96" y="295.4" width="7.15" height="234.98"/><rect class="cls-10" x="600.81" y="480.61" width="141.84" height="6.61"/><rect class="cls-10" x="600.81" y="432.72" width="141.84" height="6.61"/><rect class="cls-10" x="600.81" y="384.83" width="141.84" height="6.61"/><rect class="cls-10" x="600.81" y="336.94" width="141.84" height="6.61"/><polygon class="cls-15" points="235.64 254.6 225.91 254.6 237.24 214.81 246.97 214.81 235.64 254.6"/><polygon class="cls-15" points="275.81 254.6 269 254.6 280.33 214.81 287.14 214.81 275.81 254.6"/><polygon class="cls-15" points="304.73 254.6 299.31 254.6 310.63 214.81 316.06 214.81 304.73 254.6"/><polygon class="cls-15" points="619.64 254.6 609.91 254.6 621.24 214.81 630.97 214.81 619.64 254.6"/><polygon class="cls-15" points="659.81 254.6 653 254.6 664.33 214.81 671.14 214.81 659.81 254.6"/><polygon class="cls-15" points="688.73 254.6 683.31 254.6 694.63 214.81 700.05 214.81 688.73 254.6"/><rect class="cls-12" x="675.16" y="334.8" width="67.35" height="2.14"/><rect class="cls-12" x="602.29" y="382.69" width="67.35" height="2.14"/><rect class="cls-12" x="675.16" y="382.69" width="67.35" height="2.14"/><rect class="cls-12" x="602.29" y="430.58" width="67.35" height="2.14"/><rect class="cls-12" x="675.16" y="430.58" width="67.35" height="2.14"/><rect class="cls-12" x="602.29" y="478.47" width="67.35" height="2.14"/><rect class="cls-12" x="675.16" y="478.47" width="67.35" height="2.14"/><rect class="cls-12" x="602.29" y="526.36" width="67.35" height="2.14"/><rect class="cls-12" x="675.16" y="526.36" width="67.35" height="2.14"/><rect class="cls-12" x="602.29" y="334.8" width="67.35" height="2.14"/><rect class="cls-11" x="351.28" y="185.99" width="232.59" height="18.04"/><rect class="cls-12" x="346.14" y="182.56" width="242.88" height="7.54"/><rect class="cls-12" x="365.99" y="160.75" width="87.36" height="7.54"/><rect class="cls-12" x="360.46" y="457.46" width="214.24" height="18.65"/><rect class="cls-14" x="468.92" y="476.1" width="0.54" height="64.85"/><rect class="cls-14" x="557.87" y="476.1" width="12.06" height="64.25"/><rect class="cls-14" x="365.08" y="476.1" width="12.06" height="64.25"/><rect class="cls-13" x="429.26" y="491" width="46.82" height="23.89" transform="translate(955.61 50.28) rotate(90)"/><rect class="cls-13" x="462.3" y="491" width="46.82" height="23.89" transform="translate(988.66 17.24) rotate(90)"/><polygon class="cls-16" points="453.28 526.36 442.86 526.36 451.09 479.54 461.52 479.54 453.28 526.36"/><polygon class="cls-16" points="486.81 526.36 476.38 526.36 484.62 479.54 495.04 479.54 486.81 526.36"/><polygon class="cls-15" points="406.93 434.47 378.39 434.47 410.61 305.82 439.14 305.82 406.93 434.47"/><polygon class="cls-15" points="533.1 434.47 478.86 434.47 511.07 305.82 565.31 305.82 533.1 434.47"/><rect class="cls-10" x="414.87" y="304.36" width="1.75" height="136.67"/><rect class="cls-10" x="518.92" y="304.36" width="1.75" height="136.67"/><rect class="cls-10" x="466.19" y="304.36" width="1.75" height="136.67"/><rect class="cls-10" x="468.08" y="266.28" width="1.88" height="212.83" transform="translate(841.71 -96.32) rotate(90)"/><rect class="cls-10" x="585.83" y="419.19" width="17.35" height="113.02"/><path class="cls-17" d="M504.22,372.34a36.3,36.3,0,1,1-36.3-36.3A36.3,36.3,0,0,1,504.22,372.34Z"/><circle class="cls-9" cx="467.92" cy="372.34" r="32.91" transform="translate(-94.81 574.63) rotate(-58.28)"/><polygon class="cls-17" points="471.46 350.38 464.83 350.31 464.64 369.04 445.92 369.08 445.93 375.7 464.57 375.66 464.38 394.3 471 394.37 471.2 375.64 489.92 375.6 489.91 368.98 471.26 369.02 471.46 350.38"/><rect class="cls-9" x="451.27" y="170.29" width="132.61" height="2.08"/><path class="cls-18" d="M166.76,491.47A243.36,243.36,0,0,1,158.13,466c-7-26.79-5.33-46.32-5.07-55.71,0-1.24-1.95-1.58-2.12-.3a104.21,104.21,0,0,0-.76,13.33,168.69,168.69,0,0,0,1.37,22.54c-5.15,1.35-10-.67-14-4.28-6.87-6.24-9.33-14.55-10.41-23.75-.11-.94-.14-1.83-.91-2.37a.53.53,0,0,0-1,.09c-1.09,1.12-.57,3.37-.4,4.82,2.27,19.6,14.16,29.1,23.73,29A13.66,13.66,0,0,0,152,449c.69,4.69,1.58,9.35,2.66,14a204.45,204.45,0,0,0,8.16,25.65c10.92,28.69,14.4,43.36,17.5,51.66a1.31,1.31,0,0,0,2.51-.72C182.65,539,174.14,510.7,166.76,491.47Z"/><path class="cls-18" d="M210.5,416c-.1-.62-.46-1-.6-1.6a.8.8,0,0,0-1.55,0c-.08.48-.34.77-.44,1.26-.34,1.59.47,10.52-1.63,24.18a60,60,0,0,1-2.39,10.72c-1.95,5.6-5.5,11.64-9.92,15.46a233.72,233.72,0,0,0-1.58-24q-.85-7.14-2.17-14.21c-.43-2.29-.89-4.58-1.39-6.85a26.16,26.16,0,0,0-2.16-6.85.72.72,0,0,0-1.35.38,28.94,28.94,0,0,0,.86,6.14q.66,3.07,1.24,6.18a230.84,230.84,0,0,1,3.89,44.21,93.14,93.14,0,0,1-18.93-46.37q-.44-3.83-.52-7.68c0-1.33-.05-2.66-.08-4,0-.68-.27-2.74-1.42-2.14s-1,1.8-1.05,2.88-.1,2.36-.09,3.55q0,3.41.36,6.79A96,96,0,0,0,186.64,470a47.73,47.73,0,0,0,4.64,5.95c-.4,26.2-4.29,59.3-4.35,61.94a9.4,9.4,0,0,0,.2,1.76c.17,1.19,1.73.92,2.05,0,.6-1.72.54-2.4,1.44-12,1.6-17,3.4-56.1,3.39-57.68,5.56-4,9.5-10.17,12.08-16.61a49.86,49.86,0,0,0,2.77-10.57C210.9,430.41,210.84,418,210.5,416Z"/><path class="cls-7" d="M172.25,394.64a52.39,52.39,0,0,0,.32-5.79c0-21.91-13.59-39.67-30.35-39.67s-30.34,17.76-30.34,39.67a52.39,52.39,0,0,0,.32,5.79Z"/><path class="cls-6" d="M206.59,384.89q.33-4,.33-8.16c0-30.9-13.59-56-30.35-56s-30.35,25.05-30.35,56q0,4.15.32,8.16Z"/><path class="cls-7" d="M146.91,419.17c-.26-2.66-.4-5.38-.4-8.15,0-30.91,17.22-56,38.47-56s38.47,25.05,38.47,56a80.71,80.71,0,0,1-.41,8.15Z"/><path class="cls-6" d="M176.45,355.06c-10.62,0-20.1,7.95-26.36,20.41A29.9,29.9,0,0,0,140,373.71c-18.85,0-34.14,17.77-34.14,39.68a47.71,47.71,0,0,0,.36,5.78h104q.36-4,.36-8.15C210.59,380.11,195.31,355.06,176.45,355.06Z"/><path class="cls-18" d="M817.23,418.17c-.11-.77-1.26-1.37-1.75-.69s-.52.22-.9,1.69a41.3,41.3,0,0,1-5.27,11.89c-4.41,6.85-9.17,10.3-14.64,13.72A42.81,42.81,0,0,0,797,427.89a14.21,14.21,0,0,0-1.61-6.23c-.32-.54-1.28-.43-1.31.17-.15,3,.84,5.24.48,10.58-.85,12.75-8.52,26.27-16.33,35.74-.16-16-1.45-34.25-6.39-50.42-.81-2.65-1.9-5.17-2.94-7.76a.47.47,0,1,0-.91.25c.25.87,3,12,3.18,12.76a199.92,199.92,0,0,1,4.5,38.4A87.72,87.72,0,0,1,758.26,430c-1-3.34-1.6-6.79-2.88-10.06-.17-.45-.93-.5-1,0-.35,4.91,2.51,13.59,4.4,18.31a87,87,0,0,0,16,25.79c.27.3-.83,75.12-.45,76.07.63,1.59,3.58,2.71,3.68-.12,0-1.15.14-46.65.12-67.72.86-.5,1.34-1.39,3.4-4a86.5,86.5,0,0,0,12.08-20.74c2.15-.13,16.93-7.65,22.71-24.78.16-.49.9-2.81,1-3.33A3.85,3.85,0,0,0,817.23,418.17Z"/><path class="cls-7" d="M766,393.71c.18-2.33.27-4.72.27-7.15,0-27.06-11.48-49-25.65-49s-25.66,21.94-25.66,49c0,2.43.09,4.82.27,7.15Z"/><path class="cls-6" d="M795,381.66c.17-3.28.27-6.65.27-10.07,0-38.17-11.49-69.11-25.66-69.11S744,333.42,744,371.59c0,3.42.09,6.79.27,10.07Z"/><path class="cls-6" d="M785.59,424c-.18-2.33-.27-4.72-.27-7.14,0-27.07,11.49-49,25.66-49s25.65,21.93,25.65,49c0,2.42-.09,4.81-.27,7.14Z"/><path class="cls-7" d="M744.53,424c-.22-3.29-.34-6.65-.34-10.07,0-38.17,14.56-69.11,32.52-69.11s32.53,30.94,32.53,69.11q0,5.13-.35,10.07Z"/><path class="cls-6" d="M769.5,344.83c-9,0-17,9.82-22.29,25.21a18.22,18.22,0,0,0-8.52-2.17c-15.94,0-28.86,21.93-28.86,49,0,2.42.1,4.81.3,7.14h87.93q.3-4.93.3-10.07C798.36,375.77,785.44,344.83,769.5,344.83Z"/><rect class="cls-12" x="62.03" y="538.95" width="805.14" height="2.8"/><rect class="cls-11" x="583.92" y="283.35" width="15.94" height="255.62" transform="translate(1183.79 822.33) rotate(180)"/><rect class="cls-9" x="341.9" y="240.15" width="251.36" height="54.15"/><rect class="cls-19" x="341.9" y="271.42" width="251.36" height="22.88"/><path class="cls-10" d="M375.35,282.65V253.58H381V265.1H392.6V253.58h5.69v29.07H392.6V270H381v12.63Z"/><path class="cls-10" d="M403.21,268.18q0-7.05,3.34-11a12.78,12.78,0,0,1,18.48,0q3.35,4,3.34,11t-3.35,11a12.68,12.68,0,0,1-18.45,0Q403.21,275.18,403.21,268.18Zm5.78,0q0,4.94,1.73,7.49a6.31,6.31,0,0,0,10.13,0q1.72-2.55,1.73-7.49t-1.73-7.55a6.26,6.26,0,0,0-10.13,0Q409,263.19,409,268.18Z"/><path class="cls-10" d="M431,276.09l5.16-2.21a9.34,9.34,0,0,0,2.68,3.39,5.78,5.78,0,0,0,3.49,1.06,5.91,5.91,0,0,0,3.6-1,3.21,3.21,0,0,0,1.32-2.7,3,3,0,0,0-1-2.25,10.44,10.44,0,0,0-3.52-1.81c-.23-.09-.56-.21-1-.35a35.51,35.51,0,0,1-6.21-2.65,7.34,7.34,0,0,1-2.64-2.7,7.48,7.48,0,0,1-.92-3.71,7,7,0,0,1,2.74-5.71,11.09,11.09,0,0,1,7.15-2.19,12,12,0,0,1,6.44,1.6,9.24,9.24,0,0,1,3.77,4.74L447,261.43a7,7,0,0,0-2.25-2.84,5.53,5.53,0,0,0-3.22-.89,4.61,4.61,0,0,0-2.92.83,2.69,2.69,0,0,0-1.06,2.25c0,1.47,1.74,2.87,5.22,4.18,1.07.4,1.91.73,2.52,1q4.38,1.77,5.95,3.63a7.21,7.21,0,0,1,1.58,4.84,7.8,7.8,0,0,1-2.75,6.32,11.35,11.35,0,0,1-7.54,2.31,13.41,13.41,0,0,1-7.07-1.76A10.93,10.93,0,0,1,431,276.09Z"/><path class="cls-10" d="M457.7,282.65V253.58h10.82q5.36,0,8,2.14t2.63,6.49a8.13,8.13,0,0,1-2.56,6.47c-1.71,1.48-4.21,2.21-7.49,2.21h-5.61v11.76Zm5.76-16.36h4.23a7.73,7.73,0,0,0,4.42-.94,3.61,3.61,0,0,0,1.29-3.14,3.66,3.66,0,0,0-1.29-3.17,7.83,7.83,0,0,0-4.42-.93h-4.23Z"/><path class="cls-10" d="M484.69,282.65V253.58h5.74v29.07Z"/><path class="cls-10" d="M503.18,282.65V258.38h-7.95v-4.8h21.66v4.8h-7.95v24.27Z"/><path class="cls-10" d="M515.22,282.65l9.13-29.07h7.12l9.11,29.07h-5.69L533,276.28H522.56l-1.93,6.37Zm8.7-11h7.71l-3.86-13Z"/><path class="cls-10" d="M544.1,282.65V253.58h5.8v24.11h12.77v5Z"/><rect class="cls-20" x="366.02" y="210.18" width="15.1" height="5.79"/><rect class="cls-20" x="354.11" y="219" width="15.1" height="5.79"/><rect class="cls-20" x="363.52" y="228.58" width="15.46" height="4.9"/><rect class="cls-20" x="373.57" y="219.49" width="15.01" height="4.9"/><rect class="cls-20" x="468.4" y="229.07" width="12.21" height="4.37"/><rect class="cls-20" x="476.48" y="221.94" width="12.21" height="4.37"/><rect class="cls-20" x="405.65" y="491.47" width="12.21" height="4.37"/><rect class="cls-20" x="413.74" y="484.33" width="12.21" height="4.37"/><rect class="cls-20" x="535.78" y="489.33" width="12.21" height="4.37"/><rect class="cls-20" x="541.84" y="497.29" width="12.21" height="4.37"/><rect class="cls-20" x="534.29" y="212.2" width="15.1" height="5.79" transform="translate(1083.69 430.19) rotate(180)"/><rect class="cls-20" x="578.94" y="227.65" width="4.92" height="5.79" transform="translate(1162.8 461.09) rotate(180)"/><rect class="cls-20" x="573.47" y="218.38" width="10.5" height="5.79" transform="translate(1157.45 442.55) rotate(180)"/><rect class="cls-20" x="541.78" y="219.81" width="15.1" height="5.79" transform="translate(1098.66 445.41) rotate(180)"/><rect class="cls-20" x="429.86" y="221.74" width="15.1" height="5.79" transform="translate(874.82 449.26) rotate(180)"/><rect class="cls-20" x="420.83" y="213.06" width="15.1" height="5.79" transform="translate(856.75 431.91) rotate(180)"/><rect class="cls-20" x="536.43" y="228.58" width="15.46" height="4.9" transform="translate(1088.32 462.05) rotate(180)"/><rect class="cls-20" x="511" y="509.78" width="15.1" height="5.79" transform="translate(1037.1 1025.34) rotate(180)"/><rect class="cls-20" x="518.49" y="517.38" width="15.1" height="5.79" transform="translate(1052.08 1040.55) rotate(180)"/><rect class="cls-20" x="513.14" y="526.15" width="15.46" height="4.9" transform="translate(1041.73 1057.2) rotate(180)"/><rect class="cls-20" x="396.56" y="510.97" width="15.1" height="5.79"/><rect class="cls-20" x="389.07" y="518.57" width="15.1" height="5.79"/><rect class="cls-20" x="394.07" y="527.34" width="15.46" height="4.9"/><rect class="cls-20" x="523.97" y="220.8" width="15.01" height="4.9" transform="translate(1062.96 446.5) rotate(180)"/><rect class="cls-21" x="611.35" y="519.68" width="0.98" height="14.67"/><rect class="cls-21" x="659.94" y="519.68" width="0.98" height="14.67"/><rect class="cls-22" x="607.97" y="517.66" width="56.34" height="2.92" rx="0.75"/><rect class="cls-22" x="607.97" y="521.8" width="56.34" height="2.92" rx="0.75"/><rect class="cls-22" x="607.97" y="525.94" width="56.34" height="2.92" rx="0.75"/><path class="cls-22" d="M609.95,533.23h52.38a2.25,2.25,0,0,1,2.25,2.25v0a0,0,0,0,1,0,0H607.7a0,0,0,0,1,0,0v0A2.25,2.25,0,0,1,609.95,533.23Z"/><rect class="cls-21" x="607.08" y="535.19" width="58" height="1.02" rx="0.51"/><path class="cls-23" d="M644.05,526c.77-.43,7.26-4,7.5-4.22s3.24-5.06,3.24-5.06l-2.65-.61-2.62,4.53c-.22.17-4.35,3.16-4.35,3.16s-.74.57-1.2.88l-.38,0a3.47,3.47,0,0,1-.63-.1,3.31,3.31,0,0,0-.81-.09l-.56.1a3.65,3.65,0,0,0-.44.09.69.69,0,0,1-.25,0,.14.14,0,0,0-.12.23.65.65,0,0,0,.35.13c.3,0,.77-.07.76,0a6.41,6.41,0,0,1-.77.54,9.9,9.9,0,0,0-1,.73c-.12.15,0,.25.06.24s1.25-.65,1.25-.65.15-.08.13,0-1.07.66-1.21.78-.17.26,0,.29,1.28-.64,1.28-.64.14-.08.15,0-.88.54-.94.62,0,.22.12.22a6.27,6.27,0,0,0,1.15-.62s.08,0,.07,0-.75.51-.79.62a.09.09,0,0,0,.06.12c.16.11.81-.44,1.19-.59S644,526.05,644.05,526Z"/><path class="cls-5" d="M651.9,514.24s-.6.2-1.39,2.14-1.34,3.8-1.34,3.8l2,1.57s.73-4.1.82-4.24S651.9,514.24,651.9,514.24Z"/><path class="cls-23" d="M648.37,546.13l.09,1.58a7.49,7.49,0,0,1,.18.87c0,.69-3.25-.58-2.52-.88.06,0,.41-.24.43-.47s.12-1.08.12-1.08Z"/><path class="cls-24" d="M646.13,547.69a11.68,11.68,0,0,0,1.15.26c.39.06.9-.38,1.18-.27s.29,1.31.29,1.31-4.09.34-5.23,0C643.06,548.84,644.57,548.18,646.13,547.69Z"/><path class="cls-23" d="M642.86,546.13l.09,1.58a7.49,7.49,0,0,1,.18.87c0,.69-3.25-.58-2.52-.88.06,0,.56-.12.58-.35s.09-1.46.09-1.46Z"/><path class="cls-24" d="M640.62,547.69a11.68,11.68,0,0,0,1.15.26c.39.06.9-.38,1.18-.27s.29,1.31.29,1.31-4.08.34-5.23,0C637.55,548.84,639.06,548.18,640.62,547.69Z"/><path class="cls-25" d="M653.4,529.59l-7.76,0s-3.5-.09-4.06,1.12-.59,15.57-.59,15.57a11.29,11.29,0,0,0,1.93,0l2.31-8a6.54,6.54,0,0,0,.23-2.41l-.2-2.14,3.2.16s3.63,0,4.82-1.26S653.4,529.59,653.4,529.59Z"/><path class="cls-26" d="M658.66,528.74l-8.34.51s-3.59.29-4.15,1.5.19,15.57.19,15.57a14.72,14.72,0,0,0,2.1,0c0-.1,1-5.91,1.47-8.12a7.41,7.41,0,0,0,.16-2.15l-.12-1.87s8.56-.17,8.95-.56C660.12,532.42,658.66,528.74,658.66,528.74Z"/><path class="cls-24" d="M651.9,514.24a22.2,22.2,0,0,1,3.37-.31,8.65,8.65,0,0,1,1.81,0c.64.19,1.86.34,1.78,3.17-.05,2,0,8.71,0,12.1l-8.34,0C651.28,522.42,650.78,514.5,651.9,514.24Z"/><path class="cls-23" d="M654.3,511.44l1.14,2.48s-1.1,1.68-2,1.67c-.78,0-.58-1.16-.58-1.16a7.18,7.18,0,0,0-.35-2.19C652.15,511.55,654.3,511.44,654.3,511.44Z"/><path class="cls-14" d="M654.11,512.39a4.93,4.93,0,0,1-1.37.9,3.75,3.75,0,0,0-.26-1c-.15-.31.22-.51.67-.63.6-.12,1.15-.17,1.15-.17l.22.48A2.35,2.35,0,0,1,654.11,512.39Z"/><path class="cls-23" d="M653.9,507.36c.06,0,1.14,3.05.51,4.09s-2.15,1.65-2.85,1.08-1.46-4-.39-5.2S653.9,507.36,653.9,507.36Z"/><path class="cls-27" d="M651.3,505.54a3.55,3.55,0,0,1,2.05.67,2.36,2.36,0,0,1,1.94,1,2.62,2.62,0,0,1,0,3.49,2.07,2.07,0,0,0-.57,1.66l-.22-.38a2.27,2.27,0,0,1-.31-.94,1.78,1.78,0,0,1,0-.61c.12-.5-.62-.67-.88-1s-.36-.93-.69-1.37l-.34-.31a1.8,1.8,0,0,0-1.32-.1C650.39,507.88,650,505.55,651.3,505.54Z"/><path class="cls-23" d="M653.48,510c.08.38.32.66.54.62s.35-.39.27-.78-.31-.67-.53-.62S653.41,509.56,653.48,510Z"/><path class="cls-17" d="M652.35,511.11l-1.23.19a.56.56,0,0,0,.65.4C652.43,511.61,652.35,511.11,652.35,511.11Z"/><path class="cls-23" d="M653.62,525.18a4.59,4.59,0,0,0-1-.59,1.21,1.21,0,0,0-.55-.08s-.42,0-.44.14a.23.23,0,0,0,.15.23c.08,0,.24,0,.32,0a.6.6,0,0,1,.22.34,5.42,5.42,0,0,1-1.21.16h-.48l-.4,0s-.42,0-.43.09.37.23.75.3.83.11.83.15-.67.15-.67.15a1.87,1.87,0,0,0-.46,0c-.2-.06-.54-.07-.53.09a2.92,2.92,0,0,0,.46.18l.46.06a7.77,7.77,0,0,0,.81,0c.15,0,.1.06.11.07a4,4,0,0,1-.46,0,2.87,2.87,0,0,1-.44,0,3.72,3.72,0,0,0-.48,0c-.35,0-.27.24.06.27l.4,0c.54,0,1-.05,1.05,0s-.89.17-.89.17-.47.2,0,.23a3.5,3.5,0,0,0,1,0,3.59,3.59,0,0,0,1-.2c.32-.13.77-.35,1-.45Z"/><path class="cls-23" d="M660.08,518.62l-2.15,1s.7,1.88.74,2.11c0,0-3.54,2.57-5,3.44l.25,1.38c.29-.16.53-.32.68-.39l5-2.33s1.83-1,1.84-1.33S660.08,518.62,660.08,518.62Z"/><path class="cls-5" d="M660.91,519.82a44.33,44.33,0,0,0-2.44-5.22,1.66,1.66,0,0,0-2.73-.12c-.71.87,2.46,6.33,2.46,6.33Z"/><path class="cls-23" d="M627,546.19l-.09,1.55c0,.19-.15.68-.15.85,0,.67,2.88-.56,2.23-.86,0,0-.36-.23-.38-.46s-.1-1.06-.1-1.06Z"/><path class="cls-26" d="M629,547.72a9.5,9.5,0,0,1-1,.26c-.34,0-.8-.38-1-.26s-.26,1.28-.26,1.28a21,21,0,0,0,4.65,0C631.74,548.85,630.4,548.2,629,547.72Z"/><path class="cls-23" d="M631.92,546.19l-.08,1.55a7,7,0,0,0-.16.85c0,.67,2.88-.56,2.24-.86-.06,0-.5-.11-.52-.34s-.08-1.43-.08-1.43Z"/><path class="cls-26" d="M633.91,547.72a9.79,9.79,0,0,1-1,.26c-.35,0-.81-.38-1-.26s-.26,1.28-.26,1.28a21,21,0,0,0,4.65,0C636.63,548.85,635.29,548.2,633.91,547.72Z"/><path class="cls-27" d="M622.63,529.66l6.9,0s3.11-.09,3.6,1.09.37,16.24.37,16.24a9.51,9.51,0,0,1-1.74.17l-1.87-9a6.88,6.88,0,0,1-.2-2.35l.18-2.1-3-.26s-3.09.36-4.15-.81S622.63,529.66,622.63,529.66Z"/><path class="cls-5" d="M618,528.82l7.41.5s3.19.29,3.68,1.47-.31,16.37-.31,16.37a12.7,12.7,0,0,1-1.85,0c0-.1-.76-7-1.18-9.12a8.67,8.67,0,0,1-.14-2.1l.27-2.43s-6.88,0-7.23-.42C617.55,532,618,528.82,618,528.82Z"/><path class="cls-28" d="M634.65,521.56c.07-.19-.88-.34-.94-.54s1.2-.21,1.25-.39-1.37-.06-1.35-.21,1.52-.48,1.35-.74-1.5.51-1.54.34,1.31-.6,1.29-1c0-.2-2.22,1-2.48.91s.28-1.06.07-1.2-.78,1.93-.92,2a31.38,31.38,0,0,1-4.18,2c-.13-.35-1.06-2.22-1.17-2.56-.6.43-1.29.52-1.9.91a19.13,19.13,0,0,0,2.3,4c.94.42,4.58-2.61,5.31-3.12s1.15-.36,1.64-.52S634.58,521.76,634.65,521.56Z"/><path class="cls-27" d="M625.19,512.54a6.45,6.45,0,0,0-.59-3.08,2.62,2.62,0,0,0-2.34-1.33c-2.93,0-3.31,3.84-5.17,5.33-.57.45-1.21.82-1.75,1.31-2,1.8-1.09,5.15.74,6.73a4.41,4.41,0,0,0,4.82.86,4.8,4.8,0,0,0,1.88-2,26.81,26.81,0,0,0,1.48-3.73A14,14,0,0,0,625.19,512.54Z"/><path class="cls-26" d="M624.31,522.46a28.11,28.11,0,0,1-2.75-3.19c-.56-1,.38-.34,1.35-.6.37-.09.27-2.23,1-1.53a30.8,30.8,0,0,1,2.57,3.12Z"/><path class="cls-14" d="M621.2,516.16s-2-.39-2.86.36.19,7.36.19,8.45a36.6,36.6,0,0,1-.61,4.2s2.53,0,7.13.13c0,0,0-7,0-7.8a21.24,21.24,0,0,0-1.17-4.36A10.92,10.92,0,0,0,621.2,516.16Z"/><path class="cls-23" d="M621.19,513.14l0,.16a14.55,14.55,0,0,1-.67,2.49c-.28.52,1,2.2,2.16,2,.35-.06-.3-1.54-.27-1.69l.22-1.13c0-.24.1-.48.14-.7.13-.64.23-1.16.23-1.16Z"/><path class="cls-14" d="M621.16,513.3l0-.16,1.78,0s-.1.52-.23,1.16l-.14.7a1.72,1.72,0,0,1-.85-.43,2.31,2.31,0,0,1-.65-.95C621.13,513.47,621.14,513.37,621.16,513.3Z"/><path class="cls-23" d="M622.39,509.11a1.61,1.61,0,0,0-1.37.58c-.53.68-1.1,2.77.21,3.91s2.61-.15,2.8-1.52S624.3,509.06,622.39,509.11Z"/><path class="cls-23" d="M624.42,512.06c-.16.31-.42.47-.59.38s-.17-.42,0-.72.42-.47.59-.37S624.58,511.76,624.42,512.06Z"/><path class="cls-27" d="M622.48,508.89s-1.12,2-1.93,2.08-.91,1.15-.91,1.15.29-2.44,1.09-2.91A2.94,2.94,0,0,1,622.48,508.89Z"/><path class="cls-23" d="M620.77,511.47c.06.35-.07.68-.3.73s-.46-.21-.53-.56.07-.68.29-.73S620.7,511.12,620.77,511.47Z"/><path class="cls-17" d="M622.9,512.85l-1.24-.06a.55.55,0,0,0,.55.51C622.87,513.35,622.9,512.85,622.9,512.85Z"/><path class="cls-17" d="M622.9,512.85l-1.24-.06a.55.55,0,0,0,.55.51C622.87,513.35,622.9,512.85,622.9,512.85Z"/><path class="cls-23" d="M629.88,522.51c.07-.2-.88-.35-.93-.55s1.2-.21,1.24-.38c.08-.32-1.37-.07-1.34-.22s1.51-.48,1.35-.74-1.5.51-1.54.34,1.31-.6,1.28-1c0-.2-2.21,1-2.47.91s.27-1.06.07-1.2-.78,1.94-.92,2a31.57,31.57,0,0,1-4.18,2c-.13-.35-1.06-2.22-1.18-2.55-.59.42-1.28.51-1.9.9a18.87,18.87,0,0,0,2.3,4c1,.42,4.59-2.6,5.32-3.12s1.14-.35,1.64-.52S629.82,522.7,629.88,522.51Z"/><path class="cls-26" d="M619.08,522.39a27,27,0,0,1-1.48-3.95c-.2-1.1.75-2.48,1.75-2.39s2.49,5,2.49,5Z"/><rect class="cls-21" x="609.42" y="536.21" width="1.1" height="14.47"/><rect class="cls-21" x="662.23" y="536.21" width="1.1" height="14.47"/><rect class="cls-21" x="685.1" y="519.68" width="0.98" height="14.67"/><rect class="cls-21" x="733.69" y="519.68" width="0.98" height="14.67"/><rect class="cls-22" x="681.72" y="517.66" width="56.34" height="2.92" rx="0.75"/><rect class="cls-22" x="681.72" y="521.8" width="56.34" height="2.92" rx="0.75"/><rect class="cls-22" x="681.72" y="525.94" width="56.34" height="2.92" rx="0.75"/><path class="cls-22" d="M683.69,533.23h52.38a2.25,2.25,0,0,1,2.25,2.25v0a0,0,0,0,1,0,0H681.44a0,0,0,0,1,0,0v0A2.25,2.25,0,0,1,683.69,533.23Z"/><rect class="cls-21" x="680.83" y="535.19" width="58" height="1.02" rx="0.51"/><rect class="cls-21" x="683.17" y="536.21" width="1.1" height="14.47"/><rect class="cls-21" x="735.98" y="536.21" width="1.1" height="14.47"/><rect class="cls-21" x="275.77" y="519.68" width="0.98" height="14.67"/><rect class="cls-21" x="324.35" y="519.68" width="0.98" height="14.67"/><rect class="cls-22" x="272.38" y="517.66" width="56.34" height="2.92" rx="0.75"/><rect class="cls-22" x="272.38" y="521.8" width="56.34" height="2.92" rx="0.75"/><rect class="cls-22" x="272.38" y="525.94" width="56.34" height="2.92" rx="0.75"/><path class="cls-22" d="M274.36,533.23h52.38a2.25,2.25,0,0,1,2.25,2.25v0a0,0,0,0,1,0,0H272.11a0,0,0,0,1,0,0v0A2.25,2.25,0,0,1,274.36,533.23Z"/><rect class="cls-21" x="271.49" y="535.19" width="58" height="1.02" rx="0.51"/><rect class="cls-21" x="273.83" y="536.21" width="1.1" height="14.47"/><rect class="cls-21" x="326.64" y="536.21" width="1.1" height="14.47"/><rect class="cls-21" x="197.73" y="519.68" width="0.98" height="14.67"/><rect class="cls-21" x="246.31" y="519.68" width="0.98" height="14.67"/><rect class="cls-22" x="194.34" y="517.66" width="56.34" height="2.92" rx="0.75"/><rect class="cls-22" x="194.34" y="521.8" width="56.34" height="2.92" rx="0.75"/><rect class="cls-22" x="194.34" y="525.94" width="56.34" height="2.92" rx="0.75"/><path class="cls-22" d="M196.32,533.23H248.7a2.25,2.25,0,0,1,2.25,2.25v0a0,0,0,0,1,0,0H194.07a0,0,0,0,1,0,0v0a2.25,2.25,0,0,1,2.25-2.25Z"/><rect class="cls-21" x="193.45" y="535.19" width="58" height="1.02" rx="0.51"/><rect class="cls-21" x="195.79" y="536.21" width="1.1" height="14.47"/><rect class="cls-21" x="248.6" y="536.21" width="1.1" height="14.47"/><path class="cls-23" d="M289.28,546l-.1,1.66c0,.21-.18.72-.18.92,0,.71,3.41-.61,2.65-.93-.07,0-.44-.25-.46-.49s-.12-1.14-.12-1.14Z"/><path class="cls-26" d="M291.64,547.66s-.8.22-1.21.28-.95-.41-1.24-.29-.31,1.38-.31,1.38,4.29.35,5.5,0C294.86,548.87,293.27,548.17,291.64,547.66Z"/><path class="cls-23" d="M295.07,546l-.1,1.66a7.85,7.85,0,0,0-.18.92c0,.71,3.41-.61,2.64-.93-.07,0-.58-.12-.61-.37s-.1-1.54-.1-1.54Z"/><path class="cls-26" d="M297.42,547.66s-.8.22-1.21.28-.95-.41-1.24-.29-.3,1.38-.3,1.38,4.29.35,5.49,0C300.64,548.87,299.06,548.17,297.42,547.66Z"/><path class="cls-27" d="M284.09,528.26l8.15,0s3.68-.1,4.26,1.17.44,17.44.44,17.44a12.06,12.06,0,0,1-2.06.18l-2.21-9.68a6.71,6.71,0,0,1-.24-2.52l.21-2.25-3.36.17s-3.81-.06-5.07-1.33S284.09,528.26,284.09,528.26Z"/><path class="cls-5" d="M278.57,527.36l8.76.54s3.77.31,4.35,1.58-.37,17.57-.37,17.57a15.9,15.9,0,0,1-2.18,0c0-.11-.9-7.47-1.4-9.79a8.11,8.11,0,0,1-.17-2.25l.32-1.83s-7.9.41-8.31,0C278.32,532,278.57,527.36,278.57,527.36Z"/><polygon class="cls-29" points="288.36 518.24 286.01 518.36 286.01 520.61 288.42 520.45 288.36 518.24"/><path class="cls-30" d="M286.28,519.35a12.54,12.54,0,0,1-2.65-2.55c-.62-1.07.41-.38,1.47-.66.4-.1.3-2.45,1.06-1.69a14.11,14.11,0,0,1,2.26,3.74Z"/><path class="cls-31" d="M283.26,513.37s-2.26-.55-3.37.64c-.87.94-1.5,15.17-1.5,15.17s7.55-.32,8.59-2.13c0,0,.5-6.91.46-7.78a23.75,23.75,0,0,0-1.26-4.81C285.92,514.08,283.26,513.37,283.26,513.37Z"/><path class="cls-23" d="M283.22,510.28l0,.17a16.74,16.74,0,0,1-.73,2.74c-.31.58,1.05,2.42,2.35,2.2.39-.07-.32-1.69-.29-1.87s.16-.78.25-1.24l.15-.77c.14-.7.25-1.28.25-1.28Z"/><path class="cls-14" d="M283.17,510.54l0-.18,2,0s-.12.57-.26,1.28c0,.24-.1.51-.15.77a1.91,1.91,0,0,1-.93-.47,2.43,2.43,0,0,1-.71-1A2.73,2.73,0,0,0,283.17,510.54Z"/><path class="cls-23" d="M296.69,518.92a1.23,1.23,0,0,1,.11-.71c.11-.28.1-.83.26-.73s0,.6.13.56.57-1.07.72-1-.33,1-.2,1,.46-.94.67-.81-.49,1-.38,1.09.54-.5.71-.4-.62.76-.55.74.58-.22.62-.12-1,.59-1.12.85-1.74,2.9-2.28,3a7.63,7.63,0,0,1-3.38-1.84c-.24-.52-.08-1.11.27-1.22s2.79,1.28,2.9,1.24S296.69,518.92,296.69,518.92Z"/><path class="cls-28" d="M297.16,518a.62.62,0,0,1,.14.23.66.66,0,0,1-.07.56A1,1,0,0,0,297.16,518Z"/><path class="cls-23" d="M288.77,531.74a3.61,3.61,0,0,0,.92.38,21.53,21.53,0,0,1-.81,2.76.56.56,0,0,1-.3-.37c0-.23-.12-1.31-.49-1.63-.09-.09-1.15-1-2-1.91.3-.34,1.24-.41,1.49-.78A12.31,12.31,0,0,1,288.77,531.74Z"/><path class="cls-31" d="M289.11,531.92s-.46,1.61-.59,1.81.1,1.72.32,1.67a10,10,0,0,0,1.34-3.07C290.12,532,289.11,531.92,289.11,531.92Z"/><path class="cls-23" d="M287.24,534.48a3.17,3.17,0,0,0,.62.77,23.14,23.14,0,0,1-2.17,1.91.5.5,0,0,1-.07-.46,4.29,4.29,0,0,0,.46-1.93,9.73,9.73,0,0,0-.63-1.47,11.31,11.31,0,0,0,1.29-.54C287,533.38,287.2,534.39,287.24,534.48Z"/><path class="cls-26" d="M287.42,525.23a46.74,46.74,0,0,0-3.35,3.58c-.23.43,1.17,4.88,1.17,4.88a3.77,3.77,0,0,0,1.87-.63,21.24,21.24,0,0,1-.55-3.24c.14-.14,3.62-2.16,3.62-2.16l-.44-1.84Z"/><path class="cls-14" d="M290.71,523.29a10.85,10.85,0,0,1-1.83,2c-.48.28-4.43,2.24-4.23,3.46a17.85,17.85,0,0,0,2,3.22l1.6-1.23a6.85,6.85,0,0,1-.88-1.35c.05-.18,3.59-.68,4.44-1.48s.33-3.13.33-3.13Z"/><path class="cls-32" d="M289.77,518.49a9.81,9.81,0,0,1-1.37-.25c-.37-.13-2.75,7.75-1.92,7.93l5.67,1.21a5.71,5.71,0,0,0,.3-3.14,13.17,13.17,0,0,1-.42-2.82l1.55.71.7-2.5s-2.11-.85-2.85-1C291.22,518.58,289.77,518.49,289.77,518.49Z"/><path class="cls-31" d="M287.42,534.77s-1.32,1.2-1.56,1.32-.64,1.52-.4,1.59a10.11,10.11,0,0,0,2.8-2C288.36,535.41,287.42,534.77,287.42,534.77Z"/><path class="cls-22" d="M289.74,513.22a1.12,1.12,0,0,0-1.31.52c-.52.81-.24.73-.49,1.14s-.91.32-.91.94.3.73.3.73a1.07,1.07,0,0,0,0,1,1.87,1.87,0,0,0,1.64.87,2.84,2.84,0,0,0,1.84.26c.92-.23.6-.23,1-.23s1.4-.52,1.23-1.27a1,1,0,0,0,0-1.35,5.37,5.37,0,0,1-1.07-2C291.64,513,290.16,513,289.74,513.22Z"/><path class="cls-23" d="M289.21,517.53a5.31,5.31,0,0,1-.07,1.22.41.41,0,0,0-.1.54c.16.26.82.09,1.13-.06a1.49,1.49,0,0,0,.5-.41l-.16-1.77Z"/><path class="cls-14" d="M289.65,518a1.57,1.57,0,0,0,.88-.69l0-.25-1.3.48s0,.27,0,.56A1.36,1.36,0,0,0,289.65,518Z"/><path class="cls-23" d="M290.74,515.8s0-.66.43-.53.1,1.11-.24,1.08S290.74,515.8,290.74,515.8Z"/><path class="cls-23" d="M289.48,513.66a1.19,1.19,0,0,0-1,.48,3.22,3.22,0,0,0-.14,2.84c.53,1,1.2.73,1.48.63A1.64,1.64,0,0,0,291,516.4C291.26,515.5,291.06,513.47,289.48,513.66Z"/><path class="cls-23" d="M289.63,521.13a5.09,5.09,0,0,1,.42-1,1.23,1.23,0,0,1,.37-.36s.34-.2.41-.13a.2.2,0,0,1,0,.25c0,.06-.19.12-.24.18a.63.63,0,0,0,0,.38c0,.08,1-.54,1-.54s.27-.19.35-.26.28-.26.28-.26.3-.26.38-.16-.16.37-.4.63-.57.53-.55.57.59-.25.59-.25a2.16,2.16,0,0,1,.34-.27c.11-.16.36-.35.45-.22a3.73,3.73,0,0,1-.25.39s-.22.19-.31.29a7.5,7.5,0,0,1-.61.46c-.1.09,0,.1,0,.12l.37-.23a1.9,1.9,0,0,0,.35-.21,3.62,3.62,0,0,1,.37-.26c.28-.16.33.05.1.25l-.29.24c-.39.32-.8.53-.79.58s.77-.36.77-.36.47-.11.12.18a3.89,3.89,0,0,1-.79.53,3.47,3.47,0,0,1-.9.42l-1,.2Z"/><path class="cls-23" d="M281.16,519.72l2.18-.42s.5,1.81.59,2c0,0,4.09,0,5.7-.17l.58,1.18c-.32,0-.58.05-.73.08l-5,1s-1.91.28-2.13,0S281.16,519.72,281.16,519.72Z"/><path class="cls-30" d="M281.28,521.7s-2-4.66-2.07-6,1.28-2.72,2.4-2.43,2.46,7.22,2.46,7.22Z"/><path class="cls-17" d="M289.74,516.56l-1,0a.43.43,0,0,0,.43.4C289.71,517,289.74,516.56,289.74,516.56Z"/><path class="cls-23" d="M283.89,506.52c-.06,0-1.26,2.92-.69,4s2,1.71,2.74,1.19,1.61-3.88.61-5.06S283.89,506.52,283.89,506.52Z"/><path class="cls-33" d="M286.51,504.86a3.52,3.52,0,0,0-2,.55,2.29,2.29,0,0,0-1.94.87,2.57,2.57,0,0,0-.17,3.41,2.58,2.58,0,0,1,.65,1.57,8.16,8.16,0,0,0,.42-1.19,2,2,0,0,0,0-.6c-.09-.49.64-.62.91-.94s.39-.9.73-1.31l.36-.29a1.71,1.71,0,0,1,1.29,0C287.29,507.19,287.78,504.92,286.51,504.86Z"/><path class="cls-23" d="M284.17,509.06c-.09.38-.34.64-.55.59s-.32-.4-.23-.77.34-.64.55-.59S284.26,508.69,284.17,509.06Z"/><path class="cls-17" d="M285.22,510.25l1.2.25a.53.53,0,0,1-.65.35C285.12,510.74,285.22,510.25,285.22,510.25Z"/><path class="cls-28" d="M308.9,522.22c-.1-.15.65-.49.65-.66s-1,.09-1.1,0,1.11-.36,1.05-.48-1.33-.06-1.25-.3,1.33.07,1.32-.08-1.19-.19-1.25-.51c0-.17,2,.33,2.21.18s-.45-.81-.31-1,1,1.42,1.17,1.44a25.12,25.12,0,0,0,3.84.73c0-.32.39-2.07.42-2.37.57.21,1.15.13,1.73.31a16.84,16.84,0,0,1-1,3.8c-.69.56-4.29-1.1-5-1.36s-1,0-1.44,0S309,522.36,308.9,522.22Z"/><path class="cls-23" d="M308.13,544.91a15.35,15.35,0,0,0-.06,2.53,3.08,3.08,0,0,0,.09.3,4,4,0,0,1-.21,1.42l-4.35,0c-.24,0-.08-.15.12-.29a8.24,8.24,0,0,1,1.57-.85,3.29,3.29,0,0,0,.39-.23,2.63,2.63,0,0,0,.63-.54,5.48,5.48,0,0,0,.37-2Z"/><path class="cls-23" d="M303.21,541.74A15.71,15.71,0,0,0,302.1,544c0,.08,0,.19-.05.31,0,.37-.77,1.21-.77,1.21l-4-1.79c-.21-.1,0-.17.23-.22a9.19,9.19,0,0,1,1.78-.11l.45,0a3.13,3.13,0,0,0,.8-.23c.43-.18,1.17-1.69,1.17-1.69Z"/><path class="cls-27" d="M317.15,511.14a3.37,3.37,0,0,1,2.32-2.52c3.55-1.18,5.52,3.23,8.36,4.25.86.3,1.76.48,2.59.83a3.33,3.33,0,0,1,.2,1.16,4.87,4.87,0,0,1-.21,1.21l-1.14-.24.82,1.07a13.26,13.26,0,0,1-2.39,3.18,11.7,11.7,0,0,1-4.45,2.88,42.88,42.88,0,0,1-2.86-3.45,17.28,17.28,0,0,1-2.74-4.47A7.82,7.82,0,0,1,317.15,511.14Z"/><path class="cls-26" d="M299.77,543.37a4,4,0,0,0,2.28,1c0,.36-.32,1.53-.44,1.47-1-.45-1.92-.64-4.74-2-.1,0,.07-.39.17-.44A22.69,22.69,0,0,1,299.77,543.37Z"/><path class="cls-9" d="M317.5,516.21c-1.7.58-2.5,4.65-2.5,4.65s2.67.74,3.35.35c0,0,.78-3.44,1.06-3.32Z"/><path class="cls-14" d="M319.28,515.65h0a19.23,19.23,0,0,0-1.9.61c-.65.27-1,2.42-.94,5.06,0,.41.33,6.63.36,6.65.78.5,5.42.75,5.75.32s.57-7.8.72-8.06l.22-3.12s-.17-.86-.35-.9A28.28,28.28,0,0,0,319.28,515.65Z"/><path class="cls-23" d="M321.19,514a12,12,0,0,0-.25,2.19c.07.61-.23,2.6-1.53,2.61s-.25-2.53-.13-3.13a24,24,0,0,0,.15-2.48Z"/><path class="cls-14" d="M319.41,514.11c0-.52,0-.94,0-.94l1.76.81s-.06.32-.13.73A1.52,1.52,0,0,1,319.41,514.11Z"/><path class="cls-23" d="M320.52,509.42a2.15,2.15,0,0,1,1.25.84,2.92,2.92,0,0,1-.61,3.8c-1.5,1-2.74-.31-2.81-1.65S318.51,509.25,320.52,509.42Z"/><path class="cls-23" d="M318,512c.14.32.41.51.59.43s.22-.41.08-.73-.41-.52-.59-.43S317.84,511.68,318,512Z"/><path class="cls-27" d="M320.29,509.38s1,2.12,1.89,2.29.88,1.24.88,1.24-.11-2.5-.92-3A3.39,3.39,0,0,0,320.29,509.38Z"/><path class="cls-23" d="M321.86,512.12c-.1.36,0,.7.26.77s.51-.17.61-.52,0-.7-.26-.77S322,511.77,321.86,512.12Z"/><path class="cls-27" d="M316.74,527.53v1l-9.23,1.94-2.29,6.88,1.28-.87L306.21,547l1.94,0s3.36-8.89,2.25-13.35l10.21.15s4.63-1.79,2.24-7.17Z"/><path class="cls-34" d="M316.74,528.51s-9.57.06-10.25.59-5.78,13.52-5.78,13.52l2.23.83s4.42-7.37,4.65-7.9,2-4.37,2.61-4.76S316.74,528.51,316.74,528.51Z"/><path class="cls-23" d="M324.35,518.39l-1.6,1.34,1.58,2.58a32.79,32.79,0,0,1-4.92,1.21l.14,1s5.65.24,6.51-1.09C326.79,522.26,324.36,518.37,324.35,518.39Z"/><path class="cls-23" d="M320.23,524.51l-.44-1.06c-.13,0-1,0-1,0a10.15,10.15,0,0,0-1.12-.61c-.09,0-.38-.08-.4,0a.13.13,0,0,0,.08.18l.2.09c.07,0,.25.13.26.22a4.8,4.8,0,0,1-1.07,0s-.31,0-.41,0l-.34-.07s-.43-.06-.44.05,1.39.43,1.39.5-.59.09-.59.09a1.88,1.88,0,0,0-.4-.06c-.17-.06-.49-.07-.5.07a2.41,2.41,0,0,0,.42.16l.39.09a6.88,6.88,0,0,0,.7.07c.13,0,.08.06.09.07h-.4a1.69,1.69,0,0,1-.39,0,3,3,0,0,0-.41,0c-.31,0-.26.19,0,.24l.34.05c.47.07.9,0,.91.09a3.39,3.39,0,0,1-.78.08s-.43.13,0,.2a2.66,2.66,0,0,0,.89,0,3.51,3.51,0,0,0,.91-.11A19.79,19.79,0,0,1,320.23,524.51Z"/><path class="cls-14" d="M323.14,516.21c1.59.65,2.66,4.65,2.66,4.65s-2.66.74-3.35.35c0,0-.77-3.44-1.05-3.32Z"/><path class="cls-26" d="M305.68,547.67a3.91,3.91,0,0,0,2.48-.07c.12.35.34,1.53.21,1.53-1.09,0-2,.21-5.14.16-.11,0-.1-.39,0-.47A21.13,21.13,0,0,1,305.68,547.67Z"/><path class="cls-17" d="M319.22,513.17l1.18.13a.53.53,0,0,1-.6.41C319.16,513.66,319.22,513.17,319.22,513.17Z"/><path class="cls-35" d="M209.42,524l.09,6.27,2.73.81-.33-4.38.17-2.9a16,16,0,0,0-2.15-.45C209.87,523.44,209.42,524,209.42,524Z"/><path class="cls-34" d="M210,517.42c.12,0,.46.12.95,1,.62,1.17.94,5.84.94,5.84l-2.13-.1-.35-.74-.58-5.71Z"/><path class="cls-30" d="M206.42,516.91a16.87,16.87,0,0,1,3.6.51s1.73,5.94.48,10.22a22.65,22.65,0,0,0-.27,3.86l-9-.42s1.32-7.17,1-8.35a32.66,32.66,0,0,1-.37-5.27l1.82-.31A18.65,18.65,0,0,1,206.42,516.91Z"/><path class="cls-5" d="M208.34,530.64s4.78-.71,6.12,0-1.43,4.18-1.43,4.18-3.67-.24-4.75-.23a46.39,46.39,0,0,1-6.27,0c-1.91-.28-1.7-3.52-1.34-3.92S208.34,530.64,208.34,530.64Z"/><path class="cls-23" d="M210.09,547.92a2.06,2.06,0,0,0,.21,1.45c.41.57,2.09,1.08,2.31,1.39a1,1,0,0,1,.22.58h-4.67v-1.74l.19-1.25Z"/><path class="cls-33" d="M210.6,549.65s-1.19.64-1.77.31-.57-.43-.74-.29a7.2,7.2,0,0,0-.18,1.76h5.24c.36,0,.54-.36.24-.63a4.41,4.41,0,0,0-.58-.4A14.7,14.7,0,0,0,210.6,549.65Z"/><path class="cls-24" d="M211.74,532.06c.44-.89,1.53-2.17,2.9-1.26s1,3.63.39,5.33-4.27,11.6-4.48,13l-2.27-.27s1.08-8.08,1.35-10A28.78,28.78,0,0,1,211.74,532.06Z"/><path class="cls-23" d="M205,545.31a17.05,17.05,0,0,0,.53,3.38,4.08,4.08,0,0,1,0,2.15c0,.17-.72.41-1.84.26s-1.1-.46-1-1,.69-1.17.73-1.66a16.08,16.08,0,0,0-.35-2.25Z"/><path class="cls-33" d="M203.52,551.46c-1.15-.15-1-.84-.91-1.37a5.29,5.29,0,0,1,.58-1.09,1.87,1.87,0,0,0,.77.46c.52.19,1.23-.18,1.69-.42a8.07,8.07,0,0,1,.15,1.83A2.93,2.93,0,0,1,203.52,551.46Z"/><path class="cls-24" d="M204.22,535.54l1.38,12.92-2.67.41s-3.28-14-3.11-16.19,1.4-2.33,1.4-2.33S203.6,529.82,204.22,535.54Z"/><path class="cls-27" d="M205.79,509.37a1.07,1.07,0,0,0-1.68.41,2.86,2.86,0,0,0-.46,0,4,4,0,0,0-.71.37,2.58,2.58,0,0,0-1.32,2,2.93,2.93,0,0,0,.84,2.42,2.53,2.53,0,0,0,.63.59c.3.18.56.07.85.16s.32.33.62.26.9-.53,1.41-.42a5.75,5.75,0,0,0,1.74-.22c1.57-.43.79-3.22.59-4.21A2.18,2.18,0,0,0,205.79,509.37Z"/><path class="cls-23" d="M206.59,515.64l.31,1,.16.57a.54.54,0,0,1-.48.77,1.8,1.8,0,0,1-2-.91l-.27-3.17Z"/><path class="cls-14" d="M204.42,515a3.89,3.89,0,0,0,2.48,1.72l-.31-1-2.26-1.71Z"/><path class="cls-23" d="M205.09,510.76a1.76,1.76,0,0,1,2.4,1,11.23,11.23,0,0,1,.35,1.48c.22,1.36-.35,2.78-1,2.86a3.13,3.13,0,0,1-3-2.5A2.51,2.51,0,0,1,205.09,510.76Z"/><path class="cls-23" d="M204.33,513.67a.51.51,0,0,1-.41.6.54.54,0,0,1-.56-.49.51.51,0,0,1,.4-.6A.54.54,0,0,1,204.33,513.67Z"/><path class="cls-27" d="M206.32,514.38s-.9.19-1,.48a1,1,0,0,0,.37,1.08,1.73,1.73,0,0,0,1.59.07,1.33,1.33,0,0,0,.32-1.35C207.39,514.22,206.32,514.38,206.32,514.38Z"/><path class="cls-23" d="M206,515s0,.33.09.4a1,1,0,0,0,.39.15.62.62,0,0,0,.55-.18l0-.05a1.32,1.32,0,0,0,.14-.44,2.26,2.26,0,0,0-.57-.1A2.75,2.75,0,0,0,206,515Z"/><path class="cls-36" d="M211.64,513.48c-.11,0-.13-.15-.14-.37a3.09,3.09,0,0,0-.5-1c-.44-.72-.94-1.54-.77-2.1a.72.72,0,0,1,.42-.45.55.55,0,0,1,.57,0c.79.53.71,3.33.71,3.45l0,.09h0c-.11.31-.2.35-.25.35Zm.12-.46c0-.79,0-2.91-.63-3.3a.4.4,0,0,0-.41,0,.52.52,0,0,0-.33.35c-.15.49.35,1.31.75,2a3.22,3.22,0,0,1,.53,1.09.53.53,0,0,0,0,.14,1.47,1.47,0,0,0,.07-.17Z"/><path class="cls-36" d="M211.8,550c.17,0,.31-.2.31-.44l0-36.09c0-.25-.14-.45-.32-.45s-.31.2-.31.45l.05,36.09C211.49,549.83,211.63,550,211.8,550Z"/><path class="cls-14" d="M211.46,551.34h.71a.21.21,0,0,0,.19-.24l-.11-1.52a.2.2,0,0,0-.19-.2h-.54a.21.21,0,0,0-.19.21l-.07,1.52A.22.22,0,0,0,211.46,551.34Z"/><rect class="cls-14" x="211.25" y="512.86" width="1.01" height="4.8" rx="0.51" transform="translate(432.01 1026.95) rotate(179.05)"/><path class="cls-23" d="M203.17,523s.07,2.31.13,2.57c0,0,4.54,1,6.54,1.27h.07s.09,0,.12,0a2.21,2.21,0,0,1,.64-.58.93.93,0,0,1,1-.18,1.24,1.24,0,0,0,.39.1,1.28,1.28,0,0,1,.52.2.33.33,0,0,1,.13.43,1.1,1.1,0,0,0-.12.33c0,.19-.44,1.7-.76,1.73a6,6,0,0,1-1.32-.29,1.36,1.36,0,0,0-.61-.12h-.13c-1.48-.08-6.44-.24-6.44-.24s-2.37-.22-2.54-.62-.33-4.71-.33-4.71Z"/><path class="cls-30" d="M200.29,524.45c-.14-2.86-.12-6.38,1.49-7,.63-.24,1.75,1.19,1.55,7A12.43,12.43,0,0,1,200.29,524.45Z"/><path class="cls-37" d="M231.92,510.34a11.68,11.68,0,0,0-1.8,4c-.62,2.46.92,5.79.92,5.79l-1,2.14s-.51,5-.43,6,.43,13.13.43,13.13l2.07.47s-.59-12.67-.52-12.92,1.26-16.24,1.26-16.24Z"/><path class="cls-38" d="M229.5,552.19a8.29,8.29,0,0,1,1.54-.85l.38-.24a2.79,2.79,0,0,0,.61-.54,3,3,0,0,0,.3-1.33c-.1-1.12-1.72-19.09-2.07-21a18.56,18.56,0,0,1,.19-5.07l1.25-.47,2.38,8.25-.19,6.28a16.75,16.75,0,0,1,.63,2.89c.07,1.08-.8,9.86-.8,9.86h0a5.23,5.23,0,0,0,0,.77c.07.33.43,1,.26,1.32a.76.76,0,0,1-.35.38l-4.28.07C229.16,552.48,229.31,552.33,229.5,552.19Z"/><path class="cls-38" d="M236,522.48a13.91,13.91,0,0,1,1.84,4.09c.35,1.86-.26,7.55.42,10,.37,1.32,1.76,3.35,2,5.05s1,6.6,1,6.6h0a4.16,4.16,0,0,0,.51,1.45,4.27,4.27,0,0,1,.56.74,2.14,2.14,0,0,1-.08,1.69c-.09.21,0,.21-.21.28a1.37,1.37,0,0,1-1.65-.78,3.85,3.85,0,0,1-.33-1.42,6,6,0,0,0-.23-1.51h0L235,537l-3.43-10-.88-5.18Z"/><path class="cls-27" d="M240.18,551.25a2.09,2.09,0,0,0,2.07-.87,2.31,2.31,0,0,1,.19,1.7c-.17.37-.66.36-1.05.37a1,1,0,0,1-.93-.57A3.11,3.11,0,0,1,240.18,551.25Z"/><path class="cls-27" d="M231.42,551.1a3.85,3.85,0,0,0,2.43-.09,1.84,1.84,0,0,1,.2,1c-.1.3-.25.37-.38.37-1,0-3.79.07-4.57.08a.13.13,0,0,1-.1-.21A21.06,21.06,0,0,1,231.42,551.1Z"/><path class="cls-14" d="M235,537l-.27,0h-.3l-.26,0h-.29a17.66,17.66,0,0,1-3.07-.12c-.41-4.1-.56-7.84-.71-8.67a16.82,16.82,0,0,1,.32-5.18l.33-.06-.21-1.17,5.51.69a13.9,13.9,0,0,1,1.92,4.1c.36,1.85-.27,7.55.43,10C238.43,536.66,236.86,536.91,235,537Z"/><path class="cls-37" d="M230.8,514.33c-.08.31-.82,2.16-.9,2.49-1-.15-3.9-1-4-1.07l-.47,1.17.25.12c.71.41,5,2.68,5.83,2.2.27-.15.94-3.63,1.24-4.69C232.12,514.26,231.38,514.65,230.8,514.33Z"/><path class="cls-23" d="M225.39,516.92l.47-1.17.11,0-.11,0c-.13-.06-.88-1.77-1.05-1.62s.4,1,.18,1.09-2.34-.78-2.34-.59c0,.35,1.29.61,1.27.77s-1.32-.41-1.44-.16,1.26.41,1.3.55-1.3,0-1.2.32,1.2,0,1.17.23-.87.42-.79.59.68-.3,1.14-.2a4.41,4.41,0,0,1,1.29.19Z"/><path class="cls-27" d="M230.61,506.69a4.18,4.18,0,0,1,.15-3.06,2.79,2.79,0,0,1,2.18-1.49c2.62-.31,2.06,2.14,5.72,2.67a8.2,8.2,0,0,1,3.14.88c1.72,1,2.36,2.66,1.23,5.33-2.79,6.54-9.45.86-10.47-.3A12,12,0,0,1,230.61,506.69Z"/><path class="cls-14" d="M234.73,509.79a3.81,3.81,0,0,1,2.12,1c.79.86-1.28,7.78-1.42,8.87s1.37,4.13,1.37,4.13-5.16,1-6.5.14c0,0-.12-8.46,0-9.25a23.3,23.3,0,0,1,1.63-4.27A11.32,11.32,0,0,1,234.73,509.79Z"/><path class="cls-23" d="M234.07,507.13l0,.16a9.1,9.1,0,0,1,.21,2.82c-.14.58-.51,1.9-1.7,1.69-.36-.06.3-1.55.27-1.7-.06-.3-.14-.72-.23-1.14,0-.24-.09-.48-.14-.7-.12-.65-.23-1.18-.23-1.18Z"/><path class="cls-14" d="M234.1,507.29l0-.16-1.79-.05s.11.53.23,1.18c.05.22.1.46.14.7a1.7,1.7,0,0,0,.86-.43,2.23,2.23,0,0,0,.64-1C234.13,507.46,234.11,507.36,234.1,507.29Z"/><path class="cls-23" d="M233,502.88a2.11,2.11,0,0,1,1.26.78c.53.68,1.1,2.79-.21,3.94s-2.61-.15-2.8-1.53S231.08,502.83,233,502.88Z"/><path class="cls-23" d="M230.85,505.73c.09.33.3.56.49.5s.27-.37.18-.7-.3-.55-.48-.5S230.77,505.4,230.85,505.73Z"/><path class="cls-27" d="M232.18,502.89s1.72,2,2.52,2.06.91,1.15.91,1.15-.28-2.45-1.08-2.92A4.66,4.66,0,0,0,232.18,502.89Z"/><path class="cls-23" d="M234.44,505.42c-.07.36.07.69.29.73s.47-.2.53-.56-.06-.68-.29-.73S234.5,505.07,234.44,505.42Z"/><path class="cls-17" d="M232.06,506.75h1.24a.54.54,0,0,1-.57.49C232.06,507.26,232.06,506.75,232.06,506.75Z"/><path class="cls-37" d="M238.2,526.53c-.52-2.4-2.37-4.25-2.49-6.73.11-1.06,2.66-7.35,1.83-8.36-.68-.83-1.92-1.75-2.71-1.64a11.12,11.12,0,0,0-1.93,4.79c-.24,2.83-.39,22.51,0,27.09,1.12.06,7.53-.22,7.53-.23C240,538.4,238.57,528.38,238.2,526.53Z"/><rect class="cls-22" x="229.18" y="515.77" width="6.2" height="8.07" rx="0.3" transform="translate(-72.79 39.09) rotate(-8.32)"/><path class="cls-27" d="M230.33,515.76a.07.07,0,0,1,.06-.07l2.31-.33s.06,0,.07,0l0,.24-2.43.35Z"/><path class="cls-27" d="M231.19,515.65a.37.37,0,1,0,.73-.11.37.37,0,1,0-.73.11Zm.13,0a.24.24,0,0,1,.2-.27.24.24,0,1,1,.07.47A.24.24,0,0,1,231.32,515.63Z"/><path class="cls-14" d="M230.36,515.7a.09.09,0,0,0,0,.06l0,.24,2.43-.35a.29.29,0,0,1-.26.34l-1.83.27a.3.3,0,0,1-.34-.26l0-.24A.09.09,0,0,1,230.36,515.7Z"/><path class="cls-23" d="M231.91,520.52l-.43.09s-.66-.37-.92-.49a6.06,6.06,0,0,0-1.13-.27c-.16,0-.1.15,0,.21a1.3,1.3,0,0,1,.58.43,1,1,0,0,1-.43,0c-.15-.06-.36-.21-.36-.28s0-.25-.09-.24,0,.06,0,.12a1.21,1.21,0,0,0-.05.18c0,.1,0,.25-.06.32a4.53,4.53,0,0,0,.08.74c0,.28.1.41.25.48a4,4,0,0,0,.86.17,6,6,0,0,0,1.59-.15l.53-.06Z"/><path class="cls-37" d="M238,512.08a3.18,3.18,0,0,0-1.53-1.68c-.18-.12-.35.28-.64.69-1.11,1.51-1.07,2.75-.55,5.23l.59,2.8a31.44,31.44,0,0,1-4.35,1.48,7.85,7.85,0,0,0,.08,1.22l.2,0,4.64-.47s1.74-.25,1.85-.55a8.64,8.64,0,0,0,.08-1.42h0S238.48,513.32,238,512.08Z"/><path class="cls-23" d="M415.07,531.59c.13-.37,2.36-7.28,2.36-7.28l-3.43.76-1.56,5.37c-.13.27-2.54,6.77-3.38,8.86a1.36,1.36,0,0,1-1,.82h0a4.82,4.82,0,0,0-1,.35c-.14.09-.43.3-.6.43s-.37.27-.45.35a1.05,1.05,0,0,1-.3.14.18.18,0,0,0,0,.34.82.82,0,0,0,.49-.05c.37-.13.85-.52.87-.46a11.75,11.75,0,0,1-.59,1.06,12,12,0,0,0-.75,1.4c-.06.25.08.32.2.24s1.1-1.44,1.1-1.44.12-.18.15-.07a17.94,17.94,0,0,1-1,1.58c-.09.22-.06.41.16.35s1.13-1.46,1.13-1.46.11-.17.16-.1-.72,1.13-.74,1.26.07.27.26.18a7.88,7.88,0,0,0,1-1.36s.08-.08.1,0a11.43,11.43,0,0,0-.57,1.16.12.12,0,0,0,.13.12c.25,0,.7-1,1.05-1.37S414.92,532,415.07,531.59Z"/><path class="cls-28" d="M429,568.43s.74.71.75,1,.07,3.07-.23,3.33-1.18.45-.9.74a8.58,8.58,0,0,0,2.95.12c.31,0,.71-2.55.84-2.93.18-.54.63-1.76.46-2.13a3.21,3.21,0,0,0-1-.92,5,5,0,0,1-1.13-1.19Z"/><path class="cls-23" d="M421.43,570.09l.65,1.86a13,13,0,0,1,.24,1.28c0,1-4.51-.85-3.5-1.29a1.07,1.07,0,0,0,.41-.7,2.43,2.43,0,0,0-.38-1.19Z"/><path class="cls-27" d="M414.34,535.61S414,538.93,414,539c0,5.37-1.06,15.86-.86,16.87.49,2.46,5.81,15,5.81,15l2.87-.34-3.74-15,1.37-6,2-12Z"/><path class="cls-5" d="M424,538.55l.54,3.15L426,554.64l5.61,12.66s-.79,1.84-1.95,2.1l-8.94-13-5.55-16.63.19-3.69Z"/><path class="cls-39" d="M413.19,527.71l4,.41s.18-3.27.18-4.82c0-1.89-.16-4.33-.39-4.28a3.5,3.5,0,0,0-2,1.21C413.18,522.67,413.19,527.71,413.19,527.71Z"/><path class="cls-31" d="M415.15,523c-.08.58-1.61,16.24-1.61,16.24,7.25,3.5,11.25.63,11.25.63s-.24-11,0-12.5c.19-1,.42-7.57-.22-7.76a17.2,17.2,0,0,0-2.8-.59,26.41,26.41,0,0,0-4.9.06A7.76,7.76,0,0,0,415.15,523Z"/><path class="cls-27" d="M431.83,567.61s-1.69,4.75-2.35,5c-.17.06-1,.21-1.17.59a1.5,1.5,0,0,0,0,.48h3.51s.45-2.09.62-3a13.25,13.25,0,0,0,.83-2.45C433.17,568,431.83,567.61,431.83,567.61Z"/><path class="cls-27" d="M422.58,573.56l-.52-1.63a4.4,4.4,0,0,1-1.63.38,15,15,0,0,1-1.6-.38c-2.17.71-3.95,1.06-3.62,1.63h7.37Z"/><path class="cls-23" d="M420.86,515.76l.53,3.26s-1.95,4.16-3.12,3.81c-1-.3-.38-3.86-.38-3.86a9.39,9.39,0,0,0,.38-2.88C418.11,515.14,420.86,515.76,420.86,515.76Z"/><path class="cls-14" d="M418.27,516.09c-.16-1,2.59-.33,2.59-.33l0,.28a1.46,1.46,0,0,1-.3.47,3.66,3.66,0,0,1-2.4,1A5.39,5.39,0,0,0,418.27,516.09Z"/><path class="cls-23" d="M421.31,511c.08,0,.62,3.86-.41,4.93s-3.06,1.41-3.78.57-.76-5.1.85-6.2S421.31,511,421.31,511Z"/><path class="cls-22" d="M420.93,509.48a2.9,2.9,0,0,1,2.12,1.62,3.05,3.05,0,0,1-.88,4.1,2.4,2.4,0,0,0-1.11,1.81l-.18-.5a2.64,2.64,0,0,1-.15-1.18,2.13,2.13,0,0,1,.19-.71c.27-.56-.59-.94-.83-1.4s-.19-1.19-.49-1.78l-.35-.46a2.27,2.27,0,0,0-1.59-.43C416.87,510.72,417.84,507,420.93,509.48Z"/><path class="cls-23" d="M420.14,513.91c0,.47.22.86.5.86s.53-.37.54-.85-.22-.86-.51-.86S420.15,513.43,420.14,513.91Z"/><path class="cls-36" d="M415.22,523.83c-.06,0-.19,0-.47-.34h0l-.06-.11c-.06-.15-1.37-3.69-.6-4.71a.77.77,0,0,1,.72-.27,1,1,0,0,1,.73.38c.46.65.18,1.91-.07,3a4.13,4.13,0,0,0-.2,1.49c.09.28.12.46,0,.53Zm-.29-.48.17.19s0-.11-.05-.19a4.07,4.07,0,0,1,.19-1.61c.23-1,.51-2.27.11-2.84a.74.74,0,0,0-.57-.29.53.53,0,0,0-.52.19c-.58.76.25,3.48.62,4.48Z"/><path class="cls-36" d="M429.27,565.58a.5.5,0,0,1-.57-.38l-14-41.24a.43.43,0,1,1,.79-.27l14,41.24A.51.51,0,0,1,429.27,565.58Z"/><path class="cls-14" d="M430.22,566.92l-.92.3A.26.26,0,0,1,429,567l-.46-1.78a.27.27,0,0,1,.18-.32l.68-.22a.28.28,0,0,1,.33.15l.68,1.72A.26.26,0,0,1,430.22,566.92Z"/><rect class="cls-14" x="415.19" y="522.9" width="1.36" height="6.47" rx="0.68" transform="translate(-141.63 153.37) rotate(-17.91)"/><path class="cls-23" d="M429.14,526.13l-2.86,2.08,2,3.15a48.59,48.59,0,0,1-5.41,4.13s-.35.25-.83.52l-.37.22a2.52,2.52,0,0,0-.78.06c-.27.09-.8.14-.92.22s-.59.72-.68.78a1,1,0,0,0-.17.26c0,.07-.61.48-.69.62a.62.62,0,0,0,.25.57s0,0,0,.11a.47.47,0,0,0,.06.36.31.31,0,0,0,.37.1s.07,0,.09,0a.93.93,0,0,0,.16.26c.1.1.24.11.44,0,0,0,.13.51.55.26l.57-.35a2.6,2.6,0,0,0,.48-.2c.13-.1,1-.65,1-.73a1.59,1.59,0,0,1,.17-.27,3.67,3.67,0,0,0,.45-.44s.31-.28.52-.46l.83-.39h0c4-1.89,8-3.63,7.75-5.08A28,28,0,0,0,429.14,526.13Z"/><path class="cls-31" d="M429.79,526.22l-3.45,2.32a37.43,37.43,0,0,0-3-3.93c-1.31-1.29.47-5.24,1.31-5C426.56,520.09,429.79,526.22,429.79,526.22Z"/><path class="cls-17" d="M417.1,514.8l1.71.17a.74.74,0,0,1-.86.59C417,515.5,417.1,514.8,417.1,514.8Z"/><path class="cls-23" d="M392.73,567.63a20.6,20.6,0,0,0-.08,3.29,3.54,3.54,0,0,0,.11.39,5.09,5.09,0,0,1-.26,1.84l-5.64,0c-.31,0-.1-.2.15-.38a11,11,0,0,1,2-1.09l.5-.3a3.55,3.55,0,0,0,.82-.7c.41-.44.47-2.62.47-2.62Z"/><path class="cls-26" d="M389.55,571.4a5.16,5.16,0,0,0,3.22-.08c.15.45.44,2,.27,2-1.42,0-2.62.26-6.67.2-.14,0-.13-.5,0-.61A28.66,28.66,0,0,1,389.55,571.4Z"/><path class="cls-39" d="M399.8,538.25a18.47,18.47,0,0,1-1.09,5.8c-1,2.2-5.71,7.64-7,10.81.39,1.79,1.45,4.3,1.37,6.28-.08,2.25.05,8.2.05,8.2l-2.53.08-3.33-15.35,5-16.55,2.27-4Z"/><path class="cls-23" d="M410.62,564.11a22.44,22.44,0,0,0,2.24,2.68c.37.29,1.37.68,1.47,1.16s-4.51,4.7-4.51,4.7c-.25.22-.22-.08-.14-.4a12.13,12.13,0,0,1,.86-2.3c0-.1.15-.47.19-.6a4.06,4.06,0,0,0,.16-1.13c0-.64-1.46-2.43-1.46-2.43Z"/><path class="cls-26" d="M410.73,569.35a5.43,5.43,0,0,0,2.51-2.32c.44.25,1.62.79,1.52.94a22.54,22.54,0,0,1-4.95,5.46c-.12.1-.6-.48-.6-.64A30.61,30.61,0,0,1,410.73,569.35Z"/><path class="cls-31" d="M399.62,536a18.42,18.42,0,0,1,2.43,5.37c.45,2.38-.3,9.53.49,12.85,1.34,1.25,3.65,2.7,4.73,4.37,1.21,1.89,4.73,6.69,4.73,6.69l-2,1.52-11.52-10.68-4.66-14.24-1.28-4.77Z"/><path class="cls-23" d="M393.79,531.37c.07-.39,1.24-7.76,1.24-7.76l-3.35,1.32-.74,5.69c-.09.3-1.51,7.27-2,9.52a1.38,1.38,0,0,1-.87,1h0a5.16,5.16,0,0,0-1,.51l-.53.53c-.16.16-.34.34-.41.43a1.48,1.48,0,0,1-.28.19.18.18,0,0,0,0,.34.77.77,0,0,0,.49-.13c.36-.18.79-.65.81-.6a11.61,11.61,0,0,1-.43,1.18,11.69,11.69,0,0,0-.54,1.53c0,.26.13.32.25.22s.88-1.64.88-1.64.1-.2.14-.09-.66,1.52-.73,1.76,0,.41.21.33a7.28,7.28,0,0,0,.92-1.67s.08-.19.15-.13-.56,1.26-.56,1.4.12.26.3.14a8.52,8.52,0,0,0,.78-1.53s.08-.1.1,0-.43,1.12-.39,1.27a.12.12,0,0,0,.15.09c.26,0,.56-1.09.85-1.55S393.7,531.81,393.79,531.37Z"/><path class="cls-33" d="M392.38,516.39a9.93,9.93,0,0,1,.9-4.78,4.07,4.07,0,0,1,3.6-2.06c4.5,0,5.07,6,7.94,8.27.87.7,1.85,1.27,2.68,2,3.05,2.81,1.68,8-1.13,10.45-1.95,1.7-5,2.67-7.41,1.34a7.55,7.55,0,0,1-2.88-3.12,41.14,41.14,0,0,1-2.27-5.79A21.62,21.62,0,0,1,392.38,516.39Z"/><path class="cls-28" d="M406.61,541.12s-1.48-6.38-2.09-7.79-2.95-7.92-2.95-7.92l3-.66,2.85,7.41c.9,2.3.52,6.55.56,7.75,0,0,.13,1,.13,1h0a2.35,2.35,0,0,0,.07.26,2.71,2.71,0,0,1,.14.5s.1.17.13.23.12.87.14,1a1.86,1.86,0,0,1,0,.43l0,.55c0,.4-.39.29-.39.29,0,.19-.06.29-.16.33a1.18,1.18,0,0,1-.25,0s0,.07,0,.07-.13.21-.22.23a.35.35,0,0,1-.28-.1c-.05,0-.08,0-.08,0a.47.47,0,0,1-.5,0,7.38,7.38,0,0,1-.19-.74.52.52,0,0,1-.12-.22c0-.08-.29-.67-.31-.79s.16-.52.2-.75a2.89,2.89,0,0,1,.32-.72.69.69,0,0,0,0-.33Z"/><path class="cls-27" d="M391.65,524.32c1.4-4.26,3-4.08,3-4.08l-1.21,9c-.87-.23-2-.76-2.87-1A39.19,39.19,0,0,1,391.65,524.32Z"/><path class="cls-5" d="M398.22,519.48s2.59-.17,3.61.95-2.27,10-2.46,11.39.95,5.21.95,5.21-6.08,1.23-7.82.08c0,0-.18-10.24,0-11.26a30.59,30.59,0,0,1,2.11-5.56C395,519.88,398.22,519.48,398.22,519.48Z"/><path class="cls-23" d="M397.36,516l0,.21a20.32,20.32,0,0,0,.86,3.26c.37.69-1.24,2.88-2.78,2.61-.46-.08.39-2,.35-2.22l-.3-1.47c-.06-.31-.12-.63-.18-.92-.16-.84-.3-1.53-.3-1.53Z"/><path class="cls-14" d="M397.39,516.22l0-.21L395,516s.14.69.3,1.53c.06.29.12.6.18.91a2.17,2.17,0,0,0,1.11-.56,2.81,2.81,0,0,0,.83-1.24C397.44,516.44,397.41,516.31,397.39,516.22Z"/><path class="cls-23" d="M395.8,510.74a2.06,2.06,0,0,1,1.77.76c.69.88,1.43,3.63-.27,5.12s-3.38-.2-3.63-2S393.32,510.67,395.8,510.74Z"/><path class="cls-23" d="M393.17,514.6c.2.4.54.62.76.49s.23-.54,0-.94-.54-.61-.76-.49S393,514.21,393.17,514.6Z"/><path class="cls-33" d="M395.68,510.44s1.45,2.61,2.5,2.73,1.18,1.51,1.18,1.51-.38-3.2-1.41-3.81A3.79,3.79,0,0,0,395.68,510.44Z"/><path class="cls-17" d="M396.88,515.09l-2.18.08a1,1,0,0,0,1,.82C396.92,516,396.88,515.09,396.88,515.09Z"/><path class="cls-5" d="M402.76,529.22s-3.36-4-4-5.5.31-3.71,1.72-3.88,5,6.41,5,6.41Z"/><path class="cls-23" d="M143.78,515.52l2.18,1.32.56,2.24a61,61,0,0,0,6.42,2.28s.4.1.92.2l1.42.25a4.26,4.26,0,0,0,1.12,0,3.29,3.29,0,0,1,1.09,0l.75.26c.21.07.45.15.56.2a1.53,1.53,0,0,0,.34.05.19.19,0,0,1,.12.33.74.74,0,0,1-.5.1c-.41,0-1-.23-1-.17s.85.78.94.87a13.87,13.87,0,0,1,1.19,1.15c.13.23,0,.35-.13.31s-1.55-1.09-1.55-1.09-.18-.14-.18,0,1.31,1.09,1.47,1.27.2.38,0,.4-1.59-1.1-1.59-1.1-.17-.14-.2,0,1.08.9,1.15,1a.18.18,0,0,1-.21.27,8.75,8.75,0,0,1-1.41-1s-.11-.06-.11,0,.91.83.94,1-.09.16-.09.16c-.24.11-1-.74-1.49-1a13.06,13.06,0,0,0-1.47-1.09,6,6,0,0,0-1.59-.35l-1.3-.12h0c-4.21-.39-9.78-1-9.54-2.42C142.65,520,143.37,517,143.78,515.52Z"/><path class="cls-23" d="M147,561.27l-.12,2.28a12.66,12.66,0,0,0-.23,1.27c0,1,4.32-.84,3.35-1.28-.09,0-.55-.34-.58-.67,0-.52-.16-1.57-.16-1.57Z"/><path class="cls-34" d="M150,563.53a13.92,13.92,0,0,1-1.54.38c-.52.08-1.2-.56-1.57-.39s-.36,2.06-.36,2.06,5.41.32,6.94-.18C154.1,565.2,152.09,564.24,150,563.53Z"/><path class="cls-23" d="M137.52,561.49l-.13,2.28a12.66,12.66,0,0,0-.23,1.27c0,1,4.32-.84,3.35-1.28-.09,0-.68-.56-.71-.9a13,13,0,0,1,0-1.34Z"/><path class="cls-34" d="M140.5,563.75a13.55,13.55,0,0,1-1.53.38c-.52.08-1.21-.56-1.58-.39s-.42,1.9-.42,1.9,5.79.42,7.15,0C144.73,565.48,142.57,564.46,140.5,563.75Z"/><path class="cls-24" d="M144.36,528.56l1.83.81L150,548.05l-.16,14-3.08.07s-1.43-12.25-1.43-13.2-6.63-16.62-6.63-16.62Z"/><path class="cls-5" d="M143,529.59s-1.34,14.4-1.34,16.83-1.09,16-1.09,16l-3.09,0s-.22-4.14-.55-10.23c-.06-1,.06-2.88,0-3.87-.48-7.1-1.43-13.79-1-16.44a5.13,5.13,0,0,1,.48-1.82C138.4,527.92,143,529.59,143,529.59Z"/><path class="cls-39" d="M146.72,518.23,143,518s-.18-3.4-.18-5c0-2-.59-4.87-.36-4.81a4.47,4.47,0,0,1,2.28,1.49C146.51,512.17,146.72,518.23,146.72,518.23Z"/><path class="cls-31" d="M137.87,508.06a9.66,9.66,0,0,0-2.69.72,7.57,7.57,0,0,0-1.33,1.53s2.61,12.59,2.62,14.71c0,1.64-.57,5.67-.57,5.67s7.9.5,10.89-.7c0,0-.94-4.79-.94-6s-1.13-12.69-1.39-13.49a3,3,0,0,0-2.1-2.35A20.88,20.88,0,0,0,137.87,508.06Z"/><path class="cls-23" d="M138.45,504.67l-.53,3.52s1.93,4.18,3.08,3.82c1-.3.37-4,.37-4a10.15,10.15,0,0,1-.37-3C141.16,504,138.45,504.67,138.45,504.67Z"/><path class="cls-14" d="M141,505c.16-1-2.55-.35-2.55-.35l0,.29a1.55,1.55,0,0,0,.29.49,3.54,3.54,0,0,0,2.37,1.09A5.78,5.78,0,0,1,141,505Z"/><path class="cls-23" d="M138,499.7c-.08,0-.62,4,.4,5.11s3,1.47,3.72.6.75-5.3-.84-6.44S138,499.7,138,499.7Z"/><path class="cls-27" d="M140.69,496.81a4.37,4.37,0,0,0-2.31,1.33c-.56.07-1.31.38-2.09,1.69a3.3,3.3,0,0,0,.86,4.26,2.58,2.58,0,0,1,1.11,1.89l.17-.53a3,3,0,0,0,.14-1.23,2.59,2.59,0,0,0-.18-.74c-.27-.58.58-1,.81-1.46s.2-1.22.48-1.84l.35-.47a2.14,2.14,0,0,1,1.57-.45C142.37,499.43,142.26,496.48,140.69,496.81Z"/><path class="cls-23" d="M139.15,502.74c0,.49-.21.9-.49.9s-.52-.39-.52-.88.21-.89.49-.9S139.14,502.25,139.15,502.74Z"/><polygon class="cls-23" points="163.65 518.42 163.65 521.16 160.91 521.16 161.25 518.42 163.65 518.42"/><rect class="cls-34" x="161.67" y="531.37" width="0.85" height="17.44" transform="translate(324.19 1080.19) rotate(180)"/><path class="cls-17" d="M150.12,545.75h-.89V529.22a1.73,1.73,0,0,0-1.73-1.73h-1v-.89h1a2.62,2.62,0,0,1,2.62,2.62Z"/><path class="cls-40" d="M157.52,554.3c0,5.77,3.87,10.46,8.61,10.46s8.61-4.69,8.61-10.46-3.86-10.46-8.61-10.46S157.52,548.53,157.52,554.3Z"/><path class="cls-33" d="M143,527h0a.66.66,0,0,0,.65.66h3.2a.66.66,0,0,0,.65-.66h0a.65.65,0,0,0-.65-.65h-3.2A.65.65,0,0,0,143,527Z"/><path class="cls-41" d="M157.74,546.11h-.89V524.88a1.74,1.74,0,0,0-1.73-1.73h-1v-.89h1a2.63,2.63,0,0,1,2.62,2.62Z"/><path class="cls-36" d="M158.93,561.4a14.1,14.1,0,0,1,0-15.77,7,7,0,0,1,11.87,0,14.1,14.1,0,0,1,0,15.77,7,7,0,0,1-11.87,0Zm-1.67-7.89c0,5.77,3.41,10.46,7.6,10.46s7.6-4.69,7.6-10.46-3.4-10.46-7.6-10.46S157.26,547.75,157.26,553.51Z"/><path class="cls-42" d="M159.54,562.18a15.49,15.49,0,0,1,0-17.33,7.78,7.78,0,0,1,13.25,0,15.49,15.49,0,0,1,0,17.33,7.78,7.78,0,0,1-13.25,0Zm-1.29-8.67c0,6.07,3.55,11,7.91,11s7.92-4.94,7.92-11-3.55-11-7.92-11S158.25,547.45,158.25,553.51Z"/><rect class="cls-43" x="174.07" y="550.32" width="0.71" height="15.86" transform="translate(-348.94 297.19) rotate(-46.14)"/><rect class="cls-43" x="155.6" y="550.09" width="10.22" height="0.39" transform="translate(321.41 1100.56) rotate(180)"/><rect class="cls-43" x="165.63" y="544.88" width="0.85" height="18.26" transform="translate(332.12 1108.03) rotate(180)"/><rect class="cls-17" x="159.82" y="538.69" width="13.05" height="1.15" rx="0.57" transform="translate(332.7 1078.52) rotate(180)"/><rect class="cls-44" x="159.39" y="537.96" width="14.24" height="1.15" rx="0.57" transform="translate(333.01 1077.07) rotate(180)"/><polygon class="cls-43" points="154.89 553.49 154.89 543.34 155.83 543.34 155.83 553.49 166.29 553.49 166.29 543.34 167.24 543.34 167.24 554.33 167.19 554.33 166.29 554.33 155.83 554.33 154.89 554.33 154.78 554.33 154.78 553.49 154.89 553.49"/><polygon class="cls-28" points="153.32 531.94 153.32 523.98 153.97 523.98 153.97 531.94 161.25 531.94 161.25 523.98 161.91 523.98 161.91 532.6 161.87 532.6 161.25 532.6 153.97 532.6 153.32 532.6 153.25 532.6 153.25 531.94 153.32 531.94"/><rect class="cls-45" x="149.79" y="527.47" width="14.57" height="16.83" rx="7.29" transform="translate(314.15 1071.76) rotate(-180)"/><rect class="cls-30" x="151" y="527.47" width="14.57" height="16.83" rx="7.29" transform="translate(316.57 1071.76) rotate(-180)"/><rect class="cls-45" x="151.3" y="520.62" width="11.78" height="5.76" rx="2.88" transform="translate(314.39 1047) rotate(180)"/><rect class="cls-30" x="152.28" y="520.62" width="11.78" height="5.76" rx="2.88" transform="translate(316.34 1047) rotate(-180)"/><path class="cls-45" d="M150.36,544.7h20.92a.57.57,0,0,1,.57.57v0a1.73,1.73,0,0,1-1.73,1.73H150.36a.57.57,0,0,1-.57-.57v-1.16a.57.57,0,0,1,.57-.57Z" transform="translate(321.64 1091.7) rotate(180)"/><path class="cls-28" d="M162.83,525.31c1.09-.41,1.37,11.41,1.37,11.41,1,.68,4.14,2.83,4.82,3.17.28.14,1,.28,1.3.4a3.57,3.57,0,0,1,.67.35,15.9,15.9,0,0,1,1.11,1.58c.05.24.21.84.05,1s-.47-.9-.47-.9l-.22-.38c.17.65.64,1.64.41,1.77s-.61-.84-.9-1.51c.2.65.33,1.67.14,1.71s-.3-1.14-.82-1.77c-.19-.23-.58-.13-.79-.22a1.48,1.48,0,0,1-.51-.27l-.59-.62a7.27,7.27,0,0,0-.81-.34c-.32-.11-.77-.33-1.19-.45a29,29,0,0,0-3.7-1c-.73-.13-1.08-2.07-1.19-5.09C161.4,530.74,160.82,526.06,162.83,525.31Z"/><path class="cls-23" d="M176.37,557.81a1.84,1.84,0,0,0,1,1.21c.78.25,3-.4,3.4-.26a.91.91,0,0,1,.55.39L176,562.28l-.93-1.62-.46-1.28Z"/><path class="cls-26" d="M177.89,559.08s-1,1.38-1.85,1.47-.89,0-1,.22.74,1.76.74,1.76l6-3.51c.41-.26.43-.69-.07-.74a4.83,4.83,0,0,0-.88,0A21.4,21.4,0,0,0,177.89,559.08Z"/><path class="cls-14" d="M156.5,537.88c.56-.44,6.61,1.29,6.61,1.29s7.62,1.13,9.1,2.49c.41.37,4.29,15.19,5,16.54l-2.55,1.62-5.19-9.59a21.72,21.72,0,0,1-1.77-4.63c-3,.45-4.32-.76-9.92-2.89C155.24,541.74,155.93,538.32,156.5,537.88Z"/><path class="cls-23" d="M169.94,558.62a1.83,1.83,0,0,0,.62,1.46c.67.47,2.95.52,3.32.77a1,1,0,0,1,.41.54l-6,1.38-.4-1.82-.06-1.36Z"/><path class="cls-26" d="M171,560.28s-1.38,1-2.21.85-.84-.29-1-.09.18,1.89.18,1.89l6.77-1.54c.46-.13.61-.53.15-.73a5.39,5.39,0,0,0-.84-.24A21.12,21.12,0,0,0,171,560.28Z"/><path class="cls-26" d="M153.34,539.87c.67-.26,6.84-1.08,6.84-1.08s8.65.07,9.65,1.81c.27.48.52,17.14.77,18.63l-2.92.78s-2.45-10-1.84-16c-1.55.55-9,3.37-12,1C151.74,543.34,152.67,540.12,153.34,539.87Z"/><path class="cls-14" d="M161.22,532.48c-.16-3.22-.14-7.19,1.67-7.86.72-.27,2,1.33,1.75,7.92A13.55,13.55,0,0,1,161.22,532.48Z"/><path class="cls-5" d="M159,524a18.83,18.83,0,0,1,4.06.58s.74,6.34-.67,11.16a11.74,11.74,0,0,0,.19,3.66l-9.43.56s1.49-8.07,1.08-9.4a37.31,37.31,0,0,1-.41-5.94l2-.35A20.8,20.8,0,0,1,159,524Z"/><path class="cls-27" d="M158.32,515.52a1.2,1.2,0,0,0-1.89.45,2.74,2.74,0,0,0-.52,0,4.32,4.32,0,0,0-.8.41,2.9,2.9,0,0,0-1.49,2.24,3.3,3.3,0,0,0,.95,2.73,2.71,2.71,0,0,0,.7.65c.34.21.64.09,1,.19s.35.37.69.3,1-.6,1.59-.48a6.16,6.16,0,0,0,1.95-.25c1.78-.48.9-3.62.67-4.73A2.42,2.42,0,0,0,158.32,515.52Z"/><path class="cls-23" d="M159.22,522.58l.34,1.15.18.65a.61.61,0,0,1-.54.87,2,2,0,0,1-2.22-1l-.31-3.57Z"/><path class="cls-14" d="M156.77,521.8a4.41,4.41,0,0,0,2.79,1.94l-.34-1.16-2.55-1.93Z"/><path class="cls-23" d="M157.53,517.08a2,2,0,0,1,2.7,1.09,13.76,13.76,0,0,1,.4,1.67c.25,1.53-.4,3.13-1.16,3.23a3.54,3.54,0,0,1-3.38-2.82A2.82,2.82,0,0,1,157.53,517.08Z"/><path class="cls-23" d="M156.67,520.35a.57.57,0,0,1-.46.68.6.6,0,0,1-.63-.54.58.58,0,0,1,.45-.69A.61.61,0,0,1,156.67,520.35Z"/><rect class="cls-17" x="148.93" y="538.69" width="15.68" height="1.15" rx="0.57" transform="translate(313.53 1078.52) rotate(-180)"/><rect class="cls-44" x="148.4" y="537.96" width="17.11" height="1.15" rx="0.57" transform="translate(313.91 1077.07) rotate(180)"/><rect class="cls-43" x="160.37" y="550.32" width="0.71" height="15.86" transform="translate(-353.1 287.23) rotate(-46.13)"/><path class="cls-46" d="M154.11,553.65c0,.83.51,1.51,1.14,1.51s1.13-.68,1.13-1.51-.51-1.5-1.13-1.5A1.36,1.36,0,0,0,154.11,553.65Z"/><path class="cls-46" d="M150,562.18a15.49,15.49,0,0,1,0-17.33,7.78,7.78,0,0,1,13.25,0,15.49,15.49,0,0,1,0,17.33,7.78,7.78,0,0,1-13.25,0Zm-1.29-8.67c0,6.07,3.55,11,7.91,11s7.92-4.94,7.92-11-3.55-11-7.92-11S148.72,547.45,148.72,553.51Z"/><rect class="cls-36" x="165.59" y="563.19" width="16.36" height="0.76" rx="0.38" transform="translate(347.54 1127.14) rotate(-180)"/><path class="cls-30" d="M165.71,563.6h15.83a.58.58,0,0,0,.59-.59h0a.59.59,0,0,0-.59-.59H165.71a.59.59,0,0,0-.59.59h0A.58.58,0,0,0,165.71,563.6Z"/><path class="cls-17" d="M159.8,521.42l-1.39.23a.62.62,0,0,0,.73.44C159.89,522,159.8,521.42,159.8,521.42Z"/><path class="cls-40" d="M147.52,553.51c0,5.77,3.41,10.46,7.6,10.46s7.6-4.69,7.6-10.46-3.41-10.46-7.6-10.46S147.52,547.75,147.52,553.51Z"/><path class="cls-17" d="M140.57,504.31l1.5-.15a.65.65,0,0,1-.63.66C140.63,504.93,140.57,504.31,140.57,504.31Z"/><path class="cls-23" d="M162.78,535.9a7.46,7.46,0,0,1,.82-1.11,1.63,1.63,0,0,1,.58-.34s.48-.15.55,0a.26.26,0,0,1-.06.31c-.08.06-.27.1-.35.16a.74.74,0,0,0-.09.49,6.42,6.42,0,0,0,1.43-.38l.52-.22.42-.25s.46-.24.53-.09-.31.42-.69.68a7,7,0,0,0-.86.55c0,.11.81-.14.81-.14a2.78,2.78,0,0,1,.51-.24c.19-.16.56-.33.63-.14a4.12,4.12,0,0,1-.43.41s-.33.18-.48.28a9.06,9.06,0,0,1-.9.4c-.16.08-.08.11-.08.13l.53-.17a3,3,0,0,0,.51-.17,5.27,5.27,0,0,1,.53-.21c.4-.13.41.15.06.34l-.43.22a10.89,10.89,0,0,0-1.17.5c0,.09,1.07-.23,1.07-.23s.62,0,.1.27a4.72,4.72,0,0,1-1.16.42,4.57,4.57,0,0,1-1.26.27l-1.3-.05Z"/><path class="cls-23" d="M152.54,531.58l2.87.14s.09,2.41.15,2.69c0,0,5.14,1.23,7.22,1.49l.38,1.65c-.41,0-.74-.1-.94-.11-.39,0-6.63-.29-6.63-.29s-2.48-.22-2.67-.63S152.54,531.58,152.54,531.58Z"/><path class="cls-14" d="M152.13,532.49c-.16-3.21-.14-7.18,1.67-7.86.72-.27,2,1.34,1.75,7.93A13.56,13.56,0,0,1,152.13,532.49Z"/><path class="cls-23" d="M131.92,517.14l3.22,1.71-.48,1.85a61,61,0,0,0,6.42,2.28s.4.1.92.2l1.42.25a4.26,4.26,0,0,0,1.12,0,3.29,3.29,0,0,1,1.09,0l.75.26c.21.07.45.15.56.2a1.53,1.53,0,0,0,.34.05.19.19,0,0,1,.12.33.8.8,0,0,1-.5.11c-.41,0-1-.24-1-.18s.85.78.94.87a12.7,12.7,0,0,1,1.19,1.16c.14.22,0,.34-.13.3s-1.55-1.09-1.55-1.09-.18-.14-.17,0,1.3,1.08,1.46,1.26.2.38,0,.4S146,526,146,526s-.17-.14-.2,0,1.08.9,1.15,1a.18.18,0,0,1-.21.27,8.19,8.19,0,0,1-1.41-1s-.11-.05-.11,0,.91.83.94,1a.12.12,0,0,1-.09.15c-.24.11-1-.74-1.49-1a13.06,13.06,0,0,0-1.47-1.09,6,6,0,0,0-1.59-.35l-1.3-.12h0c-4.21-.39-9.78-1-9.54-2.42C130.79,521.67,131.51,518.61,131.92,517.14Z"/><path class="cls-31" d="M135.57,508.58a5.51,5.51,0,0,0-2.54,1.77c-1.17,1.34-1.91,8.85-1.91,8.85l4,.67.32-3.63,1.08-1.67Z"/><path class="cls-23" d="M689.66,523.26c0-.28,1.28-.28,1.4-.53s-1.59-.57-1.61-.81c0-.46,1.88.22,1.88,0s-2-1-1.67-1.32,1.92,1,2,.81-1.65-1.11-1.52-1.63c.06-.27,2.78,1.9,3.15,1.81s-.13-1.52.18-1.67.7,2.65.88,2.78,4,2.59,5.43,3.2c.25-.46,2.08-2.84,2.31-3.27.72.72,1.95.44,2.7,1.11-.86,1.41-3.38,5.64-3.83,5.76-1.38.37-6.59-4.13-7.46-5s-1.48-.74-2.11-1.08S689.71,523.54,689.66,523.26Z"/><path class="cls-31" d="M701.25,523.46s2-5.27,3.18-6.5,3.85-1.23,4.64.15-4.27,7.71-4.27,7.71Z"/><path class="cls-23" d="M708.13,519.94c-2,0-1.77-3.89-1.77-3.89l-.43.06.43-.06a1.66,1.66,0,0,0,1.5-1.4,5.38,5.38,0,0,0,.08-1.57c-.15-.94,2.44-.32,2.44-.32l.34,2.24a1.6,1.6,0,0,0,1.24,1.32S710.12,520,708.13,519.94Z"/><path class="cls-28" d="M717.66,564.58s.72.7.74,1,.06,3-.23,3.27-1.15.44-.88.73a8.51,8.51,0,0,0,2.88.11c.31,0,.7-2.5.82-2.87.18-.53.62-1.72.45-2.09a3.08,3.08,0,0,0-1-.9,4.88,4.88,0,0,1-1.1-1.17Z"/><path class="cls-23" d="M710.25,566.21l.64,1.82a12.49,12.49,0,0,1,.23,1.26c0,1-4.41-.83-3.42-1.27a1,1,0,0,0,.4-.68,2.39,2.39,0,0,0-.37-1.17Z"/><path class="cls-5" d="M703.32,532.4s-.79,3.15-.79,3.2c0,5.27-.57,15.65-.38,16.64.49,2.42,5.68,14.74,5.68,14.74l2.81-.34-1.94-13.21,2.68-9.1-1.15-10.11Z"/><path class="cls-27" d="M716.81,534.75l-1.1,11.9,4.5,16.82s-.78,1.81-1.91,2.06l-8.74-12.74-5.43-16.31.19-3.62Z"/><path class="cls-39" d="M720.42,563.77s-1.65,4.67-2.3,4.89c-.17.06-1,.21-1.15.58a1.44,1.44,0,0,0,0,.47h3.44s.44-2.05.61-3a13.59,13.59,0,0,0,.81-2.41C721.73,564.15,720.42,563.77,720.42,563.77Z"/><path class="cls-39" d="M711.38,569.62l-.51-1.61a4.24,4.24,0,0,1-1.59.38,14.43,14.43,0,0,1-1.57-.38c-2.12.7-3.86,1-3.54,1.61h7.21Z"/><path class="cls-47" d="M707.94,513.08c-.15-.94,2.44-.32,2.44-.32l0,.27a1.63,1.63,0,0,1-.28.47,3.46,3.46,0,0,1-2.27,1A4.85,4.85,0,0,0,707.94,513.08Z"/><path class="cls-23" d="M710.81,508c.07,0,.67,4.2-.31,5.25s-3.16,1.08-3.84.25-.51-5.11,1-6.2S710.81,508,710.81,508Z"/><path class="cls-34" d="M708.24,505.3a4.2,4.2,0,0,1,2.21,1.26c.53.06,1.26.36,2,1.6a3.12,3.12,0,0,1-.82,4.05,2.41,2.41,0,0,0-1.06,1.78l-.17-.49a2.91,2.91,0,0,1-.13-1.17,2.05,2.05,0,0,1,.17-.7c.26-.56-.55-.92-.78-1.38s-.18-1.17-.46-1.76l-.33-.45a2.06,2.06,0,0,0-1.5-.42C706.63,507.79,706.74,505,708.24,505.3Z"/><path class="cls-23" d="M709.71,510.93c0,.46.21.85.47.85s.5-.37.51-.84-.21-.85-.48-.85S709.72,510.46,709.71,510.93Z"/><path class="cls-17" d="M706.71,512.37l1,.15a.43.43,0,0,0-.39-.45C706.77,512,706.71,512.37,706.71,512.37Z"/><path class="cls-45" d="M704.8,517.74a6.78,6.78,0,0,1,1-1.6,2.81,2.81,0,0,1,.52-.09s-.22,3.85,1.77,3.89,3.83-3.62,3.83-3.62c.5.11,1.06.24,1.41.34,0,0,1.73.33,2.21,2.93S716.92,532,717,534c0,1.48-2.2,2.76-5.32,3.33a10,10,0,0,1-2.9.3h-.89c-3.46,0-4.7-1-5.13-1.61l-.22-.1,0-.24,0-.07S700,526,704.8,517.74Z"/><path class="cls-23" d="M712.79,522.56s4.26,6,5.26,7.39,3.78,7,3.88,7.21-1.39,3-1,3.05.69-1.45,1.1-1.28,1.87,3.75,2.09,3.56c.4-.35-.81-2.23-.59-2.36s1.09,2.07,1.53,2-1-2-.9-2.19,1.61,1.63,1.83,1.22c.11-.22-1.37-1.57-1.12-1.72s1.55.72,1.66.45-1.18-.57-1.61-1.27-1.1-1-1.47-2.27-1.25-6.81-2.8-9.12-4.71-6.66-4.71-6.66Z"/><path class="cls-31" d="M719.67,524.76l-4.15,2.79a45.12,45.12,0,0,0-3.59-4.73c-1.57-1.55.58-6.31,1.59-6.05C715.78,517.38,719.67,524.76,719.67,524.76Z"/><path class="cls-27" d="M525.7,523.34l.2.18a.25.25,0,0,0,.35,0l3.55-3.92a.23.23,0,0,0,0-.34l-.2-.18a.24.24,0,0,0-.34,0L525.68,523A.24.24,0,0,0,525.7,523.34Z"/><path class="cls-23" d="M513.66,520.16c.48-.39,4.15,1.22,4.1,1.79s2.56,6,2.56,6l4.51-3.6h0c0-.13.47-1.53.49-1.78s.78-.73,1.14-.66-.3.51-.35.6.34.3.34.3,1.3-.72,1.33-1.14.29-1.3.58-1.12.14.72.09,1c.09-.34.21-.72.32-.76s.32.2.28.34-.38,1.56-.48,1.72-2.21,1.86-2.51,2.23c0,0-5.83,6.69-6.24,6.86s-1.67-2.15-2.89-3.68S512.18,521.37,513.66,520.16Z"/><path class="cls-28" d="M501.9,569.32s-.8.79-.82,1.07-.07,3.38.26,3.66,1.29.5,1,.82-2,.19-3.22.13c-.35,0-.78-2.8-.92-3.21-.2-.6-.69-1.93-.51-2.35a3.65,3.65,0,0,1,1.11-1,5.51,5.51,0,0,0,1.23-1.31Z"/><path class="cls-23" d="M510.2,571.15s-.72,2-.72,2c-.05.32-.26,1.11-.26,1.41,0,1.1,4.94-.94,3.83-1.42a1.19,1.19,0,0,1-.44-.78,2.48,2.48,0,0,1,.41-1.29Z"/><path class="cls-5" d="M518,533.31s.36,3.64.36,3.7c0,5.89,1.17,17.4.94,18.51-.54,2.7-6.35,16.49-6.35,16.49l-3.14-.38,4.09-16.51-1.5-6.64-2.13-13.13Z"/><path class="cls-27" d="M507.41,536.53l-.6,3.46-1.61,14.2-6.14,13.89s.86,2,2.14,2.31L511,556.13,517,537.88l-.21-4Z"/><path class="cls-9" d="M519.2,524.64l-4.35.45s-.2-3.59-.2-5.3c0-2.07.17-4.74.42-4.69a3.83,3.83,0,0,1,2.21,1.33C519.22,519.11,519.2,524.64,519.2,524.64Z"/><path class="cls-14" d="M517.06,519.43c.1.63,1.77,17.82,1.77,17.82-7.93,3.84-12.31.68-12.31.68s.26-12.07,0-13.71c-.21-1.09-.46-8.31.24-8.51a17.62,17.62,0,0,1,3.06-.66,29.6,29.6,0,0,1,5.36.07A8.55,8.55,0,0,1,517.06,519.43Z"/><path class="cls-22" d="M498.82,568.42s1.85,5.22,2.57,5.47c.19.06,1.11.23,1.29.64a1.89,1.89,0,0,1,0,.54h-3.85s-.49-2.3-.68-3.31a15.39,15.39,0,0,1-.91-2.69C497.36,568.84,498.82,568.42,498.82,568.42Z"/><path class="cls-22" d="M508.94,575l.56-1.8a5,5,0,0,0,1.79.43c.59-.09,1.75-.43,1.75-.43,2.37.79,4.32,1.17,4,1.8h-8.06Z"/><path class="cls-23" d="M519.82,532l.12-.09c-.15-1.68-.12-3.31.41-3.86,0,0-.13-.28-.25-.53-.61.47-.9,1.73-.79,3.77,0,.14.05.25.08.43C519.57,531.88,519.73,532,519.82,532Z"/><path class="cls-23" d="M498.67,537.43a.41.41,0,0,1,0-.11c.12-1.19,1.11-11.19,1.27-11.61S504.5,519,504.5,519l2.17,3-4.25,5.69c-.09.36-1.63,7.11-1.63,7.11s-.31,1.23-.45,2l.18.48a5,5,0,0,0,.46.74,4.91,4.91,0,0,1,.54,1c.05.17.13.53.17.75s.11.47.12.59a1.2,1.2,0,0,0,.14.32.19.19,0,0,1-.22.27c-.16-.05-.28-.25-.35-.37-.21-.36-.32-1-.37-1a11.78,11.78,0,0,0-.27,1.25,14.65,14.65,0,0,1-.37,1.63c-.13.23-.29.19-.33,0s.13-1.9.13-1.9,0-.22-.07-.15-.26,1.68-.33,1.92-.23.36-.36.17a7.22,7.22,0,0,1,.12-1.94s0-.22-.06-.2-.21,1.4-.28,1.52a.18.18,0,0,1-.34,0A8.59,8.59,0,0,1,499,540s0-.12-.07-.08-.24,1.21-.35,1.31a.14.14,0,0,1-.19,0c-.21-.15.12-1.26.12-1.81a14.09,14.09,0,0,0,.17-1.82S498.67,537.49,498.67,537.43Z"/><path class="cls-14" d="M501.05,523l3.77,2.54a41.47,41.47,0,0,1,3.27-4.3c1.43-1.42-.52-5.76-1.44-5.51C504.59,516.27,501.05,523,501.05,523Z"/><path class="cls-23" d="M510.05,511.34l-.57,3.73s2.06,4.45,3.29,4.06c1-.32.4-4.26.4-4.26a10.77,10.77,0,0,1-.39-3.16C513,510.65,510.05,511.34,510.05,511.34Z"/><path class="cls-14" d="M512.78,511.71c.17-1.06-2.73-.37-2.73-.37l-.05.31a1.89,1.89,0,0,0,.31.52,3.81,3.81,0,0,0,2.54,1.15A5.63,5.63,0,0,1,512.78,511.71Z"/><path class="cls-23" d="M509.57,506.06c-.08,0-.66,4.25.44,5.43s3.21,1.56,4,.63.81-5.63-.89-6.84S509.57,506.06,509.57,506.06Z"/><path class="cls-34" d="M512.44,503a4.66,4.66,0,0,0-2.47,1.42c-.59.07-1.4.4-2.24,1.79a3.47,3.47,0,0,0,.93,4.52,2.74,2.74,0,0,1,1.18,2l.19-.55a3.23,3.23,0,0,0,.15-1.31,2.56,2.56,0,0,0-.2-.78c-.28-.62.62-1,.87-1.55s.21-1.31.52-2l.37-.5a2.29,2.29,0,0,1,1.67-.48C514.25,505.78,514.13,502.65,512.44,503Z"/><path class="cls-23" d="M510.8,509.29c0,.52-.23.95-.53,1s-.55-.42-.56-.94.23-.95.53-1S510.79,508.77,510.8,509.29Z"/><path class="cls-17" d="M512.57,510.5l1.65-.09a.73.73,0,0,1-.73.69C512.61,511.17,512.57,510.5,512.57,510.5Z"/><path class="cls-23" d="M554.86,520.52s3.46,7.58,4.19,9a58.2,58.2,0,0,1,2.16,6c.06.21-1.74,2.64-1.4,2.77s.82-1.23,1.18-1,1.21,3.68,1.43,3.54c.42-.27-.44-2.15-.22-2.23s.71,2,1.13,2-.65-2-.53-2.12,1.26,1.71,1.51,1.37c.13-.18-1-1.63-.79-1.72s1.32.87,1.46.64-1-.69-1.31-1.38-.87-1-1-2.28-.22-5.65-1.33-8-3.54-7.46-3.54-7.46Z"/><path class="cls-27" d="M556,512.07a11.4,11.4,0,0,0-1-5.47,4.61,4.61,0,0,0-4.11-2.35c-5.15,0-5.8,6.81-9.08,9.45-1,.8-2.11,1.46-3.06,2.32-3.5,3.21-1.92,9.14,1.29,11.94,2.23,1.95,5.73,3.06,8.47,1.54a8.75,8.75,0,0,0,3.3-3.57,49.65,49.65,0,0,0,2.59-6.62A24.71,24.71,0,0,0,556,512.07Z"/><path class="cls-23" d="M537.58,504.78c.24-.17.84,1.05,1.13,1s-.2-1.71,0-1.85c.4-.24.65,1.84.84,1.74s0-2.25.45-2.14-.07,2.25.18,2.23.27-2,.8-2.15c.28-.06-.47,3.43-.22,3.73s1.34-.81,1.62-.59-2.13,1.86-2.16,2.07-.54,4.92-.47,6.47c.53,0,3.56.63,4.06.64-.33,1,.49,2,.21,3-1.69-.15-6.74-.53-7.06-.9-1-1.11.81-8,1.21-9.16s0-1.7,0-2.44S537.34,505,537.58,504.78Z"/><path class="cls-28" d="M545.45,574.85a11.05,11.05,0,0,1,2.14-1.19l.53-.32a4.53,4.53,0,0,0,.85-.75,4.29,4.29,0,0,0,.41-1.85c-.14-1.56-2.4-26.56-2.87-29.26a25.92,25.92,0,0,1,.25-7.06l1.75-.66,3.31,11.48-.26,8.73a22.84,22.84,0,0,1,.87,4c.1,1.51-1.12,13.72-1.12,13.72h0a7.45,7.45,0,0,0,.06,1.07c.09.46.59,1.4.37,1.83a1.16,1.16,0,0,1-.5.54l-5.94.09C545,575.25,545.19,575,545.45,574.85Z"/><path class="cls-38" d="M554.47,533.52a19.47,19.47,0,0,1,2.56,5.7c.49,2.58-.36,10.5.59,13.88.51,1.83,2.45,4.66,2.74,7s1.33,9.19,1.33,9.19h0a5.83,5.83,0,0,0,.71,2,5.81,5.81,0,0,1,.78,1,3,3,0,0,1-.11,2.34c-.13.3,0,.3-.3.4a1.91,1.91,0,0,1-2.29-1.08,5.52,5.52,0,0,1-.45-2,9,9,0,0,0-.33-2.09h0l-6.6-16.2-4.78-14-1.22-7.2Z"/><path class="cls-27" d="M560.3,573.54a2.91,2.91,0,0,0,2.87-1.2,3.12,3.12,0,0,1,.28,2.35c-.24.52-.93.5-1.47.52a1.42,1.42,0,0,1-1.3-.79A4.93,4.93,0,0,1,560.3,573.54Z"/><path class="cls-27" d="M548.12,573.34a5.41,5.41,0,0,0,3.38-.13,2.68,2.68,0,0,1,.27,1.42c-.14.42-.35.51-.53.52-1.43,0-5.26.09-6.36.1a.17.17,0,0,1-.13-.29A27.48,27.48,0,0,1,548.12,573.34Z"/><path class="cls-27" d="M553.13,553.43l-.37,0h0l-.37,0h0l-.37,0h0l-.38,0a25.27,25.27,0,0,1-4.27-.16c-.57-5.71-.78-10.91-1-12.06-.51-2.8.44-7.21.44-7.21l-.07-1,.24-.67,7.67,1a19.06,19.06,0,0,1,2.66,5.69c.51,2.58-.37,10.5.61,13.88C557.87,552.91,555.68,553.25,553.13,553.43Z"/><path class="cls-48" d="M542.69,515.55s5.74-.6,7.44,0,2.88,3,2,4.35-9.06-.42-9.06-.42Z"/><path class="cls-22" d="M552.82,515s2.84-.17,4,1-2.49,10.6-2.7,12.12,1,5.54,1,5.54-6.68,1.31-8.58.08c0,0-.35-11-.15-12.08a29.67,29.67,0,0,1,2.46-5.81C549.27,515.45,552.82,515,552.82,515Z"/><path class="cls-23" d="M551.87,511.32s0,.09,0,.22a20.45,20.45,0,0,0,1,3.47c.39.74-1.37,3.07-3.06,2.78-.51-.08.42-2.14.38-2.36-.09-.41-.2-1-.32-1.57-.07-.33-.14-.66-.2-1l-.33-1.62Z"/><path class="cls-49" d="M551.91,511.54c0-.13,0-.22,0-.22l-2.54-.06.33,1.62c.06.32.13.65.2,1a2.52,2.52,0,0,0,1.21-.59,3.17,3.17,0,0,0,.92-1.33C552,511.78,551.93,511.65,551.91,511.54Z"/><path class="cls-23" d="M550.16,505.71a2.34,2.34,0,0,1,2,.81c.75.94,1.56,3.86-.31,5.45s-3.7-.21-4-2.11S547.45,505.64,550.16,505.71Z"/><path class="cls-23" d="M547.27,509.83c.23.42.6.65.84.52s.25-.58,0-1-.6-.65-.84-.52S547.05,509.41,547.27,509.83Z"/><path class="cls-27" d="M550,505.4s1.6,2.77,2.74,2.9,1.3,1.61,1.3,1.61-.41-3.4-1.55-4.06A4.33,4.33,0,0,0,550,505.4Z"/><path class="cls-23" d="M552.47,509c-.09.49.1.94.42,1s.66-.28.76-.78-.1-.94-.42-1S552.57,508.51,552.47,509Z"/><path class="cls-17" d="M550.9,510.28l-1.63.24a.71.71,0,0,0,.84.53C551,511,550.9,510.28,550.9,510.28Z"/><path class="cls-22" d="M556.66,525.88s-3.21-4.8-3.5-6.56,1.3-4,2.92-3.78,4.39,8.2,4.39,8.2Z"/></g></g></g></svg>