<svg width="323" height="283" viewBox="0 0 323 283" fill="none" xmlns="http://www.w3.org/2000/svg">
<g clip-path="url(#clip0_294_627)">
<path d="M280.665 169.535H8.84834C6.65584 169.532 4.55386 168.667 3.00353 167.129C1.4532 165.59 0.581134 163.505 0.578659 161.329V9.25073H288.935V161.329C288.932 163.505 288.06 165.59 286.51 167.129C284.96 168.667 282.858 169.532 280.665 169.535Z" fill="#E6E6E6"/>
<path d="M269.848 153.828H19.6653C18.5359 153.827 17.453 153.381 16.6544 152.588C15.8557 151.796 15.4065 150.721 15.4052 149.601V29.1844C15.4065 28.0637 15.8557 26.9893 16.6544 26.1968C17.453 25.4043 18.5359 24.9585 19.6653 24.9573H269.848C270.977 24.9585 272.06 25.4043 272.859 26.1968C273.658 26.9892 274.107 28.0637 274.108 29.1844V149.601C274.107 150.721 273.658 151.796 272.859 152.588C272.06 153.381 270.977 153.827 269.848 153.828Z" fill="white"/>
<path d="M289.513 14.7938H7.62939e-06V8.20566C0.00248427 6.03014 0.874547 3.94443 2.42488 2.4061C3.9752 0.86777 6.07719 0.00245747 8.26968 0H281.244C283.436 0.00245747 285.538 0.86777 287.089 2.4061C288.639 3.94443 289.511 6.03014 289.513 8.20566V14.7938Z" fill="#63FFA5"/>
<path d="M78.8432 107.722H34.3145C33.1851 107.721 32.1022 107.275 31.3036 106.483C30.5049 105.69 30.0557 104.616 30.0544 103.495V74.4486C30.0557 73.3279 30.5049 72.2534 31.3036 71.4609C32.1022 70.6685 33.1851 70.2227 34.3145 70.2214H78.8432C79.9727 70.2227 81.0555 70.6684 81.8542 71.4609C82.6528 72.2534 83.1021 73.3279 83.1033 74.4486V103.495C83.1021 104.616 82.6528 105.69 81.8542 106.483C81.0555 107.275 79.9727 107.721 78.8432 107.722Z" fill="#E6E6E6"/>
<path d="M257.089 74.9238H116.397C115.769 74.9238 115.166 74.6761 114.722 74.2352C114.277 73.7942 114.028 73.1962 114.028 72.5726C114.028 71.9491 114.277 71.351 114.722 70.9101C115.166 70.4691 115.769 70.2214 116.397 70.2214H257.089C257.718 70.2214 258.32 70.4691 258.765 70.9101C259.209 71.351 259.459 71.9491 259.459 72.5726C259.459 73.1962 259.209 73.7942 258.765 74.2352C258.32 74.6761 257.718 74.9238 257.089 74.9238Z" fill="#E6E6E6"/>
<path d="M257.089 91.7434H116.397C115.769 91.7434 115.166 91.4957 114.722 91.0548C114.277 90.6139 114.028 90.0159 114.028 89.3923C114.028 88.7688 114.277 88.1708 114.722 87.7299C115.166 87.289 115.769 87.0413 116.397 87.0413H257.089C257.718 87.0413 258.32 87.289 258.765 87.7299C259.209 88.1708 259.459 88.7688 259.459 89.3923C259.459 90.0159 259.209 90.6139 258.765 91.0548C258.32 91.4957 257.718 91.7434 257.089 91.7434Z" fill="#E6E6E6"/>
<path d="M257.089 108.563H116.397C115.769 108.563 115.166 108.315 114.722 107.875C114.277 107.434 114.028 106.836 114.028 106.212C114.028 105.588 114.277 104.99 114.722 104.549C115.166 104.109 115.769 103.861 116.397 103.861H257.089C257.718 103.861 258.32 104.109 258.765 104.549C259.209 104.99 259.459 105.588 259.459 106.212C259.459 106.836 259.209 107.434 258.765 107.875C258.32 108.315 257.718 108.563 257.089 108.563Z" fill="#E6E6E6"/>
<path d="M210.274 276.661H204.13L201.207 253.144H210.275L210.274 276.661Z" fill="#A0616A"/>
<path d="M199.741 274.918H211.591V282.322H192.279C192.279 281.35 192.472 280.387 192.847 279.489C193.222 278.59 193.772 277.774 194.465 277.087C195.158 276.399 195.98 275.854 196.885 275.482C197.791 275.11 198.761 274.918 199.741 274.918Z" fill="#2F2E41"/>
<path d="M235.835 276.661H229.691L226.768 253.144H235.836L235.835 276.661Z" fill="#A0616A"/>
<path d="M225.302 274.918H237.152V282.322H217.84C217.84 281.35 218.033 280.387 218.408 279.489C218.783 278.59 219.333 277.774 220.026 277.087C220.718 276.399 221.541 275.854 222.446 275.482C223.351 275.11 224.322 274.918 225.302 274.918Z" fill="#2F2E41"/>
<path d="M235.053 271.256H228.798C228.233 271.253 227.689 271.04 227.274 270.661C226.858 270.281 226.6 269.761 226.55 269.203L221.25 205.846C221.234 205.662 221.151 205.49 221.015 205.363C220.879 205.237 220.7 205.165 220.514 205.162C220.328 205.159 220.147 205.224 220.007 205.346C219.866 205.467 219.776 205.636 219.754 205.82L212.142 269.282C212.076 269.826 211.812 270.327 211.399 270.691C210.987 271.054 210.454 271.255 209.902 271.256H202.222C201.626 271.255 201.055 271.02 200.633 270.603C200.21 270.186 199.971 269.621 199.967 269.03C199.951 265.044 199.923 261.028 199.896 257.012C199.652 221.245 199.4 184.259 206.927 169.77L206.995 169.638L234.156 169.177L234.224 169.325C242.442 187.144 239.948 226.951 237.536 265.447L237.304 269.157C237.267 269.725 237.014 270.258 236.596 270.647C236.178 271.037 235.626 271.255 235.053 271.256Z" fill="#2F2E41"/>
<path d="M222.185 121.556C228.984 121.556 234.495 116.087 234.495 109.341C234.495 102.595 228.984 97.1265 222.185 97.1265C215.387 97.1265 209.876 102.595 209.876 109.341C209.876 116.087 215.387 121.556 222.185 121.556Z" fill="#A0616A"/>
<path d="M205.403 171.883L205.742 157.878L203.3 146.952C202.683 144.246 202.719 141.434 203.405 138.745C204.091 136.055 205.408 133.565 207.247 131.476C209.037 129.398 211.297 127.769 213.842 126.722C216.387 125.675 219.145 125.239 221.892 125.451H221.892C222.069 125.465 222.247 125.479 222.425 125.495C224.772 125.705 227.053 126.381 229.13 127.484C231.208 128.587 233.041 130.094 234.52 131.914C236.029 133.745 237.152 135.859 237.82 138.129C238.489 140.4 238.69 142.781 238.411 145.13L235.457 170.75L205.403 171.883Z" fill="#63FFA5"/>
<path d="M194.946 196.983C195.527 196.533 196.001 195.962 196.336 195.31C196.67 194.659 196.856 193.943 196.881 193.212C196.907 192.481 196.77 191.754 196.481 191.081C196.193 190.409 195.759 189.807 195.21 189.319L202.141 172.932L192.994 174.636L187.815 189.936C187.049 190.905 186.668 192.118 186.744 193.347C186.82 194.576 187.347 195.734 188.226 196.602C189.105 197.471 190.275 197.989 191.514 198.059C192.752 198.129 193.973 197.746 194.946 196.983Z" fill="#A0616A"/>
<path d="M247.242 198.946C246.688 198.464 246.248 197.868 245.951 197.199C245.655 196.529 245.51 195.804 245.526 195.073C245.543 194.342 245.721 193.623 246.048 192.968C246.375 192.313 246.842 191.737 247.418 191.28L241.438 174.529L250.473 176.747L254.766 192.314C255.475 193.325 255.786 194.558 255.639 195.78C255.493 197.002 254.9 198.129 253.973 198.946C253.046 199.764 251.848 200.215 250.608 200.215C249.367 200.215 248.17 199.764 247.242 198.946Z" fill="#A0616A"/>
<path d="M196.046 188.952C195.729 188.952 195.415 188.886 195.125 188.757L189.852 186.413C189.344 186.189 188.939 185.786 188.713 185.282C188.487 184.779 188.456 184.21 188.627 183.685L197.472 156.423L200.89 135.884C201.011 135.154 201.28 134.456 201.678 133.831C202.077 133.207 202.599 132.668 203.212 132.247C203.825 131.826 204.517 131.532 205.247 131.382C205.977 131.232 206.73 131.229 207.461 131.374C208.192 131.519 208.886 131.808 209.503 132.224C210.119 132.64 210.644 133.175 211.048 133.797C211.451 134.419 211.725 135.115 211.852 135.844C211.978 136.573 211.956 137.32 211.786 138.04L206.591 160.067L198.204 187.367C198.063 187.826 197.777 188.228 197.389 188.513C197 188.799 196.53 188.953 196.046 188.952V188.952Z" fill="#63FFA5"/>
<path d="M246.347 188.953C245.864 188.953 245.393 188.799 245.005 188.513C244.616 188.228 244.331 187.826 244.19 187.367L235.807 160.083L230.607 138.04C230.437 137.32 230.415 136.573 230.542 135.844C230.669 135.115 230.942 134.419 231.346 133.797C231.75 133.175 232.275 132.64 232.891 132.224C233.507 131.808 234.202 131.519 234.933 131.374C235.664 131.229 236.417 131.232 237.147 131.382C237.877 131.532 238.569 131.826 239.182 132.247C239.795 132.668 240.316 133.207 240.715 133.832C241.114 134.456 241.382 135.154 241.504 135.884L244.931 156.459L253.767 183.686C253.938 184.21 253.907 184.779 253.681 185.282C253.455 185.786 253.049 186.189 252.542 186.414L247.269 188.757C246.979 188.886 246.665 188.953 246.347 188.953Z" fill="#63FFA5"/>
<path d="M222.439 95.8395C219.017 94.369 214.548 96.1987 213.168 99.6351C212.308 101.774 212.571 104.186 213.044 106.44C213.518 108.694 214.193 110.943 214.121 113.244C214.048 115.546 213.049 117.988 210.992 119.053C209.763 119.689 208.325 119.76 206.992 120.139C205.659 120.518 204.284 121.405 204.092 122.768C203.802 124.829 206.321 126.399 206.304 128.48C206.287 130.685 203.509 131.994 203.149 134.17C203.087 134.807 203.19 135.45 203.446 136.037C203.703 136.624 204.106 137.137 204.617 137.527C205.649 138.296 206.821 138.859 208.068 139.185C217.665 142.228 227.883 142.806 237.766 140.864C239.73 140.475 241.751 139.949 243.277 138.663C244.803 137.376 245.676 135.124 244.799 133.337C243.484 130.659 239.309 130.507 237.854 127.901C236.981 126.338 237.383 124.419 237.567 122.642C238.041 118.051 239.136 112.689 237.987 108.217C236.949 104.177 234.694 98.9571 231.471 96.2818C229.159 94.362 224.745 95.2367 221.789 95.8289L222.439 95.8395Z" fill="#2F2E41"/>
<path d="M322.499 283H147.081C146.948 283 146.821 282.947 146.727 282.854C146.633 282.761 146.58 282.634 146.58 282.502C146.58 282.371 146.633 282.244 146.727 282.151C146.821 282.058 146.948 282.005 147.081 282.005H322.499C322.632 282.005 322.759 282.058 322.853 282.151C322.947 282.244 323 282.371 323 282.502C323 282.634 322.947 282.761 322.853 282.854C322.759 282.947 322.632 283 322.499 283Z" fill="#CCCCCC"/>
<path d="M304.028 271.676C296.801 281.279 281.799 282.29 281.799 282.29C281.799 282.29 278.515 267.73 285.742 258.127C292.969 248.523 307.97 247.512 307.97 247.512C307.97 247.512 311.255 262.072 304.028 271.676Z" fill="#E6E6E6"/>
<path d="M267.212 275.286C271.981 281.623 281.88 282.29 281.88 282.29C281.88 282.29 284.048 272.682 279.279 266.345C274.51 260.008 264.61 259.341 264.61 259.341C264.61 259.341 262.443 268.949 267.212 275.286Z" fill="#E6E6E6"/>
</g>
<defs>
<clipPath id="clip0_294_627">
<rect width="323" height="283" fill="white"/>
</clipPath>
</defs>
</svg>
