<svg width="410" height="485" viewBox="0 0 410 485" fill="none" xmlns="http://www.w3.org/2000/svg">
<g clip-path="url(#clip0_294_867)">
<path d="M178.803 460.149L177.499 465.857L177.813 466.199C177.743 466.374 177.673 466.548 177.59 466.723C176.897 468.288 176.106 469.808 175.22 471.273C174.048 473.22 172.738 475.097 171.379 476.94C170.633 477.959 169.866 478.97 169.099 479.975C169.078 480.01 169.055 480.042 169.029 480.073C169.038 480.037 169.049 480.002 169.064 479.968L168.813 479.913L167.37 473.646L166.931 474.637V474.644L166.22 476.284C166.276 476.584 166.331 476.877 166.401 477.17C166.394 477.163 166.394 477.149 166.387 477.142C166.38 477.135 166.38 477.135 166.38 477.128C166.29 476.933 166.192 476.744 166.101 476.549L165.014 479.047L162.811 478.545C161.654 477.945 160.497 477.337 159.346 476.709C143.633 468.174 129.085 457.281 119.29 442.451C115.397 436.543 112.454 430.06 110.569 423.238C106.854 409.686 107.495 395.1 114.257 382.992C114.257 382.991 114.257 382.99 114.258 382.989C114.258 382.989 114.259 382.988 114.259 382.987C114.26 382.987 114.261 382.986 114.261 382.986C114.262 382.985 114.263 382.985 114.264 382.985C114.431 382.678 114.606 382.371 114.787 382.064C114.919 382.413 115.045 382.762 115.184 383.111V383.118C117.002 387.857 119.195 392.442 121.744 396.831C121.939 397.173 122.135 397.515 122.344 397.85C128.57 408.313 136.682 417.527 146.269 425.025C146.295 425.05 146.323 425.074 146.352 425.095C146.385 425.123 146.42 425.148 146.457 425.172C148.59 426.846 150.795 428.421 153.072 429.896V429.903C154.85 431.062 156.676 432.157 158.531 433.197C162.483 435.402 166.785 437.524 170.479 440.169C174.069 442.73 177.095 445.78 178.705 449.862C178.831 450.19 178.949 450.518 179.054 450.846L176.182 459.716L178.803 460.149Z" fill="#F0F0F0"/>
<path d="M166.931 474.637V474.644L166.22 476.284C165.146 470.31 166.422 463.994 165.537 457.944C165.439 457.267 165.314 456.59 165.153 455.92C164.247 452.095 162.177 448.515 158.496 446.806C157.422 446.316 156.294 445.953 155.136 445.724C152.849 445.235 150.465 445.131 148.158 444.859C147.579 444.789 147.008 444.712 146.45 444.607C143.466 444.144 140.618 443.042 138.098 441.376C135.014 439.182 132.327 436.477 130.151 433.378C128.714 431.433 127.376 429.416 126.143 427.335C125.976 427.07 125.822 426.798 125.662 426.525C122.777 421.523 120.411 416.238 118.6 410.753C117.668 407.95 116.886 405.099 116.258 402.212C114.861 395.902 114.19 389.454 114.257 382.992C114.257 382.991 114.257 382.99 114.258 382.989C114.258 382.989 114.259 382.988 114.259 382.987C114.26 382.987 114.261 382.986 114.261 382.986C114.262 382.985 114.263 382.985 114.264 382.985C114.257 382.692 114.264 382.399 114.271 382.106C114.285 381.506 115.212 381.638 115.198 382.238C115.191 382.532 115.184 382.818 115.184 383.111V383.118C115.128 389.309 115.752 395.487 117.046 401.542C117.115 401.849 117.185 402.156 117.248 402.463C119.133 410.853 122.3 418.901 126.638 426.323C126.687 426.407 126.735 426.49 126.791 426.574C127.802 428.298 128.89 429.973 130.033 431.613C132.133 434.77 134.716 437.577 137.687 439.932C140.187 441.803 143.09 443.063 146.164 443.609C146.471 443.665 146.778 443.721 147.091 443.77C147.335 443.812 147.586 443.847 147.837 443.874C150.186 444.168 152.598 444.279 154.934 444.726C155.996 444.927 157.038 445.218 158.05 445.598C159.706 446.263 161.203 447.27 162.443 448.555C163.683 449.839 164.638 451.372 165.244 453.051C165.865 454.682 166.291 456.38 166.513 458.111C166.589 458.676 166.645 459.242 166.694 459.814V459.821C166.764 460.742 166.799 461.67 166.812 462.598C166.826 463.757 166.805 464.915 166.778 466.067C166.623 468.923 166.674 471.787 166.931 474.637Z" fill="white"/>
<path d="M126.54 427.14C123.883 428.49 120.834 428.852 117.936 428.159C115.038 427.467 112.48 425.766 110.719 423.36C110.364 422.872 111.105 422.297 111.46 422.786C113.096 425.03 115.479 426.614 118.179 427.253C120.879 427.892 123.718 427.544 126.184 426.272C126.72 425.996 127.073 426.865 126.54 427.14H126.54Z" fill="white"/>
<path d="M146.073 443.888C148.014 438.109 147.708 431.81 145.216 426.246C144.969 425.695 145.836 425.34 146.083 425.89C148.666 431.685 148.971 438.241 146.938 444.25C146.743 444.823 145.88 444.458 146.073 443.888H146.073Z" fill="white"/>
<path d="M116.775 401.628C117.912 401.32 118.954 400.734 119.808 399.923C120.663 399.111 121.303 398.101 121.67 396.981C121.857 396.406 122.72 396.772 122.535 397.343C122.123 398.578 121.415 399.694 120.473 400.592C119.531 401.49 118.383 402.144 117.131 402.496C117.015 402.539 116.888 402.536 116.774 402.489C116.661 402.441 116.57 402.352 116.519 402.24C116.473 402.125 116.474 401.996 116.521 401.881C116.569 401.767 116.66 401.676 116.775 401.628H116.775Z" fill="white"/>
<path d="M168.987 480.129C169.001 480.108 169.015 480.094 169.029 480.073C169.001 480.157 168.974 480.24 168.953 480.331L168.987 480.129Z" fill="#F0F0F0"/>
<path d="M189.713 437.168L188.737 440.587L182.741 439.464L180.755 445.598L180.413 446.652L179.054 450.846L176.182 459.716L178.803 460.149L177.499 465.857L177.813 466.199L177.91 466.304L178.559 467.016L182.504 471.329L171.713 480.576L169.984 480.178L169.099 479.975C169.078 480.009 169.055 480.042 169.029 480.073C169.038 480.037 169.049 480.002 169.064 479.968L168.813 479.913L167.37 473.646L166.931 474.637V474.644L166.22 476.284C166.276 476.584 166.331 476.877 166.401 477.17C166.394 477.163 166.394 477.149 166.387 477.142C166.38 477.135 166.38 477.135 166.38 477.128C166.29 476.933 166.192 476.744 166.101 476.549C164.721 473.667 163.404 470.742 162.184 467.783C159.177 460.657 156.818 453.274 155.136 445.724C155.066 445.396 154.989 445.068 154.934 444.733V444.726C153.911 439.844 153.289 434.886 153.072 429.903V429.896C152.961 427.168 152.989 424.435 153.156 421.71C153.597 414.666 155.143 407.735 157.736 401.172C157.75 401.137 157.764 401.109 157.778 401.074C162.748 388.554 171.497 377.695 183.39 371.91C183.885 371.659 184.394 371.421 184.903 371.198H184.916L184.923 371.191C185.244 371.051 185.558 370.919 185.878 370.779C185.774 371.142 185.662 371.505 185.565 371.875C184.158 376.751 183.151 381.734 182.553 386.775V386.781C182.498 387.165 182.449 387.563 182.407 387.954V387.961C181.092 400.118 182.042 412.413 185.209 424.222C185.216 424.257 185.23 424.285 185.237 424.32C186.42 428.704 187.916 432.998 189.713 437.168Z" fill="#F0F0F0"/>
<path d="M178.559 467.016C178.008 467.756 177.443 468.474 176.872 469.193C176.321 469.884 175.77 470.575 175.22 471.273C173.78 473.049 172.495 474.944 171.379 476.94C170.819 477.975 170.352 479.059 169.984 480.178L169.099 479.975C169.078 480.009 169.055 480.042 169.029 480.073C169.038 480.037 169.049 480.002 169.064 479.968C170.688 474.888 174.383 470.952 177.59 466.723C177.701 466.583 177.806 466.444 177.911 466.304L178.559 467.016Z" fill="white"/>
<path d="M186.109 371.17C185.927 371.4 185.739 371.638 185.565 371.875C184.205 373.641 182.92 375.462 181.71 377.339C179.554 380.652 177.639 384.115 175.98 387.703C175.847 387.982 175.715 388.268 175.589 388.554C172.039 396.394 169.725 404.737 168.73 413.287C168.716 413.37 168.709 413.447 168.702 413.531C168.472 415.527 168.323 417.53 168.256 419.54C168.033 423.325 168.407 427.121 169.364 430.789C169.503 431.271 169.657 431.745 169.824 432.206C170.243 433.335 170.769 434.421 171.393 435.451C171.841 436.203 172.339 436.923 172.884 437.608C173.212 438.026 173.554 438.438 173.916 438.836C174.125 439.066 174.341 439.296 174.557 439.527C174.739 439.701 174.913 439.883 175.094 440.057C176.976 441.886 179.054 443.581 180.755 445.598L180.413 446.652C178.775 444.572 176.663 442.849 174.76 441.034C173.565 439.909 172.477 438.676 171.511 437.349C171.386 437.168 171.253 436.986 171.135 436.798C170.489 435.853 169.931 434.851 169.469 433.804C169.232 433.281 169.015 432.743 168.82 432.185C167.681 428.577 167.163 424.801 167.287 421.019C167.309 418.596 167.453 416.176 167.719 413.768C167.747 413.454 167.782 413.147 167.823 412.833C168.53 407.101 169.82 401.456 171.671 395.987C174.015 389.047 177.239 382.438 181.264 376.32C182.414 374.569 183.634 372.859 184.924 371.191C185.091 370.961 185.265 370.738 185.446 370.507C185.816 370.033 186.478 370.696 186.109 371.17Z" fill="white"/>
<path d="M168.155 413.857C165.222 413.334 162.57 411.785 160.672 409.485C158.775 407.186 157.755 404.286 157.796 401.303C157.799 401.182 157.849 401.066 157.935 400.98C158.022 400.895 158.138 400.846 158.26 400.845C158.381 400.843 158.498 400.889 158.587 400.973C158.675 401.056 158.728 401.17 158.734 401.292C158.69 404.069 159.64 406.77 161.411 408.908C163.183 411.045 165.659 412.479 168.393 412.949C168.987 413.052 168.746 413.959 168.155 413.857Z" fill="white"/>
<path d="M173.679 439.003C178.704 435.558 182.248 430.344 183.604 424.4C183.738 423.811 184.644 424.05 184.511 424.638C183.088 430.821 179.389 436.24 174.151 439.813C173.652 440.153 173.182 439.341 173.679 439.003H173.679Z" fill="white"/>
<path d="M175.702 387.602C176.794 388.041 177.979 388.201 179.149 388.068C180.319 387.936 181.438 387.514 182.405 386.842C182.9 386.495 183.369 387.307 182.878 387.652C181.806 388.39 180.57 388.854 179.277 389.003C177.985 389.152 176.675 388.983 175.464 388.509C175.346 388.474 175.245 388.395 175.183 388.289C175.121 388.182 175.102 388.056 175.129 387.936C175.162 387.816 175.24 387.714 175.347 387.651C175.454 387.588 175.581 387.571 175.702 387.602Z" fill="white"/>
<path d="M275.081 78.1111C269.803 49.8333 278.112 17.6625 301.207 0.545898C299.898 31.8018 309.675 62.5139 328.808 87.2482C336.222 96.7604 345.456 106.567 345.169 118.629C344.991 126.134 340.937 133.125 335.594 138.393C330.251 143.66 323.669 147.457 317.166 151.196L316.154 152.772C297.09 131.247 280.358 106.389 275.081 78.1111Z" fill="#F0F0F0"/>
<path d="M301.628 0.978165C291.925 22.7178 289.311 46.9654 294.158 70.2769C295.226 75.2648 296.744 80.2315 299.318 84.6629C301.86 88.963 305.506 92.5033 309.877 94.9158C313.907 97.2472 318.3 99.1647 321.694 102.436C325.271 105.885 326.864 110.591 326.732 115.509C326.569 121.525 324.257 127.124 321.805 132.521C319.084 138.514 316.162 144.694 316.338 151.431C316.36 152.248 315.093 152.233 315.072 151.418C314.765 139.697 323.23 130.284 325.116 119.037C325.996 113.789 325.301 108.243 321.616 104.175C318.393 100.618 313.865 98.6368 309.764 96.3115C305.458 93.87 301.792 90.8534 299.066 86.6715C296.279 82.3936 294.564 77.4758 293.373 72.5372C290.755 61.318 289.915 49.7565 290.884 38.2762C291.918 25.1677 295.184 12.3328 300.541 0.326817C300.873 -0.416137 301.958 0.240061 301.628 0.978165H301.628Z" fill="white"/>
<path d="M292.156 62.8626C288.138 63.1457 284.151 61.99 280.907 59.6019C277.662 57.2138 275.371 53.7488 274.443 49.8258C274.258 49.0313 275.482 48.706 275.667 49.5015C276.525 53.1563 278.66 56.3837 281.686 58.6013C284.711 60.8189 288.43 61.8806 292.169 61.5948C292.982 61.5337 292.964 62.8018 292.156 62.8626Z" fill="white"/>
<path d="M307.678 94.0031C313.131 87.8294 316.06 79.8247 315.88 71.5853C315.862 70.7689 317.128 70.7832 317.146 71.5985C317.318 80.1731 314.253 88.4969 308.564 94.909C308.021 95.5198 307.138 94.6106 307.678 94.0032V94.0031Z" fill="white"/>
<path d="M293.402 25.955C294.979 26.1697 296.585 25.9889 298.075 25.4288C299.565 24.8688 300.893 23.9469 301.939 22.7462C302.474 22.1288 303.357 23.0387 302.825 23.652C301.663 24.9733 300.195 25.9895 298.55 26.612C296.905 27.2344 295.133 27.4441 293.389 27.2227C293.222 27.2157 293.065 27.1455 292.949 27.0265C292.832 26.9076 292.766 26.7487 292.762 26.5822C292.765 26.4143 292.833 26.2543 292.953 26.1368C293.073 26.0194 293.234 25.954 293.402 25.9549V25.955Z" fill="white"/>
<path d="M395.654 23.9359C395.331 24.3309 395.008 24.7259 394.688 25.1313C390.374 30.4643 386.5 36.1394 383.104 42.1005C382.835 42.5572 382.568 43.0241 382.312 43.4876C374.283 57.9365 369.005 73.7521 366.743 90.1302C365.85 96.6482 365.452 103.225 365.555 109.803C365.698 118.888 366.575 128.727 363.793 137.083C363.513 137.958 363.178 138.815 362.792 139.648L318.153 153.886C318.035 153.868 317.921 153.859 317.802 153.841L316.046 154.491C316.017 154.152 315.994 153.8 315.965 153.461C315.948 153.265 315.94 153.065 315.922 152.868C315.914 152.736 315.906 152.604 315.89 152.485C315.887 152.441 315.885 152.397 315.885 152.364C315.87 152.245 315.868 152.133 315.856 152.025C315.723 150.057 315.6 148.086 315.498 146.108C315.495 146.098 315.495 146.098 315.502 146.084C314.736 131.021 315.219 115.762 318 101.061C318.084 100.619 318.164 100.167 318.269 99.7178C319.559 93.0984 321.388 86.5955 323.736 80.2743C325.034 76.8172 326.505 73.428 328.144 70.1197C332.397 61.5799 337.965 53.7629 344.645 46.9553C357.962 33.3863 375.465 24.2321 394.221 23.9438C394.701 23.9368 395.171 23.9327 395.654 23.9359Z" fill="#F0F0F0"/>
<path d="M395.734 24.5351C374.912 36.0447 358.242 53.8296 348.092 75.3636C345.946 79.9902 344.17 84.8706 343.56 89.9602C343.004 94.9258 343.786 99.95 345.825 104.511C347.641 108.801 349.995 112.98 350.737 117.638C351.52 122.547 349.961 127.265 346.898 131.112C343.15 135.818 337.936 138.895 332.733 141.726C326.956 144.87 320.906 148.044 316.995 153.53C316.521 154.194 315.519 153.42 315.992 152.756C322.796 143.212 335.216 140.798 343.486 132.955C347.345 129.295 350.125 124.449 349.629 118.979C349.195 114.197 346.772 109.886 344.895 105.557C342.925 101.012 341.812 96.394 342.152 91.4125C342.499 86.3167 344.087 81.3566 346.106 76.6953C350.763 66.1594 357.046 56.4221 364.724 47.84C373.433 37.9966 383.76 29.7172 395.258 23.36C395.97 22.9668 396.441 24.1445 395.734 24.5351V24.5351Z" fill="white"/>
<path d="M350.953 68.2372C347.575 66.0419 345.087 62.716 343.932 58.8536C342.778 54.9912 343.032 50.8437 344.65 47.1519C344.98 46.406 346.154 46.8843 345.823 47.6312C344.31 51.0662 344.073 54.9296 345.156 58.5241C346.238 62.1186 348.568 65.2073 351.726 67.2329C352.411 67.6739 351.634 68.6756 350.953 68.2372H350.953Z" fill="white"/>
<path d="M344.618 102.457C352.685 100.814 359.838 96.1881 364.649 89.5009C365.126 88.8379 366.128 89.6127 365.653 90.2748C360.633 97.2243 353.179 102.023 344.781 103.714C343.98 103.875 343.822 102.616 344.618 102.457H344.618Z" fill="white"/>
<path d="M374.145 39.5194C375.275 40.6415 376.666 41.4649 378.192 41.9159C379.719 42.3668 381.333 42.4312 382.891 42.103C383.689 41.9324 383.847 43.1909 383.054 43.3604C381.331 43.7149 379.548 43.6417 377.86 43.1472C376.172 42.6527 374.631 41.752 373.371 40.5237C373.243 40.4179 373.16 40.2671 373.138 40.1019C373.117 39.9368 373.159 39.7697 373.256 39.6346C373.359 39.5022 373.511 39.4158 373.677 39.3942C373.843 39.3726 374.011 39.4176 374.145 39.5194V39.5194Z" fill="white"/>
<path d="M108.802 44.3302C106.336 42.5872 103.637 40.7696 100.619 40.8422C93.3137 41.0181 89.375 51.7389 82.0773 51.3619C77.4234 51.1214 74.3339 46.3885 70.0005 44.6724C64.359 42.4382 57.1796 46.8076 56.5642 52.8498L57.2887 52.1859C79.2186 57.5379 101.976 58.5904 124.305 55.2853C119.138 51.6336 113.97 47.9819 108.802 44.3302Z" fill="#F0F0F0"/>
<path d="M122.471 57.2255C136.471 57.2255 147.82 45.8641 147.82 31.8491C147.82 17.8341 136.471 6.47266 122.471 6.47266C108.471 6.47266 97.1223 17.8341 97.1223 31.8491C97.1223 45.8641 108.471 57.2255 122.471 57.2255Z" fill="#FF6582"/>
<path d="M181.806 27.0015C178.663 24.7801 175.224 22.4638 171.377 22.5564C162.067 22.7805 157.048 36.4433 147.747 35.9628C141.816 35.6564 137.879 29.6247 132.357 27.4376C125.167 24.5904 116.018 30.1588 115.233 37.859L116.157 37.013C144.104 43.8337 173.107 45.175 201.564 40.9629C194.978 36.3091 188.392 31.6553 181.806 27.0015Z" fill="#F0F0F0"/>
<path d="M409.82 281.744L382.919 137.55C382.459 135.174 381.206 133.024 379.365 131.453C377.524 129.883 375.205 128.985 372.787 128.908C372.57 128.903 372.352 128.903 372.135 128.908L353.809 129.566L351.837 129.638L342.691 129.967L340.719 130.035L334.836 130.248L216.211 134.511C216.033 134.521 215.849 134.521 215.67 134.516L189.088 133.96L179.251 133.757L178.937 133.752L171.676 133.597L108.41 132.281L91.6362 131.927L83.3653 131.758L81.3834 131.714L71.9524 131.521L69.9753 131.477L60.3268 131.279L58.3497 131.235L47.7489 131.013L46.086 130.979L36.6309 130.78L35.1372 130.751H34.9197C32.4095 130.762 29.9838 131.66 28.0713 133.288C26.1589 134.915 24.8828 137.167 24.4687 139.646L0.139526 289.274C-0.10754 290.79 -0.0224929 292.341 0.388775 293.821C0.800042 295.3 1.52768 296.673 2.52132 297.843C3.51495 299.013 4.75082 299.953 6.14329 300.597C7.53576 301.242 9.05154 301.575 10.5856 301.575H150.306C152.362 301.581 154.363 302.242 156.019 303.463L158.668 305.427C160.494 306.772 162.7 307.501 164.967 307.508H247.308C248.699 307.512 250.078 307.239 251.363 306.706C252.648 306.172 253.815 305.389 254.796 304.401C256.473 302.723 258.712 301.725 261.08 301.599L399.969 294.273C401.475 294.194 402.946 293.794 404.286 293.099C405.625 292.405 406.8 291.432 407.733 290.245C408.666 289.059 409.334 287.687 409.694 286.221C410.054 284.754 410.097 283.228 409.82 281.744V281.744Z" fill="#CCCCCC"/>
<path d="M387.806 277.824L372.811 129.101C372.807 129.038 372.797 128.971 372.787 128.908C372.507 126.531 371.335 124.35 369.51 122.806L337.253 95.9044C335.85 94.7257 334.107 94.0285 332.279 93.9155C317.521 92.967 242.493 89.4537 214.8 113.519C213.96 114.251 212.969 114.79 211.899 115.098C210.828 115.405 209.703 115.474 208.603 115.3C207.5 115.121 206.449 114.706 205.521 114.083C204.594 113.459 203.811 112.643 203.227 111.69C200.873 108.016 197.787 104.866 194.164 102.437C192.537 101.306 190.842 100.277 189.088 99.3547C187.537 98.5369 185.849 97.7433 184.013 96.9787C182.432 96.3205 180.745 95.6866 178.937 95.0817C169.564 91.9459 157.034 89.6037 140.29 88.8198C133.343 88.4907 125.793 88.4472 117.851 88.6843C110.6 88.8972 102.894 89.3376 94.9522 89.9957L94.8362 90.0006L41.0974 122.844C39.8926 123.596 38.8745 124.613 38.1199 125.816C37.3654 127.02 36.8942 128.38 36.742 129.793L36.6308 130.781L19.5671 283.414C19.4197 284.711 19.5388 286.024 19.917 287.273C20.2952 288.522 20.9246 289.681 21.7665 290.677C22.586 291.649 23.6065 292.431 24.7574 292.969C25.9083 293.507 27.1623 293.788 28.4325 293.794H160.844C162.604 293.803 164.31 294.408 165.682 295.512L171.464 300.148C172.97 301.359 174.835 302.036 176.767 302.074L234.986 303.027H235.127C236.597 303.024 238.042 302.648 239.327 301.933L250.556 295.691C251.581 295.12 252.721 294.789 253.892 294.723L379.381 288.088C380.604 288.023 381.799 287.7 382.89 287.142C383.98 286.583 384.94 285.801 385.708 284.846C386.507 283.874 387.103 282.752 387.464 281.547C387.824 280.341 387.94 279.076 387.806 277.824Z" fill="#E6E6E6"/>
<path d="M344.004 251.004L342.248 227.855L334.837 130.251L333.736 115.812C333.457 112.019 331.778 108.466 329.025 105.846C326.272 103.226 322.643 101.726 318.846 101.638C291.693 100.94 242.526 102.168 218.399 118.352C215.715 120.178 212.46 120.966 209.24 120.568C206.02 120.17 203.054 118.613 200.894 116.189C197.556 112.52 193.548 109.523 189.085 107.361C185.82 105.721 182.425 104.353 178.935 103.271C168.723 100.005 155.835 98.0207 140.273 97.3181L103.34 97.1018H103.278C100.719 97.1042 98.2576 98.0816 96.3931 99.8354C94.5285 101.589 93.4009 103.988 93.2393 106.544L91.6359 131.926L84.63 243.236C84.4989 245.31 84.7901 247.388 85.486 249.346C86.1818 251.303 87.2678 253.099 88.6779 254.624C90.0881 256.148 91.7929 257.37 93.6891 258.215C95.5853 259.06 97.6332 259.51 99.7085 259.538C161.703 260.46 188.785 273.559 200.595 284.376C203.106 286.682 206.313 288.084 209.71 288.359C213.106 288.635 216.498 287.768 219.347 285.897C240.783 271.842 276.419 267.934 304.785 267.327C313.471 267.145 321.474 267.264 328.18 267.501C330.335 267.579 332.483 267.2 334.482 266.39C336.481 265.579 338.286 264.355 339.78 262.798C341.274 261.24 342.422 259.385 343.15 257.352C343.878 255.32 344.169 253.156 344.004 251.004Z" fill="white"/>
<path d="M36.2392 283.289C36.2161 283.289 36.192 283.288 36.1688 283.286C36.0395 283.277 35.9133 283.242 35.7973 283.185C35.6813 283.127 35.5779 283.046 35.4929 282.948C35.408 282.85 35.3431 282.737 35.3021 282.614C35.261 282.49 35.2446 282.36 35.2537 282.231L45.9203 131.454C45.9279 131.324 45.9614 131.197 46.0188 131.08C46.0762 130.963 46.1564 130.859 46.2546 130.774C46.3528 130.688 46.467 130.624 46.5906 130.583C46.7142 130.543 46.8446 130.527 46.9743 130.538C47.1035 130.547 47.2298 130.582 47.3457 130.64C47.4617 130.697 47.5651 130.778 47.6501 130.876C47.7351 130.974 47.8 131.087 47.841 131.211C47.8821 131.334 47.8985 131.464 47.8893 131.593L37.2228 282.37C37.2054 282.619 37.0942 282.853 36.9117 283.023C36.7292 283.194 36.4889 283.289 36.2392 283.289Z" fill="white"/>
<path d="M49.0754 277.358C49.0522 277.358 49.0281 277.357 49.005 277.355C48.8757 277.346 48.7494 277.312 48.6335 277.254C48.5175 277.196 48.4141 277.115 48.3291 277.017C48.2441 276.919 48.1793 276.806 48.1382 276.683C48.0972 276.56 48.0808 276.43 48.0899 276.3L58.7565 125.523C58.7641 125.393 58.7976 125.266 58.855 125.149C58.9124 125.032 58.9925 124.928 59.0907 124.843C59.1889 124.758 59.3032 124.693 59.4268 124.652C59.5504 124.612 59.6808 124.596 59.8104 124.607C59.9397 124.616 60.066 124.651 60.1819 124.709C60.2979 124.767 60.4013 124.847 60.4863 124.945C60.5713 125.043 60.6361 125.157 60.6772 125.28C60.7182 125.403 60.7346 125.533 60.7255 125.662L50.0589 276.439C50.0416 276.688 49.9304 276.922 49.7479 277.092C49.5654 277.263 49.3251 277.358 49.0754 277.358Z" fill="white"/>
<path d="M60.9241 274.393C60.901 274.393 60.8769 274.392 60.8537 274.39C60.7244 274.381 60.5982 274.346 60.4822 274.288C60.3663 274.23 60.2628 274.15 60.1779 274.052C60.0929 273.954 60.028 273.84 59.987 273.717C59.9459 273.594 59.9295 273.464 59.9387 273.335L70.6052 122.558C70.6128 122.428 70.6463 122.301 70.7037 122.184C70.7611 122.067 70.8413 121.963 70.9395 121.878C71.0377 121.792 71.1519 121.727 71.2755 121.687C71.3991 121.646 71.5296 121.631 71.6592 121.642C71.7885 121.651 71.9147 121.685 72.0307 121.743C72.1466 121.801 72.2501 121.882 72.335 121.98C72.42 122.077 72.4849 122.191 72.5259 122.314C72.567 122.437 72.5834 122.567 72.5743 122.697L61.9077 273.474C61.8903 273.723 61.7792 273.957 61.5966 274.127C61.4141 274.298 61.1738 274.393 60.9241 274.393Z" fill="white"/>
<path d="M72.7729 268.462C72.7498 268.462 72.7257 268.461 72.7025 268.459C72.5732 268.45 72.447 268.415 72.331 268.357C72.215 268.299 72.1116 268.219 72.0266 268.121C71.9417 268.023 71.8768 267.909 71.8358 267.786C71.7947 267.663 71.7783 267.533 71.7874 267.404L82.454 116.627C82.4616 116.497 82.4951 116.37 82.5525 116.253C82.6099 116.136 82.6901 116.032 82.7883 115.947C82.8865 115.861 83.0007 115.796 83.1243 115.756C83.2479 115.715 83.3784 115.7 83.508 115.711C83.6373 115.72 83.7635 115.754 83.8795 115.812C83.9954 115.87 84.0988 115.951 84.1838 116.049C84.2688 116.147 84.3337 116.26 84.3747 116.383C84.4158 116.507 84.4322 116.636 84.423 116.766L73.7565 267.543C73.7391 267.792 73.6279 268.026 73.4454 268.196C73.2629 268.367 73.0226 268.462 72.7729 268.462Z" fill="white"/>
<path d="M375.902 284.278C375.925 284.278 375.949 284.277 375.972 284.275C376.102 284.266 376.228 284.231 376.344 284.173C376.46 284.115 376.563 284.035 376.648 283.937C376.733 283.839 376.798 283.725 376.839 283.602C376.88 283.479 376.897 283.349 376.888 283.22L366.221 132.443C366.213 132.313 366.18 132.185 366.122 132.069C366.065 131.952 365.985 131.848 365.887 131.762C365.788 131.677 365.674 131.612 365.551 131.572C365.427 131.531 365.297 131.516 365.167 131.526C365.038 131.536 364.911 131.57 364.795 131.628C364.68 131.686 364.576 131.766 364.491 131.864C364.406 131.962 364.341 132.076 364.3 132.199C364.259 132.322 364.243 132.452 364.252 132.582L374.918 283.359C374.936 283.608 375.047 283.841 375.23 284.012C375.412 284.182 375.652 284.277 375.902 284.278Z" fill="white"/>
<path d="M363.066 275.381C363.089 275.381 363.113 275.38 363.136 275.378C363.266 275.369 363.392 275.335 363.508 275.277C363.624 275.219 363.727 275.139 363.812 275.041C363.897 274.943 363.962 274.829 364.003 274.706C364.044 274.583 364.06 274.453 364.051 274.323L353.385 123.546C353.377 123.416 353.344 123.289 353.286 123.172C353.229 123.056 353.149 122.951 353.05 122.866C352.952 122.781 352.838 122.716 352.714 122.675C352.591 122.635 352.46 122.62 352.331 122.63C352.201 122.639 352.075 122.674 351.959 122.732C351.843 122.79 351.74 122.87 351.655 122.968C351.57 123.066 351.505 123.18 351.464 123.303C351.423 123.426 351.407 123.556 351.416 123.685L362.082 274.462C362.1 274.712 362.211 274.945 362.393 275.116C362.576 275.286 362.816 275.381 363.066 275.381Z" fill="white"/>
<path d="M351.217 265.497C351.24 265.497 351.264 265.496 351.288 265.494C351.417 265.485 351.543 265.45 351.659 265.392C351.775 265.334 351.878 265.254 351.963 265.156C352.048 265.058 352.113 264.944 352.154 264.821C352.195 264.698 352.212 264.568 352.203 264.439L341.536 113.662C341.528 113.532 341.495 113.404 341.437 113.288C341.38 113.171 341.3 113.067 341.202 112.981C341.104 112.896 340.989 112.831 340.866 112.791C340.742 112.75 340.612 112.735 340.482 112.745C340.353 112.755 340.226 112.789 340.111 112.847C339.995 112.905 339.891 112.985 339.806 113.083C339.721 113.181 339.656 113.295 339.615 113.418C339.574 113.541 339.558 113.671 339.567 113.801L350.234 264.578C350.251 264.827 350.362 265.06 350.545 265.231C350.727 265.401 350.967 265.496 351.217 265.497Z" fill="white"/>
<path d="M108.9 131.163C131.157 124.054 155.987 125.936 177.072 135.951C183.089 138.793 188.77 142.297 194.013 146.396C195.496 147.561 197.607 145.477 196.108 144.299C176.742 129.262 152.408 122.118 127.997 124.304C121.243 124.909 114.576 126.25 108.113 128.303C106.303 128.881 107.077 131.745 108.9 131.163H108.9Z" fill="#3F3D56"/>
<path d="M231.372 147.546C252.064 136.658 276.844 134.284 299.343 140.464C305.757 142.222 311.956 144.689 317.824 147.821C319.506 148.719 321.004 146.16 319.32 145.26C297.877 133.806 272.136 131.169 248.72 137.554C242.188 139.339 235.869 141.83 229.876 144.986C228.188 145.874 229.684 148.434 231.372 147.546Z" fill="#3F3D56"/>
<path d="M231.372 167.316C252.064 156.427 276.844 154.053 299.343 160.234C305.757 161.992 311.956 164.459 317.824 167.59C319.506 168.488 321.004 165.929 319.32 165.03C297.877 153.575 272.136 150.939 248.72 157.324C242.188 159.108 235.869 161.6 229.876 164.755C228.188 165.644 229.684 168.204 231.372 167.316V167.316Z" fill="#3F3D56"/>
<path d="M320.044 186.025C320.06 185.77 319.999 185.517 319.868 185.298C319.738 185.078 319.545 184.904 319.314 184.796C302.136 175.791 282.66 172.139 263.391 174.309C263.27 174.319 263.159 174.338 263.028 174.348H263.023C262.905 174.358 262.787 174.376 262.67 174.401C251.21 175.721 240.092 179.152 229.877 184.52C229.654 184.653 229.47 184.841 229.342 185.067C229.214 185.292 229.147 185.547 229.147 185.807V222.687C229.151 222.913 229.206 223.137 229.308 223.339C229.411 223.541 229.558 223.718 229.739 223.855C229.92 223.992 230.129 224.086 230.351 224.13C230.574 224.174 230.803 224.167 231.023 224.109C231.477 223.979 231.931 223.853 232.395 223.732C242.722 220.934 253.323 219.274 264.009 218.781C264.237 218.772 264.464 218.762 264.701 218.752C273.405 218.378 282.125 218.692 290.78 219.691C290.961 219.701 291.142 219.721 291.321 219.749C291.766 219.798 292.22 219.851 292.665 219.909C292.844 219.928 293.013 219.948 293.177 219.977C294.908 220.194 296.624 220.441 298.345 220.707C300.829 221.104 303.314 221.546 305.799 222.033C305.953 222.062 306.113 222.101 306.272 222.13C310.26 222.924 314.229 223.843 318.178 224.859C318.398 224.916 318.628 224.922 318.851 224.877C319.074 224.832 319.283 224.737 319.464 224.599C319.644 224.461 319.791 224.284 319.893 224.081C319.996 223.878 320.051 223.654 320.054 223.427V186.083C320.055 186.063 320.052 186.043 320.044 186.025Z" fill="#3F3D56"/>
<path d="M265.713 176.32C264.628 175.788 263.384 175.678 262.223 176.013C261.71 176.206 261.24 176.498 260.841 176.874C260.442 177.25 260.121 177.701 259.898 178.202C259.495 179.162 259.237 180.176 259.133 181.212C259.071 181.62 259.067 182.134 259.477 182.324C259.625 182.378 259.785 182.391 259.94 182.36C260.095 182.329 260.239 182.257 260.356 182.15C260.567 181.942 260.741 181.698 260.871 181.431C261.581 180.325 262.559 179.415 263.713 178.787C264.867 178.159 266.161 177.832 267.475 177.836L268.569 178.273C267.708 177.497 266.748 176.84 265.713 176.32Z" fill="#FF6582"/>
<path d="M277.549 184.82C276.7 183.57 275.694 182.234 274.12 181.826C272.296 181.353 270.422 182.292 268.833 183.219C264.107 185.975 259.531 188.979 255.123 192.22L255.128 192.269L265.358 191.64C267.822 191.489 270.371 191.317 272.548 190.278C273.33 189.787 274.204 189.462 275.116 189.321C275.682 189.351 276.236 189.494 276.746 189.74C277.257 189.987 277.714 190.332 278.09 190.755C282.805 195.229 284.17 202.071 289.459 206.001C286.093 198.617 282.109 191.531 277.549 184.82Z" fill="white"/>
<path d="M264.702 218.752C264.465 218.761 264.238 218.771 264.011 218.781C262.362 218.188 260.674 217.664 258.966 217.21C257.86 216.913 256.734 216.646 255.608 216.419C254.334 216.142 253.051 215.925 251.767 215.737C249.324 215.381 246.86 215.173 244.392 215.114C244.373 215.116 244.354 215.114 244.336 215.108C244.318 215.103 244.302 215.093 244.288 215.081C244.274 215.068 244.262 215.053 244.255 215.035C244.247 215.018 244.243 215 244.243 214.981C244.243 214.962 244.247 214.943 244.255 214.926C244.262 214.909 244.274 214.893 244.288 214.881C244.302 214.868 244.318 214.859 244.336 214.853C244.354 214.847 244.373 214.845 244.392 214.847C244.707 214.847 245.023 214.857 245.33 214.877C247.804 214.968 250.27 215.209 252.715 215.598C253.989 215.806 255.263 216.053 256.527 216.33C257.672 216.587 258.817 216.874 259.943 217.19C261.552 217.645 263.139 218.165 264.702 218.752Z" fill="white"/>
<path d="M293.179 219.977C293.011 219.948 292.843 219.928 292.665 219.908C291.984 219.345 291.293 218.811 290.572 218.287C289.674 217.635 288.745 217.022 287.798 216.448C285.698 215.173 283.507 214.056 281.241 213.107C277.659 211.614 273.952 210.443 270.163 209.608C265.84 208.66 261.465 207.974 257.06 207.552C252.656 207.097 248.233 206.821 243.809 206.544C243.621 206.534 243.612 206.257 243.809 206.267C244.362 206.307 244.915 206.336 245.478 206.376C249.951 206.653 254.423 206.969 258.867 207.473C263.272 207.946 267.643 208.705 271.95 209.747C275.627 210.654 279.215 211.888 282.673 213.434C284.662 214.328 286.588 215.355 288.439 216.508C289.614 217.249 290.75 218.04 291.836 218.88C292.29 219.236 292.744 219.592 293.179 219.977Z" fill="white"/>
<path d="M291.323 219.75C291.143 219.721 290.961 219.701 290.78 219.691C290.572 219.523 290.355 219.364 290.138 219.206C288.618 218.117 287.032 217.123 285.388 216.231C283.896 215.419 282.364 214.683 280.797 214.027C277.217 212.529 273.509 211.358 269.718 210.528C265.396 209.58 261.02 208.893 256.615 208.472C252.212 208.017 247.788 207.74 243.365 207.463C243.177 207.444 243.177 207.177 243.365 207.187C243.928 207.226 244.48 207.256 245.033 207.295C249.506 207.572 253.979 207.888 258.422 208.392C262.828 208.865 267.198 209.625 271.506 210.666C275.183 211.571 278.772 212.805 282.229 214.353C283.532 214.946 284.806 215.589 286.05 216.29C287.895 217.304 289.658 218.461 291.323 219.75Z" fill="white"/>
<path d="M306.272 222.132C306.114 222.103 305.956 222.063 305.798 222.033C305.62 221.845 305.452 221.648 305.284 221.45C304.435 220.471 303.596 219.483 302.766 218.485C299.498 214.59 296.398 210.577 293.475 206.485C290.967 202.985 288.587 199.417 286.336 195.779C285.26 194.059 284.223 192.32 283.206 190.56C282.416 189.196 281.646 187.829 280.896 186.458C280.678 186.063 280.471 185.667 280.264 185.272C279.78 184.343 279.296 183.404 278.783 182.484C278.225 181.358 277.405 180.382 276.393 179.638C275.887 179.299 275.302 179.098 274.695 179.055C273.839 179.058 272.997 179.275 272.246 179.687C266.722 182.262 261.511 185.463 256.714 189.226C252.03 192.873 247.794 197.064 244.095 201.71C243.977 201.849 243.72 201.72 243.829 201.572C244.273 201.018 244.727 200.465 245.181 199.921C248.736 195.712 252.739 191.903 257.119 188.564C257.129 188.554 257.149 188.544 257.159 188.534C257.544 188.228 257.929 187.931 258.324 187.644C260.769 185.842 263.314 184.178 265.947 182.662C267.289 181.881 268.662 181.14 270.064 180.438C270.409 180.26 270.765 180.082 271.12 179.914C271.476 179.737 271.831 179.569 272.187 179.4C272.89 179.041 273.66 178.829 274.448 178.778C277.193 178.738 278.605 181.506 279.582 183.374C279.888 183.957 280.205 184.541 280.511 185.124C281.695 187.328 282.93 189.522 284.213 191.687C284.993 193.031 285.803 194.366 286.623 195.691C287.798 197.579 289.002 199.447 290.256 201.305C290.256 201.306 290.256 201.308 290.257 201.309C290.257 201.31 290.258 201.311 290.259 201.312C290.26 201.313 290.261 201.314 290.262 201.314C290.263 201.315 290.265 201.315 290.266 201.315C291.718 203.509 293.228 205.664 294.788 207.809C297.464 211.476 300.268 215.061 303.201 218.564C304.208 219.77 305.232 220.959 306.272 222.132Z" fill="white"/>
<path d="M320.056 217.773V218.228C319.078 217.081 318.081 215.944 317.094 214.807C316.679 214.333 316.264 213.859 315.849 213.384C314.092 211.387 312.324 209.397 310.547 207.414C308.76 205.437 306.973 203.46 305.166 201.493C304.731 201.018 304.297 200.544 303.853 200.069C303.497 199.671 303.111 199.3 302.697 198.962C302.28 198.615 301.801 198.35 301.285 198.181C300.692 198.017 300.066 198.01 299.469 198.162C298.787 198.32 298.136 198.567 297.474 198.774C296.793 199.002 296.121 199.219 295.44 199.437C294.077 199.882 292.725 200.326 291.362 200.771C291.345 200.778 291.327 200.781 291.309 200.781C291.291 200.781 291.273 200.777 291.256 200.769C291.24 200.762 291.225 200.751 291.212 200.738C291.2 200.725 291.19 200.709 291.184 200.692C291.176 200.673 291.173 200.653 291.174 200.633C291.175 200.613 291.18 200.593 291.19 200.575C291.199 200.557 291.212 200.541 291.228 200.529C291.245 200.517 291.263 200.508 291.283 200.504C291.619 200.396 291.964 200.287 292.31 200.178C293.682 199.723 295.045 199.279 296.418 198.834C297.099 198.606 297.78 198.389 298.461 198.172C299.093 197.931 299.761 197.798 300.436 197.776C301.539 197.856 302.573 198.342 303.339 199.14C303.764 199.536 304.149 199.951 304.534 200.376C304.988 200.87 305.442 201.364 305.897 201.859C307.723 203.855 309.537 205.859 311.337 207.868C313.144 209.885 314.934 211.905 316.709 213.928C316.837 214.076 316.965 214.224 317.094 214.373C318.091 215.499 319.068 216.636 320.056 217.773Z" fill="white"/>
<path d="M271.044 178.477L270.771 178.596C270.146 177.538 269.269 176.652 268.218 176.015C267.168 175.379 265.977 175.012 264.751 174.947C260.708 174.66 257.157 177.357 256.835 180.959C256.703 182.442 257.132 183.92 258.037 185.103L257.783 185.253C256.841 184.022 256.395 182.482 256.531 180.937C256.867 177.186 260.565 174.378 264.775 174.677C266.052 174.744 267.292 175.126 268.386 175.789C269.48 176.452 270.393 177.375 271.044 178.477Z" fill="#FF6582"/>
<path d="M251.069 185.764C250.008 185.302 248.853 185.1 247.698 185.173C246.544 185.247 245.423 185.594 244.429 186.187C248.058 186.745 251.654 187.493 255.204 188.428C253.734 187.661 252.585 186.458 251.069 185.764Z" fill="white"/>
<path d="M244.409 186.184L244.01 186.473C244.145 186.372 244.285 186.277 244.429 186.187L244.409 186.184Z" fill="white"/>
<path d="M302.544 200.784C302.171 200.303 301.674 199.933 301.106 199.714L300.545 199.734C304.952 206.599 310.725 212.48 317.505 217.011C312.518 211.602 307.531 206.193 302.544 200.784Z" fill="white"/>
<path d="M256.441 187.862C256.281 187.704 256.123 187.546 255.963 187.388C254.734 186.049 253.254 184.964 251.607 184.197C250.768 183.843 249.869 183.657 248.959 183.65C248.019 183.672 247.09 183.852 246.21 184.184C245.796 184.331 245.391 184.499 244.993 184.677C244.537 184.881 244.09 185.099 243.645 185.318C242.809 185.731 241.984 186.161 241.169 186.609C239.549 187.502 237.98 188.462 236.461 189.49C235.674 190.024 234.903 190.574 234.149 191.143C233.447 191.67 232.759 192.213 232.085 192.769C231.941 192.887 231.726 192.696 231.87 192.577C232.048 192.43 232.227 192.283 232.407 192.139C232.914 191.73 233.429 191.329 233.953 190.936C234.907 190.219 235.887 189.529 236.891 188.866C238.452 187.836 240.067 186.875 241.735 185.985C242.569 185.54 243.415 185.114 244.272 184.707C244.53 184.584 244.792 184.463 245.057 184.349C245.661 184.078 246.285 183.852 246.923 183.672C247.838 183.41 248.796 183.326 249.742 183.426C250.649 183.541 251.529 183.813 252.343 184.227C253.958 185.133 255.414 186.296 256.656 187.67C256.786 187.8 256.571 187.992 256.441 187.862Z" fill="white"/>
<path d="M108.9 150.932C131.157 143.823 155.987 145.705 177.072 155.72C183.089 158.562 188.77 162.066 194.013 166.165C195.496 167.331 197.607 165.246 196.108 164.068C176.742 149.031 152.408 141.887 127.997 144.073C121.243 144.678 114.576 146.019 108.113 148.072C106.303 148.65 107.077 151.514 108.9 150.932H108.9Z" fill="#3F3D56"/>
<path d="M108.9 170.701C131.157 163.593 155.987 165.475 177.072 175.489C183.089 178.332 188.77 181.835 194.013 185.935C195.496 187.1 197.607 185.016 196.108 183.838C176.742 168.8 152.408 161.657 127.997 163.843C121.243 164.448 114.576 165.789 108.113 167.842C106.303 168.42 107.077 171.284 108.9 170.701H108.9Z" fill="#3F3D56"/>
<path d="M108.9 190.471C131.157 183.362 155.987 185.244 177.072 195.259C183.089 198.102 188.77 201.605 194.013 205.704C195.496 206.87 197.607 204.785 196.108 203.608C176.742 188.57 152.408 181.426 127.997 183.612C121.243 184.217 114.576 185.558 108.113 187.611C106.303 188.189 107.077 191.053 108.9 190.471H108.9Z" fill="#3F3D56"/>
<path d="M108.9 210.24C131.157 203.132 155.987 205.014 177.072 215.028C183.089 217.871 188.77 221.374 194.013 225.474C195.496 226.639 197.607 224.555 196.108 223.377C176.742 208.34 152.408 201.196 127.997 203.382C121.243 203.987 114.576 205.328 108.113 207.381C106.303 207.959 107.077 210.823 108.9 210.24H108.9Z" fill="#3F3D56"/>
<path d="M108.9 230.01C131.157 222.901 155.987 224.783 177.072 234.798C183.089 237.641 188.77 241.144 194.013 245.243C195.496 246.409 197.607 244.324 196.108 243.147C176.742 228.109 152.408 220.966 127.997 223.151C121.243 223.756 114.576 225.097 108.113 227.15C106.303 227.728 107.077 230.592 108.9 230.01L108.9 230.01Z" fill="#3F3D56"/>
<path d="M189.088 99.3546V154.763C189.088 155.707 187.445 156.496 185.226 156.709C184.839 156.748 184.433 156.767 184.013 156.767C182.791 156.79 181.576 156.592 180.426 156.181C180.213 156.098 180.006 156 179.807 155.886C179.256 155.562 178.937 155.18 178.937 154.763V95.0815C180.745 95.6864 182.432 96.3204 184.013 96.9785C185.849 97.7432 187.537 98.5368 189.088 99.3546Z" fill="#63FFA5"/>
<path d="M210.363 118.354H208.913V297.588H210.363V118.354Z" fill="#E6E6E6"/>
<path d="M339.787 262.791C338.292 264.348 336.485 265.573 334.485 266.385C332.485 267.197 330.337 267.577 328.18 267.501C321.474 267.264 313.471 267.145 304.785 267.327L304.736 267.285L342.38 218.434L344.004 251.004C344.167 253.155 343.876 255.316 343.149 257.346C342.422 259.377 341.277 261.232 339.787 262.791Z" fill="#F2F2F2"/>
<path d="M246.074 433.525L244.067 449.841L242.533 462.242L241.919 467.246H233.192V462.801L233.185 448.089V433.525H246.074Z" fill="#FFB6B6"/>
<path d="M185.216 431.815L182.742 439.464L180.755 445.598L180.413 446.652L179.054 450.846L176.182 459.716L174.753 464.134L166.813 462.598L166.178 462.48L166.694 459.814L167.008 458.188L170.479 440.169L171.044 437.265L171.135 436.798L171.393 435.451L172.564 429.373L181.027 431.006L182.003 431.194L185.216 431.815Z" fill="#FFB6B6"/>
<path d="M259.187 336.36C254.195 363.822 252.948 375.678 252.948 375.678C252.948 375.678 256.691 380.047 254.195 382.546C251.7 385.044 254.195 390.034 254.195 390.034L248.584 450.574L244.066 449.841L233.184 448.09L229.26 447.455L231.755 390.662C231.755 390.662 229.26 385.665 230.508 384.416C231.755 383.167 229.26 375.678 229.26 375.678L226.144 316.387L206.813 381.296C206.813 381.296 208.688 383.795 206.813 385.665C204.944 387.535 201.208 396.901 201.208 396.901L189.713 437.168L188.737 440.588L182.741 439.464L176.217 438.236L175.017 438.012L172.884 437.608L171.511 437.349L171.044 437.266L168.785 436.84L169.468 433.804L169.824 432.206L179.549 388.966L179.772 387.968L180.009 386.914C180.009 386.914 178.761 383.795 180.629 381.917C181.176 381.345 181.575 380.649 181.792 379.887C182.01 379.126 182.039 378.324 181.877 377.549C181.816 377.483 181.76 377.413 181.71 377.339C181.489 377.036 181.337 376.688 181.264 376.321C181.096 375.539 181.243 374.443 182.504 373.18C182.86 372.802 183.158 372.374 183.39 371.91C185.286 368.316 186.241 360.702 186.241 360.702C186.241 360.702 187.928 300.399 193.449 291.187C193.667 290.785 193.975 290.439 194.348 290.175C200.581 286.435 260.428 290.175 260.428 290.175C260.428 290.175 260.511 290.608 260.644 291.431C261.362 296.058 263.418 313.065 259.187 336.36Z" fill="#2F2E41"/>
<path d="M257.225 225.574L258.973 215.035L291.154 220.457L336.812 223.727C337.802 222.63 339.121 221.882 340.57 221.596C342.019 221.309 343.523 221.499 344.856 222.136C346.189 222.774 347.281 223.826 347.968 225.135C348.656 226.444 348.903 227.94 348.673 229.401C348.443 230.862 347.747 232.21 346.69 233.243C345.633 234.276 344.27 234.94 342.806 235.136C341.341 235.331 339.853 235.048 338.562 234.328C337.272 233.609 336.247 232.491 335.643 231.142L307.64 233.028L257.225 225.574Z" fill="#FFB6B6"/>
<path d="M233.171 218.279L235.443 208.872C235.443 208.872 247.782 206.598 257.537 208.773L294.236 215.824L291.266 238.033L233.171 218.279Z" fill="#63FFA5"/>
<path d="M147.988 295.747L168.52 251.095L183.504 219.503L196.499 227.159L156.045 300.661C156.4 301.971 156.359 303.358 155.928 304.645C155.496 305.932 154.692 307.062 153.619 307.892C152.546 308.722 151.25 309.215 149.897 309.308C148.544 309.401 147.194 309.091 146.017 308.416C144.84 307.741 143.89 306.731 143.286 305.515C142.682 304.3 142.452 302.932 142.625 301.585C142.798 300.238 143.365 298.973 144.256 297.949C145.147 296.926 146.321 296.189 147.63 295.834C147.749 295.801 147.868 295.773 147.988 295.747L147.988 295.747Z" fill="#FFB6B6"/>
<path d="M207.203 205.966L197.236 201.389C197.236 201.389 195.47 200.775 191.659 206.057C187.848 211.339 155.067 261.182 155.067 261.182L175.883 270.602L207.203 205.966Z" fill="#63FFA5"/>
<path d="M257.353 476.961L244.38 467.986V462.131L242.533 462.243L233.192 462.801L230.731 462.947L229.03 483.339L229.009 483.625H235.136L235.192 483.339L236.231 477.833L238.887 483.339L239.026 483.625H255.283C255.771 483.624 256.254 483.527 256.705 483.339C257.308 483.084 257.832 482.671 258.221 482.144C258.61 481.617 258.851 480.994 258.917 480.342C258.983 479.69 258.873 479.032 258.598 478.437C258.323 477.842 257.893 477.332 257.353 476.961H257.353Z" fill="#2F2E41"/>
<path d="M188.158 477.498L182.504 471.329L178.559 467.016L177.911 466.304L177.813 466.199L177.499 465.857L178.803 460.149L176.182 459.716L167.008 458.188L166.513 458.111L165.537 457.944L165.314 457.909L162.184 467.784L159.346 476.709L159.04 477.686L162.811 478.545L165.014 479.047L166.101 476.549L166.22 476.284L166.931 474.644V474.637L167.37 473.646L168.813 479.913L169.064 479.968L169.099 479.975L169.984 480.178L171.713 480.576L183.801 483.339L184.659 483.535C185.603 483.745 186.592 483.573 187.411 483.057C188.23 482.541 188.811 481.722 189.029 480.778C189.161 480.201 189.15 479.602 188.998 479.03C188.846 478.459 188.558 477.933 188.158 477.498Z" fill="#2F2E41"/>
<path d="M244.108 177.175C242.698 179.765 240.741 182.016 238.373 183.771C236.004 185.526 233.282 186.743 230.396 187.336C230.075 187.406 229.755 187.462 229.427 187.51C224.898 188.219 220.263 187.373 216.276 185.109C212.288 182.846 209.184 179.298 207.466 175.043C205.749 170.788 205.521 166.077 206.818 161.676C208.116 157.275 210.863 153.443 214.612 150.803C218.362 148.163 222.893 146.872 227.469 147.138C232.045 147.404 236.397 149.213 239.816 152.269C243.234 155.326 245.519 159.451 246.299 163.973C247.078 168.495 246.306 173.148 244.108 177.175Z" fill="#FFB6B6"/>
<path d="M236.035 149.588C229.392 145.014 223.542 144.317 218.736 145.615C218.113 144.65 217.24 143.873 216.209 143.368C212.461 133.914 201.055 128.236 191.267 130.996C181.415 133.774 174.617 144.699 176.471 154.776C177.62 161.022 181.547 166.431 183.126 172.582C186.183 184.49 178.725 198.13 167.058 201.968C178.105 204.189 190.265 197.434 194.228 186.875C196.153 181.746 196.269 176.146 196.514 170.673C196.578 166.895 197.04 163.135 197.893 159.454C198.316 157.803 198.914 156.201 199.676 154.677C201.337 151.326 204.096 148.647 207.491 147.087C207.187 148.028 207.111 149.028 207.27 150.005C207.428 150.982 207.816 151.907 208.402 152.704C205.811 155.953 204.401 159.466 204.401 161.571C199.019 171.418 206.715 179.876 216.551 185.263C220.475 187.423 225.005 188.214 229.427 187.51L229.838 185.752L230.396 187.336L232.257 192.647C234.404 193.687 236.533 194.827 238.643 196.066C237.841 192.298 237.193 188.536 236.747 184.859C236.129 179.853 238.282 172.401 239.836 167.869C240.799 165.076 241.294 162.142 241.299 159.187V159.058L242.812 163.922L248.319 161.571C247.294 155.687 248.319 149.009 236.035 149.588Z" fill="#2F2E41"/>
<path d="M193.723 284.559C194.447 281.692 194.447 278.689 193.723 275.822C192.476 271.453 194.97 269.581 194.97 269.581L195.593 202.177C198.227 199.54 205.284 199.497 209.232 199.702V196.734C209.232 195.641 209.665 194.593 210.438 193.82C211.21 193.047 212.257 192.613 213.349 192.613H231.605C232.697 192.613 233.744 193.047 234.516 193.82C235.288 194.593 235.722 195.641 235.722 196.734V200.292L241.077 200.376C250.401 201.072 258.559 210.29 258.559 210.29L250.455 241.496C250.455 241.496 252.949 267.084 256.066 270.205C259.183 273.325 257.936 275.197 257.936 275.197C257.936 275.197 256.066 282.063 259.806 284.559C263.547 287.056 261.053 291.424 261.053 291.424C261.053 291.424 193.723 292.673 191.853 290.8C189.982 288.928 193.723 284.559 193.723 284.559Z" fill="#63FFA5"/>
<path d="M317.779 484.17C317.779 484.279 317.758 484.387 317.717 484.488C317.675 484.589 317.614 484.68 317.537 484.758C317.46 484.835 317.368 484.896 317.267 484.937C317.167 484.979 317.059 485 316.95 485H121.556C121.336 485 121.125 484.913 120.969 484.757C120.814 484.601 120.726 484.39 120.726 484.17C120.726 483.949 120.814 483.738 120.969 483.582C121.125 483.427 121.336 483.339 121.556 483.339H316.95C317.059 483.339 317.167 483.36 317.267 483.402C317.368 483.443 317.46 483.504 317.537 483.582C317.614 483.659 317.675 483.75 317.717 483.851C317.758 483.952 317.779 484.06 317.779 484.17Z" fill="#CCCCCC"/>
</g>
<defs>
<clipPath id="clip0_294_867">
<rect width="410" height="485" fill="white"/>
</clipPath>
</defs>
</svg>
