<svg width="296" height="195" viewBox="0 0 296 195" fill="none" xmlns="http://www.w3.org/2000/svg">
<path d="M2.48512 100.99C2.48512 100.99 -14.8164 127.868 41.9013 128.329C41.9013 128.329 42.7355 104.943 24.1949 95.3081C20.5897 93.4263 16.4157 92.9246 12.4634 93.8982C8.51119 94.8718 5.05529 97.253 2.75038 100.591L2.48512 100.99Z" fill="#63FFA5"/>
<path d="M2.61427 100.539C2.61427 100.539 31.6642 106.231 41.9013 128.329" stroke="#535461" stroke-miterlimit="10"/>
<path d="M44.4353 124.713C44.4353 124.713 25.783 100.743 27.4863 77.1138C28.1844 67.1977 25.8423 57.292 20.4324 48.9274C17.8581 44.9669 14.9245 41.2491 11.6682 37.8208" stroke="#535461" stroke-width="2" stroke-miterlimit="10"/>
<path d="M12.6454 22.9279C13.9473 26.246 11.6821 38.2169 11.6821 38.2169C11.6821 38.2169 1.86379 30.9316 0.561896 27.6135C0.218624 26.8181 0.0397942 25.9622 0.0360553 25.0966C0.0323165 24.2311 0.203744 23.3737 0.540132 22.5754C0.87652 21.7771 1.37099 21.0542 1.99411 20.4499C2.61723 19.8455 3.35626 19.372 4.16721 19.0576C4.97815 18.7431 5.84443 18.5941 6.71447 18.6195C7.58452 18.6448 8.44054 18.844 9.23159 19.2051C10.0226 19.5662 10.7325 20.0819 11.319 20.7215C11.9055 21.3611 12.3566 22.1114 12.6454 22.9279Z" fill="#63FFA5"/>
<path d="M29.8526 37.4288C29.1336 40.9204 20.6871 49.7432 20.6871 49.7432C20.6871 49.7432 16.4219 38.3243 17.1409 34.8187C17.2936 33.9714 17.6154 33.1629 18.0871 32.4411C18.5589 31.7192 19.1712 31.0986 19.8879 30.6157C20.6045 30.1327 21.4112 29.7973 22.2602 29.6292C23.1093 29.461 23.9836 29.4635 24.8317 29.6365C25.6797 29.8096 26.4844 30.1496 27.1983 30.6366C27.9121 31.1236 28.5208 31.7478 28.9884 32.4723C29.4559 33.1969 29.773 34.0071 29.9208 34.8554C30.0686 35.7036 30.0443 36.5727 29.8491 37.4114L29.8526 37.4288Z" fill="#63FFA5"/>
<path d="M41.7478 69.013C39.3534 71.6647 27.5875 75.0418 27.5875 75.0418C27.5875 75.0418 29.7027 63.0432 32.0935 60.3915C33.2502 59.1449 34.854 58.4014 36.5579 58.3218C38.2617 58.2422 39.9285 58.8331 41.1976 59.9664C42.4666 61.0997 43.2359 62.6844 43.3389 64.3774C43.4418 66.0705 42.8702 67.7358 41.7478 69.013Z" fill="#63FFA5"/>
<path d="M45.3357 94.9299C43.4265 97.946 32.4006 103.26 32.4006 103.26C32.4006 103.26 32.446 91.0807 34.3552 88.0646C34.8 87.3288 35.3879 86.6887 36.0846 86.1818C36.7812 85.6748 37.5726 85.3112 38.4124 85.1122C39.2522 84.9133 40.1234 84.8829 40.9751 85.023C41.8268 85.1631 42.6418 85.4708 43.3725 85.928C44.1031 86.3853 44.7346 86.9829 45.23 87.6859C45.7254 88.389 46.0748 89.1832 46.2576 90.0222C46.4405 90.8612 46.4531 91.728 46.2948 92.5719C46.1365 93.4158 45.8104 94.2198 45.3357 94.9368V94.9299Z" fill="#63FFA5"/>
<path d="M8.24069 55.3103C11.5425 56.6986 23.6365 54.7619 23.6365 54.7619C23.6365 54.7619 16.593 44.7938 13.2912 43.4055C12.5051 43.0757 11.6614 42.9031 10.8083 42.8976C9.95511 42.8921 9.10922 43.0537 8.31889 43.3733C7.52855 43.6928 6.80925 44.164 6.20206 44.76C5.59486 45.356 5.11166 46.0651 4.78004 46.8468C4.44842 47.6285 4.27488 48.4674 4.26932 49.3158C4.26376 50.1642 4.4263 51.0053 4.74765 51.7913C5.069 52.5772 5.54287 53.2925 6.14221 53.8963C6.74155 54.5001 7.45461 54.9806 8.24069 55.3103Z" fill="#63FFA5"/>
<path d="M12.8339 85.5656C16.401 85.9127 27.3571 80.4601 27.3571 80.4601C27.3571 80.4601 17.6296 73.0603 14.0625 72.7202C13.2024 72.616 12.33 72.6842 11.4968 72.9207C10.6636 73.1572 9.88645 73.5573 9.21125 74.0973C8.53606 74.6373 7.97647 75.3064 7.56551 76.0649C7.15455 76.8235 6.90055 77.6562 6.81849 78.514C6.73642 79.3718 6.82796 80.2372 7.08771 81.0592C7.34745 81.8812 7.77013 82.6432 8.33081 83.3001C8.8915 83.957 9.57882 84.4957 10.3522 84.8842C11.1256 85.2727 11.9695 85.5032 12.8339 85.5622V85.5656Z" fill="#63FFA5"/>
<path d="M21.3467 114.36C24.8056 115.293 36.5296 111.767 36.5296 111.767C36.5296 111.767 28.1982 102.837 24.7393 101.906C23.9113 101.666 23.0435 101.593 22.1866 101.69C21.3297 101.788 20.501 102.054 19.7489 102.474C18.9967 102.894 18.3363 103.458 17.8061 104.135C17.2759 104.811 16.8867 105.586 16.6612 106.414C16.4357 107.242 16.3784 108.106 16.4927 108.956C16.607 109.806 16.8905 110.625 17.3268 111.365C17.7631 112.105 18.3433 112.75 19.0335 113.265C19.7237 113.779 20.5101 114.151 21.3467 114.36Z" fill="#63FFA5"/>
<path opacity="0.25" d="M12.6454 22.9279C13.9473 26.246 11.6821 38.2169 11.6821 38.2169C11.6821 38.2169 1.86379 30.9316 0.561896 27.6135C0.218624 26.8181 0.0397942 25.9622 0.0360553 25.0966C0.0323165 24.2311 0.203744 23.3737 0.540132 22.5754C0.87652 21.7771 1.37099 21.0542 1.99411 20.4499C2.61723 19.8455 3.35626 19.372 4.16721 19.0576C4.97815 18.7431 5.84443 18.5941 6.71447 18.6195C7.58452 18.6448 8.44054 18.844 9.23159 19.2051C10.0226 19.5662 10.7325 20.0819 11.319 20.7215C11.9055 21.3611 12.3566 22.1114 12.6454 22.9279Z" fill="black"/>
<path opacity="0.25" d="M29.8526 37.4288C29.1336 40.9204 20.6871 49.7432 20.6871 49.7432C20.6871 49.7432 16.4219 38.3243 17.1409 34.8187C17.2936 33.9714 17.6154 33.1629 18.0871 32.4411C18.5589 31.7192 19.1712 31.0986 19.8879 30.6157C20.6045 30.1327 21.4112 29.7973 22.2602 29.6292C23.1093 29.461 23.9836 29.4635 24.8317 29.6365C25.6797 29.8096 26.4844 30.1496 27.1983 30.6366C27.9121 31.1236 28.5208 31.7478 28.9884 32.4723C29.4559 33.1969 29.773 34.0071 29.9208 34.8554C30.0686 35.7036 30.0443 36.5727 29.8491 37.4114L29.8526 37.4288Z" fill="black"/>
<path opacity="0.25" d="M41.7478 69.013C39.3534 71.6647 27.5875 75.0418 27.5875 75.0418C27.5875 75.0418 29.7027 63.0432 32.0935 60.3915C33.2502 59.1449 34.854 58.4014 36.5579 58.3218C38.2617 58.2422 39.9285 58.8331 41.1976 59.9664C42.4666 61.0997 43.2359 62.6844 43.3389 64.3774C43.4418 66.0705 42.8702 67.7358 41.7478 69.013Z" fill="black"/>
<path opacity="0.25" d="M45.3357 94.9299C43.4265 97.946 32.4006 103.26 32.4006 103.26C32.4006 103.26 32.446 91.0807 34.3552 88.0646C34.8 87.3288 35.3879 86.6887 36.0846 86.1818C36.7812 85.6748 37.5726 85.3112 38.4124 85.1122C39.2522 84.9133 40.1234 84.8829 40.9751 85.023C41.8268 85.1631 42.6418 85.4708 43.3725 85.928C44.1031 86.3853 44.7346 86.9829 45.23 87.6859C45.7254 88.389 46.0748 89.1832 46.2576 90.0222C46.4405 90.8612 46.4531 91.728 46.2948 92.5719C46.1365 93.4158 45.8104 94.2198 45.3357 94.9368V94.9299Z" fill="black"/>
<path opacity="0.25" d="M8.24069 55.3103C11.5425 56.6986 23.6365 54.7619 23.6365 54.7619C23.6365 54.7619 16.593 44.7938 13.2912 43.4055C12.5051 43.0757 11.6614 42.9031 10.8083 42.8976C9.95511 42.8921 9.10922 43.0537 8.31889 43.3733C7.52855 43.6928 6.80925 44.164 6.20206 44.76C5.59486 45.356 5.11166 46.0651 4.78004 46.8468C4.44842 47.6285 4.27488 48.4674 4.26932 49.3158C4.26376 50.1642 4.4263 51.0053 4.74765 51.7913C5.069 52.5772 5.54287 53.2925 6.14221 53.8963C6.74155 54.5001 7.45461 54.9806 8.24069 55.3103Z" fill="black"/>
<path opacity="0.25" d="M12.8339 85.5656C16.401 85.9127 27.3571 80.4601 27.3571 80.4601C27.3571 80.4601 17.6296 73.0603 14.0625 72.7202C13.2024 72.616 12.33 72.6842 11.4968 72.9207C10.6636 73.1572 9.88645 73.5573 9.21125 74.0973C8.53606 74.6373 7.97647 75.3064 7.56551 76.0649C7.15455 76.8235 6.90055 77.6562 6.81849 78.514C6.73642 79.3718 6.82796 80.2372 7.08771 81.0592C7.34745 81.8812 7.77013 82.6432 8.33081 83.3001C8.8915 83.957 9.57882 84.4957 10.3522 84.8842C11.1256 85.2727 11.9695 85.5032 12.8339 85.5622V85.5656Z" fill="black"/>
<path opacity="0.25" d="M21.3467 114.36C24.8056 115.293 36.5296 111.767 36.5296 111.767C36.5296 111.767 28.1982 102.837 24.7393 101.906C23.9113 101.666 23.0435 101.593 22.1866 101.69C21.3297 101.788 20.501 102.054 19.7489 102.474C18.9967 102.894 18.3363 103.458 17.8061 104.135C17.2759 104.811 16.8867 105.586 16.6612 106.414C16.4357 107.242 16.3784 108.106 16.4927 108.956C16.607 109.806 16.8905 110.625 17.3268 111.365C17.7631 112.105 18.3433 112.75 19.0335 113.265C19.7237 113.779 20.5101 114.151 21.3467 114.36Z" fill="black"/>
<path opacity="0.1" d="M161.776 78.6932C155.145 78.5474 148.021 78.8771 142.751 81.4698C132.978 86.2665 134.293 95.9952 127.92 102.746C122.538 108.445 112.252 111.406 102.277 113.294C86.0259 116.372 68.9826 117.525 52.8434 120.832C43.3288 122.783 33.884 125.619 27.3641 130.471C20.8442 135.323 17.9193 142.56 22.3275 148.3C26.4042 153.607 35.3848 156.446 43.5626 159.195C51.7405 161.944 60.4034 165.55 62.6791 171.28C63.9461 174.47 63.0037 177.91 64.4836 181.058C67.4015 187.27 78.3297 190.203 88.148 191.789C95.9907 193.056 103.963 193.99 111.997 194.566C118.416 195.035 124.981 195.281 131.281 194.368C136.737 193.577 141.787 191.939 147.019 190.679C180.261 182.63 218.494 189.592 252.399 182.776C258.57 181.544 264.639 179.808 269.316 176.969C272.807 174.859 275.39 172.221 277.564 169.486C283.1 162.544 286.133 154.759 286.367 146.954C286.506 142.275 285.669 137.548 286.956 132.938C288.307 128.142 291.913 123.73 293.832 119.014C297.323 110.441 294.88 100.965 287.281 93.5482C284.569 90.8146 281.244 88.7592 277.578 87.5507C274.507 86.5719 271.072 86.1971 267.69 85.8153C258.266 84.7984 248.72 83.7779 239.212 84.3506C232.448 84.7602 225.827 85.9715 219.042 86.1902C209.52 86.4991 202.061 84.3159 193.43 82.2647C183.5 79.9253 172.327 78.9223 161.776 78.6932Z" fill="#63FFA5"/>
<path d="M41.9327 7.73955V100.573L166.146 76.5796L163.773 5.37939L41.9327 7.73955Z" fill="#DBACA2"/>
<path d="M275.425 117.195V147.877L144.091 186.035L142.751 185.344L38.8682 131.748V4.88612L167.431 0.755859L168.223 71.1682L163.078 72.7439L161.099 6.8853L47.964 10.7865L47.1752 106.178L145.672 149.057L145.749 149.039L275.425 117.195Z" fill="#E8C2B8"/>
<path opacity="0.1" d="M275.424 117.195V147.877L144.091 186.035L142.751 185.344L145.749 149.039L275.424 117.195Z" fill="black"/>
<path d="M117.093 72.6438C117.093 72.6438 53.5066 78.9537 47.3322 88.0923C41.1578 97.231 47.2798 108.442 47.2798 108.442L145.581 150.924L278.89 116.702C278.89 116.702 275.33 92.705 264.255 89.9527C253.181 87.2003 164.956 68.3191 164.956 68.3191C164.956 68.3191 129.355 66.1534 117.093 72.6438Z" fill="#EBECF0"/>
<path d="M47.2729 88.1791L147.553 122.599C147.553 122.599 254.514 90.3483 269.666 93.3853C269.666 93.3853 194.844 66.7537 164.956 67.913C141.138 68.8362 116.2 72.7235 116.2 72.7235C116.2 72.7235 50.0442 79.332 47.2729 88.1791Z" fill="#F8F9FA"/>
<path d="M201.563 110.323L201.587 110.288V110.267L201.604 110.232V110.208V110.173V110.149V110.111V110.087V110.042V110.021C201.604 110 201.604 109.979 201.604 109.958C201.604 109.934 201.604 109.91 201.604 109.885C201.604 109.861 201.604 109.885 201.604 109.861C201.604 109.837 201.604 109.826 201.604 109.809V109.778V109.726V109.691V109.639V109.604V109.549V109.514V109.455V109.424L201.576 109.337L201.542 109.24V109.209L201.514 109.139V109.101L201.486 109.035L201.468 108.993L201.44 108.927L201.419 108.882L201.388 108.816L201.367 108.775L201.329 108.702L201.308 108.664L201.255 108.563L201.193 108.445L201.172 108.407L201.126 108.324L201.102 108.278L201.056 108.202L201.028 108.153L200.983 108.077L200.906 107.963L200.857 107.886L200.826 107.838L200.774 107.754L200.746 107.709L200.676 107.598V107.577L200.589 107.445L200.561 107.407L200.498 107.314L200.463 107.265L200.404 107.182L200.369 107.13L200.309 107.046L200.271 106.991L200.208 106.921L200.17 106.869L200.104 106.779L200.069 106.734L199.981 106.616V106.599L199.88 106.46L199.845 106.411L199.779 106.321L199.734 106.262L199.671 106.179L199.625 106.12L199.563 106.036L199.517 105.981L199.451 105.894L199.405 105.838L199.336 105.748L199.294 105.696L199.21 105.592L199.182 105.557C198.868 105.162 198.543 104.766 198.219 104.384C197.303 103.302 196.182 102.41 194.92 101.759C193.657 101.108 192.278 100.711 190.861 100.591C190.571 100.566 190.268 100.535 189.961 100.497H189.832L189.605 100.466H189.496L189.147 100.417L188.816 100.365L188.701 100.344L188.467 100.302L188.327 100.275L188.114 100.233L187.964 100.202L187.762 100.157L187.608 100.122L187.406 100.073L187.249 100.035L187.05 99.9832L186.893 99.9415L186.694 99.886C185.647 98.338 184.055 96.9601 182.505 96.6928C182.078 96.627 181.642 96.6494 181.224 96.7588L181.151 96.6789L181.046 96.561L180.907 96.3839L180.816 96.2659L180.669 96.0612L180.596 95.9605C180.524 95.8564 180.455 95.7499 180.39 95.6412C180.184 95.55 179.969 95.4814 179.748 95.4364C182.837 94.9712 185.882 94.2573 188.854 93.3019C188.998 93.2477 189.135 93.1766 189.263 93.0901L189.325 93.0693C191.912 92.1322 195.088 83.004 192.854 81.7267C190.62 80.4494 187.21 69.926 185.21 64.5358C183.21 59.1456 177.448 58.573 177.448 58.573C177.448 58.573 169.099 52.1415 165.336 52.8426C161.574 53.5437 160.984 47.9314 160.632 47.6989C160.59 47.6651 160.556 47.6239 160.53 47.5774C159.623 46.1648 152.408 44.2802 148.517 43.35C144.712 40.608 140.175 38.4804 136.506 37.6023C135.281 37.2726 133.995 37.2295 132.75 37.4764C131.505 37.7233 130.335 38.2534 129.33 39.0254C121.624 39.4141 120.395 45.2034 120.395 45.2034C120.369 45.9934 120.507 46.7803 120.8 47.515C120.384 47.5206 119.967 47.4985 119.554 47.449C120.447 45.9809 120.475 44.0927 121.142 42.4788C122.458 39.2857 126.088 37.637 129.519 37.2067C131.519 36.9568 133.707 36.9567 135.285 35.7107C136.097 35.0655 136.651 34.1537 136.848 33.1389C136.912 32.9197 136.893 32.6848 136.793 32.4794C136.695 32.3462 136.564 32.2409 136.412 32.174C134.346 31.0772 131.857 31.3618 129.512 31.3097C125.7 31.2264 121.987 30.1887 118.301 29.2273C116.741 28.8212 115.055 28.429 113.547 29.0051C112.123 29.5466 111.153 30.8377 110.011 31.8408C105.334 35.9433 97.5684 35.3498 93.408 39.9729C92.4446 41.0454 91.7221 42.4996 92.0746 43.8949C92.2178 44.4641 92.5354 44.9882 92.6366 45.5678C92.839 46.7132 92.1828 47.81 91.6279 48.8339C91.0729 49.8578 90.5808 51.1003 91.1043 52.1415C91.8966 53.7312 94.3154 53.6132 95.5719 54.8731C96.1548 55.4596 96.4375 56.2996 97.0449 56.8584C98.0187 57.7504 99.516 57.681 100.835 57.5525C101.355 57.5039 102.134 57.3616 102.42 56.907C103.44 57.8615 104.67 58.5674 106.011 58.969C107.353 59.3707 108.77 59.4572 110.151 59.2216C111.532 58.9861 112.839 58.435 113.969 57.6117C115.099 56.7885 116.022 55.7155 116.664 54.4774C119.507 54.2865 122.333 55.0464 124.692 56.6362C125.047 57.678 125.7 58.5945 126.569 59.2741C127.393 59.9162 128.374 60.704 129.362 61.5474C126.859 62.2034 124.636 62.6234 124.636 62.6234C124.636 62.6234 114.758 65.7818 114.758 67.8851C114.793 68.2661 114.912 68.6347 115.107 68.9646C114.857 69.4876 114.716 70.0554 114.692 70.634C111.966 70.1759 109.785 69.4852 108.657 68.4682C108.657 68.4682 108.336 68.3815 107.84 68.2843C107.177 67.4409 105.23 65.0981 104.071 65.1918C103.3 65.2542 103.024 67.0382 102.926 68.6348C102.825 68.7221 102.735 68.8224 102.661 68.9333C101.485 70.6861 103.603 74.1951 105.013 74.7816C106.423 75.3682 114.186 75.1287 119.477 78.9917C121.823 80.7028 125.854 81.0326 129.599 80.8729C125.833 83.5177 120.559 87.582 119.826 90.1018C119.432 91.438 118.968 93.0971 118.995 94.8012C116.692 97.8313 113.205 104.228 121.826 107.296C128.932 109.819 148.199 109.497 161.926 108.879C168.314 110 173.588 111.128 175.8 112.207C175.8 112.207 181.092 112.902 183.21 114.196C185.329 115.491 189.207 115.133 189.207 115.133C189.207 115.133 196.732 116.421 198.379 118.056C200.027 119.69 202.847 115.248 199.322 113.144C197.947 112.325 195.898 110.975 193.912 109.497C196.463 109.795 198.714 110.121 200.145 110.455L200.289 110.486H200.334H200.425H200.477H200.554H200.603H200.676H201.025H201.116H201.144H201.2H201.231H201.276H201.304H201.346H201.374L201.412 110.468H201.437L201.472 110.444H201.489L201.535 110.406L201.563 110.323ZM169.078 99.112C169.078 99.112 168.087 98.8864 166.607 98.5393L163.668 97.3592C163.668 97.3592 168.684 95.7904 173.329 93.7947C174.659 94.3743 175.828 94.836 176.122 95.2559C176.248 95.3951 176.42 95.4849 176.607 95.5093C174.862 95.9397 172.621 97.0468 169.993 99.6014C169.674 99.4655 169.368 99.3017 169.078 99.112ZM133.568 70.929L136.468 69.5893C137.1 70.1238 137.777 70.6305 138.44 71.1234C136.848 71.2171 134.709 71.3212 132.29 71.3872C133.03 71.1407 133.568 70.929 133.568 70.929Z" fill="url(#paint0_linear_297_628)"/>
<path d="M108.853 68.694C108.853 68.694 106.319 65.2717 104.94 65.3759C103.561 65.48 103.788 71.2138 103.788 71.2138L108.853 68.694Z" fill="#FFD5D8"/>
<path d="M141.431 70.9843C141.431 70.9843 114.493 73.1605 109.429 68.579C109.429 68.579 104.71 67.3191 103.558 69.0371C102.406 70.7552 104.479 74.1878 105.861 74.7605C107.244 75.3332 114.842 75.1076 120.022 78.8804C125.201 82.6532 138.786 79.5745 138.786 79.5745L144.426 77.3983L141.431 70.9843Z" fill="#FF7C5E"/>
<path opacity="0.05" d="M141.431 70.9843C141.431 70.9843 114.493 73.1605 109.429 68.579C109.429 68.579 104.71 67.3191 103.558 69.0371C102.406 70.7552 104.479 74.1878 105.861 74.7605C107.244 75.3332 114.842 75.1076 120.022 78.8804C125.201 82.6532 138.786 79.5745 138.786 79.5745L144.426 77.3983L141.431 70.9843Z" fill="black"/>
<path d="M179.996 83.8056C179.996 83.8056 174.24 79.6858 162.384 84.8468C150.527 90.0079 120.943 92.7464 120.943 92.7464C120.943 92.7464 111.045 102.59 122.339 106.598C133.634 110.607 176.212 107.293 176.212 107.293C176.212 107.293 193.594 108.438 199.004 109.698C202.278 110.461 199.702 106.775 197.137 103.749C196.241 102.689 195.144 101.815 193.907 101.177C192.671 100.54 191.32 100.152 189.933 100.035C186.533 99.747 181.818 98.6849 179.661 95.1586C179.661 95.1586 175.518 93.0969 169.301 99.2784L163.305 96.8558C163.305 96.8558 179.765 91.7051 180.341 88.2691C180.917 84.833 179.996 83.8056 179.996 83.8056Z" fill="#FFD5D8"/>
<path opacity="0.05" d="M179.996 83.8056C179.996 83.8056 174.24 79.6857 162.384 84.8468C150.527 90.008 120.943 92.7464 120.943 92.7464C120.943 92.7464 111.045 102.59 122.339 106.598C133.634 110.607 176.212 107.293 176.212 107.293C176.212 107.293 193.594 108.438 199.004 109.698C201.873 110.364 200.243 107.615 198.083 104.901C197.005 103.538 195.667 102.4 194.146 101.553C192.624 100.706 190.949 100.166 189.217 99.9657C185.901 99.5909 181.671 98.442 179.664 95.1586C179.664 95.1586 175.521 93.097 169.305 99.2785L163.305 96.8559C163.305 96.8559 179.765 91.7052 180.341 88.2691C180.917 84.833 179.996 83.8056 179.996 83.8056Z" fill="black"/>
<path d="M180.111 67.5519C180.111 67.5519 172.858 56.0982 155.707 66.0629L133.718 78.2107C133.718 78.2107 121.501 85.8812 120.364 89.772C119.226 93.6628 117.484 100.302 129.459 102.822C141.435 105.342 169.291 108.546 175.162 111.409C175.162 111.409 180.341 112.103 182.414 113.356C184.488 114.609 188.285 114.272 188.285 114.272C188.285 114.272 195.653 115.532 197.266 117.136C198.878 118.739 201.639 114.387 198.187 112.329C194.735 110.271 186.907 104.773 187.018 102.61C187.13 100.448 184.369 96.6268 181.709 96.1617C179.05 95.6966 175.608 99.5944 175.608 99.5944C175.608 99.5944 171.235 100.289 168.586 98.5531C168.586 98.5531 155.002 95.4606 153.619 94.5478C152.237 93.635 142.799 90.0843 142.799 90.0843C142.799 90.0843 165.137 89.8553 171.692 83.9028C171.692 83.9028 174.226 82.0702 176.296 82.6429C176.313 82.6603 186.557 78.7695 180.111 67.5519Z" fill="#FFD5D8"/>
<path d="M114.839 46.0297C114.839 46.0297 121.4 50.6077 126.465 46.0297C131.529 41.4517 128.657 60.1107 128.657 60.1107C128.657 60.1107 121.634 50.8367 111.16 56.9072L114.839 46.0297Z" fill="#FFD5D8"/>
<path opacity="0.05" d="M114.839 46.0297C114.839 46.0297 121.4 50.6077 126.465 46.0297C131.529 41.4517 128.657 60.1107 128.657 60.1107C128.657 60.1107 121.634 50.8367 111.16 56.9072L114.839 46.0297Z" fill="black"/>
<path d="M86.7519 85.2942C86.7519 85.2942 93.6593 79.4562 97.5719 79.3417C98.7377 79.307 100.085 78.1269 101.411 76.4887C103.087 74.4189 105.297 72.8411 107.804 71.924C110.312 71.007 113.024 70.7852 115.648 71.2825C117.875 71.6921 120.615 71.6816 123.941 70.8625C136.028 67.8846 130.042 60.4501 130.042 60.4501L126.245 57.2466C126.245 57.2466 121.065 53.6994 119.107 53.9285C117.149 54.1575 112.085 59.3082 111.509 58.7355C110.933 58.1629 103.91 53.0122 102.759 51.6377C101.607 50.2633 92.3923 45.7998 94.6959 44.5399C96.9995 43.28 108.622 38.5875 106.319 37.6712C104.015 36.7549 91.5825 35.3805 86.7484 41.1038C81.9143 46.8272 84.3296 81.9726 86.7519 85.2942Z" fill="#F8F9FA"/>
<path opacity="0.05" d="M86.7519 85.2942C86.7519 85.2942 93.6593 79.4562 97.5719 79.3417C98.7377 79.307 100.085 78.1269 101.411 76.4887C103.087 74.4189 105.297 72.8411 107.804 71.924C110.312 71.007 113.024 70.7852 115.648 71.2825C117.875 71.6921 120.615 71.6816 123.941 70.8625C136.028 67.8846 130.042 60.4501 130.042 60.4501L126.245 57.2466C126.245 57.2466 121.065 53.6994 119.107 53.9285C117.149 54.1575 112.085 59.3082 111.509 58.7355C110.933 58.1629 103.91 53.0122 102.759 51.6377C101.607 50.2633 92.3923 45.7998 94.6959 44.5399C96.9995 43.28 108.622 38.5875 106.319 37.6712C104.015 36.7549 91.5825 35.3805 86.7484 41.1038C81.9143 46.8272 84.3296 81.9726 86.7519 85.2942Z" fill="black"/>
<path d="M87.2126 84.493C87.2126 84.493 94.1199 78.655 98.0326 78.5405C99.1983 78.5058 100.546 77.3257 101.872 75.6875C103.545 73.62 105.752 72.0433 108.257 71.1258C110.761 70.2082 113.469 69.9843 116.091 70.4778C118.318 70.8874 121.058 70.877 124.384 70.0579C136.471 67.0799 130.486 59.6454 130.486 59.6454L126.688 56.4419C126.688 56.4419 121.508 52.8947 119.55 53.1238C117.592 53.3528 112.528 58.5035 111.952 57.9308C111.376 57.3582 104.354 52.2075 103.202 50.833C102.05 49.4586 92.8529 44.9986 95.1495 43.7526C97.4462 42.5066 109.079 37.8001 106.776 36.8838C104.472 35.9675 92.0397 34.5931 87.2056 40.3165C82.3715 46.0398 84.7938 81.1714 87.2126 84.493Z" fill="#F8F9FA"/>
<path d="M120.94 45.8003C120.94 45.8003 122.782 37.099 136.252 40.5351C149.721 43.9712 156.398 51.4091 156.398 51.4091L144.182 57.0179L129.215 51.9818C129.215 51.9818 120.828 52.0824 120.94 45.8003Z" fill="#FFD5D8"/>
<path opacity="0.05" d="M145.578 43.6244C145.578 43.6244 158.53 46.401 159.752 48.3135C159.778 48.3588 159.812 48.3988 159.853 48.4315C160.202 48.6605 160.775 54.1548 164.457 53.4676C168.139 52.7804 176.324 59.0764 176.324 59.0764C176.324 59.0764 181.964 59.6491 183.922 64.9143C185.88 70.1796 189.217 80.4844 191.406 81.7408C193.594 82.9973 190.484 91.9276 187.954 92.8474C185.423 93.7672 176.327 95.9399 175.521 94.7945C174.715 93.6492 167.692 92.3893 168.153 88.7276C168.614 85.0659 171.375 81.6297 169.2 79.4535C167.026 77.2774 165.633 71.554 162.408 70.4086C159.183 69.2633 153.427 68.9196 149.975 71.2104C146.524 73.5011 142.353 73.6018 142.353 73.6018C142.353 73.6018 135.215 69.4819 134.063 66.6185C133.288 64.6887 129.428 61.4609 126.992 59.5623C126.353 59.0639 125.832 58.4331 125.463 57.7138C125.095 56.9945 124.889 56.204 124.859 55.3974C124.758 52.5721 124.667 48.4072 124.967 47.7338C125.428 46.6926 131.76 40.5215 131.76 40.5215L145.578 43.6244Z" fill="black"/>
<path d="M146.038 43.4052C146.038 43.4052 158.991 46.1818 160.213 48.0942C160.239 48.1396 160.273 48.1796 160.314 48.2122C160.663 48.4413 161.235 53.9356 164.918 53.2484C168.6 52.5612 176.785 58.8572 176.785 58.8572C176.785 58.8572 182.425 59.4299 184.383 64.6951C186.341 69.9603 189.678 80.2651 191.866 81.5216C194.055 82.778 190.945 91.7084 188.414 92.6281C185.884 93.5479 176.788 95.7206 175.982 94.5753C175.176 93.4299 168.153 92.17 168.614 88.5083C169.075 84.8466 171.835 81.4105 169.661 79.2343C167.486 77.0581 166.094 71.3348 162.869 70.1894C159.644 69.044 153.888 68.7004 150.436 70.9911C146.984 73.2819 142.436 73.681 142.436 73.681C142.436 73.681 135.704 69.2731 134.552 66.4132C133.777 64.4834 129.917 61.2555 127.48 59.357C126.842 58.8586 126.32 58.2278 125.952 57.5085C125.584 56.7892 125.378 55.9987 125.348 55.192C125.247 52.3668 125.156 48.2018 125.456 47.5285C125.917 46.4873 132.248 40.3162 132.248 40.3162L146.038 43.4052Z" fill="#FF7C5E"/>
<path d="M116.221 68.2356C116.106 68.3501 114.147 71.2135 116.451 72.8135C117.088 73.2782 117.825 73.5909 118.603 73.7275C119.381 73.8641 120.181 73.821 120.94 73.6014L116.221 68.2356Z" fill="#FFD5D8"/>
<path opacity="0.1" d="M127.261 43.2806C127.261 43.2806 130.37 37.0991 137.033 38.7026C143.696 40.3061 153.379 46.144 155.682 51.9819C157.986 57.8198 146.956 64.9246 146.956 64.9246L133.833 70.9915C133.833 70.9915 129.805 72.595 128.653 72.0328C127.501 71.4705 121.976 76.3782 121.976 76.3782C121.976 76.3782 115.76 70.4258 115.76 68.3641C115.76 66.3025 125.432 63.1892 125.432 63.1892C125.432 63.1892 136.95 61.013 136.828 58.8402C136.828 58.8402 138.786 56.5495 137.749 55.8623C136.712 55.1751 125.603 51.9125 125.603 51.9125C125.603 51.9125 125.201 44.655 127.261 43.2806Z" fill="black"/>
<path d="M126.911 42.9366C126.911 42.9366 130.021 36.7551 136.684 38.3586C143.347 39.9621 153.029 45.8 155.333 51.6379C157.637 57.4758 146.611 64.5771 146.611 64.5771L133.487 70.6441C133.487 70.6441 129.459 72.2476 128.308 71.6854C127.156 71.1231 121.631 76.0308 121.631 76.0308C121.631 76.0308 115.414 70.0784 115.414 68.0167C115.414 65.955 125.086 62.8417 125.086 62.8417C125.086 62.8417 136.604 60.6655 136.482 58.4928C136.482 58.4928 138.44 56.2021 137.403 55.5148C136.367 54.8276 125.257 51.5651 125.257 51.5651C125.257 51.5651 124.856 44.311 126.911 42.9366Z" fill="#FF7C5E"/>
<path opacity="0.1" d="M112.193 55.7581C114.06 54.6271 116.162 53.935 118.339 53.7346C118.971 52.5233 117.313 51.2044 117.313 49.7467C117.313 48.525 116.845 48.0599 116.392 46.9978C114.744 46.4043 115.875 44.8806 115.875 44.8806L112.193 55.7581Z" fill="black"/>
<path d="M109.429 59.6524C114.325 59.6524 118.294 55.7055 118.294 50.8366C118.294 45.9677 114.325 42.0208 109.429 42.0208C104.532 42.0208 100.563 45.9677 100.563 50.8366C100.563 55.7055 104.532 59.6524 109.429 59.6524Z" fill="#FFD5D8"/>
<path d="M102.783 54.4532C104.762 52.933 107.338 52.4228 109.83 52.2007C111.387 52.0619 112.971 52.0133 114.465 51.5412C115.324 51.2433 116.158 50.8765 116.957 50.4445C118.025 49.903 119.128 49.3338 119.858 48.3863C120.995 46.9077 120.961 44.8599 121.673 43.1349C122.96 40.0112 126.514 38.3938 129.885 37.9738C131.843 37.7274 133.983 37.7274 135.533 36.5092C136.328 35.878 136.871 34.986 137.065 33.9928C137.127 33.7781 137.107 33.5482 137.009 33.3472C136.913 33.217 136.784 33.1141 136.636 33.0488C134.611 31.9763 132.175 32.2539 129.882 32.2019C126.151 32.1221 122.514 31.1016 118.905 30.161C117.376 29.7619 115.725 29.3801 114.252 29.9424C112.856 30.4734 111.91 31.7368 110.79 32.719C106.21 36.7382 98.6085 36.1551 94.5353 40.6811C93.5929 41.7223 92.8844 43.1558 93.2299 44.5198C93.373 45.0786 93.6802 45.5888 93.7814 46.158C93.9803 47.2791 93.3381 48.355 92.7936 49.3546C92.2492 50.3542 91.7745 51.5759 92.2806 52.5929C93.0589 54.1478 95.4219 54.0333 96.6539 55.2654C97.2263 55.8381 97.4986 56.6537 98.0954 57.2091C99.0518 58.0837 100.514 58.0143 101.806 57.9032C102.504 57.8373 103.645 57.6082 103.446 56.678C103.279 55.845 102.172 55.4875 102.783 54.4532Z" fill="#85596B"/>
<path d="M99.687 59.7183C99.687 59.7183 105.732 55.2062 109.53 56.6848C113.327 58.1633 114.364 58.9755 116.783 58.0731C119.201 57.1707 120.234 59.9057 120.234 59.9057L105.17 64.2303L99.687 59.7183Z" fill="#F8F9FA"/>
<path opacity="0.05" d="M91.5301 67.607C91.5301 67.607 94.2944 60.5092 97.6312 59.1348L91.5301 67.607Z" fill="black"/>
<path opacity="0.05" d="M87.9595 65.3165C87.9595 65.3165 90.7239 58.2187 94.0606 56.8442L87.9595 65.3165Z" fill="black"/>
<path opacity="0.05" d="M152.656 67.0348C152.656 67.0348 162.429 62.3422 169.001 62.8004C175.573 63.2585 176.715 59.1387 176.715 59.1387" fill="black"/>
<path d="M110.378 184.195C109.565 183.442 108.8 182.554 108.563 181.474C108.325 180.395 108.79 179.097 109.83 178.698C110.992 178.253 112.238 179.045 113.181 179.867C114.123 180.69 115.205 181.603 116.437 181.429C115.802 180.857 115.328 180.131 115.059 179.322C114.791 178.513 114.737 177.648 114.905 176.813C114.959 176.468 115.106 176.144 115.331 175.876C115.976 175.182 117.149 175.484 117.92 176.025C120.364 177.76 121.062 181.068 121.079 184.06C121.327 182.981 121.118 181.856 121.124 180.749C121.131 179.642 121.435 178.416 122.374 177.819C122.959 177.507 123.616 177.354 124.28 177.375C125.386 177.334 126.618 177.445 127.372 178.25C128.311 179.249 128.07 180.926 127.25 182.026C126.43 183.126 125.191 183.817 124.049 184.577C123.133 185.12 122.352 185.862 121.763 186.746C121.693 186.87 121.636 187 121.592 187.135H114.664C113.108 186.352 111.667 185.363 110.378 184.195Z" fill="#63FFA5"/>
<path d="M270.419 153.253C269.88 152.815 269.486 152.225 269.292 151.56C269.145 150.886 269.435 150.081 270.081 149.824C270.803 149.55 271.578 150.046 272.175 150.553C272.772 151.06 273.431 151.632 274.199 151.525C273.805 151.169 273.509 150.718 273.342 150.215C273.175 149.712 273.142 149.174 273.247 148.654C273.28 148.44 273.372 148.238 273.512 148.071C273.913 147.644 274.643 147.828 275.124 148.165C276.653 149.234 277.079 151.289 277.089 153.16C277.243 152.49 277.114 151.789 277.117 151.101C277.121 150.414 277.309 149.651 277.896 149.283C278.26 149.088 278.669 148.992 279.082 149.005C279.78 148.981 280.534 149.05 281.005 149.55C281.588 150.171 281.438 151.212 280.929 151.896C280.419 152.58 279.648 153.01 278.939 153.482C278.37 153.82 277.884 154.282 277.519 154.832C277.476 154.909 277.441 154.989 277.414 155.072H273.082C272.116 154.588 271.221 153.976 270.419 153.253Z" fill="#63FFA5"/>
<defs>
<linearGradient id="paint0_linear_297_628" x1="146.297" y1="118.41" x2="146.297" y2="28.7136" gradientUnits="userSpaceOnUse">
<stop stop-color="#808080" stop-opacity="0.25"/>
<stop offset="0.54" stop-color="#808080" stop-opacity="0.12"/>
<stop offset="1" stop-color="#808080" stop-opacity="0.1"/>
</linearGradient>
</defs>
</svg>
