<svg width="309" height="218" viewBox="0 0 309 218" fill="none" xmlns="http://www.w3.org/2000/svg">
<g clip-path="url(#clip0_294_701)">
<path opacity="0.1" d="M102.73 217.877C117.778 217.877 129.977 215.926 129.977 213.519C129.977 211.112 117.778 209.16 102.73 209.16C87.6817 209.16 75.4828 211.112 75.4828 213.519C75.4828 215.926 87.6817 217.877 102.73 217.877Z" fill="#63FFA5"/>
<path opacity="0.1" d="M250.84 218C269.618 218 284.84 216.049 284.84 213.641C284.84 211.234 269.618 209.283 250.84 209.283C232.063 209.283 216.84 211.234 216.84 213.641C216.84 216.049 232.063 218 250.84 218Z" fill="#63FFA5"/>
<path opacity="0.1" d="M3.87003 94.1914H32.2495V132.718H5.94766C5.87775 133.113 5.81064 133.511 5.73794 133.91H32.2495V164.98C32.2019 164.966 32.16 164.949 32.1152 164.933C31.3658 164.637 30.622 164.325 29.8782 163.991L29.4028 163.777C28.6572 163.426 27.9115 163.055 27.1658 162.663C26.9058 162.526 26.6457 162.384 26.3885 162.239C22.2488 159.93 18.4881 157.003 15.2369 153.561C15.1418 153.469 15.0523 153.372 14.9573 153.283C14.5043 152.792 14.0597 152.297 13.629 151.79L13.1537 151.233C12.6447 150.612 12.1526 149.974 11.6744 149.328C11.6045 149.233 11.5374 149.138 11.4647 149.049C9.52004 146.364 7.90534 143.456 6.65512 140.388C6.61597 140.296 6.58242 140.195 6.54606 140.109C6.16204 139.125 5.82183 138.132 5.52542 137.129C5.39679 136.709 5.27376 136.294 5.1675 135.856C5.12835 135.728 5.09479 135.603 5.06404 135.478C3.47575 129.303 3.2884 122.889 3.2884 116.519C3.2884 115.776 3.2884 115.029 3.2884 114.291C3.2884 111.715 3.31916 109.122 3.3639 106.532C3.3639 105.861 3.39186 105.193 3.40584 104.519C3.44499 102.808 3.50092 101.098 3.57362 99.3884C3.5904 98.9121 3.61277 98.4387 3.63793 97.9652C3.63793 97.6923 3.65192 97.4193 3.67988 97.1464C3.74699 96.1549 3.80291 95.1718 3.87003 94.1914Z" fill="#63FFA5"/>
<path opacity="0.1" d="M32.2495 51.2958H16.6826C19.2131 47.351 21.978 43.5602 24.9624 39.9438C27.275 37.1142 29.7161 34.3569 32.2495 31.7V51.2958Z" fill="#63FFA5"/>
<path opacity="0.1" d="M32.2495 52.4878V92.9997H3.95959C3.95959 92.8827 3.97916 92.763 3.98755 92.646C4.01272 92.3257 4.03788 92.0054 4.06584 91.6879C4.0966 91.3147 4.13016 90.9387 4.16651 90.5739C4.20286 90.209 4.24201 89.7634 4.28396 89.3596C4.3259 88.9558 4.36505 88.5463 4.41258 88.1425C4.46012 87.7387 4.50206 87.3348 4.5524 86.9338C4.60273 86.5327 4.64747 86.1261 4.7006 85.725C4.74255 85.3908 4.78728 85.0594 4.83202 84.7252C4.89634 84.2545 4.96345 83.7811 5.03615 83.3132C5.03615 83.2435 5.05573 83.1711 5.06691 83.1043C5.57729 79.6791 6.2727 76.2838 7.15014 72.9331C8.0686 69.4183 9.24145 65.9744 10.6595 62.6283C12.1666 59.1279 13.9312 55.7432 15.9388 52.5017L32.2495 52.4878Z" fill="#63FFA5"/>
<path opacity="0.1" d="M39.0248 94.1887V132.718H99.6397V94.1887H39.0248ZM39.0248 133.907V166.994C39.3715 167.066 39.7155 167.136 40.0566 167.194C40.5208 167.283 40.9822 167.364 41.4547 167.434C41.5442 167.448 41.6365 167.462 41.7344 167.47C41.9189 167.501 42.1091 167.526 42.2936 167.551C42.7606 167.615 43.2248 167.668 43.6918 167.709C43.9127 167.732 44.1364 167.751 44.3601 167.768L44.8998 167.81C45.1934 167.832 45.4842 167.849 45.7722 167.857C45.9512 167.857 46.1301 167.874 46.3147 167.879C46.4545 167.879 46.5943 167.879 46.7397 167.879C46.8851 167.879 47.092 167.879 47.2682 167.879C47.5087 167.879 47.7492 167.879 47.9869 167.879H48.3084C48.5489 167.879 48.7894 167.879 49.0271 167.857H49.0438C49.2088 167.857 49.3766 167.857 49.5444 167.835C49.5909 167.838 49.6376 167.838 49.6842 167.835C49.824 167.835 49.9638 167.835 50.098 167.815H50.1959L51.1327 167.743C51.4403 167.715 51.7506 167.679 52.0638 167.645L52.7014 167.57C55.2952 167.208 57.8601 166.665 60.3772 165.944C66.0312 164.373 71.5623 162.176 77.2136 160.566C84.5202 158.491 92.5931 157.472 99.6537 160.009V133.907H39.0248ZM99.6397 51.2956V0.00260156C93.0034 -0.0690096 86.3851 0.704076 79.9455 2.30309C64.5968 6.14372 50.8251 14.4739 39.0248 25.113V51.2928H42.0671V52.482H39.0248V92.9995H99.6397V52.4848H54.5581V51.2956H99.6397ZM177.497 33.9695C173.699 33.8359 169.924 32.6383 166.51 30.789C159.981 27.2519 154.766 21.7903 148.938 17.181C136.83 7.58083 121.814 1.78784 106.41 0.350738V51.2956H192.94L193.156 51.07L177.497 33.9695ZM185.379 32.577L193.737 41.7121V30.1818C190.938 30.5272 188.486 31.3488 185.39 32.5659L185.379 32.577ZM193.737 175.21V133.907H175.928C175.88 133.731 175.833 133.553 175.777 133.375C175.83 133.553 175.875 133.731 175.925 133.907H106.421V163.777C107.081 164.264 107.732 164.777 108.378 165.298C109.074 165.855 109.762 166.442 110.453 167.019L111.149 167.593C111.482 167.871 111.818 168.15 112.156 168.411C112.827 168.953 113.505 169.488 114.189 170.016C114.527 170.294 114.874 170.545 115.218 170.807C120.678 174.965 126.438 178.717 132.451 182.033C133.799 182.776 135.159 183.501 136.531 184.208C137.445 184.673 138.365 185.136 139.288 185.584C140.675 186.258 142.073 186.908 143.483 187.534C156.476 193.343 170.215 197.329 184.308 199.379C187.438 199.839 190.58 200.201 193.735 200.465V175.207H194.014L193.737 175.21ZM106.421 52.4848V92.9995H193.749V52.4848H106.421ZM106.421 94.1887V132.718H193.749V94.1887H106.421ZM200.527 30.1317V42.9932L211.195 31.3348C207.66 30.7667 204.104 30.361 200.527 30.1178V30.1317ZM200.527 94.2026V132.718H285.464V94.1887L200.527 94.2026ZM285.153 178.268L285.452 133.907H200.527V200.908C205.998 201.137 211.477 201.072 216.941 200.713H217.036C219.646 200.549 222.244 200.312 224.829 200H224.888C238.682 198.401 252.17 194.816 264.931 189.358L285.153 178.268ZM301.842 100.533C301.523 99.784 301.19 99.0403 300.852 98.3051C300.22 96.9125 299.551 95.559 298.863 94.2054H292.236V132.718H308.992C308.983 121.811 306.212 110.671 301.85 100.519L301.842 100.533ZM292.236 133.921V172.076C296.956 167.57 300.944 162.415 303.816 156.522C307.269 149.425 308.849 141.741 308.978 133.915L292.236 133.921ZM292.236 82.976V93.0023H298.243C296.426 89.5508 294.423 86.1992 292.245 82.962L292.236 82.976ZM234.633 37.6904C234.191 37.5233 233.749 37.3534 233.305 37.1891C228.616 35.4644 223.824 34.0301 218.957 32.8945L202.632 50.7386L202.319 51.07L202.529 51.2984H260.63C252.538 45.7506 243.814 41.1781 234.641 37.6765L234.633 37.6904ZM262.333 52.4987H201.718L200.527 53.5849V92.9995H210.968H210.985H285.475V73.9077C278.736 65.7908 270.959 58.5885 262.341 52.4848L262.333 52.4987Z" fill="#63FFA5"/>
<path opacity="0.1" d="M32.2495 72.9216V92.9994H3.95959C3.95959 92.8824 3.97916 92.7626 3.98755 92.6456C4.01272 92.3254 4.03788 92.0051 4.06584 91.6876C4.0966 91.3144 4.13016 90.9384 4.16651 90.5735C4.20286 90.2087 4.24201 89.7631 4.28396 89.3592C4.3259 88.9554 4.36505 88.546 4.41258 88.1422C4.46012 87.7383 4.50206 87.3345 4.5524 86.9334C4.60273 86.5324 4.64747 86.1257 4.7006 85.7247C4.74255 85.3905 4.78728 85.0591 4.83202 84.7248C4.89634 84.2542 4.96345 83.7807 5.03615 83.3128C5.03615 83.2432 5.05573 83.1708 5.06691 83.1039C5.57729 79.6787 6.2727 76.2834 7.15014 72.9328L32.2495 72.9216Z" fill="#63FFA5"/>
<path opacity="0.1" d="M3.87003 94.1914H32.2495V132.718H5.94766C5.87775 133.113 5.81064 133.511 5.73794 133.91H32.2495V164.98C32.2019 164.966 32.16 164.949 32.1152 164.933C31.3658 164.637 30.622 164.325 29.8782 163.991L29.4028 163.777C28.6572 163.426 27.9115 163.055 27.1658 162.663C26.9058 162.526 26.6457 162.384 26.3885 162.239C22.2488 159.93 18.4881 157.003 15.2369 153.561C15.1418 153.469 15.0523 153.372 14.9573 153.283C14.5043 152.792 14.0597 152.297 13.629 151.79L13.1537 151.233C12.6447 150.612 12.1526 149.974 11.6744 149.328C11.6045 149.233 11.5374 149.138 11.4647 149.049C9.52004 146.364 7.90534 143.456 6.65512 140.388C6.61597 140.296 6.58242 140.195 6.54606 140.109C6.16204 139.125 5.82183 138.132 5.52542 137.129C5.39679 136.709 5.27376 136.294 5.1675 135.856C5.12835 135.728 5.09479 135.603 5.06404 135.478C3.47575 129.303 3.2884 122.889 3.2884 116.519C3.2884 115.776 3.2884 115.029 3.2884 114.291C3.2884 111.715 3.31916 109.122 3.3639 106.532C3.3639 105.861 3.39186 105.193 3.40584 104.519C3.44499 102.808 3.50092 101.098 3.57362 99.3884C3.5904 98.9121 3.61277 98.4387 3.63793 97.9652C3.63793 97.6923 3.65192 97.4193 3.67988 97.1464C3.74699 96.1549 3.80291 95.1718 3.87003 94.1914Z" fill="#63FFA5"/>
<path opacity="0.1" d="M60.3632 58.2863V92.9996H39.0248V58.2863H42.0671V46.5332H54.5553V58.2863H60.3632Z" fill="#63FFA5"/>
<path opacity="0.1" d="M60.3632 94.189H39.0276V132.715H60.3632V94.189Z" fill="#63FFA5"/>
<path opacity="0.1" d="M39.0248 133.91H60.3632V165.938C57.8461 166.658 55.2811 167.201 52.6874 167.562L52.0498 167.64C51.7367 167.676 51.4263 167.707 51.1187 167.737C50.8111 167.768 50.4923 167.79 50.1819 167.81H50.0841C49.9498 167.81 49.8044 167.826 49.673 167.829H49.5304C49.3626 167.829 49.1948 167.846 49.0271 167.851C48.7894 167.865 48.5517 167.868 48.3084 167.871C48.205 167.871 48.1071 167.871 48.0036 167.871C47.7632 167.871 47.5255 167.871 47.285 167.871H46.7565C46.6139 167.871 46.4769 167.871 46.3287 167.871L45.789 167.851C45.5094 167.851 45.2073 167.821 44.9165 167.801L44.3797 167.762L43.7113 167.701C43.2416 167.659 42.7746 167.606 42.3132 167.542L41.7539 167.464L41.4743 167.425C41.0073 167.353 40.546 167.275 40.0762 167.186C39.7322 167.127 39.3911 167.055 39.0444 166.985L39.0248 133.91Z" fill="#63FFA5"/>
<path opacity="0.1" d="M193.749 54.187H176.154V92.9972H193.749V54.187Z" fill="#63FFA5"/>
<path opacity="0.1" d="M193.751 94.189V132.718H106.421V116.099H152.937V125.903H176.154V94.189H193.751Z" fill="#63FFA5"/>
<path opacity="0.1" d="M194.028 175.219H193.749V200.493C190.598 200.228 187.457 199.867 184.325 199.41C170.225 197.354 156.48 193.359 143.483 187.54C139.73 185.858 136.054 184.022 132.454 182.031C126.441 178.713 120.68 174.961 115.218 170.804C113.846 169.757 112.491 168.686 111.155 167.59C110.229 166.83 109.309 166.05 108.378 165.293C107.732 164.772 107.081 164.259 106.421 163.769V133.91H175.922C175.875 133.732 175.827 133.554 175.777 133.378C175.83 133.554 175.88 133.732 175.928 133.91H193.749V175.202C193.844 175.205 193.936 175.213 194.028 175.219Z" fill="#63FFA5"/>
<path opacity="0.1" d="M239.636 51.2956H228.171V47.7474H233.31V37.178C233.756 37.3395 234.2 37.5057 234.641 37.6765V47.7474H239.636V51.2956Z" fill="#63FFA5"/>
<path opacity="0.1" d="M267.257 92.9997H210.974C210.974 92.9997 210.974 92.9997 210.993 93.0137L210.968 92.9997H200.527V54.1895H203.485V82.8759H217.005V65.8869H228.174V52.4878H239.638V65.898H250.807V82.8871H267.257V92.9997Z" fill="#63FFA5"/>
<path opacity="0.1" d="M200.527 94.189V132.718H267.257V94.189H200.527ZM285.371 178.07L285.464 147.574H267.257V133.927H200.527V200.908C205.998 201.137 211.477 201.072 216.941 200.713H217.036C219.646 200.55 222.244 200.312 224.829 200H224.888C238.682 198.401 252.17 194.816 264.931 189.358" fill="#63FFA5"/>
<path opacity="0.1" d="M293.422 133.91H308.989C308.852 141.733 307.275 149.417 303.824 156.513C300.952 162.409 296.962 167.565 292.248 172.068V147.559H293.422V133.91Z" fill="#63FFA5"/>
<path opacity="0.1" d="M308.997 132.718H293.422V100.52H301.85C306.212 110.671 308.983 121.812 308.997 132.718Z" fill="#63FFA5"/>
<path opacity="0.1" d="M193.751 64.9758H184.325V77.1438H193.751V64.9758Z" fill="#63FFA5"/>
<path opacity="0.1" d="M193.751 90.1982H184.325V93H193.751V90.1982Z" fill="#63FFA5"/>
<path opacity="0.1" d="M193.751 94.189H184.325V102.363H193.751V94.189Z" fill="#63FFA5"/>
<path opacity="0.1" d="M193.751 115.42H184.325V127.588H193.751V115.42Z" fill="#63FFA5"/>
<path opacity="0.1" d="M193.751 140.641H184.325V152.809H193.751V140.641Z" fill="#63FFA5"/>
<path opacity="0.1" d="M193.749 175.202C193.844 175.202 193.936 175.202 194.028 175.218H193.749V178.045H184.325V165.863H193.749V175.202Z" fill="#63FFA5"/>
<path opacity="0.1" d="M193.749 191.08V200.479C190.598 200.214 187.457 199.853 184.325 199.396V191.08H193.749Z" fill="#63FFA5"/>
<path opacity="0.1" d="M146.819 131.824H106.421V132.718H146.819V131.824Z" fill="#63FFA5"/>
<path opacity="0.1" d="M146.819 133.907H106.421V137.333H146.819V133.907Z" fill="#63FFA5"/>
<path opacity="0.1" d="M146.819 148.562H106.421V154.071H146.819V148.562Z" fill="#63FFA5"/>
<path opacity="0.1" d="M146.816 165.301V170.81H115.218C113.846 169.766 112.491 168.695 111.152 167.596C110.226 166.835 109.309 166.056 108.375 165.301H146.816Z" fill="#63FFA5"/>
<path opacity="0.1" d="M146.816 182.036V187.539H143.48C139.731 185.855 136.056 184.018 132.454 182.028L146.816 182.036Z" fill="#63FFA5"/>
<path opacity="0.1" d="M224.896 97.9233H216.944V105.844H224.896V97.9233Z" fill="#63FFA5"/>
<path opacity="0.1" d="M52.7071 61.0186H44.7545V68.9393H52.7071V61.0186Z" fill="#63FFA5"/>
<path opacity="0.1" d="M52.7071 79.417H44.7545V87.3378H52.7071V79.417Z" fill="#63FFA5"/>
<path opacity="0.1" d="M52.7071 97.8154H44.7545V105.736H52.7071V97.8154Z" fill="#63FFA5"/>
<path opacity="0.1" d="M52.7071 116.21H44.7545V124.131H52.7071V116.21Z" fill="#63FFA5"/>
<path opacity="0.1" d="M52.7071 134.609H44.7545V142.53H52.7071V134.609Z" fill="#63FFA5"/>
<path opacity="0.1" d="M52.7071 153.007H44.7545V160.928H52.7071V153.007Z" fill="#63FFA5"/>
<path opacity="0.1" d="M255.255 97.9233H247.303V105.844H255.255V97.9233Z" fill="#63FFA5"/>
<path opacity="0.1" d="M224.896 117.461H216.944V125.382H224.896V117.461Z" fill="#63FFA5"/>
<path opacity="0.1" d="M255.255 117.461H247.303V125.382H255.255V117.461Z" fill="#63FFA5"/>
<path opacity="0.1" d="M224.896 136.996H216.944V144.917H224.896V136.996Z" fill="#63FFA5"/>
<path opacity="0.1" d="M255.255 136.996H247.303V144.917H255.255V136.996Z" fill="#63FFA5"/>
<path opacity="0.1" d="M224.896 156.533H216.944V164.454H224.896V156.533Z" fill="#63FFA5"/>
<path opacity="0.1" d="M255.255 156.533H247.303V164.454H255.255V156.533Z" fill="#63FFA5"/>
<path opacity="0.1" d="M224.896 176.071H216.944V183.992H224.896V176.071Z" fill="#63FFA5"/>
<path opacity="0.1" d="M255.255 176.071H247.303V183.992H255.255V176.071Z" fill="#63FFA5"/>
<path opacity="0.1" d="M216.944 200.713V195.605H224.893V199.986L216.944 200.713Z" fill="#63FFA5"/>
<path opacity="0.1" d="M5.03328 83.0986V87.63H32.2495V83.0986H5.03328ZM7.74567 87.3459H5.52543V83.3771H7.76245L7.74567 87.3459ZM10.4553 87.3459H8.21824V83.3771H10.4553V87.3459ZM13.1593 87.3459H10.9222V83.3771H13.1593V87.3459ZM15.8689 87.3459H13.6346V83.3771H15.8717L15.8689 87.3459ZM18.5757 87.3459H16.3386V83.3771H18.5757V87.3459ZM21.2853 87.3459H19.0482V83.3771H21.2853V87.3459ZM23.9948 87.3459H21.7578V83.3771H23.9948V87.3459ZM26.7016 87.3459H24.4646V83.3771H26.7016V87.3459ZM29.4084 87.3459H27.1714V83.3771H29.4084V87.3459ZM32.1152 87.3459H29.8782V83.3771H32.1152V87.3459Z" fill="#63FFA5"/>
<path opacity="0.1" d="M5.03328 96.2834V100.815H32.2495V96.2834H5.03328ZM7.74567 100.528H5.52543V96.5703H7.76245L7.74567 100.528ZM10.4553 100.528H8.21824V96.5703H10.4553V100.528ZM13.1593 100.528H10.9222V96.5703H13.1593V100.528ZM15.8689 100.528H13.6346V96.5703H15.8717L15.8689 100.528ZM18.5757 100.528H16.3386V96.5703H18.5757V100.528ZM21.2853 100.528H19.0482V96.5703H21.2853V100.528ZM23.9948 100.528H21.7578V96.5703H23.9948V100.528ZM26.7016 100.528H24.4646V96.5703H26.7016V100.528ZM29.4084 100.528H27.1714V96.5703H29.4084V100.528ZM32.1152 100.528H29.8782V96.5703H32.1152V100.528Z" fill="#63FFA5"/>
<path opacity="0.1" d="M5.03328 109.474V114.013H32.2495V109.474H5.03328ZM7.74567 113.718H5.52543V109.758H7.76245L7.74567 113.718ZM10.4553 113.718H8.21824V109.758H10.4553V113.718ZM13.1593 113.718H10.9222V109.758H13.1593V113.718ZM15.8689 113.718H13.6346V109.758H15.8717L15.8689 113.718ZM18.5757 113.718H16.3386V109.758H18.5757V113.718ZM21.2853 113.718H19.0482V109.758H21.2853V113.718ZM23.9948 113.718H21.7578V109.758H23.9948V113.718ZM26.7016 113.718H24.4646V109.758H26.7016V113.718ZM29.4084 113.718H27.1714V109.758H29.4084V113.718ZM32.1152 113.718H29.8782V109.758H32.1152V113.718Z" fill="#63FFA5"/>
<path opacity="0.1" d="M5.03328 122.664V127.19H32.2495V122.664H5.03328ZM7.74567 126.909H5.52543V122.945H7.76245L7.74567 126.909ZM10.4553 126.909H8.21824V122.945H10.4553V126.909ZM13.1593 126.909H10.9222V122.945H13.1593V126.909ZM15.8689 126.909H13.6346V122.945H15.8717L15.8689 126.909ZM18.5757 126.909H16.3386V122.945H18.5757V126.909ZM21.2853 126.909H19.0482V122.945H21.2853V126.909ZM23.9948 126.909H21.7578V122.945H23.9948V126.909ZM26.7016 126.909H24.4646V122.945H26.7016V126.909ZM29.4084 126.909H27.1714V122.945H29.4084V126.909ZM32.1152 126.909H29.8782V122.945H32.1152V126.909Z" fill="#63FFA5"/>
<path opacity="0.1" d="M5.15077 135.851C5.25983 136.277 5.38286 136.703 5.51149 137.124V136.135H7.74851V140.096H6.55171C6.58806 140.187 6.62441 140.288 6.66076 140.374H32.2495V135.851H5.15077ZM10.4637 140.096H8.22668V136.135H10.4637V140.096ZM13.1677 140.096H10.9307V136.135H13.1677V140.096ZM15.8773 140.096H13.6347V136.135H15.8717L15.8773 140.096ZM18.5841 140.096H16.3471V136.135H18.5841V140.096ZM21.2937 140.096H19.0567V136.135H21.2937V140.096ZM24.0033 140.096H21.7663V136.135H24.0033V140.096ZM26.7101 140.096H24.4731V136.135H26.7101V140.096ZM29.4169 140.096H27.1799V136.135H29.4169V140.096ZM32.1237 140.096H29.8867V136.135H32.1237V140.096Z" fill="#63FFA5"/>
<path opacity="0.1" d="M11.4703 149.042C11.5402 149.131 11.6073 149.231 11.68 149.32H13.1593V151.222C13.3187 151.412 13.4753 151.601 13.6374 151.779V149.309H15.8745V153.283H14.9685C15.0579 153.375 15.1446 153.473 15.2481 153.562H32.2579V149.042H11.4703ZM18.5757 153.283H16.3386V149.326H18.5757V153.283ZM21.2853 153.283H19.0482V149.326H21.2853V153.283ZM23.9949 153.283H21.7578V149.326H23.9949V153.283ZM26.7017 153.283H24.4646V149.326H26.7017V153.283ZM29.4085 153.283H27.1714V149.326H29.4085V153.283ZM32.1152 153.283H29.8782V149.326H32.1152V153.283Z" fill="#63FFA5"/>
<path opacity="0.1" d="M26.3997 162.229C26.6542 162.374 26.9142 162.508 27.1771 162.652V162.513H29.4141V163.766L29.8895 163.986V162.513H32.1265V164.922C32.1694 164.943 32.2144 164.96 32.2607 164.972V162.229H26.3997Z" fill="#63FFA5"/>
<path opacity="0.1" d="M210.974 92.9999H210.99H210.974ZM193.749 175.199H194.028H193.749ZM175.777 133.375C175.83 133.554 175.875 133.732 175.925 133.907C175.88 133.732 175.833 133.554 175.777 133.375ZM210.974 92.9915H210.99H210.974ZM42.0784 51.2876V52.4768H54.5694V51.2876H42.0784ZM193.749 175.199H194.028H193.749ZM175.777 133.375C175.83 133.554 175.875 133.732 175.925 133.907C175.88 133.732 175.833 133.554 175.777 133.375ZM210.974 92.9915H210.99H210.974ZM193.749 175.191H194.028H193.749ZM175.777 133.375C175.83 133.554 175.875 133.732 175.925 133.907C175.88 133.732 175.833 133.554 175.777 133.375Z" fill="#63FFA5"/>
<path d="M129.076 105.741C129.076 105.741 127.974 105.588 127.974 103.99C127.974 102.391 127.186 99.4053 127.186 99.4053C127.186 99.3914 126.504 94.2056 125.561 93.3812C124.619 92.5568 123.408 87.7163 123.408 87.7163C123.408 87.7163 123.201 85.09 122.779 84.5246C122.357 83.9592 121.786 82.575 120.945 80.6004C120.103 78.6258 116.594 77.2583 116.594 77.2583C116.594 77.2583 110.249 73.5931 108.451 72.3983C108.287 72.3002 108.135 72.1854 107.995 72.0558C107.682 71.6464 106.317 71.638 106.317 71.638C106.175 70.7412 106.038 69.7107 105.993 68.7777C105.993 68.6775 105.993 68.5772 105.979 68.4769C107.984 67.2966 109.494 65.4355 110.232 63.2354C110.266 63.1296 110.294 63.0182 110.324 62.9123C110.444 62.8729 110.555 62.809 110.649 62.7246C110.743 62.6402 110.818 62.5372 110.87 62.4222C111.032 62.0629 111.035 61.6423 111.236 61.3081C111.471 60.9126 111.918 60.701 112.271 60.403C113.16 59.651 113.389 58.3838 113.347 57.2307C113.319 56.2977 113.168 55.3564 113.227 54.4289L113.244 54.195C113.26 54.0557 113.28 53.9165 113.305 53.7828C113.442 53.0921 113.741 52.4404 113.909 51.7553C114.077 51.0701 114.094 50.2987 113.702 49.7082C113.129 48.8421 111.935 48.6694 110.886 48.5803C109.698 48.48 108.635 48.6109 107.875 47.6278C107.519 47.1139 107.118 46.6321 106.678 46.1879C106.521 46.0431 105 45.1184 105 45.0571C103.516 44.3723 101.833 44.2437 100.261 44.6951C99.472 44.9234 98.7282 45.2966 97.9284 45.4832C96.2031 45.8899 94.2178 45.4498 92.7525 46.433C91.936 46.99 91.4466 47.8756 90.9881 48.739C90.6152 49.4501 90.2368 50.1603 89.8528 50.8696C89.2348 52.0366 88.6056 53.223 88.3456 54.5153C88.2909 54.7965 88.2572 55.0814 88.2449 55.3675V55.3815C88.2449 55.4845 88.2449 55.5875 88.2449 55.6906V55.8215C88.2449 55.919 88.2449 56.0137 88.2617 56.1C88.2785 56.1863 88.2757 56.2142 88.2841 56.2727C88.2924 56.3312 88.3064 56.4621 88.3232 56.5512C88.34 56.6403 88.3735 56.7963 88.4071 56.9188C88.4211 56.9717 88.4406 57.0219 88.4574 57.072C88.4854 57.1667 88.5189 57.2586 88.5553 57.3505C88.5749 57.3978 88.5944 57.448 88.6168 57.4953C88.6588 57.5928 88.7091 57.6875 88.7594 57.7738C88.7818 57.8128 88.7986 57.849 88.8209 57.8852C88.899 58.0148 88.9849 58.1394 89.0782 58.2584C89.6766 59.0021 90.5574 59.4755 91.209 60.1718C91.209 60.1996 91.209 60.2275 91.209 60.2526C91.209 60.3306 91.209 60.4057 91.209 60.4837C91.2435 62.0366 91.6585 63.5575 92.4178 64.9141C93.1771 66.2708 94.2577 67.4222 95.5656 68.2681C95.5656 68.3739 95.5795 68.4825 95.5851 68.5883C95.6397 69.415 95.6294 70.2447 95.5544 71.0698C95.4405 70.9363 95.298 70.8299 95.1373 70.7585C94.9766 70.6872 94.8019 70.6527 94.626 70.6577C94.5059 70.6518 94.3855 70.6621 94.2681 70.6883L94.2429 70.6688V70.6939C93.6277 70.8443 92.8699 71.482 92.1457 73.2951C92.1457 73.2951 89.9423 75.7683 88.2645 75.6652C86.5867 75.5622 82.3392 78.2387 82.3392 78.2387C82.3392 78.2387 78.1951 80.9179 77.3059 83.6473C76.8088 85.195 76.2129 86.7095 75.5218 88.1814L70.3991 98.6951L69.4539 107.036C69.4539 107.036 69.9768 110.746 69.8734 111.312C69.7699 111.877 72.0237 116.976 72.0237 116.976C72.0237 116.976 79.4702 130.008 82.5125 130.676L82.7306 130.523C82.8608 130.591 82.9989 130.642 83.1417 130.676L83.7681 130.236C83.8057 130.727 83.7897 131.22 83.7205 131.707C83.3011 132.993 83.8771 141.391 84.6097 143.037C85.3424 144.683 85.0823 166.264 85.0823 166.264L84.9789 168.169C84.9789 168.169 84.9789 168.23 85.004 168.336L84.9789 168.787L85.0544 168.826C85.1328 169.431 85.1072 170.044 84.9789 170.64C84.716 171.475 84.6097 173.837 84.6097 173.837C84.6097 173.837 82.5153 187.172 83.508 189.851C84.5007 192.53 85.3452 195.466 85.3452 195.466C85.3452 195.466 86.3938 198.808 85.3955 199.379C84.3972 199.95 81.559 200.908 82.1434 202.3C82.6747 203.587 84.6908 207.035 84.99 207.539L84.9649 207.804L84.5538 212.24C84.6204 212.826 84.7799 213.398 85.0264 213.934C85.4766 214.9 86.3518 215.903 88.0156 215.794C88.2952 215.775 88.6196 215.741 88.9328 215.699C91.9779 215.293 95.7277 213.939 95.7277 213.939C95.5331 213.816 95.3546 213.669 95.1965 213.502C95.0468 213.358 94.9282 213.184 94.8479 212.993C94.7676 212.801 94.7273 212.596 94.7295 212.388C94.7742 211.58 93.2558 207.731 92.8783 206.784C92.8196 206.648 92.7889 206.57 92.7889 206.57C92.7889 206.57 96.2507 202.966 95.6746 199.772C95.6746 199.772 91.8437 197.543 93.1048 196.321C94.366 195.098 96.6198 191.586 96.6198 191.586C96.6198 191.586 96.7232 178.454 96.6198 176.494C96.5118 175.133 96.5767 173.764 96.8127 172.419C96.8546 172.216 96.905 172.018 96.9581 171.823C98.7022 172.082 100.463 172.216 102.226 172.221C102.869 172.221 103.524 172.221 104.184 172.182C104.184 172.368 104.192 172.569 104.209 172.784C104.354 176.037 104.626 181.741 104.846 183.86C105.16 186.899 106.89 195.087 106.89 195.087C106.89 195.087 103.588 197.198 107.467 202.401C107.467 202.401 107.467 204.286 107.209 204.559C106.935 205.451 106.713 206.359 106.547 207.277C106.384 208.258 106.317 209.249 106.58 209.764C107.209 210.995 110.984 210.895 110.984 210.895L111.077 210.878C111.789 210.805 112.509 210.873 113.195 211.079C113.881 211.286 114.519 211.625 115.072 212.079C116.507 213.226 121.951 212.722 124.899 212.357C126.053 212.213 126.825 212.079 126.825 212.079C126.863 211.949 126.876 211.813 126.864 211.678C126.834 210.956 126.266 209.375 122.418 207.962C122.418 207.962 118.8 205.539 118.85 203.428H118.775H118.355C118.66 203.412 118.856 203.428 118.856 203.428C118.856 203.428 117.438 198.276 118.017 197.858C118.596 197.44 116.862 191.731 116.862 191.731C116.862 191.731 115.869 182.15 115.816 181.479C115.818 180.903 115.906 180.331 116.076 179.78L115.816 174.528C115.816 174.528 115.766 172.781 115.816 172.213C115.808 171.72 115.768 171.228 115.696 170.74C115.671 170.545 115.646 170.342 115.618 170.141C116.974 169.798 117.855 169.481 117.855 169.481L117.698 151.197C118.85 148.969 119.063 144.081 119.057 140.613C119.057 138.385 118.956 136.737 118.956 136.737L120.531 134.177C120.531 134.177 120.894 131.114 120.318 130.442C120.064 130.139 120.178 129.824 120.388 129.565C120.497 129.479 120.612 129.401 120.732 129.331C120.732 129.331 120.715 129.306 120.696 129.27C120.806 129.178 120.922 129.095 121.045 129.022C121.045 129.022 120.486 128.159 120.987 127.794C121.456 128.111 121.876 128.351 122.195 128.546C122.172 128.749 122.15 128.866 122.15 128.866L122.284 128.587C122.592 128.76 122.779 128.866 122.779 128.866C122.779 128.866 125.245 123.973 125.192 123.251C125.139 122.53 126.87 119.491 126.87 119.491C126.87 119.491 127.08 117.896 128.025 117.227C128.97 116.559 128.757 111.715 128.757 111.715C128.757 111.715 129.02 109.192 129.649 108.162C130.279 107.131 129.076 105.741 129.076 105.741ZM81.8862 103.594L81.9337 104.761C81.6541 104.313 81.4527 103.99 81.4527 103.99L81.8862 103.594Z" fill="url(#paint0_linear_294_701)"/>
<path d="M122.913 126.752L122.309 129.314C122.309 129.314 117.472 126.855 116.599 123.73C115.727 120.605 118.059 119.419 118.059 119.419L122.567 121.321L122.913 126.752Z" fill="white"/>
<path opacity="0.1" d="M122.913 126.752L122.309 129.314C122.309 129.314 117.472 126.855 116.599 123.73C115.727 120.605 118.059 119.419 118.059 119.419L122.567 121.321L122.913 126.752Z" fill="black"/>
<path d="M95.7642 213.956C95.7642 213.956 91.2901 215.594 88.2142 215.8C86.5812 215.908 85.7227 214.911 85.2809 213.951C85.0396 213.416 84.8839 212.848 84.8195 212.266L85.2194 207.851L85.4319 205.501L91.9668 203.81L92.8924 206.629L92.9791 206.843C93.351 207.784 94.8414 211.614 94.7967 212.413C94.7949 212.618 94.8345 212.821 94.9133 213.01C94.9921 213.199 95.1084 213.37 95.2553 213.513C95.4053 213.682 95.5763 213.831 95.7642 213.956Z" fill="white"/>
<path d="M126.325 211.711C126.336 211.845 126.323 211.98 126.286 212.11C126.286 212.11 116.717 213.7 114.759 212.11C114.207 211.645 113.564 211.3 112.871 211.098C112.177 210.896 111.449 210.84 110.733 210.934C110.733 210.934 107.03 211.035 106.412 209.82C106.155 209.311 106.222 208.322 106.382 207.347C106.544 206.434 106.761 205.531 107.03 204.643L107.179 204.526L108.059 203.821L118.372 203.518H118.45C118.4 205.618 121.951 208.027 121.951 208.027C125.724 209.419 126.28 210.993 126.325 211.711Z" fill="white"/>
<path opacity="0.1" d="M126.325 211.711C126.335 211.845 126.32 211.98 126.283 212.109C126.283 212.109 116.717 213.699 114.759 212.109C114.208 211.645 113.565 211.301 112.872 211.098C112.179 210.896 111.451 210.84 110.735 210.934C110.735 210.934 107.03 211.034 106.415 209.82C106.158 209.307 106.222 208.321 106.382 207.347C107.808 207.489 110.059 207.842 110.942 208.686C112.279 209.97 114.544 211.251 115.934 211.352C117.022 211.421 123.528 211.627 126.325 211.711Z" fill="black"/>
<path opacity="0.1" d="M95.7641 213.956C95.7641 213.956 91.2901 215.593 88.2142 215.8C86.5812 215.908 85.7227 214.911 85.2837 213.947C86.4218 214.329 88.0017 214.73 88.8322 214.362C89.8165 213.928 93.3062 213.647 95.2636 213.527C95.4126 213.689 95.5806 213.833 95.7641 213.956Z" fill="black"/>
<path d="M102.403 81.9844C98.7114 80.5557 93.9634 75.835 95.149 73.6292C95.4123 73.0726 95.5688 72.4718 95.6104 71.8579C95.6866 71.0245 95.6979 70.1864 95.6439 69.3513C95.5608 67.9836 95.3955 66.622 95.149 65.2739C95.149 65.2739 106.672 65.5329 106.001 67.2235C105.806 67.7192 105.775 68.5798 105.828 69.5435C105.881 70.5071 106.021 71.5961 106.166 72.5179C106.368 73.7824 106.569 74.746 106.569 74.746C106.569 74.746 105.864 75.7291 105.45 75.7821C105.037 75.835 107.699 84.0203 102.403 81.9844Z" fill="#CF6F80"/>
<path opacity="0.1" d="M92.9706 206.843L92.884 206.938C89.4389 202.788 85.2725 207.96 85.2725 207.96L85.211 207.851L85.4235 205.501L91.9584 203.81L92.884 206.629L92.9706 206.843Z" fill="black"/>
<path opacity="0.1" d="M118.453 203.81C118.453 203.81 115.937 203.757 114.594 204.938C113.252 206.119 106.765 205.195 107.044 204.938C107.127 204.811 107.177 204.666 107.19 204.515L108.071 203.81L118.383 203.507C118.423 203.693 118.453 203.81 118.453 203.81Z" fill="black"/>
<path d="M97.2574 171.222C97.07 171.683 96.9276 172.162 96.8324 172.651C96.5992 173.989 96.5344 175.351 96.6394 176.706C96.7429 178.655 96.6394 191.72 96.6394 191.72C96.6394 191.72 94.4276 195.204 93.1944 196.432C91.9612 197.661 95.7111 199.866 95.7111 199.866C96.2703 203.041 92.8812 206.629 92.8812 206.629C89.4362 202.479 85.2697 207.654 85.2697 207.654C85.2697 207.654 83.0048 203.754 82.4399 202.362C81.8751 200.969 84.6518 200.006 85.6277 199.44C86.6036 198.875 85.5801 195.541 85.5801 195.541C85.5801 195.541 84.7552 192.62 83.7765 189.954C82.7978 187.289 84.8559 174.021 84.8559 174.021C84.8559 174.021 84.9621 171.665 85.2166 170.843C85.345 170.25 85.3705 169.64 85.2921 169.038C85.2753 168.835 85.2558 168.665 85.2418 168.551C85.2278 168.437 85.2166 168.384 85.2166 168.384L85.2558 168.317L86.6539 165.721C86.6539 165.721 97.9285 169.587 97.2574 171.222Z" fill="#63FFA5"/>
<path d="M118.453 203.503C118.453 203.503 115.937 203.451 114.594 204.618C113.252 205.784 106.765 204.874 107.044 204.618C107.324 204.361 107.302 202.465 107.302 202.465C103.496 197.29 106.742 195.19 106.742 195.19C106.742 195.19 105.042 187.044 104.735 184.022C104.519 181.911 104.254 176.237 104.111 172.998C104.05 171.606 104.013 170.648 104.013 170.648L107.123 170.024L107.523 169.943L115.022 168.445C115.022 168.445 115.229 169.837 115.369 170.976C115.439 171.463 115.478 171.953 115.486 172.444C115.436 173.001 115.486 174.745 115.486 174.745L115.741 179.972C115.575 180.521 115.489 181.09 115.486 181.663C115.537 182.328 116.513 191.859 116.513 191.859C116.513 191.859 118.21 197.546 117.631 197.956C117.052 198.365 118.453 203.503 118.453 203.503Z" fill="#63FFA5"/>
<path opacity="0.1" d="M106.001 67.2235C105.806 67.7192 105.775 68.5798 105.828 69.5435C104.284 70.4692 102.51 70.9425 100.709 70.909C98.9071 70.8755 97.1517 70.3366 95.644 69.3541C95.5609 67.9854 95.3957 66.6229 95.149 65.2739C95.149 65.2739 106.672 65.5274 106.001 67.2235Z" fill="black"/>
<path d="M110.456 61.0685C110.458 62.0721 110.299 63.0696 109.986 64.0235C109.285 66.1607 107.849 67.9823 105.93 69.1666C104.011 70.3509 101.734 70.8214 99.5009 70.4951C97.2676 70.1688 95.2219 69.0667 93.7256 67.3835C92.2292 65.7003 91.3784 63.5444 91.3236 61.2969C91.3236 61.2189 91.3236 61.1465 91.3236 61.0685C91.3019 59.8034 91.5333 58.5467 92.0044 57.3716C92.4755 56.1965 93.1767 55.1266 94.0673 54.2243C94.9579 53.322 96.0199 52.6053 97.1915 52.1161C98.3631 51.6269 99.6208 51.375 100.891 51.375C102.161 51.375 103.419 51.6269 104.591 52.1161C105.762 52.6053 106.824 53.322 107.715 54.2243C108.605 55.1266 109.307 56.1965 109.778 57.3716C110.249 58.5467 110.48 59.8034 110.459 61.0685H110.456Z" fill="#CF6F80"/>
<path opacity="0.1" d="M102.403 81.9848C98.7114 80.556 93.9634 75.8353 95.149 73.6295C95.4123 73.0728 95.5688 72.4721 95.6104 71.8582L100.663 75.994L103.789 78.548L106.166 72.521C106.368 73.7854 106.569 74.7491 106.569 74.7491C106.569 74.7491 105.864 75.7322 105.45 75.7851C105.037 75.838 107.699 84.0207 102.403 81.9848Z" fill="black"/>
<path d="M115.47 100.263L111.25 170.865L105.747 171.224L91.497 130.286L93.8347 81.6837L94.3269 71.415L100.663 76.5981L103.792 79.152L106.239 72.9496L110.789 76.8989L115.47 100.263Z" fill="#63FFA5"/>
<path opacity="0.1" d="M97.2574 171.222C97.07 171.684 96.9276 172.162 96.8324 172.651C92.8281 172.035 88.939 170.825 85.2949 169.061L85.2194 169.022L85.2446 168.574L85.2586 168.34L86.6567 165.744C86.6567 165.744 97.9285 169.588 97.2574 171.222Z" fill="black"/>
<path opacity="0.1" d="M107.187 172.661C106.163 172.835 105.131 172.952 104.094 173.012C104.033 171.62 103.996 170.661 103.996 170.661L107.106 170.038L107.187 172.661Z" fill="black"/>
<path opacity="0.1" d="M115.352 170.99C113.364 171.505 110.294 172.085 107.545 171.723L107.506 169.957L115.005 168.458C115.005 168.458 115.212 169.837 115.352 170.99Z" fill="black"/>
<path opacity="0.1" d="M107.495 172.046C96.0298 173.995 85.5298 168.406 85.5298 168.406L85.6304 166.512C85.6304 166.512 85.8905 145.042 85.1691 143.396C84.4476 141.75 83.8856 133.403 84.2938 132.122C84.7021 130.84 82.8034 111.629 82.8034 111.629L82.4958 103.831L71.238 99.2881L76.2713 88.8385C76.9511 87.3734 77.5358 85.8664 78.0218 84.3267C78.897 81.614 82.96 78.9486 82.96 78.9486C82.96 78.9486 87.1265 76.2861 88.7735 76.3864C90.4205 76.4866 92.5792 74.0302 92.5792 74.0302C94.1731 69.9834 95.616 71.816 95.616 71.816C95.616 72.0082 95.616 71.816 95.5377 72.4148C94.9784 76.857 104.581 90.8939 104.718 91.1418L105.632 113.328L106.558 141.404L107.495 172.046Z" fill="black"/>
<path d="M107.187 172.046C95.7222 173.995 85.2194 168.406 85.2194 168.406L85.3229 166.512C85.3229 166.512 85.5829 145.042 84.8587 143.396C84.1345 141.75 83.5752 133.403 83.9863 132.122C84.3973 130.841 82.4958 111.629 82.4958 111.629L82.1855 103.831L70.922 99.2715L75.9553 88.8219C76.6337 87.3562 77.2184 85.8492 77.7058 84.31C78.5783 81.5974 82.644 78.932 82.644 78.932C82.644 78.932 86.8105 76.2695 88.4547 76.3698C90.0989 76.47 92.2604 74.0136 92.2604 74.0136C93.8571 69.9668 95.616 71.7994 95.616 71.7994C95.616 71.9916 95.4482 72.0779 95.5377 72.3982C96.768 76.7068 104.273 90.8773 104.41 91.1252L105.336 113.311L106.261 141.388L107.187 172.046Z" fill="white"/>
<path opacity="0.1" d="M104.097 91.7573C102.864 91.2449 96.3318 83.817 96.3318 83.817V82.1265C96.0941 81.5695 94.682 81.9092 93.5355 82.2991L94.0276 72.0305L94.5869 72.4928C95.8117 76.7986 103.954 91.5094 104.097 91.7573Z" fill="black"/>
<path d="M104.407 91.1423C103.171 90.6299 96.6394 83.202 96.6394 83.202V81.5115C96.4017 80.9545 94.9896 81.2942 93.8431 81.6842L94.338 71.4155L94.8973 71.8779C96.1249 76.1836 104.27 90.8972 104.407 91.1423Z" fill="white"/>
<path opacity="0.1" d="M85.5298 128.187C85.6836 128.187 93.502 127.368 93.502 127.368C93.502 127.368 98.2361 136.64 97.9257 138.896C97.6153 141.152 97.0532 143.148 95.149 142.795C93.2447 142.441 84.9006 143.073 84.9006 143.073L85.5298 128.187Z" fill="black"/>
<path d="M85.2194 127.571C85.3732 127.571 93.1916 126.752 93.1916 126.752C93.1916 126.752 97.9229 136.027 97.6153 138.28C97.3077 140.533 96.74 142.533 94.8386 142.179C92.9371 141.825 84.5902 142.458 84.5902 142.458L85.2194 127.571Z" fill="white"/>
<path d="M91.1112 123.218C91.1112 123.218 98.2865 127.058 98.4403 128.231C98.5941 129.403 94.7883 127.718 93.9662 127.515C93.4251 127.385 92.8743 127.3 92.3192 127.259L86.8357 127.407L91.1112 123.218Z" fill="#CF6F80"/>
<path opacity="0.1" d="M102.095 92.2361C102.512 92.2361 102.85 91.8995 102.85 91.4842C102.85 91.0689 102.512 90.7322 102.095 90.7322C101.678 90.7322 101.34 91.0689 101.34 91.4842C101.34 91.8995 101.678 92.2361 102.095 92.2361Z" fill="black"/>
<path d="M102.095 91.9302C102.512 91.9302 102.85 91.5935 102.85 91.1782C102.85 90.7629 102.512 90.4263 102.095 90.4263C101.678 90.4263 101.34 90.7629 101.34 91.1782C101.34 91.5935 101.678 91.9302 102.095 91.9302Z" fill="#3F3D56"/>
<path opacity="0.1" d="M103.485 124.789C103.902 124.789 104.24 124.452 104.24 124.037C104.24 123.622 103.902 123.285 103.485 123.285C103.068 123.285 102.73 123.622 102.73 124.037C102.73 124.452 103.068 124.789 103.485 124.789Z" fill="black"/>
<path d="M103.485 124.48C103.902 124.48 104.24 124.143 104.24 123.728C104.24 123.313 103.902 122.976 103.485 122.976C103.068 122.976 102.73 123.313 102.73 123.728C102.73 124.143 103.068 124.48 103.485 124.48Z" fill="#3F3D56"/>
<path opacity="0.1" d="M102.847 108.513C103.264 108.513 103.602 108.176 103.602 107.761C103.602 107.345 103.264 107.009 102.847 107.009C102.43 107.009 102.092 107.345 102.092 107.761C102.092 108.176 102.43 108.513 102.847 108.513Z" fill="black"/>
<path d="M102.847 108.206C103.264 108.206 103.602 107.869 103.602 107.454C103.602 107.039 103.264 106.702 102.847 106.702C102.43 106.702 102.092 107.039 102.092 107.454C102.092 107.869 102.43 108.206 102.847 108.206Z" fill="#3F3D56"/>
<path d="M120.251 127.103C120.251 127.103 120.766 127.872 120.251 128.231C119.737 128.591 120.301 129.46 120.301 129.46C120.301 129.46 119.018 130.209 119.583 130.883C120.148 131.557 119.79 134.601 119.79 134.601L118.246 137.146C118.246 137.146 118.338 138.787 118.344 141.004C118.344 144.463 118.14 149.326 117.01 151.543L117.167 169.732C117.167 169.732 111.762 171.698 107.237 171.099L106.566 141.912C106.566 141.912 107.545 125.36 107.906 122.185C108.117 120.537 108.203 118.875 108.163 117.214C108.163 117.214 108.009 112.245 107.492 109.939C107.492 109.939 106.932 99.9488 106.877 97.1833C106.851 95.8603 106.921 92.0002 107 88.3295C107.086 84.3161 107.184 80.5312 107.184 80.5312L106.163 72.4879C106.163 72.4879 107.184 72.3848 107.492 72.7942C107.629 72.9224 107.779 73.0371 107.939 73.1368C109.701 74.3232 115.925 77.9717 115.925 77.9717C115.925 77.9717 119.37 79.3364 120.195 81.2915C121.02 83.2467 121.593 84.6336 121.993 85.1907C122.393 85.7477 122.611 88.3657 122.611 88.3657C122.611 88.3657 123.797 93.1839 124.722 93.9999C125.648 94.8159 126.325 100.007 126.325 100.007L118.146 106.413C118.146 106.413 117.427 117.069 117.273 117.481C117.119 117.893 120.251 127.103 120.251 127.103Z" fill="white"/>
<path d="M120.562 127.104C120.562 127.104 121.073 127.872 120.562 128.231C120.05 128.591 120.609 129.46 120.609 129.46C120.609 129.46 119.334 130.217 119.893 130.891C120.453 131.565 120.1 134.609 120.1 134.609L118.557 137.155C118.557 137.155 118.649 138.795 118.657 141.012C118.657 144.471 118.453 149.334 117.323 151.551L117.477 169.74C117.477 169.74 112.064 171.707 107.545 171.108L106.877 141.92C106.877 141.92 107.855 125.368 108.216 122.193C108.427 120.545 108.512 118.883 108.47 117.222C108.47 117.222 108.317 112.253 107.802 109.947C107.802 109.947 107.243 99.9573 107.184 97.1917C107.159 95.8688 107.232 92.0086 107.307 88.3379C107.394 84.3246 107.492 80.5396 107.492 80.5396L106.144 72.3877C106.144 72.3877 107.492 72.3877 107.802 72.8027C107.939 72.9324 108.089 73.0472 108.25 73.1452C110.011 74.3317 116.239 77.9801 116.239 77.9801C116.239 77.9801 119.681 79.3448 120.506 81.3C121.331 83.2551 121.904 84.6421 122.306 85.1991C122.709 85.7561 122.922 88.3741 122.922 88.3741C122.922 88.3741 124.107 93.1923 125.033 94.0083C125.958 94.8244 126.627 100.005 126.627 100.005L118.448 106.41C118.448 106.41 117.729 117.066 117.572 117.478C117.416 117.89 120.562 127.104 120.562 127.104Z" fill="white"/>
<path opacity="0.1" d="M110.766 82.9039L111.504 85.0484L107.618 88.9475C107.704 84.937 107.802 81.1493 107.802 81.1493L106.454 72.9973C106.454 72.9973 107.802 72.9973 108.113 73.4123C108.249 73.5416 108.399 73.6556 108.56 73.7521L111.865 83.2492L110.766 82.9039Z" fill="black"/>
<path d="M110.456 82.2882L111.197 84.4327L107.31 88.3318C107.397 84.3185 107.495 80.5336 107.495 80.5336L106.144 72.3816C106.144 72.3816 107.495 72.3816 107.802 72.7966C107.939 72.9255 108.089 73.0403 108.25 73.1391L111.558 82.6335L110.456 82.2882Z" fill="white"/>
<path opacity="0.1" d="M110.456 61.0685C110.458 62.0721 110.299 63.0696 109.986 64.0235C109.933 64.0317 109.879 64.0292 109.827 64.0163C109.776 64.0034 109.727 63.9803 109.684 63.9483C109.611 61.4417 108.373 59.0883 106.849 57.0858C106.421 56.4812 105.902 55.9458 105.311 55.4983C104.713 55.0511 103.969 54.8416 103.225 54.9107C102.386 55.0248 101.645 55.593 100.797 55.6654C99.6789 55.7573 98.6779 54.9859 97.5677 54.9469C97.1164 54.9511 96.6712 55.0512 96.2619 55.2404C95.8525 55.4297 95.4883 55.7037 95.1937 56.0442C94.6105 56.7313 94.1772 57.5318 93.9214 58.3948C93.4817 59.7033 93.2423 61.0704 93.2111 62.4499C93.1971 63.2297 93.1216 64.2073 92.3946 64.4914C92.4493 63.9178 92.3839 63.3393 92.2024 62.7922C92.021 62.2452 91.7274 61.7417 91.3404 61.3136L91.3236 61.2969C91.3236 61.2189 91.3236 61.1465 91.3236 61.0685C91.3019 59.8034 91.5333 58.5466 92.0044 57.3716C92.4755 56.1965 93.1767 55.1266 94.0673 54.2243C94.9579 53.322 96.0199 52.6053 97.1915 52.1161C98.3631 51.6269 99.6208 51.375 100.891 51.375C102.161 51.375 103.419 51.6269 104.591 52.1161C105.762 52.6053 106.824 53.322 107.715 54.2243C108.605 55.1266 109.307 56.1965 109.778 57.3716C110.249 58.5466 110.48 59.8034 110.459 61.0685H110.456Z" fill="black"/>
<path d="M104.852 45.9371C103.399 45.2563 101.746 45.1276 100.205 45.575C99.4301 45.8034 98.7003 46.1738 97.9145 46.3604C96.2367 46.7643 94.2793 46.327 92.8393 47.3046C92.0395 47.8616 91.5586 48.7417 91.1112 49.5967L89.9926 51.7189C89.3831 52.8803 88.7679 54.0612 88.5134 55.3396C88.259 56.6179 88.4127 58.0494 89.2265 59.0771C89.8193 59.8263 90.6945 60.297 91.3377 61.0016C91.723 61.4302 92.0152 61.9335 92.1961 62.4798C92.3771 63.0262 92.4427 63.6038 92.3891 64.1766C93.1189 63.8981 93.1888 62.9178 93.2056 62.138C93.2367 60.7584 93.4762 59.3914 93.9158 58.0829C94.171 57.2197 94.6044 56.419 95.1881 55.7323C95.483 55.392 95.8472 55.1182 96.2565 54.929C96.6659 54.7398 97.1109 54.6396 97.5622 54.6349C98.6807 54.6739 99.6846 55.4426 100.792 55.3507C101.631 55.2811 102.375 54.7101 103.219 54.5987C103.964 54.5286 104.708 54.7382 105.305 55.1864C105.896 55.6332 106.414 56.1687 106.84 56.7739C108.367 58.7764 109.606 61.1242 109.678 63.6363C109.994 63.8675 110.45 63.5667 110.607 63.2102C110.763 62.8537 110.769 62.436 110.968 62.0962C111.197 61.7035 111.636 61.4946 111.98 61.1994C112.852 60.4502 113.07 59.1886 113.037 58.0439C113.003 56.8992 112.78 55.7378 112.998 54.6126C113.129 53.9219 113.425 53.2758 113.588 52.5935C113.75 51.9111 113.769 51.1452 113.386 50.5576C112.827 49.6942 111.65 49.5243 110.624 49.4435C109.458 49.3433 108.415 49.4714 107.671 48.4938C107.322 47.9837 106.929 47.5047 106.496 47.0623C106.348 46.9174 104.852 45.9984 104.852 45.9371Z" fill="#512E4E"/>
<path opacity="0.1" d="M74.4593 104.669L71.5372 99.2881L70.6116 107.59C70.6116 107.59 71.1261 111.278 71.0227 111.843C70.9192 112.409 73.131 117.477 73.131 117.477C73.131 117.477 80.4377 130.439 83.4213 131.108L93.5019 123.933L90.8287 120.552C90.8287 120.552 89.9031 120.193 89.671 120.552C89.671 120.552 84.7076 112.047 84.1931 111.431C83.6786 110.816 83.7793 109.587 83.7793 109.587C83.7793 109.587 83.0075 108.769 83.2648 108C83.522 107.231 81.7743 104.566 81.7743 104.566L83.3682 103.081L74.4593 104.669Z" fill="black"/>
<path d="M71.691 98.6758L70.9192 99.2885L69.9937 107.591C69.9937 107.591 70.5082 111.278 70.4047 111.844C70.3013 112.409 72.5159 117.478 72.5159 117.478C72.5159 117.478 79.8198 130.44 82.8034 131.108L92.8868 123.934L90.2108 120.553C90.2108 120.553 89.2852 120.193 89.0531 120.553C89.0531 120.553 84.0897 112.047 83.5752 111.431C83.0607 110.816 83.1641 109.588 83.1641 109.588C83.1641 109.588 82.3924 108.769 82.6496 108C82.9069 107.232 81.1564 104.566 81.1564 104.566L82.7503 103.082L71.691 98.6758Z" fill="white"/>
<path opacity="0.1" d="M119.583 131.2C120.142 131.877 119.79 134.916 119.79 134.916L118.246 137.461C118.246 137.461 118.339 139.105 118.344 141.319L115.749 142.126C115.515 142.199 115.266 142.215 115.024 142.173C114.782 142.131 114.554 142.032 114.358 141.884C114.162 141.736 114.005 141.543 113.899 141.322C113.793 141.102 113.742 140.859 113.75 140.614L114.197 126.24L120.251 128.546C119.737 128.903 120.302 129.777 120.302 129.777C120.302 129.777 119.018 130.524 119.583 131.2Z" fill="black"/>
<path d="M119.893 130.891C120.452 131.568 120.1 134.609 120.1 134.609L118.557 137.155C118.557 137.155 118.649 138.795 118.657 141.012L116.015 141.834C115.785 141.905 115.542 141.92 115.305 141.879C115.068 141.837 114.845 141.74 114.653 141.595C114.462 141.45 114.308 141.261 114.204 141.045C114.1 140.829 114.05 140.591 114.057 140.352L114.508 125.934L120.564 128.24C120.047 128.596 120.612 129.468 120.612 129.468C120.612 129.468 119.334 130.217 119.893 130.891Z" fill="white"/>
<path d="M121.898 124.039C121.898 124.039 121.487 126.654 120.458 126.807C119.429 126.961 118.968 131.038 117.941 130.893C116.915 130.748 117.595 127.103 117.631 126.395C117.667 125.688 116.513 122.758 117.377 122.092C118.241 121.427 120.975 122.092 120.975 122.092L121.898 124.039Z" fill="#CF6F80"/>
<path opacity="0.1" d="M124.088 103.901L126.028 100.001C126.028 100.001 126.8 102.973 126.8 104.561C126.8 106.148 127.879 106.304 127.879 106.304C127.879 106.304 129.062 107.697 128.439 108.71C127.815 109.724 127.563 112.248 127.563 112.248C127.563 112.248 127.768 117.063 126.842 117.729C125.916 118.394 125.724 119.984 125.724 119.984C125.724 119.984 124.023 123.006 124.076 123.725C124.13 124.443 121.711 129.309 121.711 129.309C121.711 129.309 122.894 123.263 116.001 120.65C116.001 120.65 115.948 118.598 116.462 118.035C116.977 117.472 117.779 117.216 117.276 114.373C116.773 111.529 117.131 108.131 117.131 107.449C117.131 106.766 118.674 102.511 118.674 102.511L124.088 103.901Z" fill="black"/>
<path d="M124.927 99.4443L126.621 100.001C126.621 100.001 127.396 102.973 127.396 104.561C127.396 106.148 128.475 106.304 128.475 106.304C128.475 106.304 129.658 107.697 129.034 108.71C128.411 109.724 128.162 112.247 128.162 112.247C128.162 112.247 128.366 117.063 127.44 117.728C126.515 118.394 126.308 119.984 126.308 119.984C126.308 119.984 124.611 123.006 124.664 123.725C124.717 124.443 122.295 129.309 122.295 129.309C122.295 129.309 123.481 123.262 116.585 120.65C116.585 120.65 116.535 118.597 117.05 118.035C117.564 117.472 118.367 117.216 117.863 114.372C117.36 111.529 117.718 108.131 117.718 107.449C117.718 106.766 119.261 102.511 119.261 102.511L124.927 99.4443Z" fill="white"/>
<path opacity="0.1" d="M87.4984 200.507C87.4984 200.507 90.1996 198.817 91.9724 200.045C93.7453 201.273 87.4984 200.507 87.4984 200.507Z" fill="black"/>
<path opacity="0.1" d="M108.487 195.279C108.487 195.279 110.878 194.973 112.886 197.126C114.893 199.279 108.487 195.279 108.487 195.279Z" fill="black"/>
<g opacity="0.1">
<path opacity="0.1" d="M111.985 60.5896C111.641 60.8849 111.2 61.0965 110.97 61.4892C110.775 61.8262 110.769 62.2412 110.612 62.6033C110.456 62.9653 110 63.2605 109.684 63.0322C109.611 60.5256 108.37 58.1722 106.846 56.1669C106.42 55.5617 105.902 55.0262 105.311 54.5794C104.712 54.1313 103.967 53.9217 103.222 53.9918C102.383 54.106 101.645 54.6741 100.797 54.7437C99.679 54.8384 98.6751 54.067 97.565 54.028C97.1139 54.0324 96.6689 54.1329 96.2599 54.3226C95.851 54.5124 95.4875 54.787 95.1938 55.1281C94.61 55.8138 94.1766 56.6135 93.9214 57.4759C93.482 58.7845 93.2426 60.1515 93.2112 61.531C93.1944 62.308 93.1217 63.2772 92.4003 63.5669C92.4171 63.7726 92.4171 63.9794 92.4003 64.1852C93.1273 63.9067 93.2 62.9263 93.2168 62.1465C93.2479 60.767 93.4874 59.4 93.927 58.0914C94.1823 57.2282 94.6156 56.4276 95.1993 55.7408C95.4937 55.4006 95.8574 55.1268 96.2662 54.9376C96.6751 54.7484 97.1198 54.6481 97.5706 54.6435C98.6891 54.6825 99.6958 55.4511 100.803 55.3592C101.642 55.2896 102.386 54.7187 103.227 54.6073C103.973 54.5372 104.718 54.7468 105.316 55.1949C105.907 55.6417 106.425 56.1773 106.851 56.7824C108.375 58.7849 109.617 61.1327 109.69 63.6449C110.006 63.876 110.461 63.5752 110.618 63.2188C110.775 62.8623 110.78 62.4445 110.976 62.1047C111.205 61.712 111.647 61.5031 111.991 61.2079C112.863 60.4587 113.082 59.1971 113.048 58.0524C113.048 58.0162 113.048 57.98 113.048 57.9466C112.995 58.9381 112.729 59.9491 111.985 60.5896Z" fill="black"/>
<path opacity="0.1" d="M91.3433 60.3917C90.7001 59.687 89.8221 59.2164 89.2321 58.47C88.7352 57.8092 88.4515 57.0138 88.4183 56.189C88.3303 57.2197 88.6193 58.2474 89.2321 59.0827C89.8221 59.8319 90.7001 60.3025 91.3433 61.0072C91.9608 61.6964 92.3315 62.5701 92.3975 63.4915C92.4403 62.9307 92.369 62.3671 92.1878 61.8345C92.0067 61.3018 91.7194 60.8111 91.3433 60.3917Z" fill="black"/>
<path opacity="0.1" d="M113.593 51.9836C113.428 52.6659 113.135 53.3148 113 54.0028C112.921 54.4624 112.892 54.9294 112.914 55.3953C112.923 55.1299 112.952 54.8655 113 54.6043C113.135 53.9136 113.428 53.2675 113.593 52.5852C113.689 52.2088 113.721 51.8189 113.686 51.4321C113.668 51.6179 113.637 51.8022 113.593 51.9836Z" fill="black"/>
</g>
<path opacity="0.1" d="M37.115 211.831C52.1631 211.831 64.362 209.88 64.362 207.472C64.362 205.065 52.1631 203.114 37.115 203.114C22.067 203.114 9.8681 205.065 9.8681 207.472C9.8681 209.88 22.067 211.831 37.115 211.831Z" fill="#63FFA5"/>
<path d="M37.993 123.976H36.2398V163.293H37.993V123.976Z" fill="#535461"/>
<path d="M49.0104 163.173L48.9013 164.944L48.7447 167.45L48.6804 168.492L48.5266 170.999L48.4595 172.04L48.3029 174.547L46.5356 202.974C46.4588 204.197 45.917 205.345 45.0203 206.185C44.1237 207.024 42.9397 207.491 41.7093 207.492H32.5207C31.2906 207.491 30.1069 207.024 29.2107 206.184C28.3145 205.345 27.7732 204.197 27.6971 202.974L25.9383 174.527L25.7817 172.021L25.7174 170.979L25.5608 168.473L25.4965 167.431L25.3399 164.924L25.228 163.153C25.2086 162.812 25.2593 162.471 25.377 162.15C25.4948 161.829 25.6771 161.536 25.9127 161.288C26.1484 161.04 26.4324 160.843 26.7475 160.708C27.0625 160.573 27.4018 160.504 27.7447 160.504H46.5384C46.88 160.507 47.2173 160.58 47.5296 160.718C47.8419 160.856 48.1225 161.056 48.3541 161.306C48.5857 161.556 48.7635 161.85 48.8763 162.171C48.9892 162.492 49.0348 162.833 49.0104 163.173Z" fill="#3F3D56"/>
<path d="M48.9013 164.943L48.7447 167.442H25.4852L25.3286 164.943H48.9013Z" fill="#9D9CB5"/>
<path d="M48.6804 168.484L48.5266 170.985H25.7062L25.5496 168.484H48.6804Z" fill="#9D9CB5"/>
<path d="M48.4595 172.029L48.3057 174.527H25.9271L25.7705 172.029H48.4595Z" fill="#9D9CB5"/>
<path d="M22.6526 138.712C32.8618 146.07 37.1233 157.578 37.1233 157.578C37.1233 157.578 24.8197 157.157 14.6077 149.799C4.3957 142.441 0.142555 130.936 0.142555 130.936C0.142555 130.936 12.4406 131.353 22.6526 138.712Z" fill="#63FFA5"/>
<path d="M0.134193 130.936C0.134193 130.936 12.9076 137.996 17.0041 143.842C21.1007 149.688 37.1234 157.578 37.1234 157.578" stroke="#535461" stroke-width="2" stroke-miterlimit="10"/>
<path d="M29.2434 123.889C34.7996 127.891 37.1233 134.155 37.1233 134.155C37.1233 134.155 30.4262 133.927 24.8672 129.924C19.3082 125.922 16.9901 119.656 16.9901 119.656C16.9901 119.656 23.6844 119.884 29.2434 123.889Z" fill="#63FFA5"/>
<path d="M16.9901 119.656C16.9901 119.656 23.9417 123.499 26.1703 126.68C28.3989 129.86 37.1233 134.155 37.1233 134.155" stroke="#535461" stroke-width="2" stroke-miterlimit="10"/>
<path d="M45.1907 133.837C38.8068 140.825 37.4562 149.957 37.4562 149.957C37.4562 149.957 46.4574 147.757 52.8357 140.767C59.214 133.776 60.5702 124.646 60.5702 124.646C60.5702 124.646 51.5746 126.849 45.1907 133.837Z" fill="#63FFA5"/>
<path d="M60.5758 124.65C60.5758 124.65 52.2597 131.813 50.1457 136.748C48.0317 141.684 37.4562 149.958 37.4562 149.958" stroke="#535461" stroke-width="2" stroke-miterlimit="10"/>
<path d="M279.536 131.378C279.536 131.378 274.919 108.502 276.686 105.655C276.686 105.655 276.75 103.009 276.644 99.6366C276.644 99.5085 276.644 99.3804 276.644 99.2495C276.955 99.4559 277.279 99.642 277.615 99.8065C279.243 100.64 281.112 100.88 282.899 100.486L281.501 98.9347C281.166 98.5643 280.816 98.1633 280.744 97.6731C280.671 97.1829 280.872 96.7457 281.046 96.3084C282.374 92.9663 282.444 88.7636 279.885 86.2125C277.724 84.0679 277.198 81.2996 274.852 79.3416C273.138 77.9073 272.195 75.8046 271.306 73.7715C270.554 72.0531 269.796 70.3207 269.366 68.4993C269.03 67.0761 268.896 65.6028 268.434 64.213C267.973 62.8233 267.109 61.4725 265.758 60.8514C265.277 60.6314 264.743 60.5061 264.304 60.2136C263.728 59.8265 263.381 59.1971 262.965 58.6457C260.848 55.8606 253.759 57.501 250.404 58.6317C249.492 58.9165 248.647 59.3826 247.921 60.002L247.952 59.9519C247.977 59.9101 248.008 59.8683 248.035 59.8265C247.668 60.1223 247.351 60.475 247.096 60.8709C246.607 61.6424 246.402 62.542 245.994 63.3775C245.502 64.3662 242.765 67.1262 243.942 68.2375C244.024 68.3121 244.119 68.3724 244.221 68.4157C244.663 68.5989 245.15 68.6474 245.62 68.555L245.569 68.6747C245.167 69.6552 244.961 70.7043 244.962 71.7634C244.962 76.3393 248.751 80.0491 253.43 80.0491C254.309 80.0499 255.183 79.9156 256.022 79.6508C256.041 79.7566 256.058 79.8625 256.078 79.9683C256.078 80.0101 256.092 80.0518 256.097 80.0936L255.949 80.2997C255.942 80.287 255.933 80.2749 255.924 80.2635L251.534 86.374C250.863 86.8447 246.998 89.6298 246.78 91.7186C246.551 94.0051 246.321 96.6816 246.321 96.6816L246.291 97.2553C246.099 97.415 245.874 97.5313 245.633 97.5962C245.392 97.6612 245.139 97.6731 244.892 97.6313C243.522 97.4085 243.522 102.644 243.522 102.644C243.522 102.644 242.611 103.48 241.984 102.756C241.358 102.032 239.703 104.485 239.703 104.485L229.328 104.931L229.091 104.945L228.531 103.221C228.471 103.039 228.341 102.888 228.17 102.801C227.999 102.714 227.8 102.698 227.617 102.756C227.574 102.77 227.532 102.788 227.491 102.809L227.452 102.831L227.379 102.881L227.343 102.915C227.323 102.933 227.304 102.952 227.287 102.973L227.254 103.012L227.237 103.029C227.172 103.118 227.129 103.22 227.112 103.329C227.094 103.437 227.103 103.548 227.136 103.653L227.617 105.132C225.615 105.533 223.568 106.663 225.237 109.777L216.776 108.22L219.513 110.51L233.646 113.414C233.458 113.749 233.582 114.233 234.166 114.916C236.683 117.859 241.268 118.659 243.114 118.865C243.601 119.951 244.21 120.978 244.929 121.928L244.769 124.861C244.769 124.861 240.097 147.214 239.241 148.348C239.673 147.86 240.068 147.342 240.424 146.796C239.068 151.389 237.172 157.675 236.674 158.616C235.874 160.12 235.133 166.206 236.045 166.596C236.325 166.715 237.124 166.657 238.265 166.571V167.075L238.215 186.178C238.215 186.178 238.444 197.895 237.815 199.011C237.186 200.128 237.018 202.47 237.018 202.47C237.018 202.47 234.501 207.091 232.508 208.949C232.494 208.963 232.479 208.976 232.463 208.988L232.401 208.553C232.401 208.553 230.005 211.566 224.703 211.397C224.703 211.397 221.513 213.463 226.244 213.575C230.975 213.686 237.018 213.407 237.018 213.407C237.018 213.407 241.238 207.002 244.772 207.837V212.692H245.854V207.759C246.356 207.43 246.786 207.003 247.117 206.504C247.448 206.004 247.674 205.443 247.781 204.854C247.874 204.247 247.806 203.627 247.584 203.054C247.363 202.481 246.995 201.976 246.517 201.588C246.303 201.394 246.13 201.159 246.012 200.896C245.893 200.634 245.83 200.349 245.826 200.061L245.787 200.095C245.787 199.997 245.762 199.897 245.751 199.794C245.441 197.287 245.052 192.115 246.425 188.289C248.307 183.042 248.877 175.734 247.507 171.383C247.065 169.993 246.702 168.578 246.419 167.147C246.386 166.966 246.355 166.793 246.327 166.632C247.264 166.758 248.191 166.944 249.104 167.189C252.277 168.061 259.221 168.222 265.149 168.175C265.163 168.336 265.179 168.506 265.199 168.676C265.305 169.857 265.526 171.025 265.859 172.163C266.603 174.391 266.944 184.214 266.944 184.214C266.944 184.214 267.903 192.291 267.38 195.577C267.101 197.404 266.821 199.24 266.662 201.083V201.12C266.662 201.12 265.09 205.576 263.941 207.996C263.913 208.057 263.882 208.119 263.854 208.177C263.548 208.205 263.246 208.271 262.956 208.375C262.956 208.375 261.416 211.438 259.881 211.945C258.345 212.452 258.854 214.12 262.33 213.508C265.806 212.895 271.054 212.394 271.054 212.394L271.281 209.269L272.349 207.938L272.07 211.054L273.208 210.831L273.057 207.041L274.804 204.863C274.804 204.863 276.915 202.991 273.778 199.309V199.39C273.744 199.337 273.714 199.281 273.677 199.229V199.212C273.157 198.41 272.743 196.914 273.501 194.26C274.871 189.464 275.668 185.111 275.668 185.111C275.668 185.111 278.727 173.45 275.05 167.933H275.213C274.836 167.156 274.569 166.331 274.421 165.482C274.403 165.381 274.386 165.278 274.371 165.173C277.092 165.017 279.762 164.526 281.94 163.468C281.932 163.457 280.621 135.784 279.536 131.378ZM244.993 112.078V112.133L244.434 112.161L244.993 112.078ZM243.075 112.342C242.983 112.362 242.897 112.403 242.823 112.462C242.583 112.801 242.432 113.194 242.384 113.607L241.512 113.412C241.512 113.412 240.899 113.281 240.019 113.133L239.602 112.715C240.748 112.621 241.94 112.481 243.075 112.342Z" fill="url(#paint1_linear_294_701)"/>
<path d="M271.941 207.08L271.608 211.026L272.724 210.804L272.556 206.523L271.941 207.08Z" fill="#1D2366"/>
<path d="M246.486 188.341C245.141 192.157 245.522 197.306 245.824 199.807C245.936 200.732 246.039 201.295 246.039 201.295C246.039 201.295 244.028 205.857 243.861 206.029C243.693 206.202 237.944 209.697 237.944 209.697L233.926 212.034C233.926 212.034 229.849 210.254 231.803 209.642C232.203 209.482 232.562 209.238 232.857 208.926C234.815 207.074 237.273 202.47 237.273 202.47C237.273 202.47 237.44 200.133 238.056 199.022C238.671 197.911 238.447 186.233 238.447 186.233L238.495 167.197V164.715L246.142 164.771C246.191 165.613 246.301 166.451 246.472 167.278C246.747 168.704 247.103 170.114 247.538 171.5C248.886 175.842 248.326 183.114 246.486 188.341Z" fill="#FFB0B1"/>
<path opacity="0.1" d="M246.039 201.295C246.039 201.295 244.029 205.857 243.861 206.029C243.693 206.202 237.944 209.697 237.944 209.697L233.926 212.034C233.926 212.034 229.849 210.254 231.803 209.642C232.203 209.482 232.562 209.238 232.857 208.926L233.031 210.143L234.37 210.087L245.835 199.813C245.936 200.732 246.039 201.295 246.039 201.295Z" fill="black"/>
<path d="M245.899 200.073L234.37 210.417L233.031 210.472L232.751 208.523C232.751 208.523 230.408 211.525 225.201 211.358C225.201 211.358 222.075 213.416 226.708 213.527C231.342 213.639 237.259 213.36 237.259 213.36C237.259 213.36 241.392 206.955 244.851 207.79V212.628H245.913V207.746C246.407 207.414 246.829 206.987 247.153 206.489C247.477 205.991 247.696 205.434 247.798 204.849C247.89 204.247 247.825 203.632 247.609 203.062C247.393 202.492 247.033 201.987 246.565 201.596C246.355 201.401 246.188 201.165 246.074 200.903C245.96 200.641 245.9 200.358 245.899 200.073Z" fill="#1D2366"/>
<path d="M273.003 194.29C272.26 196.936 272.665 198.426 273.174 199.225V199.242C273.827 200.229 274.281 201.333 274.511 202.492L274.555 202.743L269.31 210.36L266.463 211.474C266.463 211.474 261.885 209.917 262.721 209.472C262.931 209.363 263.258 208.784 263.633 207.984C264.752 205.575 266.295 201.13 266.295 201.13V201.094C266.457 199.259 266.715 197.429 267 195.607C267.512 192.329 266.572 184.283 266.572 184.283C266.572 184.283 266.236 174.499 265.509 172.274C265.181 171.143 264.963 169.982 264.858 168.809C264.707 167.417 264.673 166.269 264.673 166.269C264.673 166.269 267.688 162.092 273.213 166.604C273.655 166.963 274.044 167.383 274.368 167.851C278.185 173.26 275.112 185.175 275.112 185.175C275.112 185.175 274.343 189.508 273.003 194.29Z" fill="#FFB0B1"/>
<path opacity="0.1" d="M274.564 202.744L269.318 210.361L266.471 211.475C266.471 211.475 261.894 209.918 262.73 209.472C262.94 209.364 263.267 208.784 263.642 207.985C265.579 207.968 266.583 209.807 266.583 209.807L269.038 209.417C269.038 209.417 272.276 203.078 273.003 202.691C273.731 202.304 273.115 199.797 273.115 199.797V199.159C273.135 199.181 273.152 199.207 273.174 199.229V199.246C273.827 200.232 274.281 201.336 274.511 202.496L274.564 202.744Z" fill="black"/>
<path d="M266.751 209.97C266.751 209.97 265.353 207.414 262.674 208.358C262.674 208.358 261.167 211.422 259.66 211.917C258.153 212.413 258.656 214.084 262.062 213.474C265.468 212.864 270.602 212.36 270.602 212.36L270.825 209.244L274.287 204.851C274.287 204.851 276.351 202.988 273.28 199.32V199.958C273.28 199.958 273.896 202.465 273.169 202.852C272.442 203.239 269.215 209.581 269.215 209.581L266.751 209.97Z" fill="#1D2366"/>
<path opacity="0.1" d="M246.151 164.766C246.199 165.608 246.309 166.446 246.481 167.272C243.332 166.813 240.41 167.041 238.495 167.191V164.71L246.151 164.766Z" fill="black"/>
<path opacity="0.1" d="M274.678 168.546C274.678 168.546 270.204 168.763 264.869 168.807C264.718 167.415 264.685 166.267 264.685 166.267C264.685 166.267 267.699 162.09 273.224 166.602C273.666 166.961 274.055 167.381 274.379 167.849C274.466 168.087 274.566 168.319 274.678 168.546Z" fill="black"/>
<path d="M274.678 168.045C274.678 168.045 255.082 168.989 249.109 167.321C243.136 165.652 237.217 167.098 236.325 166.711C235.433 166.323 236.157 160.26 236.94 158.759C237.723 157.258 242.018 142.076 242.018 142.076L246.151 120.615L250.505 119.42L250.812 119.333L258.399 117.25L263.958 115.721C263.958 115.721 275.011 158.703 274.063 161.873C273.719 163.087 273.664 164.363 273.901 165.602C274.046 166.448 274.308 167.27 274.678 168.045Z" fill="#1D2366"/>
<path d="M231.744 105.936C231.744 105.936 227.83 110.114 230.794 112.442C233.758 114.77 235.707 112.665 235.707 112.665L231.744 105.936Z" fill="#C7DAF5"/>
<path opacity="0.1" d="M231.744 105.936C231.744 105.936 227.83 110.114 230.794 112.442C233.758 114.77 235.707 112.665 235.707 112.665L231.744 105.936Z" fill="black"/>
<path d="M263.373 78.4697C263.373 78.4697 262.915 78.9042 262.224 79.5447C261.24 80.461 259.783 81.8006 258.491 82.923C256.701 84.4743 255.225 85.6134 255.753 84.6414C256.282 83.6694 256.181 81.9761 255.918 80.3914C255.899 80.2856 255.882 80.1797 255.862 80.0767C255.645 78.9128 255.356 77.7633 254.998 76.6343C254.998 76.6343 257.89 72.9134 259.489 71.4457C260.085 70.8887 260.501 70.6603 260.527 71.0474C260.554 71.5682 260.946 72.7185 261.433 73.9383C261.446 73.9773 261.46 74.0135 261.477 74.0525C261.802 74.8881 262.168 75.7459 262.49 76.4867C262.982 77.623 263.373 78.4697 263.373 78.4697Z" fill="#FFB0B1"/>
<path opacity="0.1" d="M261.477 74.0529C261.206 75.5085 260.546 76.8647 259.568 77.9798C258.591 79.0949 257.33 79.9279 255.918 80.3918C255.696 79.1204 255.389 77.8653 254.998 76.6347C254.998 76.6347 260.443 69.6302 260.527 71.0478C260.546 71.5853 260.971 72.7774 261.477 74.0529Z" fill="black"/>
<path opacity="0.1" d="M255.376 82.2634L256.08 81.2747C256.08 81.2747 256.547 84.1099 258.264 82.8594C259.981 81.6089 260.065 92.2702 260.065 92.2702L258.222 119.712L244.906 118.918L245.284 105.658L246.791 98.9739L250.519 89.2567L252.736 86.0455L255.376 82.2634Z" fill="black"/>
<path d="M260.065 92.4399L258.387 117.252L258.211 119.881L250.787 119.439L250.507 119.422L244.915 119.088L245.292 105.825L246.8 99.1408L250.527 89.4236L252.744 86.2124L255.384 82.4163L256.089 81.4304C256.089 81.4304 256.556 84.2656 258.273 83.0151L258.309 82.9901C259.987 81.9317 260.065 92.4399 260.065 92.4399Z" fill="#1D2366"/>
<path d="M246.987 96.8181C246.987 96.8181 246.319 98.2107 244.976 97.9851C243.634 97.7595 243.637 102.998 243.637 102.998C243.637 102.998 242.745 103.834 242.13 103.11C241.515 102.386 239.893 104.834 239.893 104.834L229.731 105.279C229.731 105.279 234.253 107.337 233.366 113.565C233.366 113.565 248.718 112.618 249.221 111.172C249.725 109.727 246.987 96.8181 246.987 96.8181Z" fill="white"/>
<path opacity="0.03" d="M246.987 96.8181C246.987 96.8181 246.319 98.2107 244.976 97.9851C243.634 97.7595 243.637 102.998 243.637 102.998C243.637 102.998 242.745 103.834 242.13 103.11C241.515 102.386 239.893 104.834 239.893 104.834L229.731 105.279C229.731 105.279 234.253 107.337 233.366 113.565C233.366 113.565 248.718 112.618 249.221 111.172C249.725 109.727 246.987 96.8181 246.987 96.8181Z" fill="black"/>
<path d="M217.455 108.551L220.134 110.829L242.186 115.444L239.451 112.665L217.455 108.551Z" fill="white"/>
<path d="M255.418 83.1402C255.051 83.6972 254.003 86.5491 253.127 89.039C252.398 91.1139 251.788 92.9381 251.788 92.9381C251.788 92.9381 250.365 102.168 249.638 103.836C248.911 105.504 249.305 112.01 249.305 112.01L246.595 128.078C246.595 128.078 245.368 136.363 243.472 141.312C241.601 146.183 239.518 148.467 239.454 148.54C240.293 147.409 244.864 125.145 244.864 125.145L246.374 97.0656C246.374 97.0656 246.595 94.3975 246.819 92.1165C247.043 89.8355 251.573 86.7218 251.573 86.7218L255.94 80.5361C256.38 81.121 256.086 82.1403 255.418 83.1402Z" fill="white"/>
<path d="M244.028 119.227C244.028 119.227 237.597 118.949 234.482 115.222C231.367 111.496 241.682 113.735 241.682 113.735L244.364 114.348L244.028 119.227Z" fill="#FFB0B1"/>
<path opacity="0.1" d="M274.063 161.875C273.719 163.089 273.663 164.365 273.901 165.604C266.885 166.1 259.38 164.212 259.38 164.212C257.982 165.493 254.299 167.381 254.299 167.381L252.291 142.594C251.008 139.252 250.505 121.742 250.505 121.742C250.505 121.742 250.619 120.826 250.784 119.452C250.784 119.419 250.784 119.383 250.798 119.349C251.299 115.514 252.291 108.315 252.778 107.343C253.449 106.006 250.714 102.45 250.714 102.45L251.959 91.8801L252.11 90.6046C254.733 89.4376 256.743 85.7112 256.743 85.7112L258.287 83.018C259.964 81.9457 260.051 92.4539 260.051 92.4539L258.373 117.266L263.932 115.737C263.932 115.737 275.011 158.705 274.063 161.875Z" fill="black"/>
<path d="M281.264 163.588C273.616 167.37 259.716 163.867 259.716 163.867C258.317 165.148 254.635 167.036 254.635 167.036L252.624 142.249C251.343 138.907 250.84 121.397 250.84 121.397C250.84 121.397 252.456 108.332 253.128 106.998C253.323 106.608 253.228 106.029 252.996 105.405C251.855 102.435 251.435 99.2394 251.771 96.0776L252.308 91.5351L252.456 90.2623C255.082 89.0926 257.093 85.3661 257.093 85.3661L258.491 82.9264L261.063 78.4313L262.283 76.3035L262.489 76.4901L264.069 77.916C264.069 77.916 264.74 78.4731 265.747 79.3086C267.937 81.1467 271.72 84.383 273.672 86.3632C275.389 88.1067 275.931 94.8883 276.088 99.9934C276.191 103.355 276.13 105.99 276.13 105.99C274.399 108.828 278.926 131.612 278.926 131.612C279.98 136.016 281.264 163.588 281.264 163.588Z" fill="white"/>
<path opacity="0.03" d="M266.583 85.3096C266.583 85.3096 261.335 95.2607 261.944 99.0429C262.554 102.825 264.287 107.106 263.451 108.106C263.164 108.484 262.793 108.792 262.366 109.004C261.94 109.216 261.47 109.327 260.993 109.328C260.155 109.384 257.918 110.941 257.918 111.108C257.918 111.275 255.851 111.275 254.003 112.055C252.154 112.835 249.425 113.277 249.425 113.277C249.425 113.277 244.112 113.11 243.617 113.612C243.122 114.113 242.613 117.113 243.673 119.505C244.733 121.897 245.91 123.683 246.8 124.008C247.689 124.334 253.332 122.452 257.909 122.006C262.487 121.56 267.456 117.948 267.456 117.948C267.456 117.948 272.928 115.998 273.887 112.72C274.846 109.442 272.715 91.4256 272.715 91.4256C272.715 91.4256 271.105 83.0286 266.583 85.3096Z" fill="black"/>
<path opacity="0.03" d="M265.912 84.4748C265.912 84.4748 260.663 94.4287 261.279 98.2081C261.894 101.987 263.622 106.271 262.783 107.274C262.497 107.653 262.126 107.961 261.7 108.173C261.274 108.385 260.804 108.496 260.328 108.496C259.489 108.552 257.252 110.109 257.252 110.276C257.252 110.443 255.186 110.443 253.337 111.22C251.489 111.997 248.76 112.443 248.76 112.443C248.76 112.443 243.447 112.276 242.955 112.777C242.462 113.278 241.948 116.281 243.011 118.67C244.073 121.06 245.248 122.848 246.137 123.174C247.026 123.499 252.669 121.617 257.246 121.174C261.824 120.731 266.793 117.113 266.793 117.113C266.793 117.113 272.262 115.164 273.21 111.888C274.158 108.613 272.039 90.5909 272.039 90.5909C272.039 90.5909 270.434 82.1966 265.912 84.4748Z" fill="black"/>
<path d="M266.418 84.8086C266.418 84.8086 261.17 94.7625 261.785 98.5419C262.4 102.321 264.128 106.605 263.292 107.605C263.006 107.985 262.635 108.293 262.208 108.506C261.782 108.719 261.311 108.83 260.834 108.83C259.995 108.886 257.758 110.443 257.758 110.607C257.758 110.771 255.695 110.774 253.843 111.554C251.992 112.334 249.266 112.777 249.266 112.777C249.266 112.777 243.953 112.609 243.458 113.111C242.963 113.612 242.454 116.614 243.514 119.004C244.574 121.394 245.751 123.182 246.64 123.507C247.529 123.833 253.172 121.951 257.75 121.505C262.327 121.059 267.296 117.447 267.296 117.447C267.296 117.447 272.769 115.498 273.728 112.219C274.687 108.941 272.57 90.9247 272.57 90.9247C272.57 90.9247 270.937 82.5416 266.418 84.8086Z" fill="white"/>
<path opacity="0.1" d="M266.304 111.507C266.304 111.507 262.109 110.671 263.569 112.064C265.029 113.456 265.02 114.676 266.807 114.621C268.594 114.565 266.304 111.507 266.304 111.507Z" fill="black"/>
<path opacity="0.1" d="M273.392 141.468C273.392 141.468 271.496 142.747 275.123 145.693C278.75 148.64 273.392 141.468 273.392 141.468Z" fill="black"/>
<path opacity="0.1" d="M269.774 151.977C269.774 152.144 269.103 158.104 271.614 159.594C274.125 161.084 269.774 151.977 269.774 151.977Z" fill="black"/>
<path d="M229.904 105.266C227.88 105.335 223.507 105.951 225.774 110.165C227.779 113.894 231.149 111.401 233.045 109.51C232.582 107.747 231.458 106.228 229.904 105.266Z" fill="#FFB0B1"/>
<path d="M233.07 109.474L233.152 109.39L233.07 109.474Z" fill="#FFB0B1"/>
<path opacity="0.1" d="M265.747 79.4777C263.6 80.9399 261.799 82.1737 261.446 82.4299C260.485 83.1401 258.65 87.3094 257.467 89.4372C256.525 91.15 253.463 91.5901 252.308 91.6987L252.456 90.4259C255.082 89.2562 257.093 85.5297 257.093 85.5297L262.283 76.467L264.069 78.0852C264.069 78.0852 264.74 78.6422 265.747 79.4777Z" fill="black"/>
<path d="M265.747 79.3115C263.6 80.7736 261.799 82.0074 261.446 82.2664C260.485 82.9739 258.65 87.1431 257.467 89.2709C256.525 90.9838 253.463 91.4238 252.308 91.5324L252.456 90.2596C255.082 89.0899 257.093 85.3635 257.093 85.3635L262.283 76.3008L264.069 77.9133C264.069 77.9133 264.74 78.4648 265.747 79.3115Z" fill="#DCE7FF"/>
<path d="M261.614 72.215C261.616 73.8868 261.106 75.5196 260.155 76.8967C259.031 78.5249 257.358 79.6979 255.44 80.2028C253.521 80.7077 251.485 80.511 249.7 79.6484C247.915 78.7858 246.5 77.3146 245.711 75.5015C244.922 73.6885 244.812 71.6538 245.4 69.7666C245.988 67.8795 247.236 66.265 248.918 65.216C250.599 64.1669 252.602 63.753 254.564 64.0492C256.525 64.3453 258.315 65.3321 259.609 66.8303C260.902 68.3285 261.614 70.2389 261.614 72.215Z" fill="#FFB0B1"/>
<path opacity="0.1" d="M276.088 99.996C274.952 99.3003 274.027 98.3108 273.412 97.1329C272.945 96.2139 272.634 95.1527 271.837 94.501C271.119 93.9162 270.16 93.7741 269.265 93.5123C266.323 92.6462 263.857 89.9725 263.765 86.92C263.72 85.4829 264.17 84.0486 263.966 82.6254C263.85 81.8199 263.528 81.0576 263.032 80.4113C262.786 80.1021 262.515 79.8125 262.224 79.5451C261.832 79.1775 261.421 78.821 261.063 78.4311C260.838 78.1896 260.641 77.9233 260.476 77.6373C260.343 77.4033 260.235 77.1559 260.155 76.8993C259.595 75.1948 260.104 73.1728 259.489 71.4489L259.456 71.3542C259.223 70.7414 258.751 70.1287 258.094 70.0814C257.437 70.034 256.875 70.5771 256.248 70.8194C254.937 71.3263 253.522 70.4629 252.428 69.5828C251.335 68.7028 250.102 67.6973 248.712 67.8923C247.792 68.0232 247.065 68.647 246.218 68.9701C246.027 69.0439 245.829 69.1007 245.628 69.14C246.345 67.359 247.662 65.8822 249.354 64.9635C251.045 64.0448 253.005 63.7415 254.897 64.1056C256.788 64.4698 258.493 65.4787 259.719 66.959C260.945 68.4393 261.615 70.2986 261.614 72.2175C261.615 72.797 261.554 73.3749 261.432 73.9415C261.446 73.9805 261.46 74.0167 261.477 74.0557C261.802 74.8912 262.168 75.749 262.489 76.4899L264.069 77.9158C264.069 77.9158 264.74 78.4728 265.747 79.3084C267.937 81.1465 271.72 84.3828 273.672 86.363C275.389 88.112 275.926 94.891 276.088 99.996Z" fill="black"/>
<path d="M246.12 63.8816C246.52 63.0712 246.719 62.1632 247.197 61.3945C247.899 60.2805 249.123 59.5675 250.382 59.1358C253.667 58.0079 260.61 56.3702 262.685 59.1358C263.094 59.6928 263.432 60.3111 263.997 60.6955C264.427 60.9879 264.947 61.1132 265.42 61.3333C266.743 61.9515 267.587 63.2995 268.037 64.6754C268.488 66.0512 268.622 67.5273 268.952 68.9449C269.374 70.7636 270.115 72.4875 270.853 74.2004C271.723 76.2223 272.646 78.3195 274.323 79.7483C276.614 81.6978 277.12 84.4579 279.245 86.5968C281.762 89.1368 281.68 93.3284 280.383 96.6565C280.212 97.0938 280.019 97.5506 280.087 98.0157C280.154 98.4808 280.5 98.9041 280.828 99.2745L282.203 100.82C278.948 101.603 275.266 99.9095 273.75 96.9378C273.283 96.0188 272.973 94.9604 272.173 94.3059C271.457 93.7211 270.495 93.5818 269.603 93.32C266.662 92.4511 264.195 89.7746 264.103 86.7221C264.058 85.2878 264.508 83.8535 264.304 82.4331C264.191 81.6222 263.868 80.8545 263.368 80.205C262.599 79.2052 261.438 78.534 260.812 77.4199C259.752 75.5567 260.557 73.1365 259.794 71.1368C259.559 70.524 259.089 69.9113 258.432 69.864C257.775 69.8166 257.213 70.3597 256.584 70.602C255.275 71.1089 253.86 70.2483 252.767 69.3655C251.674 68.4826 250.44 67.4799 249.048 67.6777C248.128 67.8058 247.404 68.4297 246.556 68.7555C245.93 68.995 244.66 69.2095 244.112 68.6831C242.955 67.622 245.636 64.8731 246.12 63.8816Z" fill="#591D4B"/>
<path opacity="0.1" d="M274.528 96.0189C274.058 95.0998 273.75 94.0415 272.95 93.3898C272.235 92.8049 271.273 92.6629 270.378 92.4011C267.439 91.5349 264.973 88.8584 264.878 85.806C264.833 84.3717 265.283 82.9345 265.082 81.5141C264.965 80.7085 264.642 79.9462 264.145 79.3C263.373 78.3002 262.213 77.6289 261.589 76.5149C260.529 74.6545 261.335 72.2342 260.569 70.2318C260.336 69.6218 259.864 69.0091 259.21 68.959C258.555 68.9088 257.988 69.4575 257.361 69.6998C256.053 70.2067 254.635 69.3433 253.544 68.4632C252.454 67.5831 251.215 66.5777 249.825 66.7727C248.905 66.9036 248.178 67.5274 247.334 67.8505C246.707 68.09 245.435 68.3073 244.887 67.7809C243.735 66.6668 246.417 63.9235 246.897 62.9376C247.297 62.1244 247.496 61.2192 247.977 60.4505C248.002 60.4087 248.03 60.367 248.058 60.3252C247.698 60.622 247.388 60.9736 247.138 61.3668C246.66 62.1355 246.461 63.0379 246.061 63.8539C245.578 64.8398 242.896 67.5915 244.051 68.6972C244.61 69.2263 245.868 69.0091 246.495 68.7696C247.334 68.4437 248.066 67.8199 248.986 67.6918C250.384 67.494 251.615 68.4994 252.705 69.3795C253.796 70.2596 255.222 71.123 256.525 70.6161C257.151 70.3738 257.7 69.8279 258.371 69.878C259.042 69.9282 259.489 70.5381 259.732 71.1508C260.496 73.1505 259.69 75.5708 260.75 77.434C261.377 78.5285 262.537 79.2137 263.306 80.2191C263.806 80.8686 264.129 81.6363 264.243 82.4472C264.447 83.8675 263.997 85.3019 264.041 86.7362C264.134 89.7998 266.6 92.4651 269.542 93.3341C270.428 93.5959 271.396 93.7351 272.112 94.32C272.914 94.9745 273.23 96.0328 273.689 96.9519C275.204 99.9236 278.887 101.617 282.142 100.834L281.493 100.105C278.672 100.146 275.817 98.5478 274.528 96.0189Z" fill="black"/>
<path opacity="0.1" d="M255.25 83.3075C254.884 83.8645 253.835 86.7164 252.96 89.2063C252.14 88.8888 251.397 86.864 251.397 86.864L255.764 80.6755C256.212 81.2883 255.918 82.3048 255.25 83.3075Z" fill="black"/>
<path d="M255.418 83.1408C255.051 83.6979 254.003 86.5498 253.128 89.0397C252.308 88.725 251.564 86.6974 251.564 86.6974L255.932 80.5117C256.38 81.1217 256.086 82.141 255.418 83.1408Z" fill="#DCE7FF"/>
<path d="M230.022 111.593L227.6 103.987C227.572 103.898 227.561 103.804 227.569 103.711C227.577 103.618 227.603 103.527 227.646 103.444C227.689 103.361 227.748 103.287 227.82 103.227C227.892 103.167 227.975 103.121 228.065 103.093C228.245 103.037 228.44 103.054 228.607 103.141C228.775 103.227 228.901 103.376 228.959 103.555L231.381 111.153L231.14 112.743L230.022 111.593Z" fill="#BE8B87"/>
<path opacity="0.1" d="M227.83 103.319C228.01 103.262 228.206 103.278 228.374 103.365C228.542 103.452 228.669 103.601 228.727 103.781L231.149 111.379L230.967 112.571L231.143 112.755L231.384 111.164L228.948 103.566C228.89 103.387 228.764 103.238 228.596 103.152C228.429 103.065 228.233 103.048 228.053 103.104C227.902 103.153 227.771 103.251 227.681 103.383C227.729 103.357 227.778 103.336 227.83 103.319Z" fill="white"/>
<path d="M230.022 111.593L231.381 111.164L231.182 112.467L231.14 112.754L230.743 112.342L230.022 111.593Z" fill="#EFC8C4"/>
<path d="M230.743 112.342C230.767 112.312 230.796 112.287 230.83 112.269C230.85 112.257 230.873 112.25 230.896 112.25C230.919 112.25 230.942 112.257 230.961 112.269C230.981 112.292 230.996 112.318 231.009 112.345C231.028 112.375 231.053 112.402 231.083 112.421C231.113 112.441 231.147 112.454 231.182 112.459L231.14 112.737L230.743 112.342Z" fill="#727A9C"/>
<path d="M227.586 106.688C227.586 106.688 232.443 106.661 231.3 108.719C230.156 110.777 228.369 111.025 228.369 111.025L227.586 106.688Z" fill="#FFB0B1"/>
<path d="M197.378 14.3208H197.168C188.824 14.3208 181.445 18.7185 177.2 25.2077C172.955 18.7185 165.576 14.3208 157.232 14.3208H157.022C150.76 14.3802 144.775 16.8987 140.367 21.3288C135.958 25.759 133.484 31.7429 133.48 37.9801C133.48 45.7255 136.886 56.7154 143.527 65.7586C156.181 82.9899 177.2 98.0656 177.2 98.0656C177.2 98.0656 198.22 82.9927 210.87 65.7586C217.514 56.7154 220.917 45.7255 220.917 37.9801C220.914 31.7434 218.44 25.7599 214.032 21.3298C209.624 16.8997 203.64 14.381 197.378 14.3208ZM194.378 67.0843C193.427 67.0807 192.5 66.791 191.718 66.2532C190.936 65.7154 190.336 64.9546 189.996 64.0708H185.007C184.679 64.0688 184.359 63.9646 184.093 63.7729C183.827 63.5812 183.627 63.3114 183.523 63.0014L181.99 58.4032L177.141 75.278C177.047 75.6029 176.849 75.8884 176.578 76.0918C176.307 76.2952 175.977 76.4055 175.637 76.406H175.539C175.185 76.3889 174.847 76.2513 174.583 76.0161C174.318 75.7809 174.142 75.4624 174.085 75.1137L169.088 45.1796L165.436 62.8927C165.353 63.2292 165.158 63.5281 164.884 63.7416C164.61 63.9552 164.272 64.0711 163.923 64.0708H156.896C156.686 64.0797 156.476 64.0461 156.278 63.9719C156.081 63.8977 155.901 63.7846 155.749 63.6393C155.596 63.494 155.475 63.3195 155.393 63.1263C155.31 62.9332 155.267 62.7254 155.267 62.5154C155.267 62.3054 155.31 62.0975 155.393 61.9044C155.475 61.7113 155.596 61.5368 155.749 61.3915C155.901 61.2461 156.081 61.133 156.278 61.0588C156.476 60.9847 156.686 60.951 156.896 60.9599H162.693L167.866 37.1446C167.951 36.7925 168.156 36.4807 168.446 36.2625C168.737 36.0444 169.094 35.9333 169.457 35.9485C169.82 35.9636 170.167 36.1039 170.438 36.3455C170.709 36.587 170.887 36.9148 170.942 37.2727L176.045 67.8084L180.391 52.7105C180.481 52.3925 180.673 52.1122 180.936 51.9114C181.2 51.7106 181.521 51.6001 181.853 51.5964H181.884C182.213 51.5965 182.533 51.7 182.799 51.892C183.065 52.0841 183.264 52.3549 183.366 52.6659L186.137 60.9682H189.934C190.204 60.1513 190.696 59.4245 191.354 58.8681C192.013 58.3117 192.813 57.9473 193.666 57.8152C194.519 57.6831 195.393 57.7884 196.19 58.1194C196.987 58.4505 197.677 58.9944 198.183 59.6912C198.689 60.3879 198.992 61.2105 199.059 62.068C199.125 62.9256 198.953 63.7847 198.56 64.5507C198.167 65.3167 197.569 65.9597 196.833 66.4087C196.096 66.8578 195.25 67.0954 194.386 67.0954L194.378 67.0843Z" fill="#63FFA5"/>
</g>
<defs>
<linearGradient id="paint0_linear_294_701" x1="99.6397" y1="215.808" x2="99.6397" y2="44.4305" gradientUnits="userSpaceOnUse">
<stop stop-color="#808080" stop-opacity="0.25"/>
<stop offset="0.54" stop-color="#808080" stop-opacity="0.12"/>
<stop offset="1" stop-color="#808080" stop-opacity="0.1"/>
</linearGradient>
<linearGradient id="paint1_linear_294_701" x1="62417.3" y1="129307" x2="62417.3" y2="41337.1" gradientUnits="userSpaceOnUse">
<stop stop-color="#808080" stop-opacity="0.25"/>
<stop offset="0.54" stop-color="#808080" stop-opacity="0.12"/>
<stop offset="1" stop-color="#808080" stop-opacity="0.1"/>
</linearGradient>
<clipPath id="clip0_294_701">
<rect width="309" height="218" fill="white"/>
</clipPath>
</defs>
</svg>
