<svg width="256" height="256" viewBox="0 0 256 256" fill="none" xmlns="http://www.w3.org/2000/svg">
<path d="M246.999 17.5H43.999V255.805H246.999V17.5Z" fill="#90D1F3"/>
<path d="M185.384 158.913H167.731V203.043H185.384V158.913Z" fill="#FCBF29"/>
<path d="M203.036 141.261H185.384V203.043H203.036V141.261Z" fill="#F28D01"/>
<path d="M220.688 167.739H203.036V203.044H220.688V167.739Z" fill="#FCBF29"/>
<path d="M97.0791 203.043C114.14 203.043 127.971 189.213 127.971 172.152C127.971 155.091 114.14 141.26 97.0791 141.26C80.0181 141.26 66.1875 155.091 66.1875 172.152C66.1875 189.213 80.0181 203.043 97.0791 203.043Z" fill="#FCBF29"/>
<path d="M154.449 39.7603H101.492V66.2384H154.449V39.7603Z" fill="#FCBF29"/>
<path d="M154.449 88.3042H101.492V114.782H154.449V88.3042Z" fill="#FCBF29"/>
<path opacity="0.5" d="M101.514 114.778V88.2998H114.753C114.753 102.925 126.606 114.778 141.231 114.778H101.514Z" fill="#F28D01"/>
<path opacity="0.5" d="M101.514 66.2345V39.7563H114.753C114.753 54.3811 126.606 66.2345 141.231 66.2345H101.514Z" fill="#F28D01"/>
<path d="M61.7972 79.4737V65.8859C78.6814 56.1375 84.4669 34.5443 74.7185 17.6601C64.9701 0.775807 43.3769 -5.01411 26.4927 4.73425C9.60839 14.4826 3.82297 36.0758 13.5713 52.9601C16.6693 58.3265 21.1262 62.7835 26.4927 65.8814V79.4692H61.7972V79.4737Z" fill="#FCBF29"/>
<path d="M61.7742 79.478H26.4697V97.1303H61.7742V79.478Z" fill="#591E00"/>
<path d="M44.122 97.1299H26.4697V128.021H44.122V97.1299Z" fill="#90D1F3"/>
<path opacity="0.5" d="M57.3837 57.4082C37.9044 57.4257 22.0972 41.645 22.0792 22.1657C22.0747 16.0318 23.6676 9.9989 26.7086 4.66797C9.77132 14.2708 3.8229 35.7845 13.4253 52.7263C16.5277 58.2027 21.0422 62.7442 26.4921 65.8861V79.4739H61.7966V65.8861C67.2025 62.7442 71.6865 58.2297 74.7929 52.7968C69.489 55.8198 63.4916 57.4082 57.3837 57.4082Z" fill="#F28D01"/>
<path d="M61.8183 97.1299H44.166V128.021H61.8183V97.1299Z" fill="#269BD8"/>
<path d="M26.4922 128.017H61.7967L44.1444 150.082L26.4922 128.017Z" fill="#0D529E"/>
<path d="M48.5798 48.5869H39.7539V79.4785H48.5798V48.5869Z" fill="white"/>
<path d="M44.1444 52.9954C42.9749 52.9954 41.8495 52.5319 41.0245 51.7024L27.7852 38.4631L34.0251 32.2231L44.1444 42.3425L54.2638 32.2231L60.5037 38.4631L47.2644 51.7024C46.4389 52.5279 45.3139 52.9909 44.1444 52.9954Z" fill="white"/>
<path d="M70.6442 216.282H61.8184V225.108H70.6442V216.282Z" fill="#591E00"/>
<path d="M132.383 216.282H79.4258V225.108H132.383V216.282Z" fill="#591E00"/>
<path d="M132.427 233.935H61.8184V242.76H132.427V233.935Z" fill="#591E00"/>
<path d="M167.731 216.282H158.905V225.108H167.731V216.282Z" fill="#591E00"/>
<path d="M229.514 216.282H176.558V225.108H229.514V216.282Z" fill="#591E00"/>
<path d="M229.514 233.935H158.905V242.76H229.514V233.935Z" fill="#591E00"/>
<path d="M176.557 39.7603H167.731V48.5861H176.557V39.7603Z" fill="#591E00"/>
<path d="M229.513 39.7603H185.383V48.5861H229.513V39.7603Z" fill="#591E00"/>
<path d="M229.514 57.4126H167.731V66.2385H229.514V57.4126Z" fill="#591E00"/>
<path d="M176.557 88.3042H167.731V97.1301H176.557V88.3042Z" fill="#591E00"/>
<path d="M229.513 88.3042H185.383V97.1301H229.513V88.3042Z" fill="#591E00"/>
<path d="M229.514 105.957H167.731V114.782H229.514V105.957Z" fill="#591E00"/>
<path opacity="0.5" d="M112.547 187.593C95.5034 187.611 81.6731 173.816 81.6551 156.773C81.6506 152.368 82.5861 148.017 84.4046 144.006C68.8443 150.996 61.8934 169.284 68.8883 184.844C75.8787 200.405 94.1664 207.355 109.727 200.361C116.624 197.263 122.145 191.742 125.243 184.844C121.254 186.653 116.929 187.589 112.547 187.593Z" fill="#F28D01"/>
<path d="M101.513 141.609C98.5919 141.137 95.609 141.137 92.6875 141.609V170.598L74.5938 193.238C76.6147 195.396 78.9362 197.254 81.4827 198.759L99.2229 176.561H127.639C128.111 173.639 128.111 170.656 127.639 167.735H101.513V141.609Z" fill="#591E00"/>
<path opacity="0.5" d="M220.666 203.039H167.71V176.561L220.666 189.8V203.039Z" fill="#F28D01"/>
</svg>
