<svg xmlns="http://www.w3.org/2000/svg" viewBox="0 0 911 337.71"><defs><style>.cls-1{fill:#ccc;}</style></defs><g id="Layer_2" data-name="Layer 2"><g id="Layer_1-2" data-name="Layer 1"><path class="cls-1" d="M126.64,226q-20.53,0-34-7.59a49.67,49.67,0,0,1-20.42-21.21q-6.93-13.61-7.59-31.7-.23-9.15-.23-19.64t.23-20.09q.66-18.07,7.59-31.7A49.78,49.78,0,0,1,92.6,72.87q13.5-7.58,34-7.59,15.4,0,27,4.25A56.4,56.4,0,0,1,173,80.91a49.83,49.83,0,0,1,11.72,16,49.19,49.19,0,0,1,4.47,18.2,3.76,3.76,0,0,1-1.23,3.34,4.9,4.9,0,0,1-3.46,1.34H172.18a5.53,5.53,0,0,1-3.46-1.11,6.89,6.89,0,0,1-2.12-4q-3.79-17.41-14.17-23.89t-25.79-6.47q-18.08,0-28.57,10.16T86.91,126.9q-.68,18.3,0,37.5.68,22.32,11.16,32.48T126.64,207q15.4,0,25.79-6.48t14.17-23.88a6.86,6.86,0,0,1,2.12-4,5.54,5.54,0,0,1,3.46-1.12h12.28a5.18,5.18,0,0,1,3.46,1.23,3.5,3.5,0,0,1,1.23,3.24,50.08,50.08,0,0,1-4.47,18.3A49.28,49.28,0,0,1,173,210.38a56.41,56.41,0,0,1-19.3,11.39Q142,226,126.64,226Z"/><path class="cls-1" d="M221.29,223.78a5,5,0,0,1-5.13-5.14V113.06a5.37,5.37,0,0,1,1.45-3.8,4.79,4.79,0,0,1,3.68-1.56h10.27a5.34,5.34,0,0,1,5.36,5.36v9.82a28.35,28.35,0,0,1,12.27-11.39q7.81-3.8,19-3.79h8.71a5,5,0,0,1,5.13,5.13V122a4.67,4.67,0,0,1-1.45,3.57,5.24,5.24,0,0,1-3.68,1.34h-13.4q-12,0-19,7T237.59,153v65.63a4.84,4.84,0,0,1-1.57,3.69,5.36,5.36,0,0,1-3.79,1.45Z"/><path class="cls-1" d="M331.56,226a45.78,45.78,0,0,1-20.31-4.46,39.32,39.32,0,0,1-14.73-12.06,28.29,28.29,0,0,1-5.58-17.19q0-15.41,12.5-24.55T336,155.69L369.29,151v-6.48q0-10.71-6.14-16.74t-20-6q-9.82,0-16.07,4a21.42,21.42,0,0,0-8.71,10.27,4.74,4.74,0,0,1-4.68,3.35h-10A4.52,4.52,0,0,1,300,138a5.18,5.18,0,0,1-1.23-3.46q0-3.36,2.57-8.26a33.75,33.75,0,0,1,7.92-9.6A45.6,45.6,0,0,1,323,108.7q8.37-3.23,20.43-3.23,13.39,0,22.54,3.46t14.4,9.26a35.42,35.42,0,0,1,7.59,13.17,49.14,49.14,0,0,1,2.34,15v72.32a5,5,0,0,1-5.13,5.14H374.87a4.88,4.88,0,0,1-3.79-1.45,5.21,5.21,0,0,1-1.34-3.69V209a41,41,0,0,1-7.82,7.93,41.48,41.48,0,0,1-12.27,6.47A55.44,55.44,0,0,1,331.56,226Zm4.69-16.74A36,36,0,0,0,353,205.36a27.8,27.8,0,0,0,11.94-12.16q4.35-8.26,4.35-20.76v-6.26L343.4,170q-15.86,2.24-23.89,7.48t-8,13.28a15,15,0,0,0,3.69,10.38,22.11,22.11,0,0,0,9.37,6.14A35,35,0,0,0,336.25,209.27Z"/><path class="cls-1" d="M469.29,226q-15.84,0-27.34-6.14a42.67,42.67,0,0,1-17.75-17.63q-6.24-11.51-6.69-27.57-.22-3.34-.23-8.93t.23-8.93q.44-16.08,6.69-27.57A42.75,42.75,0,0,1,442,111.6q11.49-6.13,27.34-6.13,12.94,0,22.22,3.57a47.27,47.27,0,0,1,15.29,9.15,38.87,38.87,0,0,1,9,12.05,32.16,32.16,0,0,1,3.24,12.28,3.93,3.93,0,0,1-1.34,3.57,5.62,5.62,0,0,1-3.8,1.34H503.23a4.86,4.86,0,0,1-3.35-1,10.45,10.45,0,0,1-2.23-3.46q-4-10.93-10.94-15.4t-17.19-4.47q-13.39,0-21.77,8.26t-9,26.57q-.22,8,0,15.62.68,18.54,9,26.68t21.77,8.15q10.26,0,17.19-4.47t10.94-15.4a12,12,0,0,1,2.23-3.57,4.52,4.52,0,0,1,3.35-1.12h10.71a5.39,5.39,0,0,1,3.8,1.45,4.22,4.22,0,0,1,1.34,3.68,32.58,32.58,0,0,1-2,9.6,37,37,0,0,1-5.7,9.94,41.54,41.54,0,0,1-9.71,8.93,49.72,49.72,0,0,1-13.84,6.25A66.39,66.39,0,0,1,469.29,226Z"/><path class="cls-1" d="M551,223.78a5,5,0,0,1-5.13-5.14V70.42A5,5,0,0,1,551,65.28h10.5a5,5,0,0,1,5.13,5.14V148.1l44-36.61a28.27,28.27,0,0,1,4.13-3,10.75,10.75,0,0,1,4.8-.78h11.83a4.56,4.56,0,0,1,4.68,4.69,4.62,4.62,0,0,1-.55,2,6.7,6.7,0,0,1-2.12,2.23L581.8,159.49,639,215.07c1.78,1.49,2.68,2.83,2.68,4a4.58,4.58,0,0,1-4.69,4.69H625.33a11.58,11.58,0,0,1-4.91-.78,19.87,19.87,0,0,1-4-3l-49.78-47.54v46.2a5,5,0,0,1-5.13,5.14Z"/><path class="cls-1" d="M701.9,226q-23.22,0-36.83-14.17t-15-38.74q-.23-2.9-.22-7.47c0-3,.07-5.55.22-7.48q.89-15.85,7.37-27.79a46,46,0,0,1,17.74-18.42q11.28-6.47,26.46-6.47,17,0,28.46,7.14a45.55,45.55,0,0,1,17.52,20.31q6,13.19,6,30.81v3.79a4.94,4.94,0,0,1-1.45,3.8,5.25,5.25,0,0,1-3.69,1.34H671.32v2a46.53,46.53,0,0,0,4,17.07,31.36,31.36,0,0,0,10.38,12.84,26.53,26.53,0,0,0,16,4.91A32.1,32.1,0,0,0,715.07,207a34.58,34.58,0,0,0,8.71-5.47,26.39,26.39,0,0,0,4.46-4.8,11.47,11.47,0,0,1,3.13-3.24,8.46,8.46,0,0,1,3.57-.56h10.94a5.15,5.15,0,0,1,3.45,1.23,3.74,3.74,0,0,1,1.23,3.46q-.22,3.34-3.57,8.15a43.81,43.81,0,0,1-9.49,9.49,51.91,51.91,0,0,1-15.18,7.7A64.33,64.33,0,0,1,701.9,226Zm-30.58-68.75h61.16v-.67a41.49,41.49,0,0,0-3.68-17.86,29.69,29.69,0,0,0-10.61-12.39,29.25,29.25,0,0,0-16.51-4.58,28.74,28.74,0,0,0-16.41,4.58,29.19,29.19,0,0,0-10.38,12.39,42.53,42.53,0,0,0-3.57,17.86Z"/><path class="cls-1" d="M785.61,223.78a5,5,0,0,1-5.14-5.14V113.06a5.38,5.38,0,0,1,1.46-3.8,4.79,4.79,0,0,1,3.68-1.56h10.27a5.34,5.34,0,0,1,5.36,5.36v9.82a28.35,28.35,0,0,1,12.27-11.39q7.82-3.8,19-3.79h8.7a5,5,0,0,1,5.14,5.13V122a4.67,4.67,0,0,1-1.45,3.57,5.25,5.25,0,0,1-3.69,1.34H827.8q-12.06,0-19,7T801.91,153v65.63a4.84,4.84,0,0,1-1.57,3.69,5.36,5.36,0,0,1-3.79,1.45Z"/><path class="cls-1" d="M210.68,308.34q-7.11,0-11.62-2.78a17.05,17.05,0,0,1-6.69-7.55,28.55,28.55,0,0,1-2.43-10.88q-.08-3.21-.08-6.89t.08-7a28.89,28.89,0,0,1,2.43-10.92,16.82,16.82,0,0,1,6.69-7.56q4.5-2.73,11.62-2.74a25.57,25.57,0,0,1,9.47,1.57,17.94,17.94,0,0,1,6.38,4.11,17.6,17.6,0,0,1,5.05,11.23,1.23,1.23,0,0,1-.43,1.14,1.85,1.85,0,0,1-1.21.43h-1.57a1.74,1.74,0,0,1-1.09-.36,1.92,1.92,0,0,1-.63-1.29q-1.49-7-5.6-9.55a19.14,19.14,0,0,0-10.37-2.58c-4.74,0-8.52,1.34-11.31,4s-4.29,7-4.5,12.88q-.23,6.42,0,13.15c.21,5.89,1.71,10.19,4.5,12.87s6.57,4,11.31,4a19.14,19.14,0,0,0,10.37-2.58q4.11-2.58,5.6-9.55a1.94,1.94,0,0,1,.63-1.29,1.8,1.8,0,0,1,1.09-.35h1.57a1.79,1.79,0,0,1,1.21.43,1.22,1.22,0,0,1,.43,1.13,17.59,17.59,0,0,1-5.05,11.24,18.06,18.06,0,0,1-6.38,4.1A25.37,25.37,0,0,1,210.68,308.34Z"/><path class="cls-1" d="M261.48,308.34a17.57,17.57,0,0,1-9.43-2.35,15.25,15.25,0,0,1-5.79-6.42,22,22,0,0,1-2.16-9.08c0-.78-.07-1.87-.07-3.28s0-2.51.07-3.29a21.94,21.94,0,0,1,2.16-9.12,15.38,15.38,0,0,1,5.79-6.38,20.1,20.1,0,0,1,18.86,0,15.47,15.47,0,0,1,5.8,6.38,21.94,21.94,0,0,1,2.15,9.12c.05.78.08,1.88.08,3.29s0,2.5-.08,3.28a22,22,0,0,1-2.15,9.08,15.34,15.34,0,0,1-5.8,6.42A17.57,17.57,0,0,1,261.48,308.34Zm0-4.54a11.91,11.91,0,0,0,8.92-3.52q3.45-3.52,3.68-10.18c.05-.78.08-1.74.08-2.89s0-2.12-.08-2.9q-.22-6.74-3.68-10.21a13.14,13.14,0,0,0-17.84,0q-3.45,3.48-3.68,10.21c0,.78-.08,1.75-.08,2.9s0,2.11.08,2.89q.24,6.66,3.68,10.18A11.91,11.91,0,0,0,261.48,303.8Z"/><path class="cls-1" d="M306.17,307.56a2.9,2.9,0,0,1-1.91-.55,3.78,3.78,0,0,1-1.06-1.41l-14.4-36.32a2.59,2.59,0,0,1-.16-.86,1.49,1.49,0,0,1,.47-1.09,1.48,1.48,0,0,1,1.1-.47h1.64a1.61,1.61,0,0,1,1.21.43,1.69,1.69,0,0,1,.51.74l13.23,33.81L320,268a3,3,0,0,1,.55-.74,1.49,1.49,0,0,1,1.17-.43h1.64a1.48,1.48,0,0,1,1.1.47,1.49,1.49,0,0,1,.47,1.09,2.59,2.59,0,0,1-.16.86L310.4,305.6a2.87,2.87,0,0,1-3,2Z"/><path class="cls-1" d="M338.89,258.48a1.62,1.62,0,0,1-1.72-1.72v-3a1.84,1.84,0,0,1,.47-1.29,1.61,1.61,0,0,1,1.25-.51h3a1.74,1.74,0,0,1,1.8,1.8v3a1.61,1.61,0,0,1-.51,1.25,1.84,1.84,0,0,1-1.29.47Zm.86,49.08a1.62,1.62,0,0,1-1.72-1.72V268.58a1.7,1.7,0,0,1,.47-1.25,1.66,1.66,0,0,1,1.25-.47h1.33a1.6,1.6,0,0,1,1.72,1.72v37.26a1.71,1.71,0,0,1-.46,1.25,1.74,1.74,0,0,1-1.26.47Z"/><path class="cls-1" d="M374.11,308.34a16.7,16.7,0,0,1-7.71-1.64,14.22,14.22,0,0,1-5.12-4.39,18.58,18.58,0,0,1-2.86-6.1,32.18,32.18,0,0,1-1.06-6.81c-.05-.78-.07-1.51-.07-2.19s0-1.41.07-2.2a32.19,32.19,0,0,1,1.06-6.8,18.63,18.63,0,0,1,2.86-6.11,14.1,14.1,0,0,1,5.12-4.38,16.57,16.57,0,0,1,7.71-1.65,16.12,16.12,0,0,1,8,1.8,16.47,16.47,0,0,1,5.12,4.39V253.71a1.74,1.74,0,0,1,.47-1.26A1.7,1.7,0,0,1,389,252h1.34a1.71,1.71,0,0,1,1.25.47,1.74,1.74,0,0,1,.47,1.26v52.13a1.62,1.62,0,0,1-1.72,1.72H389a1.62,1.62,0,0,1-1.72-1.72v-3.68a15.68,15.68,0,0,1-5.12,4.42A16.46,16.46,0,0,1,374.11,308.34Zm.47-4.54a11.43,11.43,0,0,0,7.2-2.11,12.74,12.74,0,0,0,4.07-5.29,17.36,17.36,0,0,0,1.41-6.38c.05-.78.08-1.8.08-3s0-2.27-.08-3.05a15.76,15.76,0,0,0-1.45-6.18,12.76,12.76,0,0,0-4.1-5.09,13.67,13.67,0,0,0-14.37,0,11.23,11.23,0,0,0-3.87,5.32,23.7,23.7,0,0,0-1.33,7c-.06,1.47-.06,2.93,0,4.39a23.7,23.7,0,0,0,1.33,7,11.26,11.26,0,0,0,3.87,5.33A11.8,11.8,0,0,0,374.58,303.8Z"/><path class="cls-1" d="M409.88,286.35a1.7,1.7,0,0,1-1.25-.47,1.72,1.72,0,0,1-.47-1.26v-1.09a1.7,1.7,0,0,1,.47-1.25,1.66,1.66,0,0,1,1.25-.47H433a1.62,1.62,0,0,1,1.72,1.72v1.09a1.62,1.62,0,0,1-1.72,1.73Z"/><path class="cls-1" d="M462.79,307.56a1.62,1.62,0,0,1-1.72-1.72V259.19l-14,10.8a1.79,1.79,0,0,1-1.29.39,1.62,1.62,0,0,1-1.13-.71l-.86-1.09a1.76,1.76,0,0,1-.4-1.29,1.65,1.65,0,0,1,.71-1.14l16.67-12.83a2.36,2.36,0,0,1,1-.47,5.37,5.37,0,0,1,1-.08h1.49a1.62,1.62,0,0,1,1.72,1.72v51.35a1.67,1.67,0,0,1-.47,1.25,1.7,1.7,0,0,1-1.25.47Z"/><path class="cls-1" d="M492,307.56a1.39,1.39,0,0,1-1.13-.51,1.82,1.82,0,0,1-.44-1.21,1.15,1.15,0,0,1,.16-.63c.11-.16.18-.29.24-.39l12.36-17.38a21.59,21.59,0,0,1-13.26-.94,16.62,16.62,0,0,1-5.8-4.19,17.65,17.65,0,0,1-3.44-5.79,18.9,18.9,0,0,1-1.14-6.45,19.27,19.27,0,0,1,1.14-6.5,17.72,17.72,0,0,1,3.44-5.83,16.62,16.62,0,0,1,5.8-4.19,22.07,22.07,0,0,1,16.35,0,17.07,17.07,0,0,1,5.84,4.19,17.49,17.49,0,0,1,3.48,5.83,19.51,19.51,0,0,1,1.13,6.5,18.61,18.61,0,0,1-.78,5.55A22.64,22.64,0,0,1,514.1,280c-.7,1.25-1.37,2.32-2,3.21L496,306c-.21.26-.48.59-.82,1a2,2,0,0,1-1.61.59Zm6.11-24.19a14.44,14.44,0,0,0,6.8-1.64,13.23,13.23,0,0,0,0-23.41,14.44,14.44,0,0,0-6.8-1.64,14.27,14.27,0,0,0-6.78,1.64,12.69,12.69,0,0,0-6.84,11.75,12.92,12.92,0,0,0,1.87,7,13.13,13.13,0,0,0,5,4.62A14.27,14.27,0,0,0,498.1,283.37Z"/><path class="cls-1" d="M568.07,307.56a1.7,1.7,0,0,1-1.25-.47,1.67,1.67,0,0,1-.47-1.25V257.46h-15.5a1.66,1.66,0,0,1-1.25-.47,1.7,1.7,0,0,1-.47-1.25v-1.17a1.8,1.8,0,0,1,.47-1.33,1.66,1.66,0,0,1,1.25-.47H586.7a1.77,1.77,0,0,1,1.33.47,1.8,1.8,0,0,1,.47,1.33v1.17A1.7,1.7,0,0,1,588,257a1.77,1.77,0,0,1-1.33.47H571.28v48.38a1.71,1.71,0,0,1-.47,1.25,1.81,1.81,0,0,1-1.33.47Z"/><path class="cls-1" d="M595.23,307.56a1.7,1.7,0,0,1-1.25-.47,1.67,1.67,0,0,1-.47-1.25V268.66a1.83,1.83,0,0,1,.47-1.3,1.64,1.64,0,0,1,1.25-.5h1.25a1.73,1.73,0,0,1,1.8,1.8v3.6a9,9,0,0,1,4.07-4.07,14.61,14.61,0,0,1,6.58-1.33h2.89a1.6,1.6,0,0,1,1.72,1.72v1.09a1.72,1.72,0,0,1-.46,1.26,1.74,1.74,0,0,1-1.26.47h-3.36a9.46,9.46,0,0,0-10.18,10.17v24.27a1.63,1.63,0,0,1-.51,1.25,1.84,1.84,0,0,1-1.29.47Z"/><path class="cls-1" d="M635,308.34a15.39,15.39,0,0,1-6.93-1.57,13.9,13.9,0,0,1-5.12-4.18,9.61,9.61,0,0,1-2-5.91,10.12,10.12,0,0,1,4.31-8.53A23.74,23.74,0,0,1,636.48,284l12.37-1.72v-2.74A8.52,8.52,0,0,0,646.3,273q-2.53-2.38-8.1-2.39a12,12,0,0,0-6.57,1.61,8.26,8.26,0,0,0-3.45,4.19,1.48,1.48,0,0,1-1.48,1.17h-1.26a1.58,1.58,0,0,1-1.33-.51,1.93,1.93,0,0,1-.39-1.21,6.41,6.41,0,0,1,.82-2.74,11.64,11.64,0,0,1,2.55-3.25,14.05,14.05,0,0,1,4.46-2.7,17.9,17.9,0,0,1,6.65-1.1,19.91,19.91,0,0,1,7.63,1.26,11.48,11.48,0,0,1,7.09,7.67,17,17,0,0,1,.7,4.77v26.07a1.62,1.62,0,0,1-1.72,1.72h-1.33a1.7,1.7,0,0,1-1.25-.47,1.67,1.67,0,0,1-.47-1.25v-3.68a13.29,13.29,0,0,1-2.67,2.81,14.83,14.83,0,0,1-4.42,2.39A20.11,20.11,0,0,1,635,308.34Zm.78-4.54a14,14,0,0,0,6.58-1.56,11.4,11.4,0,0,0,4.73-4.82,16.94,16.94,0,0,0,1.77-8.18v-2.66L638.75,288q-6.42.86-9.71,3t-3.28,5.33a6,6,0,0,0,1.48,4.22A9.14,9.14,0,0,0,631,303,14,14,0,0,0,635.77,303.8Z"/><path class="cls-1" d="M685.32,308.34a18.79,18.79,0,0,1-9.31-2.15,14.07,14.07,0,0,1-5.84-6.22,23.31,23.31,0,0,1-2.15-9.63c0-.79-.08-1.83-.08-3.13s0-2.35.08-3.13a23.17,23.17,0,0,1,2.15-9.67,14,14,0,0,1,5.84-6.18,18.69,18.69,0,0,1,9.31-2.16,20.22,20.22,0,0,1,7.16,1.14,14.83,14.83,0,0,1,5,3,13.13,13.13,0,0,1,3,4,11.33,11.33,0,0,1,1.09,4.31,1.36,1.36,0,0,1-.47,1.25,1.87,1.87,0,0,1-1.25.47h-1.09a1.57,1.57,0,0,1-1.14-.35,4.2,4.2,0,0,1-.74-1.29c-1.1-3-2.6-5.05-4.5-6.23a13.17,13.17,0,0,0-7-1.76,12.45,12.45,0,0,0-8.81,3.25q-3.48,3.25-3.71,10.61a45.54,45.54,0,0,0,0,5.48q.23,7.35,3.71,10.6a12.41,12.41,0,0,0,8.81,3.25,13.17,13.17,0,0,0,7-1.76q2.85-1.77,4.5-6.22a4,4,0,0,1,.74-1.29,1.53,1.53,0,0,1,1.14-.36h1.09a1.87,1.87,0,0,1,1.25.47,1.37,1.37,0,0,1,.47,1.25,11.77,11.77,0,0,1-.7,3.45,12.19,12.19,0,0,1-1.92,3.36,13.39,13.39,0,0,1-3.17,2.9,15.79,15.79,0,0,1-4.5,2A21.92,21.92,0,0,1,685.32,308.34Z"/><path class="cls-1" d="M717.57,307.56a1.6,1.6,0,0,1-1.72-1.72V253.71a1.6,1.6,0,0,1,1.72-1.73h1.33a1.7,1.7,0,0,1,1.25.47,1.74,1.74,0,0,1,.47,1.26v27.7l17.45-13.22a9.56,9.56,0,0,1,1.61-1.1,4.29,4.29,0,0,1,1.68-.23h1.49a1.48,1.48,0,0,1,1.56,1.56,1.88,1.88,0,0,1-.19.75,2.12,2.12,0,0,1-.82.82l-19.81,15,21.76,19.42q1,.93,1,1.56a1.54,1.54,0,0,1-.43,1.14,1.55,1.55,0,0,1-1.13.43h-1.26a5.12,5.12,0,0,1-1.68-.2,7,7,0,0,1-1.6-1.13l-19.65-17.46v17.07a1.62,1.62,0,0,1-1.72,1.72Z"/><path class="cls-1" d="M771,308.34q-7.59,0-12.06-5t-5.08-13c-.06-.79-.08-1.83-.08-3.13s0-2.35.08-3.13a24,24,0,0,1,2.5-9.4,15.82,15.82,0,0,1,5.83-6.34,16.62,16.62,0,0,1,8.81-2.27,17,17,0,0,1,9.31,2.43,15.69,15.69,0,0,1,5.91,7,25.82,25.82,0,0,1,2.08,10.8v1.17a1.61,1.61,0,0,1-.51,1.25,1.8,1.8,0,0,1-1.29.47H758.58V290a17.39,17.39,0,0,0,1.65,6.69,13.25,13.25,0,0,0,4.22,5.16,10.75,10.75,0,0,0,6.5,2,13.17,13.17,0,0,0,9.16-3.25,10.87,10.87,0,0,0,1.72-1.84,4,4,0,0,1,1.09-1.21,3,3,0,0,1,1.26-.2h1.25a1.85,1.85,0,0,1,1.21.43,1.23,1.23,0,0,1,.43,1.14,5.7,5.7,0,0,1-1.21,2.7,14.86,14.86,0,0,1-3.21,3.17,18.13,18.13,0,0,1-5,2.58A20.4,20.4,0,0,1,771,308.34Zm-12.37-23.56h24.89v-.31a16.27,16.27,0,0,0-1.48-7.05,11.67,11.67,0,0,0-11-6.81A11.44,11.44,0,0,0,760,277.42a16.55,16.55,0,0,0-1.45,7.05Z"/><path class="cls-1" d="M804.21,307.56a1.62,1.62,0,0,1-1.72-1.72V268.66a1.87,1.87,0,0,1,.47-1.3,1.64,1.64,0,0,1,1.25-.5h1.26a1.73,1.73,0,0,1,1.8,1.8v3.6a9,9,0,0,1,4.07-4.07,14.54,14.54,0,0,1,6.57-1.33h2.9a1.66,1.66,0,0,1,1.25.47,1.7,1.7,0,0,1,.47,1.25v1.09a1.72,1.72,0,0,1-.47,1.26,1.7,1.7,0,0,1-1.25.47h-3.37a9.46,9.46,0,0,0-10.17,10.17v24.27a1.63,1.63,0,0,1-.51,1.25,1.84,1.84,0,0,1-1.29.47Z"/><path class="cls-1" d="M176.87,58.19c-1.39,1.35-3.27,3.25-5,5.26A8.65,8.65,0,0,1,168.1,66a68.71,68.71,0,0,0-15.69-8q-13-4.74-30.17-4.74-22.92,0-38,8.47A55.56,55.56,0,0,0,61.42,85.44c-5.16,10.14-9.72,22.52-10.22,36-.17,7.15-.34,14.39-.34,22.2S51,159,51.2,165.8c.5,13.47,5.06,24.68,10.22,34.82a55.17,55.17,0,0,0,20,22,23.68,23.68,0,0,0,0,6.62,2.81,2.81,0,0,1-3.74,3,49,49,0,0,1-27.8-27c-2.27-2.66-3.51-2.79-6.41-1.07-6.43,3.8-4.32,2.14-7.67,9.21C32,221.49,24.11,224.82,15.87,223A20,20,0,0,1,.59,205.9c-1-7.9,3.69-16.26,11.19-19.72a17.23,17.23,0,0,1,8.75-1.2c7.79.6,10.65.36,16.8-3.7,1.85-1.23,1.73-10.53,1.17-11.95-1.56-15.86-1.65-39.37,0-54.54.34-3-1.45-2.93-3.21-3.26-7.08-1.34-14.17-1.09-21.28-.76a13.45,13.45,0,0,1-13.27-9,14.26,14.26,0,0,1,4-15.26c4.48-4,10.27-4.41,16.16-.75a107,107,0,0,0,18.42,9.34c2.59,1,3.64.53,4.66-2.18,5-13.18,10.26-23.94,20.73-33,2.44-2.13,2.44-3.72.9-6.42-3.84-6.67-8.58-11.94-15.55-15.52-8.48-4.36-11.87-14.83-8.71-23.8A18.24,18.24,0,0,1,62,2.24,19,19,0,0,1,77.52,21.59c-.37,8.45,3.07,15.19,7.19,22,1.35,2.22,2.85,1.89,4.66,1.12,13.2-5.61,40-4.54,54.25-2.75,2.77.35,3.46.65,3.78-1.76a101.77,101.77,0,0,0,.54-20.87c-.5-7.32,2.68-12.91,8.43-15.09a13.84,13.84,0,0,1,15,4.17c4.23,5,4.62,11.23.82,17.53a86.72,86.72,0,0,0-8.33,18.37c-.84,2.62-.34,3.93,2.3,5a95.21,95.21,0,0,1,10.25,5.42A2.24,2.24,0,0,1,176.87,58.19Z"/><path class="cls-1" d="M92.68,303.44c-2.2-4.24-4.35-8.5-5.31-13.23,0-2.82,0-5.63.08-8.45.76-4.81,3.43-8.88,5.14-13.33a19,19,0,0,0,5.32-5.64c4.49-1.26,8.26-4.5,13.12-4.75h9.53c4.88.29,8.73,3.32,13.13,4.9a15.57,15.57,0,0,0,5.27,5.46c.88,3.29,3.62,5.8,3.94,9.33a28.84,28.84,0,0,0-36,35.23c-3.41-.17-5.66-3.45-9.16-3.4C97,306.77,94.69,305.21,92.68,303.44Z"/><path class="cls-1" d="M106.92,313a28.84,28.84,0,0,1,36-35.23c.42,1.33.84,2.67,1.27,4q0,4.23.07,8.48c-.79,4.8-3,9.05-5.3,13.22-1.89,1.85-4.19,3.36-5.14,6-4.64,1.39-8.66,4.4-13.52,5.22h-9Z"/><path class="cls-1" d="M271,14.31c6.84-.5,11.77,3,16.21,7.62q1.21,4.16,2.41,8.31c-.22,3.92-.26,7.9-3.27,11a24,24,0,0,1-1.18-3.33c-.89-4.43-4-6.54-8-7.64s-7.18.77-9.93,3.66c-3.93,4.15-2.25,8.88-1.6,13.52-4.26-.42-5.91-4.64-9.25-6.39L254.49,33c0-6.87,3.13-12.16,8.25-16.46C265.42,15.56,268,14.12,271,14.31Z"/><path class="cls-1" d="M869.63,305a21.6,21.6,0,0,1-7.7-17.2c.75-2.48,1.49-5,2.24-7.44,5.11-4.54,10.6-8.23,17.9-7.71l7.66,2.63c2,3.07,5.58,5.18,6.11,9.26-2.18-.36-4.35-.91-6.54-1.05-6.1-.37-9.15,1.7-10.86,7.09-1.51,4.77.31,9.3,5,12.19,1.44.89,3,1.62,4.47,2.42-2.89,2.46-6.35,2.48-9.85,2.32C875,307.46,872.33,306.21,869.63,305Z"/><path class="cls-1" d="M265.63,47.45c-.65-4.64-2.33-9.37,1.6-13.52,2.75-2.89,5.83-4.8,9.93-3.66s7.1,3.21,8,7.64a24,24,0,0,0,1.18,3.33c-.62,2.39-2.53,3.69-4.34,5.06-2.44,1.77-5.43,2.18-8.13,3.31Z"/><path class="cls-1" d="M887.88,305.22c-1.49-.8-3-1.53-4.47-2.42-4.66-2.89-6.48-7.42-5-12.19,1.71-5.39,4.76-7.46,10.86-7.09,2.19.14,4.36.69,6.54,1.05,1.71,2.48,1.08,5.35,1.41,8.07-1.12,2.69-2.23,5.39-3.35,8.08C892.14,302.55,890.59,304.66,887.88,305.22Z"/><path class="cls-1" d="M120.56,258H111c1.13-5.77.25-11.61.55-17.42.15-3,.43-6.25,4.51-6.07,3.67.16,3.9,3.17,4,6C120.33,246.4,119.59,252.24,120.56,258Z"/><path class="cls-1" d="M111.3,314.66h9c-.06,5.83-.11,11.66-.2,17.48,0,2.77-.64,5.39-4,5.55-3.74.18-4.41-2.6-4.48-5.57C111.47,326.31,111.4,320.48,111.3,314.66Z"/><path class="cls-1" d="M133.8,309.45c.95-2.66,3.25-4.17,5.14-6,4.14,4.08,8.3,8.14,12.42,12.23,2.17,2.15,3.4,4.6.76,7.09-2.49,2.34-4.76.89-6.66-1.13C141.62,317.52,137.11,314.05,133.8,309.45Z"/><path class="cls-1" d="M92.68,303.44c2,1.77,4.27,3.33,5.08,6.11-4.13,4.28-8.21,8.62-12.42,12.83-1.76,1.76-3.93,2.26-5.91.35-2.14-2.07-1.75-4.38.17-6.33C83.89,312,88.31,307.75,92.68,303.44Z"/><path class="cls-1" d="M139,268.39a15.57,15.57,0,0,1-5.27-5.46c4.16-4.3,8.3-8.62,12.49-12.88,1.8-1.82,4-2.3,5.95-.5,2.21,2,1.62,4.38-.31,6.31C147.58,260.09,143.25,264.22,139,268.39Z"/><path class="cls-1" d="M97.91,262.79a19,19,0,0,1-5.32,5.64C88.31,264.29,84,260.18,79.77,256c-1.92-1.9-2.59-4.21-.57-6.33s4.37-1.65,6.31.3C89.69,254.19,93.78,258.51,97.91,262.79Z"/><path class="cls-1" d="M144.24,290.21q0-4.24-.07-8.48c5.8,0,11.61.09,17.42.1,3,0,5.81.68,5.85,4.2s-2.76,4.21-5.78,4.19C155.85,290.17,150.05,290.21,144.24,290.21Z"/><path class="cls-1" d="M87.45,281.76c0,2.82-.06,5.63-.08,8.45-6,0-12,0-17.94,0-2.93,0-5.3-1-5.27-4.18s2.48-4.17,5.35-4.19Z"/><path class="cls-1" d="M893.9,300.72c1.12-2.69,2.23-5.39,3.35-8.08,3.21,1.17,6.42,2.32,9.62,3.51,2.83,1.05,5.09,2.67,3.71,6.07-1.25,3.09-3.83,2.78-6.51,1.88C900.69,303,897.55,301.08,893.9,300.72Z"/><path class="cls-1" d="M273.86,49.61c2.7-1.13,5.69-1.54,8.13-3.31.1,3.81,2,7.13,2.94,10.7.73,2.74.57,5.22-2.6,6.15-2.84.83-4.49-.88-5.32-3.39C275.9,56.4,274.91,53,273.86,49.61Z"/><path class="cls-1" d="M271,14.31c-3-.19-5.56,1.25-8.24,2.23-1.18-3.56-2.38-7.11-3.51-10.68C258.39,3.17,259.16,1,262,.2c2.56-.75,4.24.67,5.11,3.05C268.4,6.92,269.68,10.62,271,14.31Z"/><path class="cls-1" d="M254.49,33l1.89,8.06-9.54,3.41c-2.78,1-5.21.61-6.18-2.46s1.12-4.63,3.76-5.54Z"/><path class="cls-1" d="M869.63,305c2.7,1.18,5.37,2.43,8.4,2.51-1.32,3.11-2.66,6.21-3.93,9.34-1.14,2.79-2.42,5.76-6.13,4.4s-3-4.33-1.82-7.25S868.48,308,869.63,305Z"/><path class="cls-1" d="M889.73,275.31l-7.66-2.63q1.75-4.76,3.53-9.53c1-2.77,2.55-5.1,6-3.71,3,1.23,3,3.79,1.92,6.43C892.25,269,891,272.16,889.73,275.31Z"/><path class="cls-1" d="M289.6,30.24q-1.2-4.15-2.41-8.31c3.25-.93,6.53-1.78,9.74-2.82,2.92-1,5.61-1,6.66,2.37,1,3.08-1.09,4.65-3.84,5.51C296.36,28,293,29.15,289.6,30.24Z"/><path class="cls-1" d="M864.17,280.39c-.75,2.48-1.49,5-2.24,7.44-3.37-1.2-6.76-2.35-10.1-3.62-2.56-1-4-2.84-3-5.61s3.56-3,6-2.14C858,277.63,861.36,278.35,864.17,280.39Z"/></g></g></svg>